<svg xmlns="http://www.w3.org/2000/svg" xmlns:xlink="http://www.w3.org/1999/xlink" width="2283" height="1047" viewBox="0 0 2283 1047">
  <defs>
    <clipPath id="clip-path">
      <rect id="Rectangle_161303" data-name="Rectangle 161303" width="259.545" height="55.353" fill="none"/>
    </clipPath>
  </defs>
  <g id="Group_142070" data-name="Group 142070" transform="translate(830 1839)">
    <g id="Rectangle_161293" data-name="Rectangle 161293" transform="translate(-830 -1839)" fill="#fff" stroke="#707070" stroke-width="1">
      <rect width="2283" height="1047" rx="107" stroke="none"/>
      <rect x="0.5" y="0.5" width="2282" height="1046" rx="106.5" fill="none"/>
    </g>
    <line id="Line_673" data-name="Line 673" x2="1892" transform="translate(-633.5 -988.5)" fill="none" stroke="#000" stroke-width="1" stroke-dasharray="20"/>
    <line id="Line_674" data-name="Line 674" x2="1892" transform="translate(-633.5 -1180.5)" fill="none" stroke="#000" stroke-width="1" stroke-dasharray="20"/>
    <line id="Line_675" data-name="Line 675" x2="1892" transform="translate(-633.5 -1368.5)" fill="none" stroke="#000" stroke-width="1" stroke-dasharray="20"/>
    <path id="Rectangle_161294" data-name="Rectangle 161294" d="M33,0H77a33,33,0,0,1,33,33V295a0,0,0,0,1,0,0H0a0,0,0,0,1,0,0V33A33,33,0,0,1,33,0Z" transform="translate(-532 -1284)" fill="#f57a38"/>
    <path id="Rectangle_161295" data-name="Rectangle 161295" d="M33,0H77a33,33,0,0,1,33,33V148a0,0,0,0,1,0,0H0a0,0,0,0,1,0,0V33A33,33,0,0,1,33,0Z" transform="translate(-151 -1137)" fill="#f57a38"/>
    <path id="Rectangle_161296" data-name="Rectangle 161296" d="M33,0H77a33,33,0,0,1,33,33V419a0,0,0,0,1,0,0H0a0,0,0,0,1,0,0V33A33,33,0,0,1,33,0Z" transform="translate(228.884 -1408)" fill="#f57a38"/>
    <path id="Rectangle_161297" data-name="Rectangle 161297" d="M33,0H77a33,33,0,0,1,33,33V261a0,0,0,0,1,0,0H0a0,0,0,0,1,0,0V33A33,33,0,0,1,33,0Z" transform="translate(992 -1250)" fill="#f57a38"/>
    <path id="Rectangle_161298" data-name="Rectangle 161298" d="M33,0H77a33,33,0,0,1,33,33V460a0,0,0,0,1,0,0H0a0,0,0,0,1,0,0V33A33,33,0,0,1,33,0Z" transform="translate(611 -1449)" fill="#f57a38"/>
    <text id="Our_Partners" data-name="Our Partners" transform="translate(-704 -1646)" font-size="76" font-family="Almarai-Bold, Almarai" font-weight="700"><tspan x="0" y="0">Our Partners</tspan></text>
    <g id="Group_142067" data-name="Group 142067" transform="translate(-606.272 -1363.353)" clip-path="url(#clip-path)">
      <path id="Path_39755" data-name="Path 39755" d="M129.6,13.66V46.872h-5.766V20.81h-.077l-10.3,26.062h-3.844L99.082,20.81H99V46.872H93.7V13.66H102l9.533,24.6h.154l10.071-24.6Zm4.767,2.537a2.924,2.924,0,0,1,1-2.306,3.438,3.438,0,0,1,2.383-.923,3.365,3.365,0,0,1,2.46.923,3.2,3.2,0,0,1,1,2.306,2.924,2.924,0,0,1-1,2.306,3.492,3.492,0,0,1-2.46.923,3.185,3.185,0,0,1-2.383-.923,3.482,3.482,0,0,1-1-2.306M140.6,46.872h-5.612V23.039H140.6Zm16.99-4.075a6.477,6.477,0,0,0,2.768-.615,12.146,12.146,0,0,0,2.768-1.538v5.228a9.809,9.809,0,0,1-3.075,1.153,18.918,18.918,0,0,1-3.767.384,11.293,11.293,0,0,1-8.534-3.306,11.472,11.472,0,0,1-3.306-8.457,13.566,13.566,0,0,1,3.383-9.456c2.23-2.46,5.382-3.69,9.533-3.69a14.15,14.15,0,0,1,3.152.384,10.475,10.475,0,0,1,2.537.923V29.19a11.167,11.167,0,0,0-2.614-1.461,8.833,8.833,0,0,0-2.768-.538,7.012,7.012,0,0,0-5.382,2.153,8.065,8.065,0,0,0-2,5.843,7.693,7.693,0,0,0,2,5.612,7.191,7.191,0,0,0,5.3,2m21.449-20.142a6.214,6.214,0,0,1,1.23.077,7.978,7.978,0,0,1,.923.231v5.689a3.451,3.451,0,0,0-1.307-.615,7.888,7.888,0,0,0-2.076-.308,4.3,4.3,0,0,0-3.46,1.768,8.49,8.49,0,0,0-1.461,5.382V46.872h-5.612V23.039h5.612v3.767h.077a7.242,7.242,0,0,1,2.306-3.075,6.774,6.774,0,0,1,3.767-1.076M181.5,35.34a13.28,13.28,0,0,1,3.306-9.379q3.344-3.46,9.226-3.46c3.69,0,6.612,1.076,8.687,3.306a12.694,12.694,0,0,1,3.152,8.995,13.02,13.02,0,0,1-3.306,9.226c-2.23,2.306-5.228,3.46-9.072,3.46a11.843,11.843,0,0,1-8.764-3.229A12.337,12.337,0,0,1,181.5,35.34m5.843-.231A8.383,8.383,0,0,0,189.03,40.8a6.145,6.145,0,0,0,4.843,2,5.6,5.6,0,0,0,4.69-2c1.076-1.307,1.614-3.229,1.614-5.843a9.272,9.272,0,0,0-1.614-5.843,6.417,6.417,0,0,0-9.379.077,8.422,8.422,0,0,0-1.845,5.92m26.908-5.766a2.44,2.44,0,0,0,.769,1.922,13.15,13.15,0,0,0,3.383,1.691,11.723,11.723,0,0,1,4.69,3,6.228,6.228,0,0,1,1.384,4.075,6.455,6.455,0,0,1-2.614,5.382c-1.691,1.384-4.075,2-7,2a18.214,18.214,0,0,1-3.306-.384,13.3,13.3,0,0,1-3.075-.923V40.568a13.434,13.434,0,0,0,3.306,1.691,10.363,10.363,0,0,0,3.229.615,5.167,5.167,0,0,0,2.768-.538,1.887,1.887,0,0,0,.923-1.768,2.707,2.707,0,0,0-.923-2,14.2,14.2,0,0,0-3.536-1.845,10.573,10.573,0,0,1-4.382-2.921,6.536,6.536,0,0,1-1.307-4.151,6.553,6.553,0,0,1,2.537-5.3,10.155,10.155,0,0,1,6.612-2.076,12.19,12.19,0,0,1,2.768.308c1,.231,1.922.461,2.614.692v5.458a16.561,16.561,0,0,0-2.614-1.307,8.136,8.136,0,0,0-2.921-.538,4.287,4.287,0,0,0-2.46.615,2.456,2.456,0,0,0-.846,1.845m12.608,6a13.28,13.28,0,0,1,3.306-9.379q3.344-3.46,9.226-3.46c3.69,0,6.612,1.076,8.687,3.306a12.694,12.694,0,0,1,3.152,8.995,13.02,13.02,0,0,1-3.306,9.226c-2.23,2.306-5.228,3.46-9.072,3.46a11.843,11.843,0,0,1-8.764-3.229,12.671,12.671,0,0,1-3.229-8.918m5.843-.231a8.383,8.383,0,0,0,1.691,5.689,6.145,6.145,0,0,0,4.843,2,5.6,5.6,0,0,0,4.69-2c1.076-1.307,1.614-3.229,1.614-5.843a9.272,9.272,0,0,0-1.614-5.843,6.417,6.417,0,0,0-9.379.077,8.8,8.8,0,0,0-1.845,5.92m37.21-7.457h-8.38v19.22h-5.689V27.652h-4V23.039h4V19.734a8.291,8.291,0,0,1,8.687-8.534c.692,0,1.307.077,1.845.077a3.672,3.672,0,0,1,1.384.308v4.843a9.419,9.419,0,0,0-1-.384,5.111,5.111,0,0,0-1.614-.231,3.47,3.47,0,0,0-2.691,1.076,4.9,4.9,0,0,0-.923,3.229v2.845h8.38V17.581l5.612-1.691v7.073h5.689v4.613H275.52V38.723a5.117,5.117,0,0,0,.769,3.075,3.2,3.2,0,0,0,2.537.923,3.794,3.794,0,0,0,1.153-.231,4.018,4.018,0,0,0,1.153-.538v4.613a5.362,5.362,0,0,1-1.768.538,13.323,13.323,0,0,1-2.46.231q-3.575,0-5.3-1.845c-1.153-1.23-1.768-3.152-1.768-5.689Z" transform="translate(-21.664 -2.59)"/>
      <rect id="Rectangle_161299" data-name="Rectangle 161299" width="26.293" height="26.293" fill="#f25022"/>
      <rect id="Rectangle_161300" data-name="Rectangle 161300" width="26.293" height="26.293" transform="translate(29.06)" fill="#7fba00"/>
      <rect id="Rectangle_161301" data-name="Rectangle 161301" width="26.293" height="26.293" transform="translate(0 29.06)" fill="#00a4ef"/>
      <rect id="Rectangle_161302" data-name="Rectangle 161302" width="26.293" height="26.293" transform="translate(29.06 29.06)" fill="#ffb900"/>
    </g>
    <g id="Group_142068" data-name="Group 142068" transform="translate(900.455 -1336.853)" clip-path="url(#clip-path)">
      <path id="Path_39756" data-name="Path 39756" d="M129.6,13.66V46.872h-5.766V20.81h-.077l-10.3,26.062h-3.844L99.082,20.81H99V46.872H93.7V13.66H102l9.533,24.6h.154l10.071-24.6Zm4.767,2.537a2.924,2.924,0,0,1,1-2.306,3.438,3.438,0,0,1,2.383-.923,3.365,3.365,0,0,1,2.46.923,3.2,3.2,0,0,1,1,2.306,2.924,2.924,0,0,1-1,2.306,3.492,3.492,0,0,1-2.46.923,3.185,3.185,0,0,1-2.383-.923,3.482,3.482,0,0,1-1-2.306M140.6,46.872h-5.612V23.039H140.6Zm16.99-4.075a6.477,6.477,0,0,0,2.768-.615,12.146,12.146,0,0,0,2.768-1.538v5.228a9.809,9.809,0,0,1-3.075,1.153,18.918,18.918,0,0,1-3.767.384,11.293,11.293,0,0,1-8.534-3.306,11.472,11.472,0,0,1-3.306-8.457,13.566,13.566,0,0,1,3.383-9.456c2.23-2.46,5.382-3.69,9.533-3.69a14.15,14.15,0,0,1,3.152.384,10.475,10.475,0,0,1,2.537.923V29.19a11.167,11.167,0,0,0-2.614-1.461,8.833,8.833,0,0,0-2.768-.538,7.012,7.012,0,0,0-5.382,2.153,8.065,8.065,0,0,0-2,5.843,7.693,7.693,0,0,0,2,5.612,7.191,7.191,0,0,0,5.3,2m21.449-20.142a6.214,6.214,0,0,1,1.23.077,7.978,7.978,0,0,1,.923.231v5.689a3.451,3.451,0,0,0-1.307-.615,7.888,7.888,0,0,0-2.076-.308,4.3,4.3,0,0,0-3.46,1.768,8.49,8.49,0,0,0-1.461,5.382V46.872h-5.612V23.039h5.612v3.767h.077a7.242,7.242,0,0,1,2.306-3.075,6.774,6.774,0,0,1,3.767-1.076M181.5,35.34a13.28,13.28,0,0,1,3.306-9.379q3.344-3.46,9.226-3.46c3.69,0,6.612,1.076,8.687,3.306a12.694,12.694,0,0,1,3.152,8.995,13.02,13.02,0,0,1-3.306,9.226c-2.23,2.306-5.228,3.46-9.072,3.46a11.843,11.843,0,0,1-8.764-3.229A12.337,12.337,0,0,1,181.5,35.34m5.843-.231A8.383,8.383,0,0,0,189.03,40.8a6.145,6.145,0,0,0,4.843,2,5.6,5.6,0,0,0,4.69-2c1.076-1.307,1.614-3.229,1.614-5.843a9.272,9.272,0,0,0-1.614-5.843,6.417,6.417,0,0,0-9.379.077,8.422,8.422,0,0,0-1.845,5.92m26.908-5.766a2.44,2.44,0,0,0,.769,1.922,13.15,13.15,0,0,0,3.383,1.691,11.723,11.723,0,0,1,4.69,3,6.228,6.228,0,0,1,1.384,4.075,6.455,6.455,0,0,1-2.614,5.382c-1.691,1.384-4.075,2-7,2a18.214,18.214,0,0,1-3.306-.384,13.3,13.3,0,0,1-3.075-.923V40.568a13.434,13.434,0,0,0,3.306,1.691,10.363,10.363,0,0,0,3.229.615,5.167,5.167,0,0,0,2.768-.538,1.887,1.887,0,0,0,.923-1.768,2.707,2.707,0,0,0-.923-2,14.2,14.2,0,0,0-3.536-1.845,10.573,10.573,0,0,1-4.382-2.921,6.536,6.536,0,0,1-1.307-4.151,6.553,6.553,0,0,1,2.537-5.3,10.155,10.155,0,0,1,6.612-2.076,12.19,12.19,0,0,1,2.768.308c1,.231,1.922.461,2.614.692v5.458a16.561,16.561,0,0,0-2.614-1.307,8.136,8.136,0,0,0-2.921-.538,4.287,4.287,0,0,0-2.46.615,2.456,2.456,0,0,0-.846,1.845m12.608,6a13.28,13.28,0,0,1,3.306-9.379q3.344-3.46,9.226-3.46c3.69,0,6.612,1.076,8.687,3.306a12.694,12.694,0,0,1,3.152,8.995,13.02,13.02,0,0,1-3.306,9.226c-2.23,2.306-5.228,3.46-9.072,3.46a11.843,11.843,0,0,1-8.764-3.229,12.671,12.671,0,0,1-3.229-8.918m5.843-.231a8.383,8.383,0,0,0,1.691,5.689,6.145,6.145,0,0,0,4.843,2,5.6,5.6,0,0,0,4.69-2c1.076-1.307,1.614-3.229,1.614-5.843a9.272,9.272,0,0,0-1.614-5.843,6.417,6.417,0,0,0-9.379.077,8.8,8.8,0,0,0-1.845,5.92m37.21-7.457h-8.38v19.22h-5.689V27.652h-4V23.039h4V19.734a8.291,8.291,0,0,1,8.687-8.534c.692,0,1.307.077,1.845.077a3.672,3.672,0,0,1,1.384.308v4.843a9.419,9.419,0,0,0-1-.384,5.111,5.111,0,0,0-1.614-.231,3.47,3.47,0,0,0-2.691,1.076,4.9,4.9,0,0,0-.923,3.229v2.845h8.38V17.581l5.612-1.691v7.073h5.689v4.613H275.52V38.723a5.117,5.117,0,0,0,.769,3.075,3.2,3.2,0,0,0,2.537.923,3.794,3.794,0,0,0,1.153-.231,4.018,4.018,0,0,0,1.153-.538v4.613a5.362,5.362,0,0,1-1.768.538,13.323,13.323,0,0,1-2.46.231q-3.575,0-5.3-1.845c-1.153-1.23-1.768-3.152-1.768-5.689Z" transform="translate(-21.664 -2.59)"/>
      <rect id="Rectangle_161304" data-name="Rectangle 161304" width="26.293" height="26.293" fill="#f25022"/>
      <rect id="Rectangle_161305" data-name="Rectangle 161305" width="26.293" height="26.293" transform="translate(29.06)" fill="#7fba00"/>
      <rect id="Rectangle_161306" data-name="Rectangle 161306" width="26.293" height="26.293" transform="translate(0 29.06)" fill="#00a4ef"/>
      <rect id="Rectangle_161307" data-name="Rectangle 161307" width="26.293" height="26.293" transform="translate(29.06 29.06)" fill="#ffb900"/>
    </g>
    <g id="Group_142069" data-name="Group 142069" transform="translate(-119 2061.091)">
      <g id="Group_95" data-name="Group 95" transform="translate(-81.246 -3287.285)">
        <path id="Path_257" data-name="Path 257" d="M23.145,0H0V55.353Zm0,0" fill="#fa0c00"/>
        <path id="Path_258" data-name="Path 258" d="M10.215,0H33.33V55.353Zm0,0" transform="translate(29.215)" fill="#fa0c00"/>
        <path id="Path_259" data-name="Path 259" d="M15.6,5.285,30.334,40.237H20.668l-4.4-11.128H5.484Zm0,0" transform="translate(15.686 15.116)" fill="#fa0c00"/>
      </g>
      <g id="Group_96" data-name="Group 96" transform="translate(-0.282 -3277.371)">
        <path id="Path_260" data-name="Path 260" d="M40.316,25.945l2.729,7.826a.453.453,0,0,0,.467.286H48.76c.287,0,.332-.136.287-.422L38.2,3.523c-.045-.241-.09-.286-.332-.286H31.359c-.181,0-.287.136-.287.332A6.946,6.946,0,0,1,30.65,6.1L20.985,33.589c-.045.332.06.467.332.467h4.689a.478.478,0,0,0,.528-.377l2.579-7.735Zm-9.71-5.112c1.417-4.282,3.287-9.771,4.041-12.907h.045c.935,3.287,3.136,9.8,4.132,12.907Zm0,0" transform="translate(-20.975 -0.658)" fill="#fa0c00"/>
        <path id="Path_261" data-name="Path 261" d="M40.751,36.435a22.236,22.236,0,0,0,8.866-1.824.366.366,0,0,0,.286-.422c-.09-.844-.2-2.066-.2-3V2.84c0-.181,0-.271-.226-.271H44.37c-.2,0-.286.09-.286.332v9.6a16.812,16.812,0,0,0-2.021-.136c-8.248,0-13.314,5.443-13.314,12.244,0,7.886,5.2,11.822,12,11.822Zm3.332-5.247a8.981,8.981,0,0,1-2.729.377c-3.739,0-6.8-2.111-6.8-7.238,0-4.539,3.151-7.223,7.328-7.223a6.1,6.1,0,0,1,2.2.332Zm0,0" transform="translate(1.258 -2.568)" fill="#fa0c00"/>
        <path id="Path_262" data-name="Path 262" d="M46.9,5.108c-7.042,0-11.4,5.4-11.4,12.063,0,5.956,3.468,12,11.294,12,6.619,0,11.264-4.87,11.264-12.153,0-6.423-3.935-11.912-11.158-11.912Zm-.286,4.735c3.981,0,5.67,3.423,5.67,7.328,0,4.825-2.488,7.223-5.383,7.223-3.574,0-5.685-3-5.685-7.328,0-4.448,2.247-7.223,5.4-7.223Zm0,0" transform="translate(20.569 4.694)" fill="#fa0c00"/>
        <path id="Path_263" data-name="Path 263" d="M42.959,2.568a.3.3,0,0,0-.332.332V34.987a.5.5,0,0,0,.332.422,23.723,23.723,0,0,0,7.027,1.025c6.951,0,13.706-4.312,13.706-13,0-6.288-4.312-11.068-11.068-11.068a13.546,13.546,0,0,0-4.267.663L48.3,2.945c0-.332-.09-.377-.422-.377ZM57.917,24.01c0,5.2-3.559,7.645-7.4,7.645a7.442,7.442,0,0,1-2.156-.241V17.722a8.348,8.348,0,0,1,3.272-.528c3.709,0,6.288,2.352,6.288,6.815Zm0,0" transform="translate(40.952 -2.568)" fill="#fa0c00"/>
        <path id="Path_264" data-name="Path 264" d="M64.321,18.437a33.5,33.5,0,0,0,4.825-.2c.241-.045.332-.136.377-.332a14.243,14.243,0,0,0,.2-2.9c0-4.463-2.684-9.907-9.62-9.907-7.087,0-11.022,5.775-11.022,12.289,0,5.775,3.046,11.776,11.58,11.776A15.575,15.575,0,0,0,67.7,27.816a.5.5,0,0,0,.271-.513V23.4c0-.226-.136-.271-.271-.181a14.73,14.73,0,0,1-5.82,1.131c-4.78,0-6.951-2.639-7.087-5.911ZM54.792,14.4c.377-2.292,1.825-4.78,5.066-4.78a4.337,4.337,0,0,1,4.508,4.358v.377a23.956,23.956,0,0,1-2.578.045Zm0,0" transform="translate(59.399 4.694)" fill="#fa0c00"/>
      </g>
      <rect id="Rectangle_3274" data-name="Rectangle 3274" width="212" height="60" transform="translate(-83 -3289.091)" fill="#fff" style="mix-blend-mode: color;isolation: isolate"/>
      <path id="Path_257-2" data-name="Path 257" d="M23.145,0H0V55.353Zm0,0" transform="translate(-81.246 -3287.285)" fill="#fa0c00"/>
      <path id="Path_258-2" data-name="Path 258" d="M10.215,0H33.33V55.353Zm0,0" transform="translate(-52.031 -3287.285)" fill="#fa0c00"/>
      <path id="Path_259-2" data-name="Path 259" d="M15.6,5.285,30.334,40.237H20.668l-4.4-11.128H5.484Zm0,0" transform="translate(-65.561 -3272.169)" fill="#fa0c00"/>
      <path id="Path_260-2" data-name="Path 260" d="M40.316,25.945l2.729,7.826a.453.453,0,0,0,.467.286H48.76c.287,0,.332-.136.287-.422L38.2,3.523c-.045-.241-.09-.286-.332-.286H31.359c-.181,0-.287.136-.287.332A6.946,6.946,0,0,1,30.65,6.1L20.985,33.589c-.045.332.06.467.332.467h4.689a.478.478,0,0,0,.528-.377l2.579-7.735Zm-9.71-5.112c1.417-4.282,3.287-9.771,4.041-12.907h.045c.935,3.287,3.136,9.8,4.132,12.907Zm0,0" transform="translate(-21.257 -3278.029)" fill="#fa0c00"/>
      <path id="Path_261-2" data-name="Path 261" d="M40.751,36.435a22.236,22.236,0,0,0,8.866-1.824.366.366,0,0,0,.286-.422c-.09-.844-.2-2.066-.2-3V2.84c0-.181,0-.271-.226-.271H44.37c-.2,0-.286.09-.286.332v9.6a16.812,16.812,0,0,0-2.021-.136c-8.248,0-13.314,5.443-13.314,12.244,0,7.886,5.2,11.822,12,11.822Zm3.332-5.247a8.981,8.981,0,0,1-2.729.377c-3.739,0-6.8-2.111-6.8-7.238,0-4.539,3.151-7.223,7.328-7.223a6.1,6.1,0,0,1,2.2.332Zm0,0" transform="translate(0.976 -3279.939)" fill="#fa0c00"/>
      <path id="Path_262-2" data-name="Path 262" d="M46.9,5.108c-7.042,0-11.4,5.4-11.4,12.063,0,5.956,3.468,12,11.294,12,6.619,0,11.264-4.87,11.264-12.153,0-6.423-3.935-11.912-11.158-11.912Zm-.286,4.735c3.981,0,5.67,3.423,5.67,7.328,0,4.825-2.488,7.223-5.383,7.223-3.574,0-5.685-3-5.685-7.328,0-4.448,2.247-7.223,5.4-7.223Zm0,0" transform="translate(20.287 -3272.677)" fill="#fa0c00"/>
      <path id="Path_263-2" data-name="Path 263" d="M42.959,2.568a.3.3,0,0,0-.332.332V34.987a.5.5,0,0,0,.332.422,23.723,23.723,0,0,0,7.027,1.025c6.951,0,13.706-4.312,13.706-13,0-6.288-4.312-11.068-11.068-11.068a13.546,13.546,0,0,0-4.267.663L48.3,2.945c0-.332-.09-.377-.422-.377ZM57.917,24.01c0,5.2-3.559,7.645-7.4,7.645a7.442,7.442,0,0,1-2.156-.241V17.722a8.348,8.348,0,0,1,3.272-.528c3.709,0,6.288,2.352,6.288,6.815Zm0,0" transform="translate(40.671 -3279.939)" fill="#fa0c00"/>
      <path id="Path_264-2" data-name="Path 264" d="M64.321,18.437a33.5,33.5,0,0,0,4.825-.2c.241-.045.332-.136.377-.332a14.243,14.243,0,0,0,.2-2.9c0-4.463-2.684-9.907-9.62-9.907-7.087,0-11.022,5.775-11.022,12.289,0,5.775,3.046,11.776,11.58,11.776A15.575,15.575,0,0,0,67.7,27.816a.5.5,0,0,0,.271-.513V23.4c0-.226-.136-.271-.271-.181a14.73,14.73,0,0,1-5.82,1.131c-4.78,0-6.951-2.639-7.087-5.911ZM54.792,14.4c.377-2.292,1.825-4.78,5.066-4.78a4.337,4.337,0,0,1,4.508,4.358v.377a23.956,23.956,0,0,1-2.578.045Zm0,0" transform="translate(59.118 -3272.677)" fill="#fa0c00"/>
    </g>
    <path id="Microsoft_Windows-Logo.wine" d="M112.234,11.554l-9.054,32.052h-4.4L92.184,20.182a14.671,14.671,0,0,1-.514-3.263h-.089A16.582,16.582,0,0,1,91,20.138L84.363,43.606H80L70.616,11.554H74.75L81.568,36.14A16.176,16.176,0,0,1,82.1,39.36h.112a18.861,18.861,0,0,1,.692-3.219l7.086-24.586h3.6l6.794,24.766a18.219,18.219,0,0,1,.537,2.995h.089a17.84,17.84,0,0,1,.6-3.084l6.549-24.675h4.069Zm5.048,3.352a2.321,2.321,0,0,1-1.677-.671,2.262,2.262,0,0,1-.692-1.7,2.344,2.344,0,0,1,2.368-2.392,2.378,2.378,0,0,1,1.711.681,2.39,2.39,0,0,1,0,3.388A2.347,2.347,0,0,1,117.283,14.906Zm1.788,28.7H115.4V20.717h3.666Zm24.635,0H140.04V30.554q0-7.286-5.319-7.286a5.772,5.772,0,0,0-4.549,2.068,7.658,7.658,0,0,0-1.8,5.219V43.606h-3.666V20.717h3.666v3.8h.089a8.26,8.26,0,0,1,7.51-4.335,7,7,0,0,1,5.744,2.425q1.991,2.425,1.989,7.007V43.606h0Zm26.077,0h-3.666v-3.89h-.089a9.234,9.234,0,0,1-14.763,1.352Q148.684,38,148.682,32.7q0-5.677,2.862-9.1a9.431,9.431,0,0,1,7.623-3.42,7.338,7.338,0,0,1,6.861,3.71h.089V9.721h3.666Zm-3.665-10.348V29.882a6.562,6.562,0,0,0-1.832-4.694,6.154,6.154,0,0,0-4.65-1.922,6.33,6.33,0,0,0-5.275,2.459,10.777,10.777,0,0,0-1.923,6.795,9.685,9.685,0,0,0,1.844,6.247,6.024,6.024,0,0,0,4.95,2.291,6.258,6.258,0,0,0,4.974-2.213,8.246,8.246,0,0,0,1.911-5.585Zm19.689,10.884a10.614,10.614,0,0,1-8.1-3.207,11.88,11.88,0,0,1-3.028-8.505q0-5.766,3.152-9.007a11.325,11.325,0,0,1,8.516-3.243,10.262,10.262,0,0,1,7.99,3.152q2.872,3.149,2.872,8.739a12.3,12.3,0,0,1-3.1,8.773A10.847,10.847,0,0,1,185.806,44.142Zm.268-20.876a6.967,6.967,0,0,0-5.587,2.4,9.866,9.866,0,0,0-2.056,6.627,9.325,9.325,0,0,0,2.08,6.415,7.066,7.066,0,0,0,5.565,2.346,6.7,6.7,0,0,0,5.466-2.3,9.987,9.987,0,0,0,1.911-6.548,10.165,10.165,0,0,0-1.911-6.617A6.681,6.681,0,0,0,186.075,23.266Zm44.164-2.548-6.861,22.888h-3.8l-4.715-16.384A10.529,10.529,0,0,1,214.5,25.1h-.089a10.033,10.033,0,0,1-.469,2.079l-5.117,16.428h-3.667L198.233,20.72h3.844l4.737,17.209a10.466,10.466,0,0,1,.313,2.056h.179a9.643,9.643,0,0,1,.4-2.1l5.275-17.166h3.352l4.738,17.255a12.576,12.576,0,0,1,.336,2.056h.179a9.468,9.468,0,0,1,.379-2.056l4.65-17.255Zm1.7,22.06V38.844a10.838,10.838,0,0,0,6.593,2.213q4.829,0,4.828-3.219a2.8,2.8,0,0,0-.412-1.554,4.13,4.13,0,0,0-1.117-1.129,8.648,8.648,0,0,0-1.653-.883q-1.019-.417-2.045-.816a26.09,26.09,0,0,1-2.671-1.219,8.068,8.068,0,0,1-1.923-1.386,5.164,5.164,0,0,1-1.163-1.756,6.206,6.206,0,0,1-.391-2.3,5.483,5.483,0,0,1,.736-2.85,6.569,6.569,0,0,1,1.967-2.079,9.2,9.2,0,0,1,2.807-1.264,12.455,12.455,0,0,1,3.25-.423,13.165,13.165,0,0,1,5.321,1.028v3.71a10.38,10.38,0,0,0-5.812-1.654,6.755,6.755,0,0,0-1.855.236,4.523,4.523,0,0,0-1.419.659,3.059,3.059,0,0,0-.916,1.016,2.675,2.675,0,0,0-.324,1.308,3.137,3.137,0,0,0,.324,1.5,3.317,3.317,0,0,0,.95,1.072,7.356,7.356,0,0,0,1.52.848q.9.381,2.037.828a29.171,29.171,0,0,1,2.725,1.2,9.342,9.342,0,0,1,2.056,1.386,5.456,5.456,0,0,1,1.308,1.776,5.757,5.757,0,0,1,.458,2.392,5.628,5.628,0,0,1-.748,2.951,6.4,6.4,0,0,1-2,2.078,9.157,9.157,0,0,1-2.884,1.23,14.208,14.208,0,0,1-3.419.4,12.936,12.936,0,0,1-6.128-1.36ZM54.574,0,24.2,4.432V26.444H54.573ZM0,7.961V26.444H22.057V4.743ZM0,47.3l22.057,3.254V28.583H0Zm54.574,8.051V28.583H24.2V50.873Z" transform="translate(160.884 -1504.353)" fill="#0078d6"/>
    <path id="Kaspersky_logo" d="M130.881,32.375c0,10.425-6.371,15.371-14.346,15.371h-4.856V41.464h4.5c4.812,0,8.02-2.584,8.02-9.133,0-6.46-3.03-9.668-8.153-9.668-4.945,0-8.465,3.03-8.465,9.534v26.2H100.9V17.227h6.638v3.564h.936a10.781,10.781,0,0,1,8.911-4.322C124.732,16.47,130.881,21.816,130.881,32.375ZM87.218,29.658l-4.411-.446c-3.475-.312-5.3-1.247-5.3-3.3,0-2.406,2.361-3.787,5.7-3.787,3.475,0,5.7,1.648,5.881,3.965h6.371c-.267-5.97-4.856-9.623-12.208-9.623-7.4,0-12.386,3.921-12.386,9.668,0,4.812,3.03,7.93,9.935,8.6l4.5.446c2.718.267,4.544.8,4.544,3.431,0,2.361-1.693,4.054-6.193,4.054-4.143,0-6.193-1.871-6.906-4.411H69.843c.668,5.747,5.525,10.2,13.811,10.2,7.8,0,12.831-4.1,12.831-10.2C96.441,32.955,92.921,30.192,87.218,29.658ZM156.588,38.3c-1.025,2.406-3.52,4.188-7.084,4.188-4.856,0-8.465-3.163-8.465-9.98,0-6.5,3.341-10.114,8.554-10.114,4.634,0,7.262,2.762,7.529,6.95h-11.94v4.812h18.49V30.994c0-8.777-5.836-14.48-14.123-14.48-7.708,0-15.1,5.257-15.1,15.995s7.4,15.995,15.1,15.995a13.678,13.678,0,0,0,13.678-10.2h-6.638ZM51.843,16.47c-7.262,0-12.7,3.787-13.366,9.623h7.129c.49-2.139,2.45-3.742,6.193-3.742,4.812,0,6.371,2.54,6.371,5.614V38.39c-2.718,3.119-5.881,4.544-9.044,4.544-3.3,0-5.569-1.6-5.569-4.411,0-2.718,1.782-4.411,5.168-4.411h5.3V29.346H48.5c-7.574,0-11.851,3.787-11.851,9.623,0,5.435,4.1,9.534,10.871,9.534a16.465,16.465,0,0,0,9.623-3.341h.936v2.584h6.638V27.386C64.9,19.856,59.774,16.47,51.843,16.47ZM6.8,47.746h6.638V6H6.8ZM34.69,17.227H26.582L16.914,29.97v3.965l9.935,13.811h8.242L23.418,31.93Zm240.186,0L269.441,29.3a43.216,43.216,0,0,0-2.985,7.663h-.936a43.462,43.462,0,0,0-3.03-7.574l-5.435-12.163H249.7l12.787,27.4-6.327,13.811h7.084l18.98-41.212Zm-26.643,0h-8.109l-9.668,12.7V33.89L240.392,47.7h8.242L237.006,31.885Zm-41.613,12.43-4.411-.446c-3.475-.312-5.3-1.247-5.3-3.3,0-2.406,2.361-3.787,5.7-3.787,3.475,0,5.7,1.648,5.881,3.965h6.371c-.267-5.97-4.856-9.623-12.208-9.623-7.4,0-12.386,3.921-12.386,9.668,0,4.812,3.03,7.93,9.935,8.6l4.5.446c2.718.267,4.544.8,4.544,3.431,0,2.361-1.693,4.054-6.193,4.054-4.143,0-6.193-1.871-6.906-4.411h-6.906c.668,5.747,5.525,10.2,13.811,10.2,7.8,0,12.831-4.1,12.831-10.2C215.888,32.955,212.324,30.192,206.621,29.658Zm13.722,18.089h6.638V6h-6.638ZM176.5,20.792h-.936V17.227h-6.638V47.746h6.638V31.8c0-5.435,2.495-8.6,7.485-8.6h4.188V16.47h-2.45C180.2,16.47,178.241,18.208,176.5,20.792Z" transform="translate(521.486 -1537.939)" fill="#009982"/>
    <text id="Office" transform="translate(-540 -912)" fill="#140606" font-size="50" font-family="Almarai-Regular, Almarai"><tspan x="0" y="0">Office</tspan></text>
    <text id="Adobe" transform="translate(-167 -912)" fill="#140606" font-size="50" font-family="Almarai-Regular, Almarai"><tspan x="0" y="0">Adobe</tspan></text>
    <text id="Microsoft" transform="translate(947 -912)" fill="#140606" font-size="50" font-family="Almarai-Regular, Almarai"><tspan x="0" y="0">Microsoft</tspan></text>
    <text id="_Windows" data-name=" Windows" transform="translate(177 -912)" fill="#140606" font-size="50" font-family="Almarai-Regular, Almarai"><tspan x="0" y="0" xml:space="preserve"> Windows</tspan></text>
    <text id="kaspersky" transform="translate(555.5 -913)" fill="#140606" font-size="50" font-family="Almarai-Regular, Almarai"><tspan x="0" y="0">kaspersky</tspan></text>
    <rect id="Rectangle_161309" data-name="Rectangle 161309" width="376" height="32" rx="16" transform="translate(-698 -1617)" fill="#ecf0f5"/>
    <rect id="Rectangle_161310" data-name="Rectangle 161310" width="462" height="150" rx="16" transform="translate(866 -1707)" fill="#ecf0f5"/>
  </g>
</svg>
