<svg id="Group_141522" data-name="Group 141522" xmlns="http://www.w3.org/2000/svg" xmlns:xlink="http://www.w3.org/1999/xlink" width="861.016" height="635.326" viewBox="0 0 861.016 635.326">
  <defs>
    <clipPath id="clip-path">
      <rect id="Rectangle_3279" data-name="Rectangle 3279" width="861.016" height="635.326" fill="none"/>
    </clipPath>
    <clipPath id="clip-path-2">
      <rect id="Rectangle_3282" data-name="Rectangle 3282" width="614.98" height="445.473" fill="none"/>
    </clipPath>
  </defs>
  <line id="Line_32" data-name="Line 32" x2="668.669" transform="translate(94.871 165.201)" fill="none" stroke="#ded8d5" stroke-miterlimit="10" stroke-width="1.968"/>
  <g id="Group_7788" data-name="Group 7788">
    <g id="Group_7787" data-name="Group 7787" clip-path="url(#clip-path)">
      <rect id="Rectangle_3276" data-name="Rectangle 3276" width="668.669" height="413.713" rx="6.521" transform="translate(94.871 121.368)" fill="none" stroke="#ded8d5" stroke-miterlimit="10" stroke-width="1.968"/>
      <path id="Path_12303" data-name="Path 12303" d="M106.858,108.889a6.117,6.117,0,1,1-6.117-6.117,6.116,6.116,0,0,1,6.117,6.117" transform="translate(32.08 34.843)" fill="#ffb1a5"/>
      <path id="Path_12304" data-name="Path 12304" d="M124.61,108.889a6.117,6.117,0,1,1-6.117-6.117,6.116,6.116,0,0,1,6.117,6.117" transform="translate(38.099 34.843)" fill="#ead254"/>
      <path id="Path_12305" data-name="Path 12305" d="M142.363,108.889a6.116,6.116,0,1,1-6.117-6.117,6.116,6.116,0,0,1,6.117,6.117" transform="translate(44.118 34.843)" fill="#00857b"/>
      <path id="Path_12306" data-name="Path 12306" d="M676.912,274.493H519.761a8.023,8.023,0,0,1-8.022-8.022V121.131a8.022,8.022,0,0,1,8.022-8.022H676.912a8.022,8.022,0,0,1,8.022,8.022V266.47a8.022,8.022,0,0,1-8.022,8.022" transform="translate(173.494 38.347)" fill="#ededed"/>
      <rect id="Rectangle_3277" data-name="Rectangle 3277" width="173.195" height="161.384" rx="5.991" transform="translate(685.232 151.456)" fill="none" stroke="#ded8d5" stroke-miterlimit="10" stroke-width="1.968"/>
      <path id="Path_12307" data-name="Path 12307" d="M548.145,223.311h81.678a8.063,8.063,0,0,0,8.064-8.064V148.308a8.063,8.063,0,0,0-8.064-8.062H548.145a8.063,8.063,0,0,0-8.064,8.062v66.939a8.063,8.063,0,0,0,8.064,8.064" transform="translate(183.102 47.547)" fill="#c1272d"/>
      <path id="Path_12308" data-name="Path 12308" d="M604.693,189.241H559.557v-30.27h45.136v30.27Z" transform="translate(189.705 53.896)" fill="none" stroke="#fff" stroke-linecap="round" stroke-linejoin="round" stroke-width="1.647"/>
      <path id="Path_12309" data-name="Path 12309" d="M559.557,158.972l22.568,17.785,22.568-17.785" transform="translate(189.705 53.896)" fill="none" stroke="#fff" stroke-linecap="round" stroke-linejoin="round" stroke-width="1.647"/>
      <path id="Path_12310" data-name="Path 12310" d="M158.506,361.479H8.634a7.65,7.65,0,0,1-7.65-7.65V223.16a7.65,7.65,0,0,1,7.65-7.65H158.506a7.65,7.65,0,0,1,7.65,7.65V353.829a7.65,7.65,0,0,1-7.65,7.65" transform="translate(0.334 73.064)" fill="#ededed"/>
      <rect id="Rectangle_3278" data-name="Rectangle 3278" width="165.172" height="145.969" rx="5.713" transform="translate(1.318 288.574)" fill="none" stroke="#ded8d5" stroke-miterlimit="10" stroke-width="1.968"/>
      <path id="Path_12311" data-name="Path 12311" d="M113.325,327.027H35.6a8.89,8.89,0,0,1-8.89-8.89V243.07a8.889,8.889,0,0,1,8.89-8.89h77.729a8.889,8.889,0,0,1,8.89,8.89v75.067a8.89,8.89,0,0,1-8.89,8.89" transform="translate(9.054 79.393)" fill="#f7931e"/>
      <path id="Path_12312" data-name="Path 12312" d="M50.537,257.228a27,27,0,1,0,38.186,0,27.112,27.112,0,0,0-38.186,0m38.126,3.888H80.056a54.376,54.376,0,0,0-3.345-8.109,24.393,24.393,0,0,1,11.952,8.109M59.715,274.744A43.607,43.607,0,0,1,61,264.276H78.269a43.808,43.808,0,0,1,1.279,10.469ZM79.442,277.9a51.459,51.459,0,0,1-1.857,10.469H61.677A51.253,51.253,0,0,1,59.822,277.9Zm-9.81-25.941a24.553,24.553,0,0,1,3.815.3,49.751,49.751,0,0,1,3.914,8.858H61.9a49.663,49.663,0,0,1,3.915-8.858,24.558,24.558,0,0,1,3.816-.3m-7.081,1.046a54.668,54.668,0,0,0-3.346,8.109H50.6a24.387,24.387,0,0,1,11.952-8.109m-14.1,11.268H58.31a46.883,46.883,0,0,0-1.381,10.469H45.322a24.2,24.2,0,0,1,3.132-10.469m0,24.1A24.21,24.21,0,0,1,45.322,277.9H56.978a50.68,50.68,0,0,0,1.644,10.469Zm2.145,3.157h8.955a65.217,65.217,0,0,0,3.327,8.208A24.376,24.376,0,0,1,50.6,291.529m19.033,9.156a24.611,24.611,0,0,1-3.192-.208,72.8,72.8,0,0,1-3.776-8.949H76.6a73.014,73.014,0,0,1-3.776,8.949,24.555,24.555,0,0,1-3.19.208m6.747-.948a65.228,65.228,0,0,0,3.329-8.208h8.955a24.379,24.379,0,0,1-12.284,8.208m14.428-11.366H80.639A50.671,50.671,0,0,0,82.286,277.9H93.941a24.217,24.217,0,0,1-3.133,10.469m3.133-13.627H82.333a46.964,46.964,0,0,0-1.382-10.469h9.857a24.205,24.205,0,0,1,3.133,10.469" transform="translate(14.467 84.541)" fill="#fff"/>
      <path id="Path_12313" data-name="Path 12313" d="M147.616,64.7H11.841a5.079,5.079,0,1,1,0-10.158H147.616a5.079,5.079,0,1,1,0,10.158" transform="translate(2.293 18.491)" fill="#f7931e"/>
      <path id="Path_12314" data-name="Path 12314" d="M657.2,312.384h-65.9a5.079,5.079,0,0,1,0-10.158h65.9a5.079,5.079,0,0,1,0,10.158" transform="translate(198.743 102.463)" fill="#f7931e"/>
      <path id="Path_12315" data-name="Path 12315" d="M607.764,357.543h-8.053a3.831,3.831,0,0,1-3.831-3.831v-7.56a3.831,3.831,0,0,1,3.831-3.831h8.053a3.831,3.831,0,0,1,3.831,3.831v7.56a3.831,3.831,0,0,1-3.831,3.831" transform="translate(202.02 116.056)" fill="#f7931e"/>
      <path id="Path_12316" data-name="Path 12316" d="M37.716,383.821H29.663a3.831,3.831,0,0,1-3.831-3.831v-7.56a3.831,3.831,0,0,1,3.831-3.831h8.053a3.831,3.831,0,0,1,3.831,3.831v7.56a3.831,3.831,0,0,1-3.831,3.831" transform="translate(8.758 124.965)" fill="#f7931e"/>
      <path id="Path_12317" data-name="Path 12317" d="M529.934,68.537H395.919a4.033,4.033,0,0,1-4.032-4.033V31.783a4.033,4.033,0,0,1,4.032-4.033H529.934a4.034,4.034,0,0,1,4.033,4.033V64.5a4.034,4.034,0,0,1-4.033,4.033" transform="translate(132.86 9.408)" fill="#f7931e"/>
      <line id="Line_33" data-name="Line 33" x2="95.309" transform="translate(544.1 51.692)" fill="none" stroke="#fff" stroke-miterlimit="10" stroke-width="1.18"/>
      <line id="Line_34" data-name="Line 34" x2="38.821" transform="translate(544.1 61.474)" fill="none" stroke="#fff" stroke-miterlimit="10" stroke-width="1.18"/>
      <path id="Path_12318" data-name="Path 12318" d="M403.445,54.764v15.9l19.99-15.9Z" transform="translate(136.779 18.567)" fill="#f7931e"/>
      <path id="Path_12319" data-name="Path 12319" d="M268.4,80.371H203.53a11.408,11.408,0,0,1-11.409-11.409V8.65A8.649,8.649,0,0,1,200.77,0H268.4a8.65,8.65,0,0,1,8.65,8.65V71.721a8.65,8.65,0,0,1-8.65,8.65" transform="translate(65.134)" fill="#56dfed"/>
      <path id="Path_12320" data-name="Path 12320" d="M248.263,41.621l-4.835-4.835a4.24,4.24,0,0,0-3.109-1.469A4.478,4.478,0,0,0,237.21,36.7l-2.764,2.764-.518-.26a8.093,8.093,0,0,1-.864-.431,29.809,29.809,0,0,1-7.168-6.564,15.691,15.691,0,0,1-2.246-3.54c.691-.6,1.3-1.295,1.9-1.9l.778-.777A4.575,4.575,0,0,0,227.8,22.8a4.575,4.575,0,0,0-1.468-3.2l-2.418-2.418a7.612,7.612,0,0,1-.778-.864l-1.64-1.64a4.478,4.478,0,0,0-3.109-1.382,4.284,4.284,0,0,0-3.109,1.382L212.252,17.7a6.951,6.951,0,0,0-1.986,4.233,15.741,15.741,0,0,0,1.122,6.563,35.348,35.348,0,0,0,6.737,11.313,41.969,41.969,0,0,0,13.817,10.8,22.927,22.927,0,0,0,7.772,2.331h.605a6.852,6.852,0,0,0,5.181-2.246l.087-.086a13.192,13.192,0,0,1,1.555-1.555l1.122-1.123a4.331,4.331,0,0,0,0-6.3m-1.986,4.491-1.036,1.036c-.6.518-1.122,1.122-1.727,1.727A4.1,4.1,0,0,1,240.4,50.17h-.431a18.2,18.2,0,0,1-6.737-2.073,39.318,39.318,0,0,1-12.867-10.1,37.443,37.443,0,0,1-6.3-10.45,10.7,10.7,0,0,1-1.036-5.355,3.64,3.64,0,0,1,1.209-2.5l2.935-2.936a1.816,1.816,0,0,1,1.209-.605,1.65,1.65,0,0,1,1.209.605l1.555,1.555a8.336,8.336,0,0,0,.864.864l2.418,2.418a2.028,2.028,0,0,1,.6,1.209,1.818,1.818,0,0,1-.6,1.209l-.778.777-2.159,2.159-.086.087a1.89,1.89,0,0,0-.518,2.159v.087a19.879,19.879,0,0,0,2.849,4.662A32.011,32.011,0,0,0,231.6,41.1a7.084,7.084,0,0,0,1.122.605,7.967,7.967,0,0,1,.864.431l.087.087a1.985,1.985,0,0,0,2.418-.433l3.022-3.022a1.424,1.424,0,0,1,2.331,0l4.837,4.837a1.636,1.636,0,0,1,0,2.5" transform="translate(71.277 4.507)" fill="#fff"/>
    </g>
  </g>
  <g id="Group_7790" data-name="Group 7790" transform="translate(156.464 88.526)">
    <g id="Group_7789" data-name="Group 7789" clip-path="url(#clip-path-2)">
      <path id="Path_12321" data-name="Path 12321" d="M485.981,288.926,437.1,282.417l.382,4.854L395.7,292.836s-26.937,67.579-3.2,216.206h33.993l12.235-150.706h4.345l11.85,150.706h33.993c23.741-148.627-2.935-220.116-2.935-220.116" transform="translate(-26.712 7.221)" fill="#8e716c"/>
      <line id="Line_35" data-name="Line 35" x2="35.465" transform="translate(396.475 365.558)" fill="none" stroke="#282828" stroke-linecap="round" stroke-linejoin="round" stroke-width="1.233"/>
      <path id="Path_12322" data-name="Path 12322" d="M488.957,235.706c-4.182-6.675-27.671-6.438-28.911-6.584-6.35-.744,4.072,49.786,17.281,93.956a14.83,14.83,0,0,0,19.988,9.428l.264-.111a14.849,14.849,0,0,0,8.805-16.431c-6.283-33.33-12.592-72.539-17.427-80.257" transform="translate(-1.144 -10.85)" fill="#ffb1a5"/>
      <path id="Path_12323" data-name="Path 12323" d="M493.639,250.3l-29.99,11.637-2.812-14.23,31.055-7.746Z" transform="translate(-0.228 -7.172)" fill="#f3978e"/>
      <path id="Path_12324" data-name="Path 12324" d="M493,272.139s-14.207,19.08-13.53,18.2,11.141-30.834,11.141-30.834Z" transform="translate(6.08 -0.545)" fill="#f3978e"/>
      <path id="Path_12325" data-name="Path 12325" d="M515.835,249.788l-40.723,52.763a14.974,14.974,0,1,0,25.018,16.283l33.9-62.538Z" transform="translate(3.554 -3.841)" fill="#ffb1a5"/>
      <path id="Path_12326" data-name="Path 12326" d="M515.552,268.208A16.8,16.8,0,1,1,536.7,257.388a16.8,16.8,0,0,1-21.149,10.821" transform="translate(14.376 -8.712)" fill="#ffb1a5"/>
      <path id="Path_12327" data-name="Path 12327" d="M532.757,242.892s4.6-4.774-3.558-8.118-18.238-2.578-24.674,13.053Z" transform="translate(14.584 -9.477)" fill="#ffb1a5"/>
      <path id="Path_12328" data-name="Path 12328" d="M538.333,215.565l17.051,7.393a1.759,1.759,0,0,1,.771,2.512l-22.431,41.9a2.145,2.145,0,0,1-2.663,1.023L514.01,261a1.758,1.758,0,0,1-.771-2.512l22.431-41.9a2.145,2.145,0,0,1,2.663-1.023" transform="translate(17.455 -15.494)" fill="#372f5f"/>
      <path id="Path_12329" data-name="Path 12329" d="M537.116,215.011l17.051,7.393a1.758,1.758,0,0,1,.771,2.512l-22.431,41.9a2.145,2.145,0,0,1-2.663,1.023l-17.051-7.393a1.759,1.759,0,0,1-.771-2.512l22.431-41.9a2.145,2.145,0,0,1,2.663-1.023" transform="translate(17.043 -15.682)" fill="#261b43"/>
      <path id="Path_12330" data-name="Path 12330" d="M533.894,218.157l14.982,6.5L530.594,258.8,515.612,252.3Z" transform="translate(18.343 -14.565)" fill="#e6e6e6"/>
      <path id="Path_12331" data-name="Path 12331" d="M548.876,224.652,515.613,252.3l18.28-34.147Z" transform="translate(18.343 -14.565)" fill="#fff"/>
      <path id="Path_12332" data-name="Path 12332" d="M522.759,233.327a27.183,27.183,0,0,1,7.223,2.682,3.832,3.832,0,0,1-1.373,7.156l-8.864,1.118s-4.625,7.971-10.668,8.867l5.544-14Z" transform="translate(16.127 -9.422)" fill="#ffb1a5"/>
      <path id="Path_12333" data-name="Path 12333" d="M454.29,184.417c-.979-.005,62.862,8.834,73.4,81.62l-33.126,5.075-6.679,54.948H395.465L377.118,224.537s20.475-29.343,58.491-40.12Z" transform="translate(-28.611 -26.003)" fill="#c1272d"/>
      <line id="Line_36" data-name="Line 36" y1="31.78" x2="2.875" transform="translate(465.948 213.328)" fill="none" stroke="#282828" stroke-linecap="round" stroke-linejoin="round" stroke-width="1.233"/>
      <path id="Path_12334" data-name="Path 12334" d="M448.8,191.6V166.313H419.171v25.579a57.544,57.544,0,0,0-7.959,3.228l23.108,13.764,23.623-13.765A38.543,38.543,0,0,0,448.8,191.6" transform="translate(-17.052 -32.141)" fill="#ffb1a5"/>
      <path id="Path_12335" data-name="Path 12335" d="M416.951,170.591s5.321,14.129,19.526,12.91c13.054-1.122,10.977-20.7,10.977-20.7Z" transform="translate(-15.106 -33.332)" fill="#282828"/>
      <path id="Path_12336" data-name="Path 12336" d="M410.248,159.08c-4.644,4.213-15.028-11.765-10.541-16.25s7.91,2.552,7.91,2.552l2,4.768,1.512,6.459.359,1.691Z" transform="translate(-21.325 -40.609)" fill="#f3978e"/>
      <path id="Path_12337" data-name="Path 12337" d="M401.049,146.737s3.515-1.581,6.638,3.515" transform="translate(-20.497 -38.857)" fill="none" stroke="#282828" stroke-linecap="round" stroke-linejoin="round" stroke-width="0.993"/>
      <path id="Path_12338" data-name="Path 12338" d="M448.611,158.544c4.271,4.59,15.969-10.451,11.877-15.3s-8.1,1.875-8.1,1.875l-2.4,4.582-2.053,6.308-.5,1.655Z" transform="translate(-4.77 -40.558)" fill="#f3978e"/>
      <path id="Path_12339" data-name="Path 12339" d="M456.963,146.964s-3.369-1.873-6.911,2.94" transform="translate(-3.884 -38.823)" fill="none" stroke="#282828" stroke-linecap="round" stroke-linejoin="round" stroke-width="0.993"/>
      <path id="Path_12340" data-name="Path 12340" d="M401.218,140.066c0,21.149,16.125,31.179,36.015,31.179s36.016-10.031,36.016-31.179-16.125-35.535-36.016-35.535-36.015,14.388-36.015,35.535" transform="translate(-20.44 -53.087)" fill="#282828"/>
      <path id="Path_12341" data-name="Path 12341" d="M404.88,140.307a144.655,144.655,0,0,0,3.665,32.138c1.793,7.785,6.838,13.226,13.967,17.606l1.3.8a24.511,24.511,0,0,0,24.949.277c7.723-4.5,13.132-10.44,14.8-18.795a211.377,211.377,0,0,0,3.358-32.023s2.88-32.775-30.574-32.138-31.46,32.138-31.46,32.138" transform="translate(-19.206 -51.856)" fill="#ffb1a5"/>
      <path id="Path_12342" data-name="Path 12342" d="M426.522,146.137v4.535a2.062,2.062,0,0,0,.146.762,2.022,2.022,0,0,0,2.409,1.114l2.081-.552" transform="translate(-11.861 -38.981)" fill="none" stroke="#282828" stroke-linecap="round" stroke-linejoin="round" stroke-width="1.232"/>
      <path id="Path_12343" data-name="Path 12343" d="M426.759,133.577l-16.627,3.9s.757-4.231,7.557-5.769,9.069,1.872,9.069,1.872" transform="translate(-17.418 -44.009)" fill="#282828"/>
      <path id="Path_12344" data-name="Path 12344" d="M433.57,133.577l16.055,3.9s-.73-4.231-7.3-5.769-8.757,1.872-8.757,1.872" transform="translate(-9.472 -44.009)" fill="#282828"/>
      <path id="Path_12345" data-name="Path 12345" d="M421.346,142.831a2.8,2.8,0,1,1-2.8-2.8,2.8,2.8,0,0,1,2.8,2.8" transform="translate(-15.517 -41.05)" fill="#282828"/>
      <path id="Path_12346" data-name="Path 12346" d="M441.2,142.831a2.8,2.8,0,1,1-2.8-2.8,2.8,2.8,0,0,1,2.8,2.8" transform="translate(-8.787 -41.05)" fill="#282828"/>
      <path id="Path_12347" data-name="Path 12347" d="M419.926,154.867h21.623s-9.583,11.659-21.623,0" transform="translate(-14.098 -36.022)" fill="#fff"/>
      <circle id="Ellipse_15" data-name="Ellipse 15" cx="11.924" cy="11.924" r="11.924" transform="translate(387.5 111.734) rotate(-76.717)" fill="none" stroke="#c98bd2" stroke-miterlimit="10" stroke-width="1.342"/>
      <circle id="Ellipse_16" data-name="Ellipse 16" cx="11.924" cy="11.924" r="11.924" transform="translate(416.792 111.734) rotate(-76.717)" fill="none" stroke="#c98bd2" stroke-miterlimit="10" stroke-width="1.342"/>
      <path id="Path_12348" data-name="Path 12348" d="M425.856,143.232s2.824-2.635,5.445,0" transform="translate(-12.087 -40.363)" fill="none" stroke="#c98bd2" stroke-miterlimit="10" stroke-width="1.342"/>
      <line id="Line_37" data-name="Line 37" x1="3.756" y1="0.095" transform="translate(386.165 102.773)" fill="none" stroke="#c98bd2" stroke-miterlimit="10" stroke-width="1.342"/>
      <line id="Line_38" data-name="Line 38" y1="0.095" x2="3.779" transform="translate(443.061 102.773)" fill="none" stroke="#c98bd2" stroke-miterlimit="10" stroke-width="1.342"/>
      <path id="Path_12349" data-name="Path 12349" d="M453.6,149.5s-13.376-18.082-10.29-36.4a26.354,26.354,0,0,1,12.513,17.891c2.586,12.9-2.223,18.511-2.223,18.511" transform="translate(-6.325 -50.182)" fill="#282828"/>
      <path id="Path_12350" data-name="Path 12350" d="M405.328,151.036s15.538-20.538,12.453-38.857c0,0-10.777,6.226-13.362,19.121s.909,19.736.909,19.736" transform="translate(-19.678 -50.494)" fill="#282828"/>
      <path id="Path_12351" data-name="Path 12351" d="M466.289,122.323s-17.176,18.8-64.166,15.584c0,0,7.2-27.591,29.969-30.53,0,0,26.294-3.14,34.2,14.946" transform="translate(-20.133 -52.193)" fill="#282828"/>
      <path id="Path_12352" data-name="Path 12352" d="M477.259,107.75a22.436,22.436,0,1,1-22.437-22.435,22.437,22.437,0,0,1,22.437,22.435" transform="translate(-9.873 -59.602)" fill="#282828"/>
      <path id="Path_12353" data-name="Path 12353" d="M270.692,289.878,228.9,284.313l.382-4.854-48.877,6.509s-26.676,71.489-2.935,220.116h33.993l11.85-150.706h4.345L239.9,506.084h33.993c23.741-148.627-3.2-216.206-3.2-216.206" transform="translate(-99.632 6.219)" fill="#282828"/>
      <path id="Path_12354" data-name="Path 12354" d="M269.426,146.224c-5.656-6.655-10.185-14.416-14.033-25.309-4.132-11.694-17.66-6.94-17.66-6.94s-11.275-14.5-28.237-9.451-22.859,17.122-23.2,31.474-11.635,16.6-20.328,33.2c-15.347,29.311,10.491,54,57.523,47.151l.064-.457a49.347,49.347,0,0,0,17.236,1.61c56.5-3.354,51.049-44.914,28.639-71.278" transform="translate(-101.699 -53.451)" fill="#282828"/>
      <path id="Path_12355" data-name="Path 12355" d="M228.609,156.122c4.644,4.211,15.028-11.765,10.541-16.25s-7.91,2.552-7.91,2.552l-2,4.768-1.512,6.459-.359,1.691Z" transform="translate(-79.381 -41.612)" fill="#f3978e"/>
      <path id="Path_12356" data-name="Path 12356" d="M236.228,143.778s-3.515-1.581-6.638,3.515" transform="translate(-78.627 -39.86)" fill="none" stroke="#282828" stroke-linecap="round" stroke-linejoin="round" stroke-width="0.993"/>
      <path id="Path_12357" data-name="Path 12357" d="M190.5,155.586c-4.271,4.59-15.969-10.451-11.877-15.3s8.1,1.873,8.1,1.873l2.4,4.582,2.053,6.308.5,1.655Z" transform="translate(-96.194 -41.561)" fill="#f3978e"/>
      <path id="Path_12358" data-name="Path 12358" d="M180.382,144.006s3.369-1.873,6.911,2.941" transform="translate(-95.31 -39.825)" fill="none" stroke="#282828" stroke-linecap="round" stroke-linejoin="round" stroke-width="0.993"/>
      <path id="Path_12359" data-name="Path 12359" d="M252.614,137.108c0,21.149-16.125,31.178-36.014,31.178s-36.016-10.029-36.016-31.178,16.125-35.536,36.016-35.536,36.014,14.388,36.014,35.536" transform="translate(-95.241 -54.09)" fill="#282828"/>
      <rect id="Rectangle_3280" data-name="Rectangle 3280" width="29.627" height="38.364" transform="translate(106.406 130.211)" fill="#ffb1a5"/>
      <path id="Path_12360" data-name="Path 12360" d="M193.085,161.568s8.247,16.459,18.393,19.029a14.28,14.28,0,0,0,8.219-.475c3.819-1.352,8.661-7.046,9.484-13.346l.382-3.6s-18.053,9.83-36.478-1.608" transform="translate(-91.003 -33.75)" fill="#282828"/>
      <path id="Path_12361" data-name="Path 12361" d="M246.444,137.349a144.654,144.654,0,0,1-3.665,32.138c-1.793,7.785-6.838,13.226-13.967,17.606l-1.3.8a24.51,24.51,0,0,1-24.949.277c-7.723-4.5-13.132-10.44-14.8-18.795a211.369,211.369,0,0,1-3.358-32.023s-2.88-32.775,30.575-32.138,31.459,32.138,31.459,32.138" transform="translate(-93.965 -52.859)" fill="#ffb1a5"/>
      <path id="Path_12362" data-name="Path 12362" d="M205.812,144.5V147.2a1.948,1.948,0,0,0,2.555,1.871l2.081-.55" transform="translate(-86.688 -39.535)" fill="none" stroke="#282828" stroke-linecap="round" stroke-linejoin="round" stroke-width="1.23"/>
      <path id="Path_12363" data-name="Path 12363" d="M211.018,131.857l17.8,4.213s-.81-4.574-8.09-6.236-9.709,2.023-9.709,2.023" transform="translate(-84.923 -44.655)" fill="#282828"/>
      <path id="Path_12364" data-name="Path 12364" d="M208.6,131.857l-18.027,4.213s.819-4.574,8.194-6.236,9.834,2.023,9.834,2.023" transform="translate(-91.854 -44.655)" fill="#282828"/>
      <path id="Path_12365" data-name="Path 12365" d="M200.636,140.192a2.8,2.8,0,1,1-2.8-2.788,2.8,2.8,0,0,1,2.8,2.788" transform="translate(-90.344 -41.942)" fill="#282828"/>
      <path id="Path_12366" data-name="Path 12366" d="M220.488,140.192a2.8,2.8,0,1,1-2.8-2.788,2.8,2.8,0,0,1,2.8,2.788" transform="translate(-83.614 -41.942)" fill="#282828"/>
      <path id="Path_12367" data-name="Path 12367" d="M197.833,151.4h24.61s-1.737,6.762-12.9,6.762a13.053,13.053,0,0,1-11.714-6.762" transform="translate(-89.393 -37.199)" fill="#fff"/>
      <path id="Path_12368" data-name="Path 12368" d="M185.471,146.541s13.376-18.082,10.29-36.4a26.354,26.354,0,0,0-12.513,17.891c-2.586,12.895,2.223,18.511,2.223,18.511" transform="translate(-94.597 -51.185)" fill="#282828"/>
      <path id="Path_12369" data-name="Path 12369" d="M233.994,146.25s-15.538-18.71-12.453-37.029c0,0,10.778,6.226,13.362,19.121s-.909,17.908-.909,17.908" transform="translate(-81.493 -51.497)" fill="#282828"/>
      <path id="Path_12370" data-name="Path 12370" d="M185.553,119.364s15.348,20.63,62.338,17.413c0,0-5.368-29.418-28.141-32.358,0,0-26.294-3.14-34.2,14.945" transform="translate(-93.556 -53.196)" fill="#282828"/>
      <path id="Path_12371" data-name="Path 12371" d="M156.818,398.187c-.683,1.075,39.11-173.143,27.3-170.509-1.078.24-21.769,2.161-24.844,8.414-8.915,18.125-15.309,160.773-15.309,160.773Z" transform="translate(-107.657 -11.347)" fill="#ffb1a5"/>
      <path id="Path_12372" data-name="Path 12372" d="M144.155,354.937s-6.414,29.76,17.833,33.014a3.409,3.409,0,0,0,3.668-2.252l.07-.2a3.406,3.406,0,0,0-1.887-4.211c-3.953-1.768-10.086-6.233-7.043-16.376,0,0,3.506-.428,5.439,6.109a2.8,2.8,0,0,0,5.473-1.138c-.581-4.579-2.884-15.6-11.722-18.56Z" transform="translate(-107.852 30.581)" fill="#ffb1a5"/>
      <path id="Path_12373" data-name="Path 12373" d="M150.055,271.728s22.927,32.289,23.049,31.665,8.017-45.334,8.017-45.334L153.3,246.008Z" transform="translate(-105.591 -5.122)" fill="#f3978e"/>
      <path id="Path_12374" data-name="Path 12374" d="M214.645,187.405c.979-.005-56.665,1.027-67.2,73.813l33.128,5.075,6.679,54.95h92.414l18.347-101.525s-13.043-22-51.06-32.771Z" transform="translate(-106.476 -25.146)" fill="#006837"/>
      <path id="Path_12375" data-name="Path 12375" d="M176.59,197.653s8.147,10.814,41.525,10.814c33.067,0,41.523-11.38,41.523-11.38s-19.494-10.892-42.114-14.416a149.883,149.883,0,0,0-40.934,14.982" transform="translate(-96.595 -26.595)" fill="#ffb1a5"/>
      <path id="Path_12376" data-name="Path 12376" d="M261.288,366.063l.08,145.157h71.809L338.7,366.063Z" transform="translate(-67.88 35.58)" fill="#005683"/>
      <path id="Path_12377" data-name="Path 12377" d="M397.329,366.063l-.08,145.157H325.439l-5.52-145.157Z" transform="translate(-48.002 35.58)" fill="#005683"/>
      <rect id="Rectangle_3281" data-name="Rectangle 3281" width="74.248" height="50.43" transform="translate(235.859 401.641)" fill="#005683"/>
      <path id="Path_12378" data-name="Path 12378" d="M423.811,271.459c4.452,49.188-.244,85.027,1.054,175.536L382,448.789l-6.386-169.416Z" transform="translate(-29.119 3.506)" fill="#ffb1a5"/>
      <path id="Path_12379" data-name="Path 12379" d="M379.571,306.437s26.542-2.43,44.687-14.4L423.78,281.5l-44.225,6.024Z" transform="translate(-27.784 6.911)" fill="#f3978e"/>
      <path id="Path_12380" data-name="Path 12380" d="M347.768,186.884s84.305,21.2,99.579,128.209c0,0-41.261,17.888-82.61,10.193l9.3-35.79Z" transform="translate(-38.561 -25.167)" fill="#f7931e"/>
      <path id="Path_12381" data-name="Path 12381" d="M166.185,220.113l62.771,74.13-19.208,54.094s-47.71-66.331-69.147-117.6Z" transform="translate(-108.797 -13.901)" fill="#ffb1a5"/>
      <path id="Path_12382" data-name="Path 12382" d="M172.779,233.173s-22.042,12.453-27.648,7.948c-9.8-7.872-17.895-36.688-17.895-36.688s41.219-15.539,40.832-14.933,4.711,43.672,4.711,43.672" transform="translate(-113.328 -24.286)" fill="#ffb1a5"/>
      <path id="Path_12383" data-name="Path 12383" d="M163.138,232.3c-.39-2.219,8.173-26.158,11.109-35.135a3.96,3.96,0,0,0-3.135-4.989,4.574,4.574,0,0,0-5.1,2.09l-10.339,17.67Z" transform="translate(-103.686 -23.41)" fill="#ffb1a5"/>
      <path id="Path_12384" data-name="Path 12384" d="M164.585,212.636l-7.1-35.314a4.443,4.443,0,0,0-5.138-3.523,3.827,3.827,0,0,0-3.143,4.246l3.093,26.3Z" transform="translate(-105.889 -29.628)" fill="#ffb1a5"/>
      <path id="Path_12385" data-name="Path 12385" d="M154.635,200.179l-9.641-25.218a4.423,4.423,0,0,0-5.475-2.7A3.813,3.813,0,0,0,137,176.787l7.153,29.14Z" transform="translate(-110.053 -30.196)" fill="#ffb1a5"/>
      <path id="Path_12386" data-name="Path 12386" d="M147.7,205.577l-12.2-24.777a4.849,4.849,0,0,0-6.19-2.373A4.219,4.219,0,0,0,127.136,184l9.723,23.4Z" transform="translate(-113.48 -28.16)" fill="#ffb1a5"/>
      <path id="Path_12387" data-name="Path 12387" d="M129.741,205.733l-9.57-15.179a3.43,3.43,0,0,1,1.674-4.581,3.916,3.916,0,0,1,4.782,1.393l12.584,17.458Z" transform="translate(-115.831 -25.587)" fill="#ffb1a5"/>
      <path id="Path_12388" data-name="Path 12388" d="M163.256,200.81s-14.372-1.508-15.849,17.646" transform="translate(-106.489 -20.455)" fill="none" stroke="#282828" stroke-linecap="round" stroke-linejoin="round" stroke-width="1.532"/>
      <path id="Path_12389" data-name="Path 12389" d="M182.733,323.829s11.806,40.858,35.332,35.425,60.193-55.679,60.193-55.679l-8.207-85.8L204.02,299.049Z" transform="translate(-94.513 -14.693)" fill="#ffb1a5"/>
      <path id="Path_12390" data-name="Path 12390" d="M213.925,261.485s22.293,33.627,41.31,45.484l12.448-15.712-48.02-37.146Z" transform="translate(-83.938 -2.375)" fill="#f3978e"/>
      <path id="Path_12391" data-name="Path 12391" d="M312.17,185.5s-65.452,14.753-100.331,90.821c0,0,21.074,31.754,54.857,45.867l22.619-27.71Z" transform="translate(-84.645 -25.637)" fill="#f7931e"/>
      <path id="Path_12392" data-name="Path 12392" d="M297.31,186.762a163.912,163.912,0,0,0-41.641,30.507l5.044,222.359H421.834l-.522-221.213S401,198.541,378.992,188.852c-18.7-8.23-63.506-11.413-81.682-2.09" transform="translate(-69.785 -27.135)" fill="#f7931e"/>
      <path id="Path_12393" data-name="Path 12393" d="M349.378,277.588h0a22.41,22.41,0,0,1-22.41-22.41V232.767h44.82v22.411A22.41,22.41,0,0,1,349.378,277.588Z" transform="translate(-45.613 -9.611)" fill="none" stroke="#282828" stroke-linecap="round" stroke-linejoin="round" stroke-width="1.397"/>
      <line id="Line_39" data-name="Line 39" y1="72.74" x2="2.09" transform="translate(351.786 228.206)" fill="none" stroke="#282828" stroke-linecap="round" stroke-linejoin="round" stroke-width="1.397"/>
      <line id="Line_40" data-name="Line 40" x1="3.481" y1="63.053" transform="translate(184.878 225.77)" fill="none" stroke="#282828" stroke-linecap="round" stroke-linejoin="round" stroke-width="1.397"/>
      <path id="Path_12394" data-name="Path 12394" d="M290.071,139.544l-6.717-33.228c-.378-2.706-1.427-6.883-.142-10.807,2.128-6.493,9.946-18.962,23.308-13.252l2.89,13.155s-13.878,2.8-19.444,20.956Z" transform="translate(-60.658 -61.133)" fill="#282828"/>
      <path id="Path_12395" data-name="Path 12395" d="M304.791,87.009c-.244,4.365-4.1,23.469-17.644,30.428,0,0-11.866-25.448,17.644-30.428" transform="translate(-59.913 -59.027)" fill="#282828"/>
      <path id="Path_12396" data-name="Path 12396" d="M352.309,195.04h0V138.617H300.3V195.04L284.813,202.1s3.631,23.385,42.036,23.9,42.262-22.753,42.262-22.753Z" transform="translate(-59.905 -41.531)" fill="#ffb1a5"/>
      <path id="Path_12397" data-name="Path 12397" d="M300.462,85.865s9.546-25.182,38.982-11.8c17.816,8.1,22.806,18.967,24.929,26.665a30.916,30.916,0,0,1,.8,8.98l-7.121,33.438-27.8-46.266-26.9,2.134Z" transform="translate(-54.599 -64.743)" fill="#282828"/>
      <path id="Path_12398" data-name="Path 12398" d="M344.25,125.58s3.507-5.577,10.739-2.835,3.961,20.309-6.888,22.547a8.581,8.581,0,0,1-6.939-1.814s2.669-12.974,3.088-17.9" transform="translate(-40.801 -47.169)" fill="#f3978e"/>
      <path id="Path_12399" data-name="Path 12399" d="M353.04,127.231s-6.06-2.022-10.36,6.9" transform="translate(-40.286 -45.458)" fill="none" stroke="#282828" stroke-linecap="round" stroke-linejoin="round" stroke-width="1.397"/>
      <path id="Path_12400" data-name="Path 12400" d="M291.874,125.58s-3.507-5.577-10.739-2.835-3.961,20.309,6.888,22.547a8.581,8.581,0,0,0,6.939-1.814s-2.669-12.974-3.088-17.9" transform="translate(-62.461 -47.169)" fill="#f3978e"/>
      <path id="Path_12401" data-name="Path 12401" d="M281.228,127.231s6.059-2.022,10.359,6.9" transform="translate(-61.12 -45.458)" fill="none" stroke="#282828" stroke-linecap="round" stroke-linejoin="round" stroke-width="1.397"/>
      <path id="Path_12402" data-name="Path 12402" d="M363.149,121.749c0,10.589-1.036,32.742-7.545,45.891-6.113,12.344-16.221,18.989-29.473,19.385S303,182.312,295.091,166.291s-7.535-44.345-7.535-44.345,0-37.826,37.386-37.826c39.375,0,38.206,37.629,38.206,37.629" transform="translate(-58.975 -60.007)" fill="#ffb1a5"/>
      <path id="Path_12403" data-name="Path 12403" d="M296.668,151.384s4.356,22.1,23.591,24.641c22.137,2.922,28.031-24.08,28.031-24.08s-9.782,12.257-25.25,12.276a33.848,33.848,0,0,1-26.372-12.837" transform="translate(-55.885 -37.202)" fill="#282828"/>
      <path id="Path_12404" data-name="Path 12404" d="M313.791,123.95V132.7a2.85,2.85,0,0,0,.2,1.066,2.818,2.818,0,0,0,3.361,1.56l2.9-.773" transform="translate(-50.08 -46.503)" fill="none" stroke="#282828" stroke-linecap="round" stroke-linejoin="round" stroke-width="1.397"/>
      <path id="Path_12405" data-name="Path 12405" d="M307.268,121.69a3.4,3.4,0,1,1-3.4-3.4,3.4,3.4,0,0,1,3.4,3.4" transform="translate(-54.599 -48.424)" fill="#282828"/>
      <path id="Path_12406" data-name="Path 12406" d="M331.1,121.69a3.4,3.4,0,1,1-3.4-3.4,3.4,3.4,0,0,1,3.4,3.4" transform="translate(-46.52 -48.424)" fill="#282828"/>
      <path id="Path_12407" data-name="Path 12407" d="M320.328,109.055l22.883,5.91s-1.04-6.418-10.4-8.751-12.481,2.84-12.481,2.84" transform="translate(-47.864 -52.721)" fill="#282828"/>
      <path id="Path_12408" data-name="Path 12408" d="M315.5,109.055l-22.883,5.91s1.04-6.418,10.4-8.751,12.481,2.84,12.481,2.84" transform="translate(-57.258 -52.721)" fill="#282828"/>
      <path id="Path_12409" data-name="Path 12409" d="M306.31,137.075s3.376,2.587,12.252,2.587a31.038,31.038,0,0,0,13.116-2.587" transform="translate(-52.617 -42.054)" fill="none" stroke="#282828" stroke-linecap="round" stroke-linejoin="round" stroke-width="1.397"/>
      <path id="Path_12410" data-name="Path 12410" d="M320.443,125.231a14.462,14.462,0,1,1-14.461-14.46A14.461,14.461,0,0,1,320.443,125.231Z" transform="translate(-57.631 -50.971)" fill="none" stroke="#fff" stroke-miterlimit="10" stroke-width="1.951"/>
      <path id="Path_12411" data-name="Path 12411" d="M346.975,125.231a14.462,14.462,0,1,1-14.462-14.46A14.462,14.462,0,0,1,346.975,125.231Z" transform="translate(-48.636 -50.971)" fill="none" stroke="#fff" stroke-miterlimit="10" stroke-width="1.951"/>
      <path id="Path_12412" data-name="Path 12412" d="M313.12,121.93s3.425-3.195,6.6,0" transform="translate(-50.308 -47.67)" fill="none" stroke="#fff" stroke-miterlimit="10" stroke-width="1.951"/>
      <line id="Line_41" data-name="Line 41" x1="4.849" y1="0.123" transform="translate(229.04 74.137)" fill="none" stroke="#fff" stroke-miterlimit="10" stroke-width="1.951"/>
      <line id="Line_42" data-name="Line 42" y1="0.088" x2="5.414" transform="translate(298.34 74.172)" fill="none" stroke="#fff" stroke-miterlimit="10" stroke-width="1.951"/>
      <path id="Path_12413" data-name="Path 12413" d="M296.668,89.776s6.946,19.731,38.284,19.125c21.295-.411,26.383,15,26.383,15s-3.706-34.448-4.68-34.124-32.4-8.386-32.4-8.386Z" transform="translate(-55.885 -60.932)" fill="#282828"/>
    </g>
  </g>
</svg>
