<svg xmlns="http://www.w3.org/2000/svg" xmlns:xlink="http://www.w3.org/1999/xlink" width="341" height="426.93" viewBox="0 0 341 426.93">
  <defs>
    <clipPath id="clip-path">
      <rect id="Rectangle_161178" data-name="Rectangle 161178" width="340.29" height="348.98" fill="none"/>
    </clipPath>
    <clipPath id="clip-path-2">
      <rect id="Rectangle_161177" data-name="Rectangle 161177" width="340.09" height="241.3" transform="translate(0 107.68)" fill="none"/>
    </clipPath>
  </defs>
  <g id="Group_141517" data-name="Group 141517" transform="translate(-4578.5 -5511)">
    <g id="Group_141513" data-name="Group 141513">
      <g id="Group_141408" data-name="Group 141408" transform="translate(4578.5 5511)">
        <g id="Group_141405" data-name="Group 141405">
          <g id="Group_141404" data-name="Group 141404" clip-path="url(#clip-path)">
            <g id="Group_141403" data-name="Group 141403" style="isolation: isolate">
              <g id="Group_141402" data-name="Group 141402">
                <g id="Group_141401" data-name="Group 141401" clip-path="url(#clip-path-2)">
                  <path id="Path_38932" data-name="Path 38932" d="M340.09,107.68v241.3H0V260.93Z" fill="#e8ebea"/>
                </g>
              </g>
            </g>
            <path id="Path_38933" data-name="Path 38933" d="M314.62,0H25.64A25.8,25.8,0,0,0,0,25.8V260.93L340.29,107.59V25.81A25.812,25.812,0,0,0,314.62,0M123.98,25.41c1.13-2.48,3.28-3.74,6.38-3.74,3.14-.01,6.51-.01,10.9-.01l3.63-.01h10.27c3.77,0,4.63-.6,5.77-3.95,1.33-3.96,4.96-6.41,9.46-6.41h.14a10.688,10.688,0,0,1,6.08,1.79,9.172,9.172,0,0,1,3.5,4.86,5.428,5.428,0,0,0,1.72,3.01c.73.51,1.71.7,3.63.7h15.93c3.18,0,5.82.01,8.3.01,3.03,0,5.15.7,6.45,2.12,1.18,1.28,1.67,3.12,1.5,5.62-.23,3.27-2.46,5.5-5.95,5.96a35.474,35.474,0,0,1-4.49.26c-7.12.01-14.15.01-19.48.01H170.37v.04c-3.76,0-7.6.01-11.3.01H147.68c-6.44,0-11.7-.01-16.57-.03a7.848,7.848,0,0,1-6.83-3.44,7.113,7.113,0,0,1-.3-6.8" fill="#d24625"/>
            <path id="Path_38934" data-name="Path 38934" d="M0,88.927s153.558-35.293,213.744,75.687L0,260.93Z" fill="#9e2a13"/>
          </g>
        </g>
        <path id="Path_38935" data-name="Path 38935" d="M69.31,254.139c3.993,0,6.851.915,8.652,2.49a7.761,7.761,0,0,1,2.671,6.055,8.362,8.362,0,0,1-2.405,6.269c-2.122,2.092-5.481,3.136-9.482,3.136a13.4,13.4,0,0,1-3.528-.338v11.482H61.345V254.721A50.255,50.255,0,0,1,69.31,254.139Zm-4.092,14.486a13.277,13.277,0,0,0,3.682.4c4.948,0,7.861-2.249,7.861-6.146,0-4.1-3.229-5.709-7.455-5.709a22.263,22.263,0,0,0-4.088.321Zm40.388,4.005c0,7.547-5.848,11.116-11.425,11.116-6.247,0-11.018-4.325-11.018-10.658,0-6.717,4.941-11.06,11.382-11.06C101.25,262.028,105.606,266.627,105.606,272.63Zm-18.442.317c0,4.91,3.262,7.917,7.171,7.917,3.866,0,7.27-2.883,7.27-8.067,0-3.61-2.16-7.886-7.15-7.886C89.537,264.911,87.164,268.773,87.164,272.947Zm24.649-10.406,3.045,10.629c.654,2.34,1.2,4.475,1.676,6.6h.086c.5-2.067,1.249-4.262,2.036-6.589l3.716-10.642h3.37l3.541,10.5c.812,2.5,1.471,4.7,1.989,6.735h.085c.419-2.067,1.027-4.262,1.767-6.731l3.283-10.5h3.851l-7.174,20.692h-3.659l-3.4-9.82a66.591,66.591,0,0,1-2.065-7.02h-.086a62.1,62.1,0,0,1-2.117,7.025l-3.617,9.815h-3.659l-6.631-20.692ZM145.991,273.7c.09,4.664,3.564,7.016,7.811,7.016a16.2,16.2,0,0,0,6.5-1.155l.7,2.763a19.079,19.079,0,0,1-7.681,1.424c-6.825,0-11.066-4.3-11.066-10.461,0-6.125,3.974-11.257,10.655-11.257,7.59,0,9.38,6.413,9.38,9.936a7.442,7.442,0,0,1-.15,1.734Zm12.517-2.8c.03-1.779-.791-6.128-5.9-6.128-4.4,0-6.218,3.584-6.569,6.128Zm8.854-1.544c0-2.675-.042-4.767-.171-6.812h3.419l.137,4.334h.141a6.711,6.711,0,0,1,6.238-4.847,4.436,4.436,0,0,1,1.164.128v3.6a6.549,6.549,0,0,0-1.481-.137c-2.841,0-4.817,2.022-5.386,4.982a9.235,9.235,0,0,0-.162,1.715v10.918h-3.9Zm23.164-15.214c3.992,0,6.851.915,8.652,2.49a7.764,7.764,0,0,1,2.671,6.055,8.366,8.366,0,0,1-2.4,6.269c-2.123,2.092-5.482,3.136-9.483,3.136a13.4,13.4,0,0,1-3.528-.338v11.482h-3.872V254.721A50.245,50.245,0,0,1,190.526,254.139Zm-4.093,14.486a13.281,13.281,0,0,0,3.682.4c4.948,0,7.861-2.249,7.861-6.146,0-4.1-3.228-5.709-7.454-5.709a22.267,22.267,0,0,0-4.089.321Zm40.389,4.005c0,7.547-5.849,11.116-11.425,11.116-6.247,0-11.019-4.325-11.019-10.658,0-6.717,4.942-11.06,11.383-11.06C222.465,262.028,226.822,266.627,226.822,272.63Zm-18.442.317c0,4.91,3.262,7.917,7.171,7.917,3.866,0,7.269-2.883,7.269-8.067,0-3.61-2.159-7.886-7.149-7.886C210.753,264.911,208.38,268.773,208.38,272.947Zm27.964-16.417a2.383,2.383,0,0,1-2.518,2.406,2.353,2.353,0,0,1-2.4-2.406,2.4,2.4,0,0,1,2.475-2.406A2.364,2.364,0,0,1,236.344,256.53Zm-4.416,26.7V262.541h3.9v20.692Zm10.7-15.021c0-2.067-.056-3.938-.171-5.671h3.474l.222,3.709h.112a8.441,8.441,0,0,1,7.542-4.222c2.835,0,8.052,1.576,8.052,9.383v11.822h-3.9V271.771c0-3.636-1.523-6.556-5.418-6.556a6.193,6.193,0,0,0-5.726,4.028,5.229,5.229,0,0,0-.291,1.711v12.279h-3.9Zm30.434-11.776v6.1h5.886v2.969h-5.886v10.767c0,2.537.668,4.244,3.076,4.244a8.053,8.053,0,0,0,2.464-.321l.179,2.964a10.387,10.387,0,0,1-3.668.582,5.643,5.643,0,0,1-4.335-1.707c-1.1-1.207-1.537-3.18-1.537-5.465V265.51h-3.43v-2.969h3.43v-5.129Z" fill="#d24625"/>
        <text id="_2022" data-name="2022" transform="translate(136.226 326.455)" fill="#d24625" font-size="28.409" font-family="Montserrat-SemiBold, Montserrat" font-weight="600"><tspan x="0" y="0" letter-spacing="-0.002em">2</tspan><tspan y="0" letter-spacing="-0.004em">0</tspan><tspan y="0">22</tspan></text>
        <g id="Group_141407" data-name="Group 141407">
          <path id="Path_38948" data-name="Path 38948" d="M175.242,70.075H187.8v17.06c23.671.113,47.365-.21,71.014.1,5.093-.417,9.079,2.976,8.57,7.335.376,35.409-.09,70.836.222,106.263-.222,3.829.443,8.075-2.126,11.467-3.233,2.01-7.44,1.744-11.227,1.9-22.144-.1-44.287-.058-66.453-.058V233.09H174.025c-33.748-5.27-67.561-10.085-101.33-15.165q-.031-66.333,0-132.647C106.862,80.216,141.03,75.061,175.242,70.075Z" fill="#d24625"/>
          <path id="Path_38949" data-name="Path 38949" d="M175.242,70.075H187.8v17.06c23.671.113,47.365-.21,71.014.1,5.093-.417,9.079,2.976,8.57,7.335.376,35.409-.09,70.836.222,106.263-.222,3.829.443,8.075-2.126,11.467-3.233,2.01-7.44,1.744-11.227,1.9-22.144-.1-44.287-.058-66.453-.058V233.09H174.025c-33.748-5.27-67.561-10.085-101.33-15.165q-.031-66.333,0-132.647C106.862,80.216,141.03,75.061,175.242,70.075Z" fill="none" stroke="#f9f9f9" stroke-miterlimit="10" stroke-width="2"/>
          <path id="Path_38950" data-name="Path 38950" d="M187.8,92.821h73.074V208.447H187.8V193.283h53.145V185.7H187.8v-9.477h53.145v-7.583H187.82c-.02-3.715-.02-7.43-.045-11.145,8.769,2.331,18.756,2.274,26.6-2.237a25.384,25.384,0,0,0,13.64-20.7c-9.721-.058-19.442-.04-29.141-.04-.02-8.246.109-16.491-.2-24.718-3.632.607-7.264,1.251-10.873,1.914v-18.9Z" fill="#fff"/>
          <path id="Path_38951" data-name="Path 38951" d="M203.32,105.843c15.39.607,28.322,11.695,29.141,24.831-9.721.1-19.442.058-29.163.058,0-8.3-.02-16.6.02-24.888Z" fill="#d24625"/>
          <path id="Path_38952" data-name="Path 38952" d="M108.213,120.154c12.024.492,26.594-4.075,36.559,3.64,9.544,9.913,7.02,28.148-7.13,34.081-5.027,2.2-10.784,1.9-16.254,1.744-.02,7.411-.044,14.823-.02,22.234-4.384-.322-8.791-.644-13.176-.948-.2-20.244-.243-40.507.021-60.751" fill="#fff"/>
          <path id="Path_38953" data-name="Path 38953" d="M121.366,130.408c4.362-.171,9.765-.853,12.711,2.654a12.006,12.006,0,0,1,.287,12.434c-2.524,3.9-8.237,3.526-12.644,3.981-.465-6.35-.421-12.7-.354-19.069" fill="#d24625"/>
        </g>
      </g>
    </g>
    <path id="Path_38954" data-name="Path 38954" d="M0,0H341V55a28,28,0,0,1-28,28H28A28,28,0,0,1,0,55Z" transform="translate(4578.5 5854.93)" fill="#d24625"/>
    <g id="Group_141340" data-name="Group 141340" transform="translate(1961.5 6214.43)">
      <g id="Group_141320" data-name="Group 141320" transform="translate(2631 -685.386)">
        <text id="Loca-key.com" transform="translate(158 388.386)" fill="#fff" font-size="14" font-family="SegoeUI-Light, Segoe UI" font-weight="300"><tspan x="-39.98" y="0">Loca-key.com</tspan></text>
      </g>
      <g id="Group_141321" data-name="Group 141321" transform="translate(2619 -717.385)">
        <text id="Lifetime_License" data-name="Lifetime License" transform="translate(170 391.385)" fill="#fff" font-size="18" font-family="SegoeUI, Segoe UI"><tspan x="-62.991" y="0">Lifetime License</tspan></text>
      </g>
    </g>
  </g>
</svg>
