<svg xmlns="http://www.w3.org/2000/svg" xmlns:xlink="http://www.w3.org/1999/xlink" width="96.762" height="96.732" viewBox="0 0 96.762 96.732">
  <defs>
    <clipPath id="clip-path">
      <rect id="Rectangle_3297" data-name="Rectangle 3297" width="72.833" height="72.769" transform="translate(0 0)" fill="none" stroke="#f57a38" stroke-width="1"/>
    </clipPath>
  </defs>
  <g id="Group_7831" data-name="Group 7831" transform="translate(30.754) rotate(25)" opacity="0.19">
    <g id="Group_7830" data-name="Group 7830" transform="translate(0 0)" clip-path="url(#clip-path)">
      <path id="Path_12418" data-name="Path 12418" d="M55.228,72.769a37.476,37.476,0,0,1-6.161-1.294,50.66,50.66,0,0,1-14.274-7.32,115.292,115.292,0,0,1-24.5-23.888A57.851,57.851,0,0,1,2.454,26.9,32.485,32.485,0,0,1,.089,17.883,2.236,2.236,0,0,0,0,17.542V12.856c.237-1.083.352-2.19.654-3.263A8.444,8.444,0,0,1,4.333,4.555q3.209-2.026,6.5-3.926a4.279,4.279,0,0,1,5.621,1.04,6.38,6.38,0,0,1,.425.567q4.688,7.025,9.369,14.054a4.455,4.455,0,0,1-.119,5.634,11.67,11.67,0,0,1-1.612,1.386c-1.343,1.048-2.692,2.087-4.033,3.137-1.3,1.018-1.39,1.7-.62,3.173C22.514,34.7,26.279,38.9,30.3,42.9a58.065,58.065,0,0,0,10.062,8.387c.983.612,2,1.172,3.012,1.736a1.855,1.855,0,0,0,2.787-.544c1.283-1.609,2.535-3.243,3.8-4.865,1.8-2.3,4.106-2.692,6.546-1.072q7.006,4.651,14,9.327a4.709,4.709,0,0,1,2,2.41c.06.178.12.365.328.435V60.7c-.071.059-.172.1-.208.18a81,81,0,0,1-4.268,7.336,8.529,8.529,0,0,1-5.672,4.017c-.917.208-1.848.358-2.772.535Zm1.733-2.535a17.978,17.978,0,0,0,3.683-.212,7.193,7.193,0,0,0,5.767-3.5c1.085-1.886,2.237-3.733,3.351-5.6a1.916,1.916,0,0,0-.669-2.866Q62.1,53.376,55.1,48.715a1.98,1.98,0,0,0-3.125.5c-1.281,1.641-2.553,3.289-3.837,4.927a4.291,4.291,0,0,1-5.8,1.252c-1.19-.632-2.364-1.3-3.505-2.016a61.022,61.022,0,0,1-10.377-8.675c-4.229-4.2-8.148-8.63-10.938-13.965-1.3-2.481-.942-4.532,1.28-6.251q2.413-1.868,4.817-3.747a1.941,1.941,0,0,0,.507-2.964Q19.411,10.685,14.679,3.6a1.88,1.88,0,0,0-2.766-.627Q8.957,4.738,6.019,6.531A6.1,6.1,0,0,0,3.978,8.465C2.689,10.5,2.553,12.814,2.515,15.1a25.649,25.649,0,0,0,1.522,8.759A51.323,51.323,0,0,0,11.41,37.467a115.913,115.913,0,0,0,19.47,20.46A63.148,63.148,0,0,0,45.556,67.4a29.861,29.861,0,0,0,11.4,2.829" transform="translate(0 0)" fill="none" stroke="#f57a38" stroke-width="1"/>
    </g>
  </g>
</svg>
