<svg xmlns="http://www.w3.org/2000/svg" xmlns:xlink="http://www.w3.org/1999/xlink" width="73.051" height="94.277" viewBox="0 0 73.051 94.277">
  <defs>
    <clipPath id="clip-path">
      <rect id="Rectangle_3294" data-name="Rectangle 3294" width="73.051" height="94.277" fill="none" stroke="#f57a38" stroke-width="1"/>
    </clipPath>
  </defs>
  <g id="Group_7824" data-name="Group 7824" clip-path="url(#clip-path)">
    <path id="Path_12416" data-name="Path 12416" d="M30.837,0c14.577.028,27.2,11.589,30.152,27.639a37.794,37.794,0,0,1-3.927,24.709,67.864,67.864,0,0,1-13.188,17.4,92.28,92.28,0,0,1-11.343,9.458,2.638,2.638,0,0,1-3.433,0A83.162,83.162,0,0,1,7.516,57.439,43.433,43.433,0,0,1,.736,41.6,36.279,36.279,0,0,1,6.347,13.655,29.887,29.887,0,0,1,24.446.75,26.317,26.317,0,0,1,30.837,0M4.741,34.517a26.186,26.186,0,0,0,.369,4.632,37.882,37.882,0,0,0,5.711,14.287c5.286,8.31,12.115,14.759,19.6,20.408.394.3.625.1.911-.115a88.608,88.608,0,0,0,8.691-7.341,64.371,64.371,0,0,0,12.563-16.04A32.56,32.56,0,0,0,56.468,29.44c-2.59-16.6-17.568-27.462-32.116-23.2C12.825,9.61,4.813,21.164,4.741,34.517" transform="translate(5.717 7.214)" fill="none" stroke="#f57a38" stroke-width="1"/>
    <path id="Path_12417" data-name="Path 12417" d="M98.263,84c7.829.019,14.193,7.216,14.175,16.03-.018,8.8-6.423,15.954-14.262,15.933S83.984,108.743,84,99.931,90.421,83.981,98.263,84M107.7,99.951c-.008-5.846-4.278-10.627-9.487-10.623s-9.467,4.792-9.47,10.642c0,5.888,4.28,10.685,9.524,10.667,5.2-.019,9.442-4.824,9.434-10.685" transform="translate(-61.695 -58.14)" fill="none" stroke="#f57a38" stroke-width="1"/>
  </g>
</svg>
