<svg xmlns="http://www.w3.org/2000/svg" xmlns:xlink="http://www.w3.org/1999/xlink" width="61.472" height="49.1" viewBox="0 0 61.472 49.1">
  <defs>
    <clipPath id="clip-path">
      <rect id="Rectangle_3314" data-name="Rectangle 3314" width="61.472" height="49.1" fill="none" stroke="#f57a38" stroke-width="1"/>
    </clipPath>
  </defs>
  <g id="Group_7844" data-name="Group 7844" opacity="0.19">
    <g id="Group_7843" data-name="Group 7843" clip-path="url(#clip-path)">
      <path id="Path_12423" data-name="Path 12423" d="M30.771,0Q42.247,0,53.723,0a7.532,7.532,0,0,1,7.67,6.4,6.467,6.467,0,0,1,.075,1.142q.006,17,0,34.009A7.508,7.508,0,0,1,53.91,49.1q-23.175.01-46.35,0A7.518,7.518,0,0,1,.005,41.553q-.01-17,0-34.009A7.52,7.52,0,0,1,7.565.005q11.6-.013,23.207,0m-.048,44.923q11.315,0,22.631,0a4.443,4.443,0,0,0,1.931-.354,3.487,3.487,0,0,0,2-3.486q0-13.112,0-26.223c0-.106,0-.213,0-.319.01-.349-.145-.352-.385-.186-.123.085-.249.163-.375.244Q44.376,22.4,32.228,30.2a2.474,2.474,0,0,1-2.963.01Q17.047,22.339,4.8,14.51c-.166-.106-.33-.355-.547-.211-.09.06-.069.313-.069.478q0,13.239,0,26.479a3.794,3.794,0,0,0,.292,1.556,3.514,3.514,0,0,0,3.55,2.113q11.347,0,22.695,0m.068-40.749q-11.312,0-22.623,0a4.838,4.838,0,0,0-1.759.253A3.582,3.582,0,0,0,4.164,7.892,1.806,1.806,0,0,0,5.145,9.73q12.523,7.976,25,16.027a.948.948,0,0,0,1.2-.005c3.375-2.19,6.766-4.355,10.152-6.528q7.632-4.9,15.263-9.8c.209-.134.494-.232.511-.529.08-1.407.024-2.78-1.134-3.824a3.853,3.853,0,0,0-2.72-.9q-11.312,0-22.623,0" transform="translate(0 -0.001)" fill="none" stroke="#f57a38" stroke-width="1"/>
    </g>
  </g>
</svg>
