<svg id="Group_222" data-name="Group 222" xmlns="http://www.w3.org/2000/svg" xmlns:xlink="http://www.w3.org/1999/xlink" width="677.58" height="526.896" viewBox="0 0 677.58 526.896">
  <defs>
    <clipPath id="clip-path">
      <rect id="Rectangle_103" data-name="Rectangle 103" width="677.58" height="526.896" fill="none"/>
    </clipPath>
    <clipPath id="clip-path-2">
      <rect id="Rectangle_102" data-name="Rectangle 102" width="677.58" height="526.895" fill="none"/>
    </clipPath>
    <clipPath id="clip-path-3">
      <rect id="Rectangle_90" data-name="Rectangle 90" width="77.963" height="123.215" fill="none"/>
    </clipPath>
    <clipPath id="clip-path-4">
      <rect id="Rectangle_91" data-name="Rectangle 91" width="123.516" height="202.086" fill="none"/>
    </clipPath>
    <clipPath id="clip-path-5">
      <rect id="Rectangle_92" data-name="Rectangle 92" width="4.995" height="17.769" fill="none"/>
    </clipPath>
    <clipPath id="clip-path-6">
      <rect id="Rectangle_93" data-name="Rectangle 93" width="4.713" height="12.879" fill="none"/>
    </clipPath>
    <clipPath id="clip-path-7">
      <rect id="Rectangle_94" data-name="Rectangle 94" width="178.877" height="200.455" fill="none"/>
    </clipPath>
    <clipPath id="clip-path-8">
      <rect id="Rectangle_95" data-name="Rectangle 95" width="183.139" height="88.864" fill="none"/>
    </clipPath>
    <clipPath id="clip-path-9">
      <rect id="Rectangle_96" data-name="Rectangle 96" width="270.61" height="318.577" fill="none"/>
    </clipPath>
    <clipPath id="clip-path-10">
      <rect id="Rectangle_97" data-name="Rectangle 97" width="182.455" height="45.329" fill="none"/>
    </clipPath>
    <clipPath id="clip-path-11">
      <rect id="Rectangle_98" data-name="Rectangle 98" width="120.571" height="270.711" fill="none"/>
    </clipPath>
    <clipPath id="clip-path-12">
      <rect id="Rectangle_99" data-name="Rectangle 99" width="93.924" height="97.273" fill="none"/>
    </clipPath>
    <clipPath id="clip-path-13">
      <rect id="Rectangle_100" data-name="Rectangle 100" width="66.376" height="81.735" fill="none"/>
    </clipPath>
    <clipPath id="clip-path-14">
      <rect id="Rectangle_101" data-name="Rectangle 101" width="93.601" height="63.957" fill="none"/>
    </clipPath>
  </defs>
  <g id="Group_221" data-name="Group 221" clip-path="url(#clip-path)">
    <g id="Group_220" data-name="Group 220" transform="translate(0 0.001)">
      <g id="Group_219" data-name="Group 219" clip-path="url(#clip-path-2)">
        <path id="Path_12098" data-name="Path 12098" d="M858.5,568.447a297.3,297.3,0,0,0,68.945-190.817c0-164.869-133.652-298.521-298.521-298.521S330.4,212.76,330.4,377.629a297.3,297.3,0,0,0,68.945,190.817Z" transform="translate(-273.889 -65.578)" fill="#fcefeb"/>
        <path id="Path_12099" data-name="Path 12099" d="M3118.211,517.559a2.827,2.827,0,0,1-.752-5.552c1.628-.45,3.292-.863,4.947-1.227a2.827,2.827,0,1,1,1.213,5.521c-1.557.342-3.123.731-4.653,1.154a2.829,2.829,0,0,1-.755.1" transform="translate(-2582.525 -423.362)" fill="#c4d7f2"/>
        <path id="Path_12100" data-name="Path 12100" d="M2828.665,693.292a2.844,2.844,0,0,1-.371-.024,93.032,93.032,0,0,1-10.274-1.94,2.827,2.827,0,0,1,1.362-5.487,87.334,87.334,0,0,0,9.648,1.822,2.827,2.827,0,0,1-.364,5.63m-19.65-4.878a2.822,2.822,0,0,1-.987-.179,92.111,92.111,0,0,1-9.577-4.209,2.827,2.827,0,1,1,2.567-5.037,86.384,86.384,0,0,0,8.986,3.95,2.827,2.827,0,0,1-.989,5.476m-18.041-9.191a2.812,2.812,0,0,1-1.559-.471,91.534,91.534,0,0,1-8.375-6.274,2.827,2.827,0,0,1,3.645-4.322,85.7,85.7,0,0,0,7.855,5.885,2.827,2.827,0,0,1-1.565,5.182m-15.47-13.055a2.817,2.817,0,0,1-2.061-.892,88.014,88.014,0,0,1-6.7-8.051,2.827,2.827,0,0,1,4.554-3.35,82.372,82.372,0,0,0,6.272,7.533,2.827,2.827,0,0,1-2.061,4.761m-11.976-16.3a2.826,2.826,0,0,1-2.469-1.446,81.111,81.111,0,0,1-4.528-9.469,2.826,2.826,0,1,1,5.248-2.1,75.561,75.561,0,0,0,4.212,8.807,2.827,2.827,0,0,1-2.463,4.208m-7.492-18.776a2.828,2.828,0,0,1-2.741-2.146,73.118,73.118,0,0,1-1.8-10.384,2.826,2.826,0,1,1,5.625-.558,67.5,67.5,0,0,0,1.663,9.578,2.83,2.83,0,0,1-2.745,3.509m-1.967-20.113c-.05,0-.1,0-.151,0a2.826,2.826,0,0,1-2.675-2.971,70.728,70.728,0,0,1,1.346-10.469,2.827,2.827,0,1,1,5.538,1.135,65.185,65.185,0,0,0-1.239,9.63,2.827,2.827,0,0,1-2.82,2.678m4.033-19.807a2.829,2.829,0,0,1-2.66-3.783,78.39,78.39,0,0,1,4.221-9.637,2.827,2.827,0,0,1,5.015,2.609,72.553,72.553,0,0,0-3.915,8.938,2.829,2.829,0,0,1-2.661,1.872m9.316-17.964a2.827,2.827,0,0,1-2.318-4.441,85.946,85.946,0,0,1,6.508-8.226,2.827,2.827,0,0,1,4.212,3.771,80.311,80.311,0,0,0-6.079,7.683,2.823,2.823,0,0,1-2.323,1.213m13.5-15.1a2.826,2.826,0,0,1-1.869-4.948,90.916,90.916,0,0,1,8.246-6.455,2.827,2.827,0,0,1,3.223,4.645,85.428,85.428,0,0,0-7.732,6.052,2.814,2.814,0,0,1-1.867.706m16.637-11.549a2.827,2.827,0,0,1-1.34-5.317,93.6,93.6,0,0,1,9.475-4.423,2.827,2.827,0,1,1,2.1,5.248,88.084,88.084,0,0,0-8.9,4.154,2.809,2.809,0,0,1-1.334.337" transform="translate(-2280.663 -444.833)" fill="#c4d7f2"/>
        <path id="Path_12101" data-name="Path 12101" d="M3251.318,1429.488q-.9,0-1.8-.017a2.827,2.827,0,1,1,.106-5.652c1.587.03,3.2.018,4.8-.037a2.827,2.827,0,1,1,.193,5.65c-1.1.037-2.2.056-3.3.056" transform="translate(-2691.417 -1180.255)" fill="#c4d7f2"/>
        <path id="Path_12102" data-name="Path 12102" d="M583.778,340.887a23.082,23.082,0,0,1-3.667.142c-7.3-.3-15.064-4.255-22.008-10.9-10.584,10.036-22.7,16.974-35.053,15.68-11.524-1.2-22.34-9.587-31.279-24.248a107.805,107.805,0,0,1-8.924-18.769,487.453,487.453,0,0,1-49.895,44.416l-7.026-8.938c21.075-16.508,38.83-32.6,53.025-47.944-5.907-22.719-6.611-49.248,2.215-71.744,5.425-13.826,22.3-42.7,37.063-38.408,11.6,3.357,12.327,19.891,12.675,27.838.033.748.062,1.413.1,1.964,1.755,27.3-15.519,56.5-39.338,83.3a101.026,101.026,0,0,0,9.824,22.386c6.92,11.35,15,18.046,22.74,18.855,8.142.845,17.488-4.612,26.369-13.1q-1.624-2.262-3.116-4.737c-9.915-16.461-12.027-34.22-5.648-47.5,6.78-14.115,23.191-23.462,35.9-25.4,7.091-1.056,12.559.2,15.834,3.708,8.337,8.916-.325,30.126-6.229,41.974a164.3,164.3,0,0,1-21.407,32.418c4.908,4.724,10.155,7.62,14.645,7.8,13.434.533,27.981-22.773,37.607-38.208,8.751-14.032,13.568-21.762,20.742-18.437,6.031,2.8,4.507,10.014,2.74,18.364-1.679,7.945-4.219,19.954.207,24.729,2.525,2.722,12.195,7.507,47.444-6.819l4.295,10.52c-31.624,12.85-50.721,14.125-60.089,4.009-6.93-7.48-6.031-18.864-4.217-28.705-.5.794-.99,1.582-1.465,2.346-10.956,17.57-25.714,41.232-44.058,43.407m-3.517-85.994a27,27,0,0,0-3.124.569c-8.762,2.1-20.338,8.825-25.046,18.63-5.558,11.575-.992,26.569,5.137,36.741.424.706.862,1.4,1.309,2.075a143.781,143.781,0,0,0,13.153-18.549c12.517-20.94,15.417-36.4,13.524-39.172-.225-.152-1.775-.671-4.952-.294m-65.519-63.8c-4.282.507-16.4,14.868-22.983,31.638-6.878,17.53-7.124,38.292-3.49,57.017,21.76-26.028,32.63-49.6,31.38-69.051-.04-.617-.073-1.358-.111-2.193-.591-13.5-2.758-16.925-4.472-17.422a1.815,1.815,0,0,0-.325.011" transform="translate(-353.075 -149.002)" fill="#efd9c5"/>
        <path id="Path_12103" data-name="Path 12103" d="M1704.435,570.427a7.978,7.978,0,1,1-8.866-6.972,7.963,7.963,0,0,1,8.866,6.972" transform="translate(-1399.723 -467.034)" fill="#efd9c5"/>
        <path id="Path_12104" data-name="Path 12104" d="M297.405,1173.582a7.267,7.267,0,1,1-8.077-6.351,7.253,7.253,0,0,1,8.077,6.351" transform="translate(-234.529 -967.544)" fill="#efd9c5"/>
        <path id="Path_12105" data-name="Path 12105" d="M1182.1,1347.405l-439.631-9.568a10.431,10.431,0,0,1-10.2-10.656l6.433-295.6a10.431,10.431,0,0,1,10.656-10.2l439.631,9.568a10.431,10.431,0,0,1,10.2,10.655l-6.433,295.6a10.431,10.431,0,0,1-10.656,10.2" transform="translate(-607.018 -846.677)" fill="#c4d7f2"/>
        <path id="Path_12106" data-name="Path 12106" d="M361.453,1822.133l-16.2,7.779c-.194-.276-.4-.573-.614-.884q-.191-.27-.394-.564l0,0c-.525-.763-1.115-1.617-1.755-2.556-1.048-1.531-2.242-3.291-3.565-5.255-.347-.52-.707-1.055-1.074-1.606s-.747-1.118-1.133-1.7c-.343-.512-.686-1.034-1.041-1.571-.042-.067-.083-.129-.129-.194-.2-.3-.4-.6-.6-.911-.246-.374-.494-.752-.751-1.136-.371-.57-.751-1.146-1.136-1.736-.287-.436-.577-.881-.865-1.332-.147-.221-.293-.449-.442-.674l-.295-.453c-.345-.536-.7-1.076-1.053-1.627q-1.138-1.76-2.328-3.619-1.425-2.23-2.918-4.591c-3.054-4.844-6.293-10.081-9.633-15.628q-.689-1.146-1.385-2.308c-.365-.609-.731-1.223-1.093-1.838-.6-1-1.188-2-1.787-3.017q-.764-1.3-1.535-2.621-1.11-1.912-2.231-3.855-.9-1.568-1.806-3.152c-.756-1.328-1.516-2.666-2.268-4.017-.342-.6-.681-1.216-1.021-1.827q-1.022-1.824-2.039-3.68-.916-1.667-1.833-3.359-.642-1.176-1.273-2.362c-.65-1.215-1.3-2.431-1.951-3.656-.335-.634-.668-1.263-1-1.9l-.993-1.907c-.333-.64-.664-1.276-.993-1.917-.662-1.282-1.313-2.563-1.968-3.853-3.31-6.551-6.512-13.2-9.512-19.849l0-.008c-.325-.72-.651-1.44-.968-2.165-.24-.521-.471-1.045-.7-1.567l-.008-.016c-.4-.906-.79-1.8-1.176-2.706q-.559-1.292-1.1-2.587c-.424-1-.841-2.006-1.254-3.007-17.59-42.708-24.766-83.554,1.524-99.154.259-.155.52-.306.789-.451a38.794,38.794,0,0,1,3.9-1.91,33.959,33.959,0,0,1,9.041-2.512c.437-.061.876-.108,1.31-.142,59.189-4.687,68.132,185.575,69.261,219.6" transform="translate(-215.417 -1328.359)" fill="#efd9c5"/>
        <path id="Path_12107" data-name="Path 12107" d="M457.282,1629.467l1.761,3.912c2.342,5.217,4.425,10.547,6.45,15.9.525,1.327.98,2.682,1.463,4.029l1.434,4.043c.5,1.341.912,2.71,1.353,4.066l1.31,4.082c.9,2.713,1.653,5.47,2.476,8.208l1.206,4.112,1.112,4.141c1.545,5.5,2.79,11.081,4.13,16.635l1.806,8.371c.3,1.4.613,2.791.895,4.189l.805,4.206c.522,2.8,1.06,5.612,1.559,8.423l1.385,8.445.691,4.225.6,4.236c.4,2.828.818,5.652,1.2,8.479s.675,5.664,1.014,8.494c.321,2.835.675,5.664.967,8.5.536,5.674,1.124,11.349,1.536,17.031q.889,11.377,1.426,22.779.285,6.084.466,12.177.095,2.807.15,5.618l0,0c0,.167.005.331.009.5.035,1.536.059,3.068.08,4.606l0,0c.015.639.025,1.28.029,1.919l-1.408.676q-.185-2.579-.379-5.155-.248-3.334-.512-6.659c-.012-.174-.023-.347-.041-.523q-.308-3.859-.626-7.707-.5-5.883-1.041-11.762-.743-8.079-1.606-16.152c-.261-2.828-.652-5.638-.981-8.458l-.976-8.457c-.342-2.814-.748-5.623-1.114-8.436-.392-2.811-.733-5.625-1.162-8.429-.447-2.8-.847-5.606-1.272-8.411l-.625-4.206-.715-4.188-1.427-8.383c-.51-2.79-1.065-5.568-1.591-8.35l-.777-4.179c-.267-1.389-.574-2.775-.856-4.162l-1.744-8.318-1.919-8.275c-.315-1.381-.638-2.759-1-4.127l-1.034-4.117-1.026-4.121-1.121-4.1c-.765-2.724-1.459-5.472-2.3-8.172l-1.221-4.068c-.408-1.352-.81-2.712-1.254-4.052l-1.3-4.043c-.438-1.348-.848-2.7-1.327-4.033l-1.4-4.009c-.467-1.335-.921-2.675-1.435-3.991l-1.5-3.972c-.256-.661-.489-1.328-.75-1.988l-.791-1.968-1.576-3.944c-.545-1.307-1.114-2.6-1.672-3.9-1.087-2.615-2.33-5.161-3.5-7.736-2.434-5.111-5.058-10.136-7.932-15.02l-.487-.822c.437-.061.876-.108,1.311-.142.075.1.144.2.214.307,3.211,4.732,6.088,9.677,8.832,14.7,1.307,2.54,2.658,5.065,3.871,7.655.614,1.289,1.251,2.572,1.852,3.867" transform="translate(-365.738 -1328.773)" fill="#fcefeb"/>
        <path id="Path_12108" data-name="Path 12108" d="M361.569,1629.627l.013.645c0,.707.1,1.415.138,2.122l.338,4.237c.03.35.047.705.087,1.055l.142,1.054.27,2.111.543,4.215c.147,1.406.441,2.8.677,4.2l.748,4.183c.253,1.391.464,2.791.738,4.183l.9,4.154,1.8,8.3c1.409,5.5,2.76,11,4.188,16.48l2.377,8.173,2.332,8.174c.367,1.372.827,2.715,1.252,4.069l1.3,4.053,2.589,8.1,1.287,4.057.635,2.027.7,2.014,2.778,8.047,2.774,8.049,1.389,4.023c.233.667.454,1.34.7,2.006l.747,1.994,5.885,15.988,2.94,7.99c1,2.656,2.09,5.281,3.1,7.937l5.349,13.774,0,0,.818,2.108,3.1,7.939,3.212,7.895c2.134,5.265,4.3,10.519,6.414,15.8l1.105,2.76,2.067,5.159q.307.784.626,1.56c.326.8.665,1.587,1,2.378l1.661,3.929c.6,1.444,1.2,2.882,1.806,4.325l-1.741.836q-1.029-2.143-2.061-4.28l-.508-1.069-1.33-2.791q-.435-.906-.858-1.818-.483-1.022-.939-2.051l-1.772-3.947-.022-.046-1.711-3.8c-2.34-5.192-4.626-10.41-6.941-15.614l-3.464-7.81c-1.114-2.618-2.169-5.264-3.256-7.9l-6.483-15.814c-1.08-2.634-2.159-5.273-3.187-7.927l-.266-.7,0-.009-2.734-7.294-6-16.014-.737-2c-.246-.672-.462-1.347-.7-2.024l-1.366-4.05-2.744-8.1-2.738-8.1-.685-2.024-.629-2.046L378,1720.4l-2.451-8.2-1.231-4.1c-.4-1.366-.837-2.725-1.185-4.111l-2.181-8.277-2.142-8.291c-.652-2.778-1.242-5.575-1.866-8.357s-1.247-5.573-1.812-8.373l-1.467-8.446-.729-4.217c-.213-1.415-.383-2.836-.561-4.252l-.526-4.253c-.159-1.421-.381-2.832-.457-4.261l-.317-4.277-.154-2.136-.072-1.067c-.013-.358-.011-.718-.018-1.073l-.06-4.288c0-.713-.05-1.426,0-2.141l.01-.2c.259-.155.52-.306.788-.45" transform="translate(-299.048 -1350.894)" fill="#fcefeb"/>
        <g id="Group_185" data-name="Group 185" transform="translate(60.209 378.338)" opacity="0.2" style="mix-blend-mode: multiply;isolation: isolate">
          <g id="Group_184" data-name="Group 184">
            <g id="Group_183" data-name="Group 183" clip-path="url(#clip-path-3)">
              <path id="Path_12109" data-name="Path 12109" d="M429.974,2331.181l-8.331,4c-.194-.276-.4-.573-.614-.884-.127-.18-.255-.37-.394-.565l0,0c-.525-.763-1.115-1.617-1.755-2.555-1.049-1.532-2.242-3.291-3.565-5.255q-.521-.78-1.074-1.606c-.367-.551-.747-1.117-1.133-1.7-.339-.514-.688-1.038-1.041-1.571-.042-.067-.083-.13-.129-.194-.2-.3-.4-.6-.6-.911-.246-.374-.494-.752-.751-1.136-.371-.57-.751-1.146-1.136-1.736-.286-.436-.577-.881-.865-1.332-.147-.221-.293-.449-.442-.675l-.295-.453c-.345-.537-.7-1.075-1.053-1.627q-1.138-1.761-2.328-3.619-1.428-2.236-2.918-4.591c-3.054-4.844-6.293-10.081-9.633-15.627q-.689-1.146-1.385-2.308c-.365-.609-.731-1.223-1.093-1.839-.6-1-1.187-2-1.787-3.017l-1.535-2.621q-1.111-1.912-2.231-3.855l-1.806-3.152c-.756-1.329-1.516-2.666-2.268-4.017-.342-.6-.681-1.216-1.021-1.827q-1.022-1.824-2.04-3.681c-.613-1.115-1.225-2.231-1.834-3.359q-.642-1.176-1.273-2.362c-.65-1.215-1.3-2.431-1.951-3.656-.335-.634-.668-1.263-1-1.9l-.993-1.907c-.333-.64-.664-1.275-.993-1.917-.662-1.281-1.313-2.563-1.969-3.853-3.314-6.549-6.516-13.192-9.512-19.848l0-.009c-.325-.72-.651-1.441-.968-2.165-.24-.521-.471-1.045-.7-1.568l-.008-.017c-.4-.905-.79-1.8-1.176-2.705q-.559-1.293-1.1-2.586-.637-1.5-1.254-3.007c13,10.781,26.316,28.31,38.309,46.931l0,.008c4.454,6.9,8.717,13.956,12.72,20.871l0,0c5.007,8.653,9.6,17.091,13.61,24.74,1.14,2.17,2.228,4.277,3.269,6.3,4.3,8.383,7.734,15.473,10.048,20.355" transform="translate(-352.012 -2211.968)" fill="#003889"/>
            </g>
          </g>
        </g>
        <path id="Path_12110" data-name="Path 12110" d="M148.482,2262.923l0,0c1.244,2.622,2.157,4.6,2.7,5.787l-12.767,6.132c-24.826-15.826-128-84.611-113.149-125.731q.34-.94.759-1.856a26.775,26.775,0,0,1,5.157-7.429q.769-.8,1.557-1.5c.21-.193.419-.376.633-.55,14.852-12.485,33.6-.489,51.781,20.535l0,.008c23.827,27.568,46.663,70.653,58.409,94.447l.022.046q1.454,2.947,2.67,5.474c.829,1.7,1.569,3.255,2.218,4.629" transform="translate(-19.743 -1767.932)" fill="#efd9c5"/>
        <path id="Path_12111" data-name="Path 12111" d="M152.041,2342.179l-1.262.606q-15.6-10.141-30.405-21.466a407.763,407.763,0,0,1-38.3-32.9c-1.5-1.485-3.019-2.943-4.491-4.45l-4.4-4.547-1.1-1.144-1.066-1.164-2.137-2.337-2.133-2.338c-.711-.776-1.388-1.589-2.079-2.385a225.548,225.548,0,0,1-15.644-19.923c-1.2-1.735-2.36-3.506-3.544-5.255-1.133-1.783-2.275-3.562-3.358-5.38l-1.585-2.745-.788-1.374-.753-1.4-1.5-2.8-1.414-2.837c-1.354-2.872-2.643-5.78-3.769-8.745q.34-.94.759-1.856c1.484,3.281,3.142,6.478,4.92,9.6l1.548,2.711,1.626,2.659.818,1.329.853,1.308,1.709,2.608L48.1,2243.1c1.234,1.673,2.446,3.362,3.7,5.025,1.28,1.641,2.539,3.291,3.839,4.918l3.937,4.845,4.058,4.746c.665.8,1.372,1.566,2.063,2.341l2.09,2.323c.7.772,1.379,1.557,2.088,2.32l2.136,2.28,2.136,2.28,1.069,1.137,1.1,1.113,4.369,4.474c1.456,1.484,2.975,2.919,4.459,4.384,2.937,2.957,6.024,5.765,9.05,8.639.747.723,1.519,1.424,2.3,2.122l2.323,2.1c1.551,1.393,3.083,2.81,4.642,4.2l4.717,4.122c1.576,1.371,3.124,2.77,4.738,4.1l4.785,4.049,2.384,2.039,2.422,1.99c9.085,7.5,18.337,14.815,27.666,22.059.629.488,1.253.977,1.882,1.464" transform="translate(-26.791 -1838.422)" fill="#fcefeb"/>
        <path id="Path_12112" data-name="Path 12112" d="M189.132,2295.838l-1.55.744c-.4-.6-.8-1.193-1.2-1.791q-1.191-1.758-2.373-3.52l-7.241-10.328c-2.428-3.432-4.766-6.923-7.194-10.345l-3.728-5.084-3.7-5.1c-2.478-3.388-4.858-6.848-7.449-10.151l-7.593-10.036-1.886-2.518-1.957-2.464-3.917-4.922c-5.115-6.647-10.586-13-15.915-19.474l-8.285-9.458c-1.353-1.6-2.813-3.1-4.223-4.652l-4.25-4.633c-.717-.769-1.4-1.562-2.142-2.3l-2.2-2.246c-1.466-1.495-2.935-2.994-4.384-4.507-.717-.768-1.47-1.493-2.222-2.224l-2.253-2.194-2.253-2.194-1.128-1.1-1.155-1.06-4.622-4.275-4.738-4.143c-1.183-.99-2.368-1.984-3.566-2.962.21-.193.419-.376.633-.55.364.245.724.492,1.082.736.867.609,1.763,1.173,2.6,1.815,1.7,1.249,3.4,2.5,5.084,3.786l4.953,3.962,1.233,1,1.195,1.036,2.393,2.08,2.393,2.08c.8.693,1.6,1.384,2.368,2.113,1.554,1.432,3.092,2.883,4.629,4.334l2.311,2.176c.776.719,1.5,1.489,2.25,2.231l4.476,4.494c1.481,1.5,2.991,2.993,4.4,4.561l8.582,9.341,8.236,9.634c1.376,1.6,2.748,3.212,4.042,4.882l3.943,4.955,5.89,7.46,1.888,2.543,7.5,10.21c2.53,3.378,4.874,6.891,7.251,10.379l3.559,5.232,3.529,5.256c4.557,7.1,9,14.272,13.41,21.452q1.647,2.869,3.286,5.742" transform="translate(-63.012 -1792.499)" fill="#fcefeb"/>
        <path id="Path_12113" data-name="Path 12113" d="M389.006,2693.936c-4.7-6.38-22.754-21.354-56.514-26-5.524-.76-17.789-2.447-22.235-.2-8.833,4.461,30.6,21.865,25.478,24.183-5.441,2.465-51.872-15.876-59.756-12.9-3.7,1.4,32.021,12.776,31.036,28.213-.223,3.488-2.242,6.388-4.169,8.465h96.436s1.3-6.046-10.276-21.765" transform="translate(-228.551 -2210.512)" fill="#33da82"/>
        <path id="Path_12114" data-name="Path 12114" d="M927.442,2853.317c0,11.734-133.652,21.247-298.521,21.247S330.4,2865.051,330.4,2853.317s133.652-21.247,298.521-21.247,298.521,9.512,298.521,21.247" transform="translate(-273.888 -2347.669)" fill="#fcefeb"/>
        <path id="Path_12115" data-name="Path 12115" d="M3200.474,1277.452s5.167-5.571-.217-9.76a88.581,88.581,0,0,1-7.448-6.263s-3.7,14.337,5,16.814Z" transform="translate(-2646.06 -1045.674)" fill="#3b82f4"/>
        <path id="Path_12116" data-name="Path 12116" d="M3298.641,1606.625h0c-5.31,1.581-11.473-3.89-13.605-11.823l-66.474-247.276c-.178-.662.885-1.557,2.362-2h0c1.476-.439,2.855-.272,3.069.38l79.573,243.377c2.554,7.809.386,15.759-4.924,17.339" transform="translate(-2668.037 -1115.186)" fill="#f57a38"/>
        <path id="Path_12117" data-name="Path 12117" d="M3908.192,1243.837s7.172-2.508,4.373-8.728a88.548,88.548,0,0,1-3.655-9.019s-9.971,10.944-3.44,17.2Z" transform="translate(-3235.633 -1016.378)" fill="#f4b545"/>
        <path id="Path_12118" data-name="Path 12118" d="M3581.7,1584.805h0c-5.433-1.086-8.322-8.8-6.5-16.814l56.894-249.654c.152-.669,1.511-.962,3.022-.66s2.652,1.1,2.535,1.771l-43.492,252.334c-1.4,8.1-7.03,14.109-12.462,13.023" transform="translate(-2963.245 -1092.202)" fill="#36588e"/>
        <path id="Path_12119" data-name="Path 12119" d="M3528.617,1232.53s6.106-4.522,1.588-9.632a88.575,88.575,0,0,1-6.165-7.529s-6.277,13.408,1.816,17.449Z" transform="translate(-2919.359 -1007.49)" fill="#36588e"/>
        <path id="Path_12120" data-name="Path 12120" d="M3565.25,1463.162l-20.538-156.577c-.09-.68-1.415-1.1-2.947-.94s-2.743.843-2.69,1.527l12.042,155.991Z" transform="translate(-2933.745 -1082.297)" fill="#fff"/>
        <path id="Path_12121" data-name="Path 12121" d="M3151.412,2054.012h136.573l-41.266,153.831h-50.109Z" transform="translate(-2612.389 -1702.691)" fill="#fcefeb"/>
        <path id="Path_12122" data-name="Path 12122" d="M1152.448,1387.263H712.713a10.431,10.431,0,0,1-10.431-10.431V1081.159a10.431,10.431,0,0,1,10.431-10.431h439.735a10.431,10.431,0,0,1,10.431,10.431v295.673a10.431,10.431,0,0,1-10.431,10.431" transform="translate(-582.162 -887.59)" fill="#f57a38"/>
        <path id="Path_12123" data-name="Path 12123" d="M1239.155,1471.849h-400a8.318,8.318,0,0,1-8.308-8.308V1207.6a8.318,8.318,0,0,1,8.308-8.308h400a8.318,8.318,0,0,1,8.308,8.308v255.938a8.318,8.318,0,0,1-8.308,8.308m-400-269.273a5.032,5.032,0,0,0-5.026,5.026v255.938a5.032,5.032,0,0,0,5.026,5.026h400a5.032,5.032,0,0,0,5.026-5.026V1207.6a5.032,5.032,0,0,0-5.026-5.026Z" transform="translate(-688.737 -994.166)" fill="#fff"/>
        <g id="Group_188" data-name="Group 188" transform="translate(103.372 312.051)" opacity="0.22" style="mix-blend-mode: multiply;isolation: isolate">
          <g id="Group_187" data-name="Group 187">
            <g id="Group_186" data-name="Group 186" clip-path="url(#clip-path-4)">
              <path id="Path_12124" data-name="Path 12124" d="M723.764,1858.171c1.252-.646,4.5-3.528,4.085-4.367s-4.079,1.308-7.421,2.906-4.571,11.3-4.571,11.3l-.917.944-1.021-.852-23.411,22.439s-7.525-11.19-10.486-17.731a11.241,11.241,0,0,0-8.813-6.933l-.08.01a6.872,6.872,0,0,0-1.1-4.359,25.755,25.755,0,0,1-2.113-3.059c3.331-4.287,2.237-14.45,1.371-19.767l.471-1.412c4.228-12.67-15.771-12.854-15.771-12.854-20.885-.551-21.2,19.831-19.657,25.34s-10.057,16.343-12.622,22.586a11.956,11.956,0,0,0-.067,7.9H607.676a3.353,3.353,0,0,0-3.3,3.542l5.494,65.26a3.535,3.535,0,0,0,3.595,3.271h.818l-1.911,16.136-6.741,56.935a.59.59,0,0,0,.565.675l.829.04a.729.729,0,0,0,.74-.616l9.292-62.24,1.631-10.929h16.761l-3.666,69.86a.592.592,0,0,0,.614.634l.835-.017a.731.731,0,0,0,.7-.659l5.814-69.818h31.192l-1.653,20.956-2.388,30.317h1.46l-.06,2.819-.057,2.669c-5.613.256-4.041,16.686-4.041,16.686l1.635.1s.488-6.142,1.732-7.66c.7-.855,1.284.779,1.865,2.678l-.117,4.6a.594.594,0,0,0,.633.616l.836-.04a.729.729,0,0,0,.687-.675l0-.059c2.012,1.3,7.224,1.755,9.685.038,2.8-1.955-2.619-5.532-3.289-4.572a1.134,1.134,0,0,1-.345.327c-1.81-.791-2.995-9.4-2.995-9.4s.17-1.08.469-2.963c.214-1.344.494-3.107.821-5.167H677.1s6.856-25.667,11.666-43.55c1.622-6.02,3.009-11.154,3.824-14.132h3.147l-6.214,57.685h1.593l-.059,2.816-.057,2.669c-5.613.256-4.041,16.686-4.041,16.686l1.635.1s.488-6.142,1.732-7.66,2.118,4.814,3.268,6.539,7.521,2.579,10.323.624-2.619-5.532-3.289-4.572a1.137,1.137,0,0,1-.345.327c-1.811-.791-2.995-9.4-2.995-9.4s.171-1.08.469-2.963c.213-1.343.493-3.106.82-5.165h.626s17.152-58.6,18.188-67.495-41.776-15.143-45.961-15.536c-2.5-.235-3.683-3.477-4.235-6.051-.148-.7-.249-1.339-.319-1.865l1.688-.094s-1.2-13.211.335-14.258,3.181-6.54,3.181-6.54,11.858,14,17.63,15.3,30.785-33.486,30.785-33.486l-.951-.794c2.795-2.991,1.543-5.142,5.478-10.838,3.962-5.743-2.519-3.148-1.265-3.788" transform="translate(-604.37 -1824.42)" fill="#003889"/>
            </g>
          </g>
        </g>
        <path id="Path_12125" data-name="Path 12125" d="M1097.4,2820.61l.19,2.893.578,8.724.424,6.425,8.417,9.954s3.635-1.024,1.737-1.638-3.882-9.43-3.882-9.43l.21-2.963c.168-2.35.426-5.948.732-10.255.075-1.026.149-2.092.228-3.191Z" transform="translate(-909.695 -2338.169)" fill="#fdc8aa"/>
        <path id="Path_12126" data-name="Path 12126" d="M1095.3,2916.007s1.239.789,1.825-.17,6.319,2.617,3.688,4.572-9.076,1.1-10.378-.624-2.728-8.057-3.839-6.539-1.063,7.659-1.063,7.659l-1.644-.1s-3.014-16.466,2.6-16.687c0,0,1.83,6.279,8.81,11.887" transform="translate(-897.83 -2407.395)" fill="#1f3a6f"/>
        <path id="Path_12127" data-name="Path 12127" d="M1098.506,2837.526l.578,8.724c1.492.495,4.928,1.671,6.906,2.349.168-2.35.426-5.948.732-10.255-2.281-.228-5.468-.545-8.216-.818" transform="translate(-910.616 -2352.191)" fill="#efa37d"/>
        <path id="Path_12128" data-name="Path 12128" d="M964.328,2820.61l.19,2.893.578,8.724.424,6.425,8.417,9.954s3.634-1.024,1.737-1.638-3.882-9.43-3.882-9.43.076-1.08.21-2.963c.168-2.35.426-5.948.732-10.255.075-1.026.149-2.092.228-3.191Z" transform="translate(-799.388 -2338.169)" fill="#fdc8aa"/>
        <path id="Path_12129" data-name="Path 12129" d="M962.235,2916.007s1.239.789,1.825-.17,6.319,2.617,3.688,4.572-9.076,1.1-10.377-.624-2.728-8.057-3.839-6.539-1.063,7.659-1.063,7.659l-1.644-.1s-3.014-16.466,2.6-16.687c0,0,1.83,6.279,8.81,11.887" transform="translate(-787.524 -2407.395)" fill="#1f3a6f"/>
        <path id="Path_12130" data-name="Path 12130" d="M965.44,2837.526l.578,8.724c1.492.495,4.929,1.671,6.906,2.349.168-2.35.426-5.948.732-10.255-2.28-.228-5.468-.545-8.216-.818" transform="translate(-800.31 -2352.191)" fill="#efa37d"/>
        <path id="Path_12131" data-name="Path 12131" d="M977.836,2511.128c-.09.271-1.417,7.506-3.123,16.881-3.249,17.883-7.864,43.55-7.864,43.55h-10.2l-.259-30.317-.267-31.683Z" transform="translate(-792.584 -2080.32)" fill="#1f3a6f"/>
        <path id="Path_12132" data-name="Path 12132" d="M977.836,2511.128c-.09.271-1.417,7.506-3.123,16.881l-18.326,13.232-.267-31.683Z" transform="translate(-792.584 -2080.32)" fill="#072542"/>
        <path id="Path_12133" data-name="Path 12133" d="M857.358,2357.466c-.259,8.892-12.294,67.495-12.294,67.495h-9.681l1.177-57.684H792.744l-10.2-34.568h22.006a24.593,24.593,0,0,0,.73,3.171c.777,2.574,2.244,5.816,4.764,6.051,4.218.393,47.58,6.639,47.317,15.535" transform="translate(-648.694 -1933.719)" fill="#1f3a6f"/>
        <path id="Path_12134" data-name="Path 12134" d="M1151.878,2019.445l-5.682-4.151,5.13-5.8s.382-9.7,3.584-11.3,6.685-3.748,7.167-2.905-2.509,3.722-3.7,4.367,5.057-1.955,1.6,3.788-1.972,7.878-4.584,10.9c-.515.6-1.791,2.47-3.508,5.094" transform="translate(-950.149 -1653.858)" fill="#fdc8aa"/>
        <path id="Path_12135" data-name="Path 12135" d="M840.574,2335.881,826.62,2339.1l-1.5-6.392h14.723a24.573,24.573,0,0,0,.73,3.171" transform="translate(-683.991 -1933.72)" fill="#072542"/>
        <path id="Path_12136" data-name="Path 12136" d="M820.564,1888.168s8.569,27.421-4.162,24.973-12-23.014,4.162-24.973" transform="translate(-669.443 -1565.213)" fill="#fdc8aa"/>
        <path id="Path_12137" data-name="Path 12137" d="M741.633,2066.776s5.886.393,9.418,6.933,12.034,17.73,12.034,17.73L784.537,2069l7.064,5.494s-21.975,34.794-27.861,33.486-18.966-15.3-18.966-15.3-1.165,5.494-2.61,6.54.91,14.258.91,14.258l-32.7,1.831-4.317-44.342Z" transform="translate(-585.29 -1713.272)" fill="#f4b545"/>
        <path id="Path_12138" data-name="Path 12138" d="M772.28,2095.593s-6.819,33.983-20.423,31.236-6.279-32.047-6.279-32.047Z" transform="translate(-616.421 -1736.488)" fill="#e59d29"/>
        <path id="Path_12139" data-name="Path 12139" d="M654.05,1824.431s20.015.183,16.894,12.854-4.223,16.71,2.387,24.239-9.365,44.988-26.809,36.909-22.586-19.832-20.566-26.075,12.67-17.077,10.65-22.586-3.489-25.891,17.445-25.34" transform="translate(-518.548 -1512.369)" fill="#1f3a6f"/>
        <path id="Path_12140" data-name="Path 12140" d="M751.443,2618.919l.834-.016a.656.656,0,0,0,.644-.658l-.3-74.74-4.446.087,2.6,74.694a.656.656,0,0,0,.669.634" transform="translate(-620.203 -2108.46)" fill="#acc6e5"/>
        <path id="Path_12141" data-name="Path 12141" d="M618.887,2562.939l-.765,12.353-3.857,62.24a.656.656,0,0,1-.687.616l-.832-.039a.655.655,0,0,1-.624-.675l1.77-56.935.553-17.768Z" transform="translate(-507.424 -2124.398)" fill="#fff"/>
        <g id="Group_191" data-name="Group 191" transform="translate(106.469 438.333)" opacity="0.2" style="mix-blend-mode: multiply;isolation: isolate">
          <g id="Group_190" data-name="Group 190">
            <g id="Group_189" data-name="Group 189" clip-path="url(#clip-path-5)">
              <path id="Path_12142" data-name="Path 12142" d="M627.466,2562.938l-.765,12.354-4.23,5.207.553-17.769Z" transform="translate(-622.471 -2562.73)" fill="#003889"/>
            </g>
          </g>
        </g>
        <path id="Path_12143" data-name="Path 12143" d="M964.245,2637.433a.655.655,0,0,1-.628.675l-.832.04a.658.658,0,0,1-.687-.616l-3.838-61.923-.785-12.671,4.442-.208.271,8.661Z" transform="translate(-793.708 -2124.397)" fill="#fff"/>
        <g id="Group_194" data-name="Group 194" transform="translate(163.768 438.333)" opacity="0.2" style="mix-blend-mode: multiply;isolation: isolate">
          <g id="Group_193" data-name="Group 193">
            <g id="Group_192" data-name="Group 192" clip-path="url(#clip-path-6)">
              <path id="Path_12144" data-name="Path 12144" d="M962.189,2571.39c-1.111,1.2-2.586,2.806-3.928,4.218l-.785-12.671,4.442-.208Z" transform="translate(-957.476 -2562.73)" fill="#003889"/>
            </g>
          </g>
        </g>
        <path id="Path_12145" data-name="Path 12145" d="M535.271,2150.9H575.9a3.029,3.029,0,0,1,2.912,2.2l17.291,60.329h12.416a2.888,2.888,0,0,1,2.888,2.888v3.773a2.888,2.888,0,0,1-2.888,2.888H547.358a3.938,3.938,0,0,1-3.88-3.272l-11.193-65.259a3.03,3.03,0,0,1,2.986-3.542" transform="translate(-441.205 -1783.006)" fill="#fff"/>
        <g id="Group_197" data-name="Group 197" transform="translate(169.634 229.972)" opacity="0.3">
          <g id="Group_196" data-name="Group 196">
            <g id="Group_195" data-name="Group 195" clip-path="url(#clip-path-7)">
              <path id="Path_12146" data-name="Path 12146" d="M1162.355,1488.511h-75.778a8.291,8.291,0,0,0-8.291,8.291v19.231h-37.875V1401.019h35.427a8.291,8.291,0,0,0,8.291-8.291v-39.9a8.291,8.291,0,0,0-8.291-8.291h-75.778a8.291,8.291,0,0,0-8.291,8.291v39.9a8.291,8.291,0,0,0,8.291,8.291h35.428v119.938h42.8V1536.7a8.291,8.291,0,0,0,8.291,8.292h75.778a8.291,8.291,0,0,0,8.291-8.292v-39.9a8.291,8.291,0,0,0-8.291-8.291" transform="translate(-991.77 -1344.537)" fill="#fff"/>
            </g>
          </g>
        </g>
        <g id="Group_200" data-name="Group 200" transform="translate(355.033 341.563)" opacity="0.3">
          <g id="Group_199" data-name="Group 199">
            <g id="Group_198" data-name="Group 198" clip-path="url(#clip-path-8)">
              <path id="Path_12147" data-name="Path 12147" d="M2250.56,2029.346h-35.428v-32.382H2075.711v4.923h134.5v27.458h-35.428a8.291,8.291,0,0,0-8.291,8.291v39.9a8.291,8.291,0,0,0,8.291,8.291h75.779a8.291,8.291,0,0,0,8.291-8.291v-39.9a8.291,8.291,0,0,0-8.291-8.291" transform="translate(-2075.711 -1996.963)" fill="#fff"/>
            </g>
          </g>
        </g>
        <path id="Path_12148" data-name="Path 12148" d="M1843.978,1471.6l162.387,29.473a7.369,7.369,0,0,0,8.567-5.935l37.764-208.07a7.369,7.369,0,0,0-5.935-8.566l-162.388-29.473a7.369,7.369,0,0,0-8.567,5.935l-37.764,208.069a7.369,7.369,0,0,0,5.935,8.567" transform="translate(-1523.562 -1035.297)" fill="#fff"/>
        <path id="Path_12149" data-name="Path 12149" d="M2312.814,1443.047l73.557,13.35a5.2,5.2,0,0,0,1.859-10.24l-73.558-13.35a5.2,5.2,0,0,0-1.858,10.24" transform="translate(-1913.682 -1187.668)" fill="#ecf3fe"/>
        <path id="Path_12150" data-name="Path 12150" d="M2075.027,1853.127l130.5,23.685a3.706,3.706,0,1,0,1.324-7.292l-130.5-23.685a3.706,3.706,0,0,0-1.324,7.292" transform="translate(-1717.587 -1530.071)" fill="#ecf3fe"/>
        <path id="Path_12151" data-name="Path 12151" d="M2057.6,1949.137l130.5,23.685a3.705,3.705,0,0,0,4.308-2.985h0a3.705,3.705,0,0,0-2.984-4.308l-130.5-23.685a3.706,3.706,0,0,0-1.323,7.293" transform="translate(-1703.143 -1609.659)" fill="#ecf3fe"/>
        <path id="Path_12152" data-name="Path 12152" d="M2040.177,2045.147l130.5,23.685a3.706,3.706,0,0,0,1.324-7.292l-130.5-23.685a3.706,3.706,0,1,0-1.324,7.292" transform="translate(-1688.697 -1689.247)" fill="#ecf3fe"/>
        <path id="Path_12153" data-name="Path 12153" d="M2022.752,2141.157l130.5,23.685a3.706,3.706,0,1,0,1.323-7.292l-130.5-23.685a3.706,3.706,0,1,0-1.323,7.292" transform="translate(-1674.253 -1768.835)" fill="#ecf3fe"/>
        <path id="Path_12154" data-name="Path 12154" d="M2005.326,2237.166l130.5,23.685a3.705,3.705,0,0,0,4.308-2.984h0a3.706,3.706,0,0,0-2.984-4.308l-130.5-23.685a3.706,3.706,0,1,0-1.324,7.292" transform="translate(-1659.808 -1848.423)" fill="#ecf3fe"/>
        <path id="Path_12155" data-name="Path 12155" d="M1987.9,2333.176l130.5,23.685a3.706,3.706,0,1,0,1.323-7.292l-130.5-23.685a3.706,3.706,0,0,0-1.323,7.293" transform="translate(-1645.363 -1928.011)" fill="#ecf3fe"/>
        <path id="Path_12156" data-name="Path 12156" d="M1970.476,2429.186l130.5,23.685a3.706,3.706,0,1,0,1.323-7.292l-130.5-23.685a3.706,3.706,0,1,0-1.323,7.292" transform="translate(-1630.918 -2007.6)" fill="#ecf3fe"/>
        <path id="Path_12157" data-name="Path 12157" d="M2139.934,1607.085l118.939,21.587a2.01,2.01,0,0,0,2.337-1.619l5.026-27.695a2.01,2.01,0,0,0-1.619-2.337l-118.939-21.587a2.01,2.01,0,0,0-2.337,1.619l-5.027,27.7a2.01,2.01,0,0,0,1.619,2.337" transform="translate(-1772.546 -1305.943)" fill="#33da82"/>
        <g id="Group_203" data-name="Group 203" transform="translate(191.616 125.616)" opacity="0.2" style="mix-blend-mode: multiply;isolation: isolate">
          <g id="Group_202" data-name="Group 202">
            <g id="Group_201" data-name="Group 201" clip-path="url(#clip-path-9)">
              <path id="Path_12158" data-name="Path 12158" d="M1390.009,933.523a7.347,7.347,0,0,0-.117-2.259,7.793,7.793,0,0,0-.352-1.173,7.3,7.3,0,0,0-3.271-3.7l-18.335-10.046,22.877-148.261a7.369,7.369,0,0,0-6.159-8.407l-163.111-25.168a7.369,7.369,0,0,0-8.406,6.159l-12.928,83.781-7.253-3.974a7.273,7.273,0,0,0-6.057-.433,6.867,6.867,0,0,0-1.125.526,7.7,7.7,0,0,0-.669.453,7.324,7.324,0,0,0-2.046,2.348L1152.12,879.83h0l-30.933,56.456a7.339,7.339,0,0,0-.572,1.349c0,.007-.005.014-.007.022s-.008.03-.012.044a7.237,7.237,0,0,0-.3,2.316c0,.019,0,.038.005.057a7.329,7.329,0,0,0,.224,1.511q.018.073.038.145.031.111.065.222c.024.078.05.155.077.233.018.051.035.1.054.154q.07.191.152.379l0,.011q.093.212.2.417l.006.012c.066.127.136.251.209.375l.039.064q.1.159.2.315l.05.072q.109.155.226.305l.044.057a7.219,7.219,0,0,0,.606.67l.086.08c.077.073.155.144.236.214.046.04.093.078.14.117.065.053.131.105.2.156s.115.087.174.13.115.08.173.119.14.094.211.14l.1.059c.088.053.175.108.267.158l193.31,105.917a7.363,7.363,0,0,0,4.951.757c.055-.011.11-.028.166-.041.09-.021.179-.042.268-.065s.174-.048.261-.075.2-.064.3-.1c.046-.017.094-.03.14-.047h0c.056-.021.11-.048.166-.071.091-.037.181-.075.271-.116.029-.013.06-.024.089-.038.048-.023.1-.048.145-.072.127-.063.252-.129.376-.2.081-.046.16-.1.239-.145s.142-.09.211-.137c.111-.074.219-.152.326-.233.081-.061.161-.123.24-.188s.136-.114.2-.174q.148-.131.29-.272c.065-.065.129-.132.192-.2q.118-.126.23-.259c.048-.056.1-.112.142-.17.1-.127.2-.259.292-.394.044-.063.085-.127.127-.192q.1-.16.2-.327c.026-.046.057-.089.083-.136l28.1-51.283,33.766-61.634a7.328,7.328,0,0,0,.414-.918,7.233,7.233,0,0,0,.436-1.851" transform="translate(-1120.287 -734.422)" fill="#003889"/>
            </g>
          </g>
        </g>
        <path id="Path_12159" data-name="Path 12159" d="M1158.677,1179.111a6.845,6.845,0,0,0-1.1.575,7.4,7.4,0,0,0-2.586,2.914l-43.818,89.065-13.022,26.465a7.218,7.218,0,0,0-.735,3.77,8.341,8.341,0,0,0,.215,1.265,7.242,7.242,0,0,0,3.843,4.73l7.594,3.735,178.419,87.783,8.78,4.32,2.989,1.468a7.275,7.275,0,0,0,4.978.541,6.982,6.982,0,0,0,1.115-.377,7.264,7.264,0,0,0,3.672-3.488l25.819-52.47,31.021-63.06a7.308,7.308,0,0,0,.51-5.056,7.79,7.79,0,0,0-.4-1.156,7.3,7.3,0,0,0-3.431-3.552l-197.789-97.306a7.274,7.274,0,0,0-6.07-.167" transform="translate(-909.694 -976.952)" fill="#e59d29"/>
        <path id="Path_12160" data-name="Path 12160" d="M1460.235,898.086l164.06,17.967a7.37,7.37,0,0,0,8.128-6.523l23.021-210.212a7.37,7.37,0,0,0-6.523-8.128l-164.06-17.967a7.369,7.369,0,0,0-8.128,6.523l-23.02,210.212a7.369,7.369,0,0,0,6.523,8.128" transform="translate(-1205.03 -558.038)" fill="#fff"/>
        <path id="Path_12161" data-name="Path 12161" d="M1854.186,850.243l74.314,8.138a5.2,5.2,0,0,0,1.133-10.346l-74.314-8.138a5.2,5.2,0,0,0-1.133,10.346" transform="translate(-1533.198 -696.215)" fill="#ecf3fe"/>
        <path id="Path_12162" data-name="Path 12162" d="M1645.369,1276.576l131.842,14.439a3.706,3.706,0,0,0,.807-7.368l-131.842-14.438a3.706,3.706,0,0,0-.807,7.367" transform="translate(-1361.204 -1052.103)" fill="#ecf3fe"/>
        <path id="Path_12163" data-name="Path 12163" d="M1634.746,1373.574l131.842,14.438a3.706,3.706,0,1,0,.807-7.367l-131.842-14.438a3.706,3.706,0,0,0-.807,7.367" transform="translate(-1352.398 -1132.511)" fill="#ecf3fe"/>
        <path id="Path_12164" data-name="Path 12164" d="M1624.124,1470.573l131.842,14.438a3.706,3.706,0,1,0,.807-7.368L1624.931,1463.2a3.706,3.706,0,0,0-.807,7.368" transform="translate(-1343.594 -1212.918)" fill="#ecf3fe"/>
        <path id="Path_12165" data-name="Path 12165" d="M1613.5,1567.571l131.842,14.438a3.706,3.706,0,0,0,.807-7.368L1614.308,1560.2a3.706,3.706,0,0,0-.807,7.368" transform="translate(-1334.787 -1293.325)" fill="#ecf3fe"/>
        <path id="Path_12166" data-name="Path 12166" d="M1602.879,1664.569l131.842,14.438a3.706,3.706,0,0,0,.807-7.368L1603.686,1657.2a3.706,3.706,0,0,0-.807,7.368" transform="translate(-1325.982 -1373.734)" fill="#ecf3fe"/>
        <path id="Path_12167" data-name="Path 12167" d="M1592.256,1761.567l131.842,14.438a3.706,3.706,0,0,0,4.087-3.28h0a3.706,3.706,0,0,0-3.28-4.087L1593.063,1754.2a3.706,3.706,0,1,0-.807,7.367" transform="translate(-1317.176 -1454.141)" fill="#ecf3fe"/>
        <path id="Path_12168" data-name="Path 12168" d="M1581.634,1858.566,1713.476,1873a3.706,3.706,0,0,0,.807-7.368L1582.441,1851.2a3.706,3.706,0,0,0-.807,7.367" transform="translate(-1308.371 -1534.549)" fill="#ecf3fe"/>
        <path id="Path_12169" data-name="Path 12169" d="M1701.682,1025.458l120.164,13.159a2.011,2.011,0,0,0,2.218-1.78l3.064-27.98a2.01,2.01,0,0,0-1.78-2.217l-120.164-13.159a2.01,2.01,0,0,0-2.217,1.779l-3.064,27.98a2.011,2.011,0,0,0,1.78,2.217" transform="translate(-1409.138 -823.545)" fill="#c4d7f2"/>
        <g id="Group_206" data-name="Group 206" transform="translate(274.217 296.962)" opacity="0.2" style="mix-blend-mode: multiply;isolation: isolate">
          <g id="Group_205" data-name="Group 205">
            <g id="Group_204" data-name="Group 204" clip-path="url(#clip-path-10)">
              <path id="Path_12170" data-name="Path 12170" d="M1785.679,1743.58l-182.455-7.382,43.786,45.33Z" transform="translate(-1603.224 -1736.199)" fill="#003889"/>
            </g>
          </g>
        </g>
        <path id="Path_12171" data-name="Path 12171" d="M1126.567,1540.095l-28.419,57.762a7.29,7.29,0,0,0,3.324,9.763l197.783,97.308a7.285,7.285,0,0,0,9.763-3.324l28.418-57.762Z" transform="translate(-909.696 -1276.675)" fill="#f4b545"/>
        <path id="Path_12172" data-name="Path 12172" d="M1884.557,1843l64.234,111.553,2.989,1.468a7.277,7.277,0,0,0,4.978.54,6.96,6.96,0,0,0,1.114-.376,7.261,7.261,0,0,0,3.672-3.488l25.819-52.47Z" transform="translate(-1562.219 -1527.773)" fill="#e59d29"/>
        <path id="Path_12173" data-name="Path 12173" d="M1111.172,1723.057l-13.022,26.465a7.218,7.218,0,0,0-.735,3.77,8.354,8.354,0,0,0,.215,1.265,7.243,7.243,0,0,0,3.844,4.73l7.594,3.735,122.965-19.449Z" transform="translate(-909.694 -1428.343)" fill="#e59d29"/>
        <path id="Path_12174" data-name="Path 12174" d="M1155,1185.441l-56.841,115.531a7.247,7.247,0,0,0-.729,3.766,7.444,7.444,0,0,0,.215,1.262l134.4-10.983-73.353-113.065a6.907,6.907,0,0,0-1.1.573,7.356,7.356,0,0,0-2.591,2.916" transform="translate(-909.702 -979.79)" fill="#f4b545"/>
        <path id="Path_12175" data-name="Path 12175" d="M1884.563,1790.241l73.317,113.187a7.275,7.275,0,0,0,3.667-3.486l56.841-115.531a7.268,7.268,0,0,0,.51-5.055Z" transform="translate(-1562.224 -1475.014)" fill="#f4b545"/>
        <g id="Group_209" data-name="Group 209" transform="translate(508.724 243.388)" opacity="0.22" style="mix-blend-mode: multiply;isolation: isolate">
          <g id="Group_208" data-name="Group 208">
            <g id="Group_207" data-name="Group 207" clip-path="url(#clip-path-11)">
              <path id="Path_12176" data-name="Path 12176" d="M3090.5,1503.251c-.259-1.049-.483-1.94-.658-2.636a10.375,10.375,0,0,0,1.625-.863c-3.481-22.2-19.1-29.822-25.27-32l-.548-1.939-1.507,1.278a19.965,19.965,0,0,1-.792-4.9,29.132,29.132,0,0,1,.257-5.216,10.1,10.1,0,0,0,.718-1.248c1.666.64,3.183-.873,5.252-2.671,2.707-2.354,6.938-9.861,4.341-17.978s-23.228-17.463-28.314-8.354c-3.857,6.907-.712,9.035,1.035,9.661-1.074,3.385-8.1,26.87,3.832,26.486.29-.01.568-.027.847-.044a6.841,6.841,0,0,1-.218.944,8.516,8.516,0,0,1-.762,1.733l-.393-1.416-2.777,2.787c-7.15,1.571-21.474,7.218-26.045,27.458l.982.467-.9,2.112-2.082,4.888-21.68-21.592s-1.307-9.526-7.14-9.134,2.887,2.649.254,4.674-16.317,2.294-16.287,4.514,12.385,1.906,15.028,4.989,27.541,38.081,34.983,35.792a16.366,16.366,0,0,0,5.637-3.324c-.721,11.926-.594,21.624,1.166,22.307a7.824,7.824,0,0,0,1.21.286l-.12.923-16.918,130.427s.433.087,1.136.215l-.405,1.655-1.342,5.48-1.084-.165a13.7,13.7,0,0,1-1.654,2.264c-.364-1.79-1.329-2.925-2.378-3.031a2.076,2.076,0,0,0-2.026,1.086c-.37.955.553,2.346,2.368,3.771a12.386,12.386,0,0,1-4.662,2.058c-6.987,1.508-10.714,2.479-11.551,6.428-.7,3.329,23.155,2.13,30.665,1.671a2.252,2.252,0,0,0,2.1-2.352l-.01-9.937-1-.152,1.047-4.395.836-3.51a1.965,1.965,0,0,0,.925-.4c.588-.561,3.37-9.571,6.74-21.045,6.172-21.017,14.31-50.288,14.5-50.991l0-.014,4.657,73.873s.652.047,1.682.112l0,1.078.01,3.548-.437-.061c-.287.493-.61,1.063-1.006,1.654-.44-1.434-1.3-2.327-2.22-2.421a2.076,2.076,0,0,0-2.027,1.086c-.361.929.5,2.271,2.22,3.655a10.029,10.029,0,0,1-4.514,2.173c-6.987,1.508-10.714,2.479-11.55,6.428-.705,3.329,23.155,2.13,30.665,1.671a2.252,2.252,0,0,0,2.1-2.352l-.606-10.074-.49-.068.155-3.233.133-2.763c.983-.074,1.606-.209,1.616-.434l5.5-114.471c.131-2.716.251-5.23.361-7.5,7.909-10.429,18.85-25.192,19.1-27.371.283-2.485-2.679-14.943-4.321-21.583" transform="translate(-2974.271 -1422.98)" fill="#003889"/>
            </g>
          </g>
        </g>
        <path id="Path_12177" data-name="Path 12177" d="M3309.99,1436.638s-7.133-.8-2.485-9.908,25.728.236,28.716,8.354-.883,15.625-3.477,17.978-4.266,4.232-6.79,1.413l-15.965-17.836" transform="translate(-2740.479 -1179.593)" fill="#1f3a6f"/>
        <path id="Path_12178" data-name="Path 12178" d="M3200.338,2878.351l11.094.47,1.391-7.314,1.268-6.667H3203l-.775,3.94Z" transform="translate(-2652.946 -2374.834)" fill="#fff"/>
        <path id="Path_12179" data-name="Path 12179" d="M3211.349,2868.779l10.6,2.727,1.267-6.667h-11.094Z" transform="translate(-2662.074 -2374.833)" fill="#bacae2"/>
        <path id="Path_12180" data-name="Path 12180" d="M3443.163,2863.147l.26,5.162.31,6.088s12.084.875,12.084.57v-12.9l-11.4.574Z" transform="translate(-2854.239 -2372.534)" fill="#fff"/>
        <path id="Path_12181" data-name="Path 12181" d="M3443.162,2863.147l.26,5.162,12.394,2.006v-8.249l-11.4.574Z" transform="translate(-2854.238 -2372.534)" fill="#bacae2"/>
        <path id="Path_12182" data-name="Path 12182" d="M2913.119,1713.329c.136,2.221,12.476,1.906,15.267,4.989s29.372,38.081,36.7,35.792a15.885,15.885,0,0,0,5.942-3.743,34.943,34.943,0,0,0,10.037-20.867l-17.761-6.015-2.453,6.493-1.847,4.888-22.718-21.592s-1.764-9.526-7.579-9.134,3.014,2.65.479,4.674-16.207,2.294-16.069,4.514" transform="translate(-2414.854 -1412.653)" fill="#fdc8aa"/>
        <path id="Path_12183" data-name="Path 12183" d="M3192.207,1823.786l7.355,8,2.823,12.385a34.945,34.945,0,0,0,10.037-20.867l-17.762-6.015Z" transform="translate(-2646.206 -1506.46)" fill="#efa37d"/>
        <path id="Path_12184" data-name="Path 12184" d="M3206.55,2227.188s11.4,2.28,13,.684c.561-.561,2.909-9.572,5.727-21.044,5.162-21.018,11.893-50.289,12.052-50.991l0-.014,8.208,73.873s15.732,1.14,15.732,0V2094.718l-43.777-1.6-.3,3.639Z" transform="translate(-2658.096 -1735.112)" fill="#1f3a6f"/>
        <path id="Path_12185" data-name="Path 12185" d="M3316.018,2354.894c5.162-21.017,11.893-50.288,12.052-50.991l0-.014-3.42-32.148Z" transform="translate(-2748.841 -1883.179)" fill="#072542"/>
        <path id="Path_12186" data-name="Path 12186" d="M3301.361,2101.8l-.684,8.418,4.674,7.98,7.524-2.977v-20.507l-43.777-1.6-.3,3.639Z" transform="translate(-2709.701 -1735.112)" fill="#072542"/>
        <path id="Path_12187" data-name="Path 12187" d="M3219.846,1676.1s-23.983.7-28.848,28.064l13.11,6.1Z" transform="translate(-2645.204 -1389.419)" fill="#e59d29"/>
        <path id="Path_12188" data-name="Path 12188" d="M3251.131,1746.668c2.239.853,24.072,2.9,37.853,2.371,1.729-.068,3.329-.173,4.747-.328,3.406-.374,5.773-1.017,6.348-2.043.9-1.6,1.04-6.945.688-13.689-.274-5.244-.844-11.341-1.582-17.192-1.181-9.426-2.8-18.217-4.3-21.815l-14.683-20.343-13.151-1.378s-14.857,3.28-16.681,23.344-2.435,49.855.757,51.073" transform="translate(-2693.179 -1386.227)" fill="#f4b545"/>
        <path id="Path_12189" data-name="Path 12189" d="M3353.183,1773.072a1.216,1.216,0,1,0,1.216-1.216,1.216,1.216,0,0,0-1.216,1.216" transform="translate(-2779.649 -1468.796)" fill="#fff"/>
        <path id="Path_12190" data-name="Path 12190" d="M3346.073,1839.279a1.216,1.216,0,1,0,1.216-1.216,1.216,1.216,0,0,0-1.216,1.216" transform="translate(-2773.755 -1523.679)" fill="#fff"/>
        <path id="Path_12191" data-name="Path 12191" d="M3340.964,1914.373a1.216,1.216,0,1,0,1.216-1.216,1.215,1.215,0,0,0-1.216,1.216" transform="translate(-2769.52 -1585.928)" fill="#fff"/>
        <path id="Path_12192" data-name="Path 12192" d="M3346.073,2012.573a1.216,1.216,0,1,0,1.216-1.216,1.216,1.216,0,0,0-1.216,1.216" transform="translate(-2773.755 -1667.332)" fill="#fff"/>
        <path id="Path_12193" data-name="Path 12193" d="M3457.123,1825.533c.287,0,2,13.1,2,13.1l-3.265,20.981-.269,1.715h4.1l.912-2.043,7.036-15.732c-.273-5.244-.844-11.341-1.582-17.192l-4.884-15.864-11-4.857,1.706,19.034s4.961.857,5.244.857" transform="translate(-2860.05 -1496.802)" fill="#e59d29"/>
        <path id="Path_12194" data-name="Path 12194" d="M3455.16,1923.473l4.674,7.98s25.081-34.428,25.309-37.848c.164-2.485-3.4-14.943-5.358-21.583-.739-2.5-1.254-4.182-1.254-4.182l-15.39,3.306,2.933,10.493,1.969,7.064Z" transform="translate(-2864.183 -1548.362)" fill="#fdc8aa"/>
        <path id="Path_12195" data-name="Path 12195" d="M3501.816,1871.146l2.932,10.493,13.712-9.617c-.739-2.5-1.254-4.182-1.254-4.182Z" transform="translate(-2902.859 -1548.362)" fill="#efa37d"/>
        <path id="Path_12196" data-name="Path 12196" d="M3432.063,1680.321s23.673,4.94,29.373,32.757c0,0-5.016,3.762-21.66,4.788l-4.788-16.872" transform="translate(-2845.037 -1392.917)" fill="#f4b545"/>
        <path id="Path_12197" data-name="Path 12197" d="M3085.786,2931.525c.646-3.949,4.327-4.92,11.241-6.428a11.891,11.891,0,0,0,8.057-6.148l12.944,1.959.488,9.937a2.127,2.127,0,0,1-1.984,2.352c-7.488.459-31.291,1.658-30.746-1.671" transform="translate(-2557.98 -2419.687)" fill="#15315e"/>
        <path id="Path_12198" data-name="Path 12198" d="M3165.721,2919.161a.362.362,0,0,1-.185-.051c-3.365-2-5.084-4.039-4.6-5.462a2.332,2.332,0,0,1,2.353-1.33c1.5.151,3.094,2.11,3.09,5.444a.361.361,0,0,1-.362.361h0a.361.361,0,0,1-.361-.362c0-2.8-1.237-4.6-2.439-4.724a1.613,1.613,0,0,0-1.6.843c-.281.828.939,2.622,4.285,4.607a.362.362,0,0,1-.185.673" transform="translate(-2620.217 -2414.183)" fill="#fff"/>
        <path id="Path_12199" data-name="Path 12199" d="M3160.146,2950.931a.362.362,0,0,1-.277-.128l-1.744-2.063a.362.362,0,1,1,.552-.467l1.744,2.064a.361.361,0,0,1-.043.51.357.357,0,0,1-.233.086" transform="translate(-2617.883 -2443.89)" fill="#fff"/>
        <path id="Path_12200" data-name="Path 12200" d="M3139.932,2955.941a.362.362,0,0,1-.276-.128l-1.744-2.064a.362.362,0,1,1,.552-.467l1.744,2.064a.361.361,0,0,1-.043.51.357.357,0,0,1-.233.085" transform="translate(-2601.127 -2448.043)" fill="#fff"/>
        <path id="Path_12201" data-name="Path 12201" d="M3119.478,2961.093a.362.362,0,0,1-.338-.231l-.972-2.521a.362.362,0,0,1,.675-.26l.972,2.521a.361.361,0,0,1-.337.492" transform="translate(-2584.811 -2451.934)" fill="#fff"/>
        <path id="Path_12202" data-name="Path 12202" d="M3335,2931.525c.647-3.949,4.327-4.92,11.241-6.428,4.646-1.013,6.2-4.18,7.251-6.148l13.147,1.821,1.09,10.075a2.126,2.126,0,0,1-1.984,2.352c-7.488.459-31.29,1.658-30.746-1.671" transform="translate(-2764.569 -2419.687)" fill="#15315e"/>
        <path id="Path_12203" data-name="Path 12203" d="M3414.936,2919.161a.359.359,0,0,1-.184-.051c-3.365-2-5.085-4.038-4.6-5.462a2.332,2.332,0,0,1,2.353-1.33c1.5.151,3.094,2.11,3.09,5.444a.362.362,0,0,1-.362.361h0a.361.361,0,0,1-.361-.362c0-2.8-1.238-4.6-2.439-4.724a1.614,1.614,0,0,0-1.6.843c-.281.828.939,2.622,4.285,4.607a.362.362,0,0,1-.185.673" transform="translate(-2826.806 -2414.183)" fill="#fff"/>
        <path id="Path_12204" data-name="Path 12204" d="M3409.36,2950.931a.361.361,0,0,1-.276-.128l-1.744-2.063a.362.362,0,1,1,.552-.467l1.745,2.064a.362.362,0,0,1-.276.6" transform="translate(-2824.472 -2443.89)" fill="#fff"/>
        <path id="Path_12205" data-name="Path 12205" d="M3389.147,2955.941a.359.359,0,0,1-.276-.128l-1.745-2.064a.362.362,0,1,1,.552-.467l1.745,2.064a.362.362,0,0,1-.276.595" transform="translate(-2807.716 -2448.043)" fill="#fff"/>
        <path id="Path_12206" data-name="Path 12206" d="M3368.692,2961.094a.361.361,0,0,1-.337-.232l-.973-2.521a.362.362,0,1,1,.675-.26l.973,2.521a.362.362,0,0,1-.337.492" transform="translate(-2791.399 -2451.935)" fill="#fff"/>
        <path id="Path_12207" data-name="Path 12207" d="M3333.778,1629.364l6.915,6.994,11.764-6.346s-1.923-2.424-2.417-7.724a29.666,29.666,0,0,1,.091-6.184l-12.072,5.876a5.478,5.478,0,0,1-.194,1.888,9.853,9.853,0,0,1-4.087,5.5" transform="translate(-2763.563 -1339.683)" fill="#fdc8aa"/>
        <path id="Path_12208" data-name="Path 12208" d="M3317.578,1663.349l-6.9,7.273,6.206.266,4.658,4.636Z" transform="translate(-2744.416 -1378.848)" fill="#fff"/>
        <path id="Path_12209" data-name="Path 12209" d="M3386.015,1673.417l2.913,8.809-6.393-1.888-8.342,3.532Z" transform="translate(-2797.065 -1387.193)" fill="#fff"/>
        <path id="Path_12210" data-name="Path 12210" d="M3357.674,1623.867c4.107,1.137,9.221-.419,12.175-1.58a29.621,29.621,0,0,1,.091-6.184l-12.073,5.876a5.454,5.454,0,0,1-.194,1.888" transform="translate(-2783.371 -1339.683)" fill="#efa37d"/>
        <path id="Path_12211" data-name="Path 12211" d="M3313.053,1498.9s-7.846,27.308,4.993,26.894,14-8.7,14-8.7,4.315-2.782,3.466-7.732-6.117.082-6.117.082,5.736-11.067-16.342-10.54" transform="translate(-2744.416 -1242.515)" fill="#fdc8aa"/>
        <path id="Path_12212" data-name="Path 12212" d="M3426.12,1560.562s1.816-1.653,2.833-.605-.472,4.978-1.3,5.347.558-3.058.385-3.438-.5-1.72-1.919-1.3" transform="translate(-2840.111 -1292.852)" fill="#efa37d"/>
        <g id="Group_212" data-name="Group 212" transform="translate(484.224 73.41)" opacity="0.2" style="mix-blend-mode: multiply;isolation: isolate">
          <g id="Group_211" data-name="Group 211">
            <g id="Group_210" data-name="Group 210" clip-path="url(#clip-path-12)">
              <path id="Path_12213" data-name="Path 12213" d="M2831.028,429.2l35.171,41.812-2.683,55.461,61.436-74.588Z" transform="translate(-2831.029 -429.202)" fill="#003889"/>
            </g>
          </g>
        </g>
        <path id="Path_12214" data-name="Path 12214" d="M2909.472,357.335l-96.194-9.1,40.758,36.387,5.229,55.279Z" transform="translate(-2332.09 -288.671)" fill="#f4b545"/>
        <path id="Path_12215" data-name="Path 12215" d="M3051.571,428.732l55.437-27.285L3056.8,484.011Z" transform="translate(-2529.625 -332.784)" fill="#e59d29"/>
        <path id="Path_12216" data-name="Path 12216" d="M2338,366.19a13,13,0,1,1-13-13,13,13,0,0,1,13,13" transform="translate(-1916.545 -292.78)" fill="#fff"/>
        <path id="Path_12217" data-name="Path 12217" d="M26,1812.82a13,13,0,1,1-13-13,13,13,0,0,1,13,13" transform="translate(0 -1491.976)" fill="#c4d7f2"/>
        <path id="Path_12218" data-name="Path 12218" d="M1664.888,18.281A18.276,18.276,0,1,1,1646.613,0a18.276,18.276,0,0,1,18.276,18.276" transform="translate(-1349.823 -0.005)" fill="#efd9c5"/>
        <g id="Group_215" data-name="Group 215" transform="translate(235.861 421.838)" opacity="0.22" style="mix-blend-mode: multiply;isolation: isolate">
          <g id="Group_214" data-name="Group 214">
            <g id="Group_213" data-name="Group 213" clip-path="url(#clip-path-13)">
              <path id="Path_12219" data-name="Path 12219" d="M1442.283,2538.168l-3.632-.028-1.836-14.147-1.213-9.349h0l-1.285-9.905-1.2-9.218h0l-1.321-10.181h0l-.951-7.329-1.507-11.613-13.722-.1-6.235,15.559h0l-3.788,9.453-4.727,11.8-3.664,9.143h0l-4.531,11.306-3.58,8.932-2.108,5.26-3.632-.028a3.994,3.994,0,0,0-3.932,3.318l-.428,3.172a2.943,2.943,0,0,0,3.029,3.371l58.929.453a4,4,0,0,0,3.931-3.317l.428-3.173a2.942,2.942,0,0,0-3.029-3.371" transform="translate(-1378.966 -2466.294)" fill="#003889"/>
            </g>
          </g>
        </g>
        <path id="Path_12220" data-name="Path 12220" d="M1468.677,2524.516l-53.384-.427,20.447-77.7,13.736.11Z" transform="translate(-1173.219 -2027.959)" fill="#c4d7f2"/>
        <path id="Path_12221" data-name="Path 12221" d="M1440.827,2892.09l-58.986-.471a3.484,3.484,0,0,1-3.456-3.511l.026-3.3a3.484,3.484,0,0,1,3.512-3.456l58.986.472a3.484,3.484,0,0,1,3.456,3.511l-.027,3.3a3.483,3.483,0,0,1-3.511,3.455" transform="translate(-1142.624 -2388.516)" fill="#c4d7f2"/>
        <path id="Path_12222" data-name="Path 12222" d="M1473.006,2740.849a67.922,67.922,0,0,1-41.8,9.276l-2.448,9.3a77.781,77.781,0,0,0,46.646-8.843Z" transform="translate(-1184.38 -2272.051)" fill="#fff"/>
        <path id="Path_12223" data-name="Path 12223" d="M1497.353,2633.992l-2.363-9.6a67.693,67.693,0,0,1-31.292,7.9l-2.506,9.523a77.565,77.565,0,0,0,36.161-7.818" transform="translate(-1211.267 -2175.511)" fill="#fff"/>
        <path id="Path_12224" data-name="Path 12224" d="M1517.859,2506.831a67.446,67.446,0,0,1-20.518,5.869l-2.591,9.847a77.374,77.374,0,0,0,25.448-6.214Z" transform="translate(-1239.085 -2078.06)" fill="#fff"/>
        <g id="Group_218" data-name="Group 218" transform="translate(397.33 444.064)" opacity="0.22" style="mix-blend-mode: multiply;isolation: isolate">
          <g id="Group_217" data-name="Group 217">
            <g id="Group_216" data-name="Group 216" clip-path="url(#clip-path-14)">
              <path id="Path_12225" data-name="Path 12225" d="M2416.6,2647l-12.65-9.076-6.666-4.781-10.611-7.613h0l-7.434-5.333h0l-9.193-6.595-5.336-3.828-6.2-4.451,1.7-3.448a3.047,3.047,0,0,0-1.5-4.409l-2.968-1.049a4.054,4.054,0,0,0-4.757,2.2l-27.582,55.939a3.047,3.047,0,0,0,1.5,4.409l2.968,1.049a4.055,4.055,0,0,0,4.757-2.2l1.7-3.448,14.958,1.116h0l9.885.738h0l10.473.781h0l9.746.727,10.764.8,7.291.544,12.736.95Z" transform="translate(-2323 -2596.239)" fill="#003889"/>
            </g>
          </g>
        </g>
        <path id="Path_12226" data-name="Path 12226" d="M2357.024,2689.281l16.942-50.626,67.541,43.509-4.359,13.026Z" transform="translate(-1953.874 -2187.335)" fill="#c4d7f2"/>
        <path id="Path_12227" data-name="Path 12227" d="M2312.173,2654.557l18.721-55.938a3.485,3.485,0,0,1,4.409-2.2l3.134,1.049a3.484,3.484,0,0,1,2.2,4.409l-18.721,55.938a3.484,3.484,0,0,1-4.409,2.2l-3.134-1.049a3.484,3.484,0,0,1-2.2-4.41" transform="translate(-1916.545 -2152.175)" fill="#c4d7f2"/>
        <path id="Path_12228" data-name="Path 12228" d="M2468.9,2715.135a67.917,67.917,0,0,1,4.128-42.618l-8.088-5.21a77.781,77.781,0,0,0-6.042,47.091Z" transform="translate(-2037.243 -2211.087)" fill="#fff"/>
        <path id="Path_12229" data-name="Path 12229" d="M2582.022,2773.131l9.861.727a67.683,67.683,0,0,1,2.187-32.2l-8.279-5.333a77.56,77.56,0,0,0-3.769,36.8" transform="translate(-2139.766 -2268.302)" fill="#fff"/>
        <path id="Path_12230" data-name="Path 12230" d="M2715.065,2834.574a67.408,67.408,0,0,1,.775-21.327l-8.56-5.514a77.382,77.382,0,0,0-1.975,26.121Z" transform="translate(-2242.295 -2327.494)" fill="#fff"/>
      </g>
    </g>
  </g>
</svg>
