<svg xmlns="http://www.w3.org/2000/svg" xmlns:xlink="http://www.w3.org/1999/xlink" width="804.296" height="492.588" viewBox="0 0 804.296 492.588">
  <defs>
    <clipPath id="clip-path">
      <rect id="Rectangle_161270" data-name="Rectangle 161270" width="804.296" height="492.588" fill="none"/>
    </clipPath>
    <clipPath id="clip-path-3">
      <rect id="Rectangle_161249" data-name="Rectangle 161249" width="422.021" height="12.56" fill="none"/>
    </clipPath>
    <clipPath id="clip-path-5">
      <path id="Path_39653" data-name="Path 39653" d="M456.359,612.6a118.765,118.765,0,0,0,1.8,21.684c-4.239-5.3-14.122-13.661-17.824-4.1-3.329,8.6,14.1,9.3,18.7,8.106a38.29,38.29,0,0,0,5.221,12.5c.521.745,1.04,1.507,1.558,2.272-6.29-4.865-16.994-10.444-19.821-2.15s18.078,8.749,23.327,7.533a142.723,142.723,0,0,1,10.226,19.126c-4.262-3.155-20.759-14.721-26.342-9.138-3.28,3.28,1.287,10.292,10.292,11.579a39.3,39.3,0,0,0,16.45-1.463c2.549,6.184,3.976,11.7,3.5,15.535-.334,2.672-.942,6.2-1.586,9.937-.24,1.392-.487,2.83-.732,4.288-2.384-4.621-13.19-23.879-23.418-14.788-4.08,3.627,2.573,10.293,6.433,12.866,3.526,2.351,13.653,4.162,16.769,3.229-1.548,9.37-2.865,19.349-1.377,24.336-4-6.683-13.122-19.534-21.824-14.7-5.623,3.124,1.286,11.579,5.146,14.152,3.348,2.232,15,3.82,18.03,4.2a83.208,83.208,0,0,0,6.522,12.236.643.643,0,1,0,1.07-.713,76,76,0,0,1-7.645-15.286,11.909,11.909,0,0,1-.438-1.995c1.935.375,7.6,1.324,10.765.268,3.859-1.286,13.792-7.152,10.292-14.151-6.825-13.652-18.566,7.576-21.193,12.674-.548-6.529,1.316-17.384,2.869-26.4.19-1.106.377-2.191.555-3.244,1.253,1.246,4.456,4.1,7.477,4.1,3.859,0,13.04-4.251,10.292-11.579-3.314-8.838-14.44,2.583-17.52,5.989.321-1.945.6-3.742.79-5.265.516-4.129-.974-9.789-3.453-15.843,4.345,2.728,17.529-9.448,15.038-13.184-4.468-6.7-15.716,5.017-16.081,10.75a150.721,150.721,0,0,0-9.214-17.207c5.258-1.113,23.87-10.885,13.048-19.073-7.823-5.92-13.746,10.382-14.49,16.729l-.078-.084c-1.472-2.315-2.895-4.442-4.179-6.277a32.9,32.9,0,0,1-4.209-9.2c3.363.182,25.542-10.4,13.951-19.176-7.991-6.046-14,11.1-14.534,17.129-2.5-9.487-2.866-20.42-2.868-25.938,3.936-2.571,19.077-25.217,1.988-26.77-.315-.029-.618-.043-.91-.043-11.812,0-5.435,22.873-2.377,26.548" transform="translate(-439.918 -586.05)" fill="none"/>
    </clipPath>
    <clipPath id="clip-path-7">
      <path id="Path_39658" data-name="Path 39658" d="M1049.368,665.32v4.987c0,5.093,17.761,9.222,39.671,9.222s39.67-4.129,39.67-9.222V665.32c0-5.093-17.761-9.222-39.67-9.222s-39.671,4.129-39.671,9.222" transform="translate(-1049.368 -656.098)" fill="#f57a38"/>
    </clipPath>
    <clipPath id="clip-path-9">
      <rect id="Rectangle_161256" data-name="Rectangle 161256" width="52.302" height="52.301" fill="none"/>
    </clipPath>
    <clipPath id="clip-path-10">
      <rect id="Rectangle_161257" data-name="Rectangle 161257" width="21.822" height="14.183" fill="none"/>
    </clipPath>
    <clipPath id="clip-path-11">
      <path id="Path_39662" data-name="Path 39662" d="M1013.622,500.221l-5.643,1.763a3.34,3.34,0,0,0-2.192,4.183l11.371,36.4a6.3,6.3,0,0,0,12.019-3.755l-11.371-36.4a3.335,3.335,0,0,0-4.184-2.192" transform="translate(-1005.635 -500.068)" fill="#f57a38"/>
    </clipPath>
    <clipPath id="clip-path-13">
      <path id="Path_39665" data-name="Path 39665" d="M886.47,775.168c-.164.873,24.961,28.058,26.089,28.046s7.12-7.52,7.12-7.52L897.6,775.232s-5.1-.437-8.4-.437c-1.536,0-2.68.095-2.732.373" transform="translate(-886.47 -774.795)" fill="none"/>
    </clipPath>
    <linearGradient id="linear-gradient" x1="-11.227" y1="1.672" x2="-11.214" y2="1.672" gradientUnits="objectBoundingBox">
      <stop offset="0" stop-color="#14336d"/>
      <stop offset="0.966" stop-color="#0e2253"/>
      <stop offset="1" stop-color="#0e2253"/>
    </linearGradient>
    <clipPath id="clip-path-14">
      <path id="Path_39666" data-name="Path 39666" d="M915.531,682.935s25.161,26.3,26.13,26.3S1062.7,617.051,1062.7,617.051l-50.9-22.577s-64.628,17.767-96.273,88.461" transform="translate(-915.531 -594.474)" fill="none"/>
    </clipPath>
    <linearGradient id="linear-gradient-2" x1="-2.597" y1="1.093" x2="-2.594" y2="1.093" xlink:href="#linear-gradient"/>
    <clipPath id="clip-path-16">
      <path id="Path_39668" data-name="Path 39668" d="M998.115,617.729c-3.68,14.389-.334,30.115,11.377,48.518s23.621,38.42,26.076,39.07c0,0,31.465-12.6,32.177-14.176s-17.62-44.887-17.62-44.887,37.356-2.484,46.07-24.507l-51.9-27.273s-42.495,8.867-46.175,23.255" transform="translate(-996.692 -594.474)" fill="none"/>
    </clipPath>
    <linearGradient id="linear-gradient-3" x1="-3.803" y1="1.322" x2="-3.799" y2="1.322" xlink:href="#linear-gradient"/>
    <clipPath id="clip-path-17">
      <path id="Path_39669" data-name="Path 39669" d="M1111.879,460.1c-10.341.886-15.878,10.582-17.285,26-2.063,22.619-16.471,45.093-16.9,47.885-.387,2.505,46.029,31.577,54.245,30.174s18.841-35.314,15.9-60.635c-2.873-24.75-24.609-43.454-35.245-43.457-.245,0-.483.01-.716.03" transform="translate(-1077.69 -460.069)" fill="none"/>
    </clipPath>
    <linearGradient id="linear-gradient-4" x1="-5.003" y1="1.96" x2="-4.998" y2="1.96" gradientUnits="objectBoundingBox">
      <stop offset="0" stop-color="#3162df"/>
      <stop offset="0.965" stop-color="#173db8"/>
      <stop offset="1" stop-color="#173db8"/>
    </linearGradient>
    <clipPath id="clip-path-18">
      <path id="Path_39670" data-name="Path 39670" d="M1100.16,467.178c-20.745,1.8-.138,44.141-9.666,41.282s-46.215-6.591-46.215-6.591c-4.044,3.716-2.842,14.21-2.842,14.21,5.574,6.668,43.608,25.328,58.723,27.435s33.1-.626,28.7-33.2c-4.312-31.907-22.462-43.152-28.346-43.152-.123,0-.241,0-.353.015" transform="translate(-1041.27 -467.163)" fill="none"/>
    </clipPath>
    <linearGradient id="linear-gradient-5" x1="-4.761" y1="2.269" x2="-4.757" y2="2.269" xlink:href="#linear-gradient-4"/>
    <clipPath id="clip-path-19">
      <path id="Path_39671" data-name="Path 39671" d="M1075.406,798.886s-5.18,9.714-4.442,10.209,35.62-11.9,36.052-12.94-4.109-9.505-4.109-9.505Z" transform="translate(-1070.892 -786.649)" fill="none"/>
    </clipPath>
    <linearGradient id="linear-gradient-6" x1="-13.431" y1="1.761" x2="-13.418" y2="1.761" xlink:href="#linear-gradient"/>
  </defs>
  <g id="Group_142012" data-name="Group 142012" clip-path="url(#clip-path)">
    <g id="Group_141973" data-name="Group 141973">
      <g id="Group_141972" data-name="Group 141972" clip-path="url(#clip-path)">
        <g id="Group_141971" data-name="Group 141971" transform="translate(242.366 480.027)" opacity="0.2">
          <g id="Group_141970" data-name="Group 141970">
            <g id="Group_141969" data-name="Group 141969" clip-path="url(#clip-path-3)">
              <path id="Path_39634" data-name="Path 39634" d="M861.938,877.579c0,3.469-94.473,6.28-211.01,6.28s-211.009-2.811-211.009-6.28,94.472-6.28,211.009-6.28,211.01,2.811,211.01,6.28" transform="translate(-439.919 -871.299)" fill="#0b2252"/>
            </g>
          </g>
        </g>
        <path id="Path_39635" data-name="Path 39635" d="M1051.287,24.248a16.278,16.278,0,0,1,11.547-4.783h16.241a24.742,24.742,0,0,1,48.345,0h4.364a16.33,16.33,0,1,1,0,32.661h-68.95a16.33,16.33,0,0,1-11.547-27.878" transform="translate(-469.95)" fill="#e9f3fc"/>
        <path id="Path_39636" data-name="Path 39636" d="M717.49,94.338a31.575,31.575,0,0,0-22.4-9.277h-31.5a47.99,47.99,0,0,0-93.771,0h-8.465a31.674,31.674,0,1,0,0,63.348H695.093a31.674,31.674,0,0,0,22.4-54.071" transform="translate(-288.669 -47.307)" fill="#e9f3fc"/>
      </g>
    </g>
    <g id="Group_141977" data-name="Group 141977">
      <g id="Group_141976" data-name="Group 141976" clip-path="url(#clip-path)">
        <path id="Path_39638" data-name="Path 39638" d="M851.42,497.61h-314.5a20.678,20.678,0,0,1-20.678-20.678V290.538a20.678,20.678,0,0,1,20.678-20.678h314.5A20.678,20.678,0,0,1,872.1,290.538V476.931A20.678,20.678,0,0,1,851.42,497.61" transform="translate(-231.826 -121.185)" fill="#fff"/>
        <path id="Path_39639" data-name="Path 39639" d="M853.938,497.976H531.164a18.547,18.547,0,0,1-18.526-18.526V284.786a18.547,18.547,0,0,1,18.526-18.526H853.938a18.547,18.547,0,0,1,18.525,18.526V479.45a18.547,18.547,0,0,1-18.525,18.526M531.164,270.227a14.576,14.576,0,0,0-14.56,14.56V479.45a14.576,14.576,0,0,0,14.56,14.56H853.938A14.575,14.575,0,0,0,868.5,479.45V284.786a14.575,14.575,0,0,0-14.558-14.56Z" transform="translate(-230.209 -119.569)" fill="#e3ecf5"/>
        <path id="Path_39640" data-name="Path 39640" d="M773.443,381.246q11.685-12.439,32.082-12.44,18.866,0,30.214,10.642t11.349,27.2q0,10.028-4.115,16.271t-16.865,18.352q-9.275,8.8-12.073,14.9t-2.8,18.021H794.4q0-13.527,3.216-21.8t14.313-18.966l7.72-7.473a32.447,32.447,0,0,0,5.634-6.717,23.39,23.39,0,0,0,3.929-12.77,24.406,24.406,0,0,0-5.651-16.082q-5.648-6.811-18.689-6.811-16.13,0-22.31,11.73-3.477,6.528-3.96,18.825H761.76q0-20.434,11.683-32.873m20.575,108.645h18.825v19.676H794.018Z" transform="translate(-342.081 -165.619)" fill="#f57a38"/>
        <path id="Path_39641" data-name="Path 39641" d="M821.676,322.454H476.822a1.983,1.983,0,1,1,0-3.967H821.676a1.983,1.983,0,0,1,0,3.967" transform="translate(-213.234 -143.022)" fill="#e3ecf5"/>
        <path id="Path_39642" data-name="Path 39642" d="M551.117,294.308a4.006,4.006,0,1,1-4.006-4.006,4.007,4.007,0,0,1,4.006,4.006" transform="translate(-243.89 -130.365)" fill="#e3ecf5"/>
        <path id="Path_39643" data-name="Path 39643" d="M580.457,294.308a4.006,4.006,0,1,1-4.006-4.006,4.007,4.007,0,0,1,4.006,4.006" transform="translate(-257.066 -130.365)" fill="#e3ecf5"/>
        <path id="Path_39644" data-name="Path 39644" d="M609.8,294.308a4.006,4.006,0,1,1-4.006-4.006,4.007,4.007,0,0,1,4.006,4.006" transform="translate(-270.242 -130.365)" fill="#e3ecf5"/>
        <path id="Path_39645" data-name="Path 39645" d="M328.249,573.892c-7.9-.239-16.478-3.013-16.291-15.707s9.4-14.669,10.344-24.166.986-18.336,5.947-18.43,1.821,3.965,4.132,8.369,6.787,10.036,5.92,18.266,4.991,11.381,4.683,18.109-4.51,13.868-14.735,13.56" transform="translate(-140.089 -231.533)" fill="#daeeff"/>
        <path id="Path_39646" data-name="Path 39646" d="M339.667,562.511a.345.345,0,0,0-.473.5c.021.02,2.059,2.07,1.85,9.093-.18,6.069-3.326,15.46-4.323,18.295-.934-2.212-2.141-4.649-3.157-6.7-.687-1.387-1.28-2.584-1.6-3.341-1.174-2.76.613-8.56.631-8.618a.345.345,0,0,0-.658-.206c-.077.248-1.881,6.1-.608,9.094.329.775.927,1.981,1.619,3.377,1.853,3.741,4.653,9.394,4.609,11.592-.061,3.05-.429,7.428-.432,7.472a.345.345,0,0,0,.315.372h.029a.344.344,0,0,0,.343-.316c0-.044.374-4.444.435-7.516a12.976,12.976,0,0,0-1.133-4.253c.455-1.25,4.417-12.321,4.622-19.231.219-7.394-1.974-9.528-2.067-9.615" transform="translate(-148.584 -252.564)" fill="#6ac1ff"/>
        <path id="Path_39647" data-name="Path 39647" d="M1394.444,521.361c-6.737-.2-14.048-2.568-13.887-13.39s8.017-12.506,8.818-20.6.84-15.632,5.069-15.712,1.554,3.381,3.523,7.135,5.785,8.555,5.047,15.572,4.255,9.7,3.992,15.438-3.846,11.823-12.563,11.56" transform="translate(-619.961 -211.804)" fill="#daeeff"/>
        <path id="Path_39648" data-name="Path 39648" d="M1404.178,511.658a.294.294,0,0,0-.4.429c.018.017,1.755,1.765,1.577,7.751-.154,5.174-2.836,13.18-3.685,15.6-.8-1.886-1.825-3.964-2.692-5.714-.586-1.182-1.091-2.2-1.366-2.848-1-2.352.523-7.3.538-7.347a.294.294,0,1,0-.562-.175c-.066.211-1.6,5.2-.518,7.752.281.661.79,1.689,1.379,2.879,1.58,3.189,3.967,8.008,3.929,9.882-.052,2.6-.365,6.332-.369,6.37a.294.294,0,0,0,.268.318h.025a.3.3,0,0,0,.293-.269c0-.037.318-3.788.371-6.407a11.068,11.068,0,0,0-.965-3.626c.387-1.065,3.764-10.5,3.94-16.4.187-6.3-1.683-8.123-1.762-8.2" transform="translate(-627.203 -229.733)" fill="#6ac1ff"/>
        <path id="Path_39649" data-name="Path 39649" d="M442.645,497.789c-4.634-.14-9.662-1.766-9.552-9.21s5.514-8.6,6.065-14.171.578-10.752,3.487-10.807,1.068,2.325,2.423,4.908,3.98,5.884,3.471,10.711,2.927,6.673,2.746,10.618-2.646,8.132-8.641,7.951" transform="translate(-194.487 -208.188)" fill="#daeeff"/>
        <path id="Path_39650" data-name="Path 39650" d="M449.34,491.115a.2.2,0,0,0-.278.295c.012.012,1.207,1.214,1.085,5.331-.106,3.558-1.95,9.065-2.534,10.728-.548-1.3-1.256-2.727-1.852-3.93-.4-.813-.75-1.516-.94-1.959-.689-1.619.36-5.02.37-5.054a.2.2,0,1,0-.385-.12c-.046.145-1.1,3.577-.357,5.332.193.454.543,1.161.948,1.98,1.087,2.194,2.729,5.509,2.7,6.8-.036,1.788-.251,4.356-.253,4.382a.2.2,0,0,0,.184.218h.018a.2.2,0,0,0,.2-.186c0-.026.219-2.605.256-4.407a7.626,7.626,0,0,0-.664-2.494c.267-.732,2.589-7.224,2.71-11.277.129-4.335-1.157-5.587-1.211-5.638" transform="translate(-199.468 -220.519)" fill="#6ac1ff"/>
        <path id="Path_39651" data-name="Path 39651" d="M1260.981,612.8c-8.1-.245-16.891-3.088-16.7-16.1s9.639-15.037,10.6-24.772,1.01-18.8,6.1-18.892,1.868,4.064,4.236,8.579,6.957,10.288,6.068,18.724,5.117,11.666,4.8,18.563-4.625,14.215-15.105,13.9" transform="translate(-558.765 -248.347)" fill="#daeeff"/>
        <path id="Path_39652" data-name="Path 39652" d="M1272.685,601.129a.354.354,0,0,0-.485.515c.021.02,2.111,2.122,1.9,9.32-.185,6.221-3.409,15.847-4.431,18.753-.958-2.267-2.194-4.766-3.236-6.87-.7-1.421-1.312-2.649-1.642-3.424-1.2-2.83.629-8.775.647-8.834a.354.354,0,0,0-.675-.211c-.079.254-1.929,6.254-.623,9.322.338.794.95,2.03,1.659,3.461,1.9,3.835,4.769,9.63,4.724,11.883-.063,3.127-.439,7.614-.443,7.659a.353.353,0,0,0,.322.382l.03,0a.354.354,0,0,0,.352-.324c0-.045.383-4.555.446-7.7a13.294,13.294,0,0,0-1.161-4.36c.466-1.281,4.527-12.63,4.738-19.714.225-7.579-2.023-9.767-2.119-9.856" transform="translate(-567.473 -269.905)" fill="#6ac1ff"/>
      </g>
    </g>
    <g id="Group_141979" data-name="Group 141979" transform="translate(242.366 322.874)">
      <g id="Group_141978" data-name="Group 141978" clip-path="url(#clip-path-5)">
        <rect id="Rectangle_161253" data-name="Rectangle 161253" width="96.107" height="173.561" transform="matrix(0.984, -0.178, 0.178, 0.984, -31.689, 5.214)" fill="#ffd15c"/>
      </g>
    </g>
    <g id="Group_141981" data-name="Group 141981">
      <g id="Group_141980" data-name="Group 141980" clip-path="url(#clip-path)">
        <path id="Path_39654" data-name="Path 39654" d="M537.534,761.473c10.8-4.32,13.44,12.209,14.01,17.629a63.575,63.575,0,0,0,2.313-25.354c-1.643-.041-8.013-.342-12.463-2.567-5.146-2.573-8.32-12.878-3.86-14.152,7.493-2.141,14.091,10.852,16.1,15.279-.176-1-.385-1.965-.636-2.887a114.774,114.774,0,0,1-3.347-21.406c-2.032-.037-7.7-.235-10.828-1.278-3.859-1.287-10.394-11.366-5.146-12.865,7.233-2.067,13.632,8.309,15.872,12.476-.433-7.953-.105-15.607,1.247-20.823a50.8,50.8,0,0,1-1.681-10.951c0-5.146,5.972-15.276,11.578-10.293,10.243,9.1-5.107,19.746-8.787,22.081-1.244,5.137-1.518,12.552-1.073,20.246,2.3-5.788,11.591-26.617,22.725-16.6,4.276,3.849-5.146,12.865-11.579,15.438a36.633,36.633,0,0,1-11.057,2.571,113.86,113.86,0,0,0,3.315,21.061,33.668,33.668,0,0,1,.722,3.4c2.439-4.921,13.789-25.846,26.318-16.735,5.2,3.783-5.146,12.865-10.292,15.438-4.417,2.209-13.41,2.325-15.87,2.313a65.013,65.013,0,0,1-2.214,25.361c3.78-5.718,14.83-20.4,23.23-10.948,4.984,5.607-7.917,10.358-11.579,11.579-3.225,1.075-10.122,1.4-12.306,1.471-1.83,5.525-4.32,10.111-7.223,12.53a.643.643,0,1,1-.824-.987c2.771-2.31,5.145-6.685,6.895-11.972a66.026,66.026,0,0,1-9.7-4.9c-3.86-2.573-9.833-11.763-3.86-14.152" transform="translate(-238.776 -306.685)" fill="#f2be3c"/>
        <path id="Path_39655" data-name="Path 39655" d="M491.547,882.817h58.537a.643.643,0,1,0,0-1.286H491.547a.643.643,0,1,0,0,1.286" transform="translate(-220.448 -395.866)" fill="#14336a"/>
        <path id="Path_39656" data-name="Path 39656" d="M454.184,882.817h13.509a.643.643,0,0,0,0-1.286H454.184a.643.643,0,1,0,0,1.286" transform="translate(-203.67 -395.866)" fill="#14336a"/>
        <path id="Path_39657" data-name="Path 39657" d="M1085.543,794.057h10.314V695.07h5.027v39.1h7.8v-39.1h5.026v44.123h-12.828v54.864H1111.2a2.513,2.513,0,0,1,0,5.027h-25.656a2.513,2.513,0,1,1,0-5.027" transform="translate(-486.353 -312.133)" fill="#f57a38"/>
      </g>
    </g>
    <g id="Group_141983" data-name="Group 141983" transform="translate(578.132 361.466)">
      <g id="Group_141982" data-name="Group 141982" clip-path="url(#clip-path-7)">
        <rect id="Rectangle_161255" data-name="Rectangle 161255" width="81.137" height="30.518" transform="translate(-2.113 0.192) rotate(-5.194)" fill="#f57a38"/>
      </g>
    </g>
    <g id="Group_141991" data-name="Group 141991">
      <g id="Group_141990" data-name="Group 141990" clip-path="url(#clip-path)">
        <g id="Group_141986" data-name="Group 141986" transform="translate(517.594 200.902)" opacity="0.1">
          <g id="Group_141985" data-name="Group 141985">
            <g id="Group_141984" data-name="Group 141984" clip-path="url(#clip-path-9)">
              <path id="Path_39659" data-name="Path 39659" d="M990.593,383.012a26.144,26.144,0,1,1-32.75-17.159,26.143,26.143,0,0,1,32.75,17.159" transform="translate(-939.487 -364.657)" fill="#fff"/>
            </g>
          </g>
        </g>
        <g id="Group_141989" data-name="Group 141989" transform="translate(540.582 204.857)" opacity="0.17">
          <g id="Group_141988" data-name="Group 141988">
            <g id="Group_141987" data-name="Group 141987" clip-path="url(#clip-path-10)">
              <path id="Path_39660" data-name="Path 39660" d="M1000.813,386.02a2.217,2.217,0,0,1-2.116-1.556,11.662,11.662,0,0,0-14.61-7.655,2.217,2.217,0,0,1-1.321-4.232,16.1,16.1,0,0,1,20.163,10.565,2.218,2.218,0,0,1-2.116,2.878" transform="translate(-981.211 -371.837)" fill="#50c6a1"/>
            </g>
          </g>
        </g>
        <path id="Path_39661" data-name="Path 39661" d="M952.106,356.734a31.3,31.3,0,1,0,39.2,20.541,31.3,31.3,0,0,0-39.2-20.541m17.127,54.827a26.144,26.144,0,1,1,17.159-32.75,26.144,26.144,0,0,1-17.159,32.75" transform="translate(-417.692 -159.554)" fill="#d0daed"/>
        <rect id="Rectangle_161258" data-name="Rectangle 161258" width="5.447" height="24.806" transform="matrix(0.955, -0.298, 0.298, 0.955, 550.173, 256.764)" fill="#d0daed"/>
      </g>
    </g>
    <g id="Group_141993" data-name="Group 141993" transform="translate(554.038 275.504)">
      <g id="Group_141992" data-name="Group 141992" clip-path="url(#clip-path-11)">
        <rect id="Rectangle_161260" data-name="Rectangle 161260" width="38.055" height="52.949" transform="translate(-13.966 4.239) rotate(-17.35)" fill="#f57a38"/>
      </g>
    </g>
    <g id="Group_141995" data-name="Group 141995">
      <g id="Group_141994" data-name="Group 141994" clip-path="url(#clip-path)">
        <path id="Path_39663" data-name="Path 39663" d="M1028.852,541.17s-11.715-7.223-15.248-10.959-5.028-5.434-4.119-6.227,10.8,3.562,11.754,2.828.121-2.559,1.195-3.384,7.454,5.752,8.968,5.253-.787,11.324-2.549,12.488" transform="translate(-453.209 -235.022)" fill="#ffaa9d"/>
        <path id="Path_39664" data-name="Path 39664" d="M935.314,780.727l-8.59,8.311L904.961,768.9l7.161-11.647Z" transform="translate(-406.388 -340.055)" fill="#ffaa9d"/>
      </g>
    </g>
    <g id="Group_141997" data-name="Group 141997" transform="translate(488.385 426.86)">
      <g id="Group_141996" data-name="Group 141996" clip-path="url(#clip-path-13)">
        <rect id="Rectangle_161262" data-name="Rectangle 161262" width="43.057" height="43.822" transform="matrix(0.625, -0.78, 0.78, 0.625, -14.038, 17.31)" fill="url(#linear-gradient)"/>
      </g>
    </g>
    <g id="Group_141999" data-name="Group 141999" transform="translate(504.396 327.515)">
      <g id="Group_141998" data-name="Group 141998" clip-path="url(#clip-path-14)">
        <rect id="Rectangle_161263" data-name="Rectangle 161263" width="186.602" height="181.695" transform="matrix(0.779, -0.627, 0.627, 0.779, -56.065, 45.164)" fill="url(#linear-gradient-2)"/>
      </g>
    </g>
    <g id="Group_142001" data-name="Group 142001">
      <g id="Group_142000" data-name="Group 142000" clip-path="url(#clip-path)">
        <path id="Path_39667" data-name="Path 39667" d="M1097.382,769.352l4.258,11.168L1074.557,792.6l-7.887-11.168Z" transform="translate(-479.006 -345.49)" fill="#ffaa9d"/>
      </g>
    </g>
    <g id="Group_142003" data-name="Group 142003" transform="translate(549.111 327.515)">
      <g id="Group_142002" data-name="Group 142002" clip-path="url(#clip-path-16)">
        <rect id="Rectangle_161265" data-name="Rectangle 161265" width="138.896" height="133.454" transform="matrix(0.341, -0.94, 0.94, 0.341, -37.785, 97.957)" fill="url(#linear-gradient-3)"/>
      </g>
    </g>
    <g id="Group_142005" data-name="Group 142005" transform="translate(593.735 253.467)">
      <g id="Group_142004" data-name="Group 142004" clip-path="url(#clip-path-17)">
        <rect id="Rectangle_161266" data-name="Rectangle 161266" width="114.501" height="127.666" transform="translate(-44.216 23.404) rotate(-28.1)" fill="url(#linear-gradient-4)"/>
      </g>
    </g>
    <g id="Group_142007" data-name="Group 142007" transform="translate(573.67 257.376)">
      <g id="Group_142006" data-name="Group 142006" clip-path="url(#clip-path-18)">
        <rect id="Rectangle_161267" data-name="Rectangle 161267" width="117.676" height="110.757" transform="translate(-31.416 14.41) rotate(-25.376)" fill="url(#linear-gradient-5)"/>
      </g>
    </g>
    <g id="Group_142009" data-name="Group 142009" transform="translate(589.99 433.391)">
      <g id="Group_142008" data-name="Group 142008" clip-path="url(#clip-path-19)">
        <rect id="Rectangle_161268" data-name="Rectangle 161268" width="43.64" height="37.768" transform="matrix(0.882, -0.471, 0.471, 0.882, -10.198, 5.089)" fill="url(#linear-gradient-6)"/>
      </g>
    </g>
    <g id="Group_142011" data-name="Group 142011">
      <g id="Group_142010" data-name="Group 142010" clip-path="url(#clip-path)">
        <path id="Path_39672" data-name="Path 39672" d="M1092.235,423.848l-.174,11.642,1.738-.056s1.393,9.635,8.2,8.114c1.954-.437,4.449-2.091,5.167-1.761.853.393,1.221,3.03,1.415,3.792.741,2.916,10.947-.031,9.293-3.02-1.571-2.837-3.913-6.712-3.417-7.788,1.729-3.752,2.221-13.071-7.16-16.186-7.473-2.481-14.973,1.279-15.057,5.263" transform="translate(-490.408 -187.615)" fill="#ffaa9d"/>
        <path id="Path_39673" data-name="Path 39673" d="M1129.931,456.4c-1.571-2.837-3.913-6.712-3.417-7.789,0,0-3.94,6.06-7.575,6.976-.008,0-.012.006-.019.008a.659.659,0,0,1,.3.033c.853.392,1.221,3.03,1.415,3.791.74,2.917,10.947-.031,9.292-3.019" transform="translate(-502.47 -201.457)" fill="#ff9f91"/>
        <path id="Path_39674" data-name="Path 39674" d="M1104.758,424.87c4.384-.749,1.661,9.02,6.491,8.694s8.2-10.885,4.652-19.028-10.288-7.689-16.714-6.579-14.3,4.016-14.3,8.875c.012,11.693,13.849,1.883,14.763,5.4.707,2.719,1.795,10.583-1.024,10.765s-5.69-2.143-7.916-1.547c-1.284.344-4.811,15.68,4.41,16.192,9.122.507,11.431-7.546,9.508-14.122-1.829-6.255-2.014-8.283.126-8.649" transform="translate(-487.188 -182.927)" fill="#14336a"/>
      </g>
    </g>
  </g>
</svg>
