<svg xmlns="http://www.w3.org/2000/svg" xmlns:xlink="http://www.w3.org/1999/xlink" width="31.87" height="43.306" viewBox="0 0 31.87 43.306">
  <defs>
    <clipPath id="clip-path">
      <rect width="31.87" height="43.306" fill="none"/>
    </clipPath>
  </defs>
  <g id="Repeat_Grid_3" data-name="Repeat Grid 3" clip-path="url(#clip-path)">
    <g id="Group_141804" data-name="Group 141804" transform="translate(-1053.748 111.653)">
      <path id="Path_337" data-name="Path 337" d="M25.882,8.21l3.8,1.479A12.484,12.484,0,0,0,5.081,11.4H8.206A9.377,9.377,0,0,1,25.882,8.21" transform="translate(1052.3 -111.653)" fill="#f57a38"/>
      <path id="Path_338" data-name="Path 338" d="M17.943,48.628a21.347,21.347,0,0,1-7.062-6.778c-1.341,1.206-2.629,2.463-3.866,3.737A34.282,34.282,0,0,0,15.421,54,4.332,4.332,0,0,0,20.471,54,33.039,33.039,0,0,0,30.212,43.43c.12-3.517-1.254-4.74-3.986-3.942a20.2,20.2,0,0,1-8.283,9.139" transform="translate(1051.749 -123.159)" fill="#f57a38" fill-rule="evenodd"/>
      <path id="Path_339" data-name="Path 339" d="M16.333,27.965a84.33,84.33,0,0,1,8.283,6.8C25.973,36.017,27.3,37.325,28.6,38.7a27.068,27.068,0,0,0,2.681-6.66,46.729,46.729,0,0,0-14.949-8.919A47,47,0,0,0,1.367,32.042,28.478,28.478,0,0,0,4.048,38.7,86.383,86.383,0,0,1,16.333,27.965" transform="translate(1053.359 -118.43)" fill="#f57a38" fill-rule="evenodd"/>
      <path id="Path_340" data-name="Path 340" d="M22.3,16.734A112.6,112.6,0,0,1,37.849,26.4a35.533,35.533,0,0,0,.137-9.293,47.6,47.6,0,0,0-7.956-3.262c-4.777-.322-7.388.611-7.732,2.888" transform="translate(1047.393 -115.693)" fill="#f9b020" fill-rule="evenodd"/>
      <path id="Path_341" data-name="Path 341" d="M.375,25.945a116.527,116.527,0,0,1,15.568-9.666,35.333,35.333,0,0,1,7.732-2.888l-.075-.023a26.468,26.468,0,0,0-15.534.062A47.266,47.266,0,0,0,.238,16.653a35.533,35.533,0,0,0,.137,9.293" transform="translate(1053.748 -115.239)" fill="#f57a38" fill-rule="evenodd"/>
    </g>
  </g>
</svg>
