<svg xmlns="http://www.w3.org/2000/svg" xmlns:xlink="http://www.w3.org/1999/xlink" width="276.263" height="101.172" viewBox="0 0 276.263 101.172">
  <defs>
    <clipPath id="clip-path">
      <rect id="Rectangle_81" data-name="Rectangle 81" width="276.263" height="101.172" fill="none"/>
    </clipPath>
  </defs>
  <g id="Group_245" data-name="Group 245" transform="translate(27.639 -9.98)">
    <text id="DIGITAL_LICENSE" data-name="DIGITAL LICENSE" transform="translate(70.06 90.999)" fill="#042d4d" font-size="16" font-family="SegoeUI, Segoe UI"><tspan x="0" y="0">DIGI</tspan><tspan y="0" letter-spacing="-0.071em">T</tspan><tspan y="0">AL LICENSE</tspan></text>
    <g id="Group_155" data-name="Group 155" transform="translate(-27.639 9.98)">
      <g id="Group_154" data-name="Group 154" transform="translate(0)" clip-path="url(#clip-path)">
        <path id="Path_330" data-name="Path 330" d="M58.9,7.668h7.3V40.811q.837-.116,1.557-.177c.479-.038.937-.061,1.376-.061a15.2,15.2,0,0,1,4.191.535q1.854.533,3.593,1.153c1.154.413,2.334.8,3.53,1.154a14.09,14.09,0,0,0,4.012.532,19.651,19.651,0,0,0,4.938-.71,31.7,31.7,0,0,0,6.376-2.6V47.5a30.974,30.974,0,0,1-6.346,2.277,24.477,24.477,0,0,1-5.267.621,19.67,19.67,0,0,1-4.849-.561q-2.217-.562-4.251-1.212T71.023,47.41a15.343,15.343,0,0,0-4.159-.561,15.085,15.085,0,0,0-3.713.5A18.667,18.667,0,0,0,58.9,49.1Z" transform="translate(39.487 4.995)" fill="#042d4d"/>
        <path id="Path_331" data-name="Path 331" d="M66.926,20.94q0-8,8.071-8h3.555q8.1,0,8.095,7.981v6.873q0,8.135-8.05,8.135H74.931q-8.005,0-8-7.958Zm8-2.654a2.33,2.33,0,0,0-2.639,2.632V27.9q0,2.72,2.639,2.72h3.621a2.409,2.409,0,0,0,2.729-2.72v-7.05q0-2.566-2.729-2.566Z" transform="translate(44.867 8.428)" fill="#f57a38"/>
        <path id="Path_332" data-name="Path 332" d="M101.13,33.346q0,2.606-2.683,2.609H89.459q-8.05,0-8.05-8.137v-6.83q0-8.023,8.05-8.024H98.29q2.819-.022,2.816,2.629-.043,2.611-2.749,2.632H89.392q-2.616,0-2.616,2.784v6.941a2.4,2.4,0,0,0,2.726,2.7l8.988.023a2.348,2.348,0,0,1,2.639,2.675" transform="translate(54.576 8.445)" fill="#f57a38"/>
        <path id="Path_333" data-name="Path 333" d="M115.525,33.256q0,2.7-2.618,2.7-2.749,0-2.749-2.7v-4.4l-8.876-.023-.022,4.421a2.684,2.684,0,0,1-5.367.045V21.1q0-8.137,8.05-8.135l8.9.021q2.683,0,2.684,2.608Zm-5.367-9.725V18.269h-6.172a2.407,2.407,0,0,0-2.726,2.72v2.542Z" transform="translate(64.286 8.446)" fill="#f57a38"/>
        <path id="Path_334" data-name="Path 334" d="M117.172,7.668h5.586v16.48a25.57,25.57,0,0,1,3.87-2.987q2.082-1.313,4.143-2.492l4.009-2.284a20.743,20.743,0,0,0,3.411-2.4,11.569,11.569,0,0,0,2.357-2.807,6.794,6.794,0,0,0,.894-3.509h5.633a8.932,8.932,0,0,1-.777,4.573,12.466,12.466,0,0,1-2.681,3.623,23.722,23.722,0,0,1-3.984,3.009q-2.265,1.382-4.6,2.786a25.532,25.532,0,0,0,1.351,4.366,13.038,13.038,0,0,0,2.609,4.029,13.618,13.618,0,0,0,4.442,3.055,18.332,18.332,0,0,0,6.892,1.359v4.89a25.576,25.576,0,0,1-6.317-.7,19.508,19.508,0,0,1-4.831-1.879,14.646,14.646,0,0,1-3.526-2.715,19.522,19.522,0,0,1-2.45-3.192,17.583,17.583,0,0,1-1.6-3.351q-.594-1.7-.96-3.146a30.757,30.757,0,0,0-3.07,2.4,16.743,16.743,0,0,0-2.5,2.786,12.943,12.943,0,0,0-1.692,3.328,12.362,12.362,0,0,0-.62,4.029v2.444h-5.586Z" transform="translate(78.551 4.995)" fill="#042d4d"/>
        <path id="Path_335" data-name="Path 335" d="M158.819,33.346q0,2.606-2.681,2.609h-8.99q-8.051,0-8.05-8.137v-12.2a2.358,2.358,0,0,1,2.683-2.654h14.2q2.819-.022,2.818,2.629-.045,2.611-2.751,2.632H144.465v3.536l8.028-.043a2.44,2.44,0,0,1,2.726,2.741q.023,2.586-2.659,2.584l-8.095.023v.884a2.4,2.4,0,0,0,2.726,2.7l8.988.023a2.348,2.348,0,0,1,2.639,2.675" transform="translate(93.25 8.445)" fill="#f57a38"/>
        <path id="Path_336" data-name="Path 336" d="M170.664,14.009a2.349,2.349,0,0,1,2.639,2.675V36.292q0,7.825-8.05,7.824h-5.591q-2.573,0-2.594-2.654a2.267,2.267,0,0,1,2.551-2.629h6.393A1.64,1.64,0,0,0,167.936,37h-6.306q-8.05,0-8.05-8.133V16.66a2.684,2.684,0,0,1,5.367.025V28.951a2.417,2.417,0,0,0,2.728,2.741h6.261V16.684q0-2.678,2.728-2.675" transform="translate(102.959 9.126)" fill="#f57a38"/>
        <path id="Path_337" data-name="Path 337" d="M53.678,19.181l8.885,3.455A29.166,29.166,0,0,0,5.081,26.628h7.3a21.907,21.907,0,0,1,41.3-7.446" transform="translate(3.406 0)" fill="#f57a38"/>
        <path id="Path_338" data-name="Path 338" d="M32.545,61.154q-10.9-6.787-16.5-15.836c-3.132,2.817-6.142,5.755-9.032,8.731A80.091,80.091,0,0,0,26.654,73.713a10.121,10.121,0,0,0,11.8-.017q14.956-10.79,22.757-24.686c.281-8.218-2.93-11.074-9.312-9.208q-5.3,12.559-19.35,21.351" transform="translate(4.703 25.572)" fill="#f57a38" fill-rule="evenodd"/>
        <path id="Path_339" data-name="Path 339" d="M36.332,34.435A197.015,197.015,0,0,1,55.681,50.31c3.17,2.936,6.262,5.991,9.312,9.207a63.236,63.236,0,0,0,6.262-15.558A109.169,109.169,0,0,0,36.332,23.123,109.8,109.8,0,0,0,1.367,43.959,66.531,66.531,0,0,0,7.629,59.517a201.81,201.81,0,0,1,28.7-25.082" transform="translate(0.916 15.063)" fill="#f57a38" fill-rule="evenodd"/>
        <path id="Path_340" data-name="Path 340" d="M22.3,20.676Q45.06,32.819,58.628,43.257a83.013,83.013,0,0,0,.321-21.71,111.2,111.2,0,0,0-18.586-7.62C29.2,13.175,23.1,15.356,22.3,20.676" transform="translate(14.949 8.979)" fill="#f9b020" fill-rule="evenodd"/>
        <path id="Path_341" data-name="Path 341" d="M.877,44.267q21.017-15,36.371-22.582a82.545,82.545,0,0,1,18.064-6.748c-.058-.018-.117-.036-.175-.053a61.835,61.835,0,0,0-36.291.145A110.424,110.424,0,0,0,.557,22.557a83.013,83.013,0,0,0,.321,21.71" transform="translate(0 7.97)" fill="#f57a38" fill-rule="evenodd"/>
      </g>
    </g>
  </g>
</svg>
