<svg xmlns="http://www.w3.org/2000/svg" width="76.753" height="53.972" viewBox="0 0 76.753 53.972">
  <path id="svgexport-5" d="M967.88,418.838a101.3,101.3,0,0,1-1.6,18.592,9.5,9.5,0,0,1-6.786,6.723c-5.985,1.615-29.989,1.615-29.989,1.615s-24,0-29.986-1.615a9.5,9.5,0,0,1-6.786-6.723,108.563,108.563,0,0,1,0-37.187,9.642,9.642,0,0,1,6.786-6.831c5.985-1.615,29.986-1.615,29.986-1.615s24,0,29.989,1.615a9.643,9.643,0,0,1,6.786,6.831,101.31,101.31,0,0,1,1.6,18.6Zm-26.165,0-20.063-11.411v22.823Z" transform="translate(-891.13 -391.796)" fill="#f57a38"/>
</svg>
