<svg xmlns="http://www.w3.org/2000/svg" width="71.952" height="58.428" viewBox="0 0 71.952 58.428">
  <path id="svgexport-3" d="M787.107,407.367a41.978,41.978,0,0,1-64.605,35.34,30.624,30.624,0,0,0,3.558.181,29.53,29.53,0,0,0,18.309-6.3,14.765,14.765,0,0,1-13.786-10.227,18.633,18.633,0,0,0,2.784.229,15.559,15.559,0,0,0,3.881-.5,14.75,14.75,0,0,1-11.824-14.464v-.181a14.844,14.844,0,0,0,6.665,1.871,14.765,14.765,0,0,1-4.565-19.725,41.93,41.93,0,0,0,30.4,15.434,16.821,16.821,0,0,1-.364-3.378,14.765,14.765,0,0,1,25.522-10.092,29.021,29.021,0,0,0,9.36-3.562,14.71,14.71,0,0,1-6.485,8.136,29.578,29.578,0,0,0,8.492-2.284,31.672,31.672,0,0,1-7.395,7.627C787.107,406.087,787.107,406.726,787.107,407.367Z" transform="translate(-722.502 -390.9)" fill="#f57a38"/>
</svg>
