<svg xmlns="http://www.w3.org/2000/svg" width="63.001" height="62.994" viewBox="0 0 63.001 62.994">
  <path id="svgexport-4" d="M870.98,434.452a17.453,17.453,0,0,1-18.285,18.288c-5.2.3-20.792.3-25.984,0a17.447,17.447,0,0,1-18.285-18.288c-.3-5.2-.3-20.792,0-25.984a17.415,17.415,0,0,1,18.285-18.27c5.2-.3,20.792-.3,25.984,0a17.444,17.444,0,0,1,18.285,18.285C871.275,413.678,871.275,429.251,870.98,434.452Zm-5.454-12.987c0-4.58.38-14.419-1.266-18.565a10.622,10.622,0,0,0-5.987-5.987c-4.131-1.63-13.982-1.266-18.565-1.266s-14.419-.383-18.568,1.266a10.632,10.632,0,0,0-5.985,5.987c-1.63,4.134-1.265,13.982-1.265,18.565s-.383,14.419,1.266,18.565a10.63,10.63,0,0,0,5.985,5.987c4.134,1.63,13.985,1.266,18.568,1.266s14.419.38,18.565-1.266a10.628,10.628,0,0,0,5.988-5.987c1.645-4.128,1.266-13.982,1.266-18.562Zm-9.67,0a16.121,16.121,0,1,1-4.721-11.426,16.149,16.149,0,0,1,4.721,11.426Zm-5.65,0a10.5,10.5,0,1,0-10.5,10.5,10.5,10.5,0,0,0,10.5-10.5Zm6.313-13.045a1.561,1.561,0,1,1,0,.018Z" transform="translate(-808.2 -389.972)" fill="#f57a38"/>
</svg>
