<svg xmlns="http://www.w3.org/2000/svg" width="275.427" height="52.439" viewBox="0 0 275.427 52.439">
  <path id="Kaspersky_logo" d="M130.881,32.375c0,10.425-6.371,15.371-14.346,15.371h-4.856V41.464h4.5c4.812,0,8.02-2.584,8.02-9.133,0-6.46-3.03-9.668-8.153-9.668-4.945,0-8.465,3.03-8.465,9.534v26.2H100.9V17.227h6.638v3.564h.936a10.781,10.781,0,0,1,8.911-4.322C124.732,16.47,130.881,21.816,130.881,32.375ZM87.218,29.658l-4.411-.446c-3.475-.312-5.3-1.247-5.3-3.3,0-2.406,2.361-3.787,5.7-3.787,3.475,0,5.7,1.648,5.881,3.965h6.371c-.267-5.97-4.856-9.623-12.208-9.623-7.4,0-12.386,3.921-12.386,9.668,0,4.812,3.03,7.93,9.935,8.6l4.5.446c2.718.267,4.544.8,4.544,3.431,0,2.361-1.693,4.054-6.193,4.054-4.143,0-6.193-1.871-6.906-4.411H69.843c.668,5.747,5.525,10.2,13.811,10.2,7.8,0,12.831-4.1,12.831-10.2C96.441,32.955,92.921,30.192,87.218,29.658ZM156.588,38.3c-1.025,2.406-3.52,4.188-7.084,4.188-4.856,0-8.465-3.163-8.465-9.98,0-6.5,3.341-10.114,8.554-10.114,4.634,0,7.262,2.762,7.529,6.95h-11.94v4.812h18.49V30.994c0-8.777-5.836-14.48-14.123-14.48-7.708,0-15.1,5.257-15.1,15.995s7.4,15.995,15.1,15.995a13.678,13.678,0,0,0,13.678-10.2h-6.638ZM51.843,16.47c-7.262,0-12.7,3.787-13.366,9.623h7.129c.49-2.139,2.45-3.742,6.193-3.742,4.812,0,6.371,2.54,6.371,5.614V38.39c-2.718,3.119-5.881,4.544-9.044,4.544-3.3,0-5.569-1.6-5.569-4.411,0-2.718,1.782-4.411,5.168-4.411h5.3V29.346H48.5c-7.574,0-11.851,3.787-11.851,9.623,0,5.435,4.1,9.534,10.871,9.534a16.465,16.465,0,0,0,9.623-3.341h.936v2.584h6.638V27.386C64.9,19.856,59.774,16.47,51.843,16.47ZM6.8,47.746h6.638V6H6.8ZM34.69,17.227H26.582L16.914,29.97v3.965l9.935,13.811h8.242L23.418,31.93Zm240.186,0L269.441,29.3a43.216,43.216,0,0,0-2.985,7.663h-.936a43.462,43.462,0,0,0-3.03-7.574l-5.435-12.163H249.7l12.787,27.4-6.327,13.811h7.084l18.98-41.212Zm-26.643,0h-8.109l-9.668,12.7V33.89L240.392,47.7h8.242L237.006,31.885Zm-41.613,12.43-4.411-.446c-3.475-.312-5.3-1.247-5.3-3.3,0-2.406,2.361-3.787,5.7-3.787,3.475,0,5.7,1.648,5.881,3.965h6.371c-.267-5.97-4.856-9.623-12.208-9.623-7.4,0-12.386,3.921-12.386,9.668,0,4.812,3.03,7.93,9.935,8.6l4.5.446c2.718.267,4.544.8,4.544,3.431,0,2.361-1.693,4.054-6.193,4.054-4.143,0-6.193-1.871-6.906-4.411h-6.906c.668,5.747,5.525,10.2,13.811,10.2,7.8,0,12.831-4.1,12.831-10.2C215.888,32.955,212.324,30.192,206.621,29.658Zm13.722,18.089h6.638V6h-6.638ZM176.5,20.792h-.936V17.227h-6.638V47.746h6.638V31.8c0-5.435,2.495-8.6,7.485-8.6h4.188V16.47h-2.45C180.2,16.47,178.241,18.208,176.5,20.792Z" transform="translate(-6.8 -6)" fill="#009982"/>
</svg>
