<svg xmlns="http://www.w3.org/2000/svg" width="210.083" height="55.353" viewBox="0 0 210.083 55.353">
  <g id="Group_141487" data-name="Group 141487" transform="translate(-2652.5 -3824.878)">
    <g id="Group_141485" data-name="Group 141485" transform="translate(2652.5 3824.878)">
      <path id="Path_257" data-name="Path 257" d="M23.145,0H0V55.353Zm0,0" fill="#fa0c00"/>
      <path id="Path_258" data-name="Path 258" d="M10.215,0H33.33V55.353Zm0,0" transform="translate(29.215)" fill="#fa0c00"/>
      <path id="Path_259" data-name="Path 259" d="M15.6,5.285,30.334,40.237H20.668l-4.4-11.128H5.484Zm0,0" transform="translate(15.686 15.116)" fill="#fa0c00"/>
    </g>
    <g id="Group_141486" data-name="Group 141486" transform="translate(2733.465 3834.792)">
      <path id="Path_260" data-name="Path 260" d="M40.316,25.945l2.729,7.826a.453.453,0,0,0,.467.286H48.76c.287,0,.332-.136.287-.422L38.2,3.523c-.045-.241-.09-.286-.332-.286H31.359c-.181,0-.287.136-.287.332A6.946,6.946,0,0,1,30.65,6.1L20.985,33.589c-.045.332.06.467.332.467h4.689a.478.478,0,0,0,.528-.377l2.579-7.735Zm-9.71-5.112c1.417-4.282,3.287-9.771,4.041-12.907h.045c.935,3.287,3.136,9.8,4.132,12.907Zm0,0" transform="translate(-20.975 -0.658)" fill="#fa0c00"/>
      <path id="Path_261" data-name="Path 261" d="M40.751,36.435a22.236,22.236,0,0,0,8.866-1.824.366.366,0,0,0,.286-.422c-.09-.844-.2-2.066-.2-3V2.84c0-.181,0-.271-.226-.271H44.37c-.2,0-.286.09-.286.332v9.6a16.812,16.812,0,0,0-2.021-.136c-8.248,0-13.314,5.443-13.314,12.244,0,7.886,5.2,11.822,12,11.822Zm3.332-5.247a8.981,8.981,0,0,1-2.729.377c-3.739,0-6.8-2.111-6.8-7.238,0-4.539,3.151-7.223,7.328-7.223a6.1,6.1,0,0,1,2.2.332Zm0,0" transform="translate(1.258 -2.568)" fill="#fa0c00"/>
      <path id="Path_262" data-name="Path 262" d="M46.9,5.108c-7.042,0-11.4,5.4-11.4,12.063,0,5.956,3.468,12,11.294,12,6.619,0,11.264-4.87,11.264-12.153,0-6.423-3.935-11.912-11.158-11.912Zm-.286,4.735c3.981,0,5.67,3.423,5.67,7.328,0,4.825-2.488,7.223-5.383,7.223-3.574,0-5.685-3-5.685-7.328,0-4.448,2.247-7.223,5.4-7.223Zm0,0" transform="translate(20.569 4.694)" fill="#fa0c00"/>
      <path id="Path_263" data-name="Path 263" d="M42.959,2.568a.3.3,0,0,0-.332.332V34.987a.5.5,0,0,0,.332.422,23.723,23.723,0,0,0,7.027,1.025c6.951,0,13.706-4.312,13.706-13,0-6.288-4.312-11.068-11.068-11.068a13.546,13.546,0,0,0-4.267.663L48.3,2.945c0-.332-.09-.377-.422-.377ZM57.917,24.01c0,5.2-3.559,7.645-7.4,7.645a7.442,7.442,0,0,1-2.156-.241V17.722a8.348,8.348,0,0,1,3.272-.528c3.709,0,6.288,2.352,6.288,6.815Zm0,0" transform="translate(40.952 -2.568)" fill="#fa0c00"/>
      <path id="Path_264" data-name="Path 264" d="M64.321,18.437a33.5,33.5,0,0,0,4.825-.2c.241-.045.332-.136.377-.332a14.243,14.243,0,0,0,.2-2.9c0-4.463-2.684-9.907-9.62-9.907-7.087,0-11.022,5.775-11.022,12.289,0,5.775,3.046,11.776,11.58,11.776A15.575,15.575,0,0,0,67.7,27.816a.5.5,0,0,0,.271-.513V23.4c0-.226-.136-.271-.271-.181a14.73,14.73,0,0,1-5.82,1.131c-4.78,0-6.951-2.639-7.087-5.911ZM54.792,14.4c.377-2.292,1.825-4.78,5.066-4.78a4.337,4.337,0,0,1,4.508,4.358v.377a23.956,23.956,0,0,1-2.578.045Zm0,0" transform="translate(59.399 4.694)" fill="#fa0c00"/>
    </g>
  </g>
</svg>
