<svg xmlns="http://www.w3.org/2000/svg" xmlns:xlink="http://www.w3.org/1999/xlink" width="259.545" height="55.353" viewBox="0 0 259.545 55.353">
  <defs>
    <clipPath id="clip-path">
      <rect id="Rectangle_161191" data-name="Rectangle 161191" width="259.545" height="55.353" fill="none"/>
    </clipPath>
  </defs>
  <g id="Group_141488" data-name="Group 141488" clip-path="url(#clip-path)">
    <path id="Path_39337" data-name="Path 39337" d="M129.6,13.66V46.872h-5.766V20.81h-.077l-10.3,26.062h-3.844L99.082,20.81H99V46.872H93.7V13.66H102l9.533,24.6h.154l10.071-24.6Zm4.767,2.537a2.924,2.924,0,0,1,1-2.306,3.438,3.438,0,0,1,2.383-.923,3.365,3.365,0,0,1,2.46.923,3.2,3.2,0,0,1,1,2.306,2.924,2.924,0,0,1-1,2.306,3.492,3.492,0,0,1-2.46.923,3.185,3.185,0,0,1-2.383-.923,3.482,3.482,0,0,1-1-2.306M140.6,46.872h-5.612V23.039H140.6Zm16.99-4.075a6.477,6.477,0,0,0,2.768-.615,12.146,12.146,0,0,0,2.768-1.538v5.228a9.809,9.809,0,0,1-3.075,1.153,18.918,18.918,0,0,1-3.767.384,11.293,11.293,0,0,1-8.534-3.306,11.472,11.472,0,0,1-3.306-8.457,13.566,13.566,0,0,1,3.383-9.456c2.23-2.46,5.382-3.69,9.533-3.69a14.15,14.15,0,0,1,3.152.384,10.475,10.475,0,0,1,2.537.923V29.19a11.167,11.167,0,0,0-2.614-1.461,8.833,8.833,0,0,0-2.768-.538,7.012,7.012,0,0,0-5.382,2.153,8.065,8.065,0,0,0-2,5.843,7.693,7.693,0,0,0,2,5.612,7.191,7.191,0,0,0,5.3,2m21.449-20.142a6.214,6.214,0,0,1,1.23.077,7.978,7.978,0,0,1,.923.231v5.689a3.451,3.451,0,0,0-1.307-.615,7.888,7.888,0,0,0-2.076-.308,4.3,4.3,0,0,0-3.46,1.768,8.49,8.49,0,0,0-1.461,5.382V46.872h-5.612V23.039h5.612v3.767h.077a7.242,7.242,0,0,1,2.306-3.075,6.774,6.774,0,0,1,3.767-1.076M181.5,35.34a13.28,13.28,0,0,1,3.306-9.379q3.344-3.46,9.226-3.46c3.69,0,6.612,1.076,8.687,3.306a12.694,12.694,0,0,1,3.152,8.995,13.02,13.02,0,0,1-3.306,9.226c-2.23,2.306-5.228,3.46-9.072,3.46a11.843,11.843,0,0,1-8.764-3.229A12.337,12.337,0,0,1,181.5,35.34m5.843-.231A8.383,8.383,0,0,0,189.03,40.8a6.145,6.145,0,0,0,4.843,2,5.6,5.6,0,0,0,4.69-2c1.076-1.307,1.614-3.229,1.614-5.843a9.272,9.272,0,0,0-1.614-5.843,6.417,6.417,0,0,0-9.379.077,8.422,8.422,0,0,0-1.845,5.92m26.908-5.766a2.44,2.44,0,0,0,.769,1.922,13.15,13.15,0,0,0,3.383,1.691,11.723,11.723,0,0,1,4.69,3,6.228,6.228,0,0,1,1.384,4.075,6.455,6.455,0,0,1-2.614,5.382c-1.691,1.384-4.075,2-7,2a18.214,18.214,0,0,1-3.306-.384,13.3,13.3,0,0,1-3.075-.923V40.568a13.434,13.434,0,0,0,3.306,1.691,10.363,10.363,0,0,0,3.229.615,5.167,5.167,0,0,0,2.768-.538,1.887,1.887,0,0,0,.923-1.768,2.707,2.707,0,0,0-.923-2,14.2,14.2,0,0,0-3.536-1.845,10.573,10.573,0,0,1-4.382-2.921,6.536,6.536,0,0,1-1.307-4.151,6.553,6.553,0,0,1,2.537-5.3,10.155,10.155,0,0,1,6.612-2.076,12.19,12.19,0,0,1,2.768.308c1,.231,1.922.461,2.614.692v5.458a16.561,16.561,0,0,0-2.614-1.307,8.136,8.136,0,0,0-2.921-.538,4.287,4.287,0,0,0-2.46.615,2.456,2.456,0,0,0-.846,1.845m12.608,6a13.28,13.28,0,0,1,3.306-9.379q3.344-3.46,9.226-3.46c3.69,0,6.612,1.076,8.687,3.306a12.694,12.694,0,0,1,3.152,8.995,13.02,13.02,0,0,1-3.306,9.226c-2.23,2.306-5.228,3.46-9.072,3.46a11.843,11.843,0,0,1-8.764-3.229,12.671,12.671,0,0,1-3.229-8.918m5.843-.231a8.383,8.383,0,0,0,1.691,5.689,6.145,6.145,0,0,0,4.843,2,5.6,5.6,0,0,0,4.69-2c1.076-1.307,1.614-3.229,1.614-5.843a9.272,9.272,0,0,0-1.614-5.843,6.417,6.417,0,0,0-9.379.077,8.8,8.8,0,0,0-1.845,5.92m37.21-7.457h-8.38v19.22h-5.689V27.652h-4V23.039h4V19.734a8.291,8.291,0,0,1,8.687-8.534c.692,0,1.307.077,1.845.077a3.672,3.672,0,0,1,1.384.308v4.843a9.419,9.419,0,0,0-1-.384,5.111,5.111,0,0,0-1.614-.231,3.47,3.47,0,0,0-2.691,1.076,4.9,4.9,0,0,0-.923,3.229v2.845h8.38V17.581l5.612-1.691v7.073h5.689v4.613H275.52V38.723a5.117,5.117,0,0,0,.769,3.075,3.2,3.2,0,0,0,2.537.923,3.794,3.794,0,0,0,1.153-.231,4.018,4.018,0,0,0,1.153-.538v4.613a5.362,5.362,0,0,1-1.768.538,13.323,13.323,0,0,1-2.46.231q-3.575,0-5.3-1.845c-1.153-1.23-1.768-3.152-1.768-5.689Z" transform="translate(-21.664 -2.59)" fill="#737373"/>
    <rect id="Rectangle_161187" data-name="Rectangle 161187" width="26.293" height="26.293" fill="#f25022"/>
    <rect id="Rectangle_161188" data-name="Rectangle 161188" width="26.293" height="26.293" transform="translate(29.06)" fill="#7fba00"/>
    <rect id="Rectangle_161189" data-name="Rectangle 161189" width="26.293" height="26.293" transform="translate(0 29.06)" fill="#00a4ef"/>
    <rect id="Rectangle_161190" data-name="Rectangle 161190" width="26.293" height="26.293" transform="translate(29.06 29.06)" fill="#ffb900"/>
  </g>
</svg>
