<svg xmlns="http://www.w3.org/2000/svg" width="247.116" height="55.353" viewBox="0 0 247.116 55.353">
  <path id="Microsoft_Windows-Logo.wine" d="M112.234,11.554l-9.054,32.052h-4.4L92.184,20.182a14.671,14.671,0,0,1-.514-3.263h-.089A16.582,16.582,0,0,1,91,20.138L84.363,43.606H80L70.616,11.554H74.75L81.568,36.14A16.176,16.176,0,0,1,82.1,39.36h.112a18.861,18.861,0,0,1,.692-3.219l7.086-24.586h3.6l6.794,24.766a18.219,18.219,0,0,1,.537,2.995h.089a17.84,17.84,0,0,1,.6-3.084l6.549-24.675h4.069Zm5.048,3.352a2.321,2.321,0,0,1-1.677-.671,2.262,2.262,0,0,1-.692-1.7,2.344,2.344,0,0,1,2.368-2.392,2.378,2.378,0,0,1,1.711.681,2.39,2.39,0,0,1,0,3.388A2.347,2.347,0,0,1,117.283,14.906Zm1.788,28.7H115.4V20.717h3.666Zm24.635,0H140.04V30.554q0-7.286-5.319-7.286a5.772,5.772,0,0,0-4.549,2.068,7.658,7.658,0,0,0-1.8,5.219V43.606h-3.666V20.717h3.666v3.8h.089a8.26,8.26,0,0,1,7.51-4.335,7,7,0,0,1,5.744,2.425q1.991,2.425,1.989,7.007V43.606h0Zm26.077,0h-3.666v-3.89h-.089a9.234,9.234,0,0,1-14.763,1.352Q148.684,38,148.682,32.7q0-5.677,2.862-9.1a9.431,9.431,0,0,1,7.623-3.42,7.338,7.338,0,0,1,6.861,3.71h.089V9.721h3.666Zm-3.665-10.348V29.882a6.562,6.562,0,0,0-1.832-4.694,6.154,6.154,0,0,0-4.65-1.922,6.33,6.33,0,0,0-5.275,2.459,10.777,10.777,0,0,0-1.923,6.795,9.685,9.685,0,0,0,1.844,6.247,6.024,6.024,0,0,0,4.95,2.291,6.258,6.258,0,0,0,4.974-2.213,8.246,8.246,0,0,0,1.911-5.585Zm19.689,10.884a10.614,10.614,0,0,1-8.1-3.207,11.88,11.88,0,0,1-3.028-8.505q0-5.766,3.152-9.007a11.325,11.325,0,0,1,8.516-3.243,10.262,10.262,0,0,1,7.99,3.152q2.872,3.149,2.872,8.739a12.3,12.3,0,0,1-3.1,8.773A10.847,10.847,0,0,1,185.806,44.142Zm.268-20.876a6.967,6.967,0,0,0-5.587,2.4,9.866,9.866,0,0,0-2.056,6.627,9.325,9.325,0,0,0,2.08,6.415,7.066,7.066,0,0,0,5.565,2.346,6.7,6.7,0,0,0,5.466-2.3,9.987,9.987,0,0,0,1.911-6.548,10.165,10.165,0,0,0-1.911-6.617A6.681,6.681,0,0,0,186.075,23.266Zm44.164-2.548-6.861,22.888h-3.8l-4.715-16.384A10.529,10.529,0,0,1,214.5,25.1h-.089a10.033,10.033,0,0,1-.469,2.079l-5.117,16.428h-3.667L198.233,20.72h3.844l4.737,17.209a10.466,10.466,0,0,1,.313,2.056h.179a9.643,9.643,0,0,1,.4-2.1l5.275-17.166h3.352l4.738,17.255a12.576,12.576,0,0,1,.336,2.056h.179a9.468,9.468,0,0,1,.379-2.056l4.65-17.255Zm1.7,22.06V38.844a10.838,10.838,0,0,0,6.593,2.213q4.829,0,4.828-3.219a2.8,2.8,0,0,0-.412-1.554,4.13,4.13,0,0,0-1.117-1.129,8.648,8.648,0,0,0-1.653-.883q-1.019-.417-2.045-.816a26.09,26.09,0,0,1-2.671-1.219,8.068,8.068,0,0,1-1.923-1.386,5.164,5.164,0,0,1-1.163-1.756,6.206,6.206,0,0,1-.391-2.3,5.483,5.483,0,0,1,.736-2.85,6.569,6.569,0,0,1,1.967-2.079,9.2,9.2,0,0,1,2.807-1.264,12.455,12.455,0,0,1,3.25-.423,13.165,13.165,0,0,1,5.321,1.028v3.71a10.38,10.38,0,0,0-5.812-1.654,6.755,6.755,0,0,0-1.855.236,4.523,4.523,0,0,0-1.419.659,3.059,3.059,0,0,0-.916,1.016,2.675,2.675,0,0,0-.324,1.308,3.137,3.137,0,0,0,.324,1.5,3.317,3.317,0,0,0,.95,1.072,7.356,7.356,0,0,0,1.52.848q.9.381,2.037.828a29.171,29.171,0,0,1,2.725,1.2,9.342,9.342,0,0,1,2.056,1.386,5.456,5.456,0,0,1,1.308,1.776,5.757,5.757,0,0,1,.458,2.392,5.628,5.628,0,0,1-.748,2.951,6.4,6.4,0,0,1-2,2.078,9.157,9.157,0,0,1-2.884,1.23,14.208,14.208,0,0,1-3.419.4,12.936,12.936,0,0,1-6.128-1.36ZM54.574,0,24.2,4.432V26.444H54.573ZM0,7.961V26.444H22.057V4.743ZM0,47.3l22.057,3.254V28.583H0Zm54.574,8.051V28.583H24.2V50.873Z" fill="#0078d6"/>
</svg>
