<svg xmlns="http://www.w3.org/2000/svg" width="32.014" height="19.304" viewBox="0 0 32.014 19.304">
  <g id="MasterCard-light" transform="translate(-8.392 -5.426)">
    <path id="Fill_333" data-name="Fill 333" d="M19.156,9.652A9.578,9.578,0,1,1,9.578,0a9.615,9.615,0,0,1,9.578,9.652" transform="translate(8.392 5.426)" fill="#c00"/>
    <path id="Fill_334" data-name="Fill 334" d="M9.363,0a9.5,9.5,0,0,0-6.43,2.5A9.806,9.806,0,0,0,1.966,3.52H3.9a9.9,9.9,0,0,1,.73,1.022h-3.4A9.721,9.721,0,0,0,.684,5.565h4.5a9.657,9.657,0,0,1,.406,1.022H.278A9.668,9.668,0,0,0,0,7.608H5.866a9.8,9.8,0,0,1,.215,2.044,9.716,9.716,0,0,1-.493,3.066H.278a9.8,9.8,0,0,0,.405,1.022h4.5a9.693,9.693,0,0,1-.552,1.022H1.236a9.73,9.73,0,0,0,.73,1.021H3.9a9.615,9.615,0,0,1-.967,1.022,9.5,9.5,0,0,0,6.43,2.5,9.652,9.652,0,0,0,0-19.3" transform="translate(21.466 5.426)" fill="#f90"/>
    <path id="Fill_336" data-name="Fill 336" d="M.95,4.14A.981.981,0,0,1,0,3.052c0-.975.665-1.535,1.825-1.535a3.552,3.552,0,0,1,.424.03.992.992,0,0,0,.04-.258c0-.264-.181-.363-.667-.363h-.03a3.412,3.412,0,0,0-1.07.18c.01-.065.142-.887.144-.9A4.09,4.09,0,0,1,1.911,0,1.466,1.466,0,0,1,2.982.347a1.113,1.113,0,0,1,.294.821,5.051,5.051,0,0,1-.084.789c-.07.445-.282,1.8-.31,2.114H2.02l.02-.413A1.308,1.308,0,0,1,.95,4.14Zm.943-1.86c-.589,0-.888.2-.888.607a.365.365,0,0,0,.373.4c.421,0,.728-.409.747-1A1.833,1.833,0,0,0,1.893,2.279Z" transform="translate(13.608 13.838)" fill="#006"/>
    <path id="Fill_337" data-name="Fill 337" d="M4.17,4.9H3.13l.6-3.763L2.4,4.9H1.687L1.6,1.154.973,4.9H0L.813,0h1.5L2.4,2.74,3.311,0H4.974l-.8,4.9" transform="translate(9.003 13.013)" fill="#006"/>
    <path id="Fill_338" data-name="Fill 338" d="M.95,4.14A.981.981,0,0,1,0,3.052c0-.975.665-1.535,1.825-1.535a3.517,3.517,0,0,1,.423.03.972.972,0,0,0,.041-.258c0-.264-.181-.363-.667-.363h-.03a3.435,3.435,0,0,0-1.071.18c.011-.064.139-.862.145-.9A4.085,4.085,0,0,1,1.911,0,1.466,1.466,0,0,1,2.982.347a1.113,1.113,0,0,1,.294.821,5.051,5.051,0,0,1-.084.789l0,.011c-.092.586-.283,1.8-.308,2.1H2.02l.02-.413A1.308,1.308,0,0,1,.95,4.14Zm.943-1.86c-.589,0-.888.2-.888.607a.365.365,0,0,0,.373.4c.422,0,.728-.409.746-1A1.805,1.805,0,0,0,1.893,2.279Z" transform="translate(29.989 13.838)" fill="#006"/>
    <path id="Fill_339" data-name="Fill 339" d="M1.569,4.524a2.36,2.36,0,0,1-.747.129A.764.764,0,0,1,0,3.778,9.257,9.257,0,0,1,.143,2.717C.2,2.345.594,0,.594,0H1.627L1.507.6h.624L1.99,1.56H1.364c-.12.757-.291,1.7-.293,1.825,0,.205.109.295.356.295a.84.84,0,0,0,.28-.038l-.138.881" transform="translate(19.541 13.325)" fill="#006"/>
    <path id="Fill_340" data-name="Fill 340" d="M1.771,4.14h-.01A1.583,1.583,0,0,1,0,2.363C0,.994.761,0,1.809,0a1.33,1.33,0,0,1,1.4,1.44,4.3,4.3,0,0,1-.128.98H1.02a.7.7,0,0,0,.138.567.982.982,0,0,0,.761.25,2.436,2.436,0,0,0,1.073-.25l-.172.989A3.5,3.5,0,0,1,1.771,4.14ZM1.759.907c-.33,0-.565.252-.661.711H2.239c0-.005,0-.012,0-.021a.739.739,0,0,0-.117-.552A.469.469,0,0,0,1.759.907Z" transform="translate(21.459 13.838)" fill="#006"/>
    <path id="Fill_341" data-name="Fill 341" d="M.394,1.348a1.162,1.162,0,0,0,.792,1.112c.421.2.486.259.486.439,0,.248-.186.36-.6.36A2.9,2.9,0,0,1,.143,3.1L0,4.022a4.81,4.81,0,0,0,1.082.118c1.1,0,1.6-.421,1.6-1.331A1.09,1.09,0,0,0,1.953,1.7c-.436-.2-.486-.247-.486-.432,0-.215.173-.325.509-.325A5.7,5.7,0,0,1,2.723,1L2.871.077A6.967,6.967,0,0,0,1.956,0C.793,0,.39.612.394,1.348" transform="translate(16.719 13.838)" fill="#006"/>
    <path id="Fill_342" data-name="Fill 342" d="M4.679,1.213a1.966,1.966,0,0,1,.929.264L5.779.414A3.04,3.04,0,0,0,4.636,0a2.067,2.067,0,0,0-1.7.922c-.6-.2-.852.206-1.156.611l-.27.063a2.049,2.049,0,0,0,.033-.4H.59C.459,2.429.228,3.677.047,4.91L0,5.178H1.04c.174-1.137.269-1.865.326-2.358L1.758,2.6c.059-.22.242-.294.609-.285a4.494,4.494,0,0,0-.074.816c0,1.3.7,2.114,1.817,2.114A3.222,3.222,0,0,0,5.03,5.1l.182-1.116a2.012,2.012,0,0,1-.883.251c-.6,0-.97-.45-.97-1.193,0-1.078.544-1.833,1.32-1.833" transform="translate(24.657 12.731)" fill="#006"/>
    <path id="Fill_343" data-name="Fill 343" d="M3.264,4.965c-.751,0-1.255-.664-1.255-1.652A3.436,3.436,0,0,1,2.26,2.021H2.227c-.26,0-.422.161-.646.383-.067.066-.135.134-.214.206-.093.709-.2,1.479-.327,2.288H0l.048-.268c.06-.41.126-.829.191-1.233C.369,2.58.5,1.737.59.914h.955c0,.076-.014.294-.046.6h0l.044.013c.121.039.49.156.842.23A1.613,1.613,0,0,1,3.7.764a1.332,1.332,0,0,1,.992.65L4.924,0H5.949L5.157,4.9H4.173l.049-.371A1.229,1.229,0,0,1,3.264,4.965ZM3.9,1.854c-.475,0-.806.55-.806,1.337,0,.521.179.785.533.785.485,0,.824-.552.824-1.343C4.447,2.131,4.251,1.854,3.9,1.854Z" transform="translate(33.217 13.013)" fill="#006"/>
    <path id="Fill_344" data-name="Fill 344" d="M4.17,4.9H3.13l.6-3.763L2.4,4.9H1.687L1.6,1.154.973,4.9H0L.813,0h1.5L2.35,3.031,3.359,0H4.974l-.8,4.9" transform="translate(9.302 12.723)" fill="#fff"/>
    <path id="Fill_345" data-name="Fill 345" d="M.95,4.14A.981.981,0,0,1,0,3.052c0-.975.665-1.535,1.825-1.535a3.583,3.583,0,0,1,.424.031,1.006,1.006,0,0,0,.04-.259c0-.264-.181-.362-.667-.362H1.587a3.417,3.417,0,0,0-1.065.179c.011-.064.139-.862.145-.9A4.085,4.085,0,0,1,1.911,0,1.466,1.466,0,0,1,2.982.347a1.113,1.113,0,0,1,.294.821,5.1,5.1,0,0,1-.084.789c-.07.445-.282,1.8-.31,2.114H2.02l.02-.413A1.308,1.308,0,0,1,.95,4.14ZM1.893,2.28c-.589,0-.888.2-.888.606a.366.366,0,0,0,.373.406c.421,0,.728-.409.747-1A1.833,1.833,0,0,0,1.893,2.28Z" transform="translate(13.907 13.548)" fill="#fff"/>
    <path id="Fill_346" data-name="Fill 346" d="M3.485.254l-.17,1.062a1.974,1.974,0,0,0-.929-.264c-.776,0-1.321.756-1.321,1.835,0,.743.366,1.192.971,1.192a2,2,0,0,0,.883-.251L2.736,4.943a3.222,3.222,0,0,1-.919.144C.7,5.087,0,4.276,0,2.973,0,1.223.964,0,2.342,0A3.576,3.576,0,0,1,3.485.254" transform="translate(27.25 12.6)" fill="#fff"/>
    <path id="Fill_347" data-name="Fill 347" d="M.95,4.14A.981.981,0,0,1,0,3.052c0-.975.665-1.535,1.825-1.535a3.577,3.577,0,0,1,.423.031,1.008,1.008,0,0,0,.041-.259c0-.264-.181-.362-.667-.362H1.587a3.389,3.389,0,0,0-1.065.179c.011-.064.139-.862.145-.9A4.085,4.085,0,0,1,1.911,0,1.465,1.465,0,0,1,2.982.347a1.113,1.113,0,0,1,.294.821,5.1,5.1,0,0,1-.084.789c-.07.445-.282,1.8-.31,2.114H2.02l.02-.413A1.3,1.3,0,0,1,.95,4.14ZM1.893,2.28c-.589,0-.888.2-.888.606a.365.365,0,0,0,.372.406c.422,0,.729-.409.747-1A1.8,1.8,0,0,0,1.893,2.28Z" transform="translate(30.288 13.548)" fill="#fff"/>
    <path id="Fill_348" data-name="Fill 348" d="M1.569,4.523a2.359,2.359,0,0,1-.747.13A.764.764,0,0,1,0,3.779,9.282,9.282,0,0,1,.143,2.717C.2,2.345.594,0,.594,0H1.628L1.507.6h.531L1.9,1.559H1.364c-.12.758-.291,1.7-.293,1.826,0,.206.109.295.356.295a.826.826,0,0,0,.28-.038l-.138.881" transform="translate(19.84 13.034)" fill="#fff"/>
    <path id="Fill_349" data-name="Fill 349" d="M1.76,4.14A1.581,1.581,0,0,1,0,2.364C0,.994.76,0,1.808,0A1.33,1.33,0,0,1,3.2,1.441a4.333,4.333,0,0,1-.127.979H1.02a.7.7,0,0,0,.138.568.981.981,0,0,0,.76.25,2.426,2.426,0,0,0,1.074-.251l-.172.99A3.538,3.538,0,0,1,1.76,4.14Zm0-3.233c-.33,0-.565.252-.661.711H2.239c0-.005,0-.013,0-.022a.739.739,0,0,0-.117-.551A.47.47,0,0,0,1.759.907Z" transform="translate(21.758 13.548)" fill="#fff"/>
    <path id="Fill_350" data-name="Fill 350" d="M.393,1.348A1.162,1.162,0,0,0,1.185,2.46c.421.2.486.259.486.439,0,.248-.186.36-.6.36A2.909,2.909,0,0,1,.143,3.1L0,4.021a4.779,4.779,0,0,0,1.082.118c1.1,0,1.6-.421,1.6-1.331A1.089,1.089,0,0,0,1.953,1.7c-.436-.2-.486-.247-.486-.433,0-.215.173-.326.509-.326A5.739,5.739,0,0,1,2.723,1L2.871.078A7.025,7.025,0,0,0,1.956,0C.792,0,.39.612.393,1.348" transform="translate(17.019 13.548)" fill="#fff"/>
    <path id="Fill_351" data-name="Fill 351" d="M1.255,4.965C.5,4.965,0,4.3,0,3.312,0,1.989.775.872,1.692.872a1.173,1.173,0,0,1,.993.542L2.915,0H3.94L3.15,4.9H2.165l.049-.371A1.23,1.23,0,0,1,1.255,4.965Zm.633-3.111c-.475,0-.806.55-.806,1.337,0,.521.179.785.533.785.486,0,.825-.552.825-1.342C2.44,2.13,2.244,1.853,1.888,1.853Z" transform="translate(35.524 12.723)" fill="#fff"/>
    <path id="Fill_352" data-name="Fill 352" d="M.59.043C.46,1.275.228,2.523.047,3.756L0,4.024H1.04c.372-2.435.461-2.91,1.045-2.851A3.928,3.928,0,0,1,2.48.019c-.435-.092-.679.156-1,.628a3.654,3.654,0,0,0,.063-.6H.59" transform="translate(33.516 13.594)" fill="#fff"/>
    <path id="Fill_353" data-name="Fill 353" d="M.59.043C.459,1.275.228,2.523.047,3.756L0,4.024H1.04c.372-2.435.461-2.91,1.044-2.851A3.952,3.952,0,0,1,2.48.019c-.435-.092-.679.156-1,.628a3.636,3.636,0,0,0,.062-.6H.59" transform="translate(24.957 13.594)" fill="#fff"/>
  </g>
</svg>
