<svg xmlns="http://www.w3.org/2000/svg" width="1920" height="571" viewBox="0 0 1920 571">
  <g id="Group_141486" data-name="Group 141486" transform="translate(0 -3117)">
    <path id="Fill_376" data-name="Fill 376" d="M.315.632A.316.316,0,1,1,.631.315.316.316,0,0,1,.315.632Zm0-.556a.24.24,0,1,0,.24.239A.24.24,0,0,0,.315.076Z" transform="translate(1487.724 3650.33)" fill="#06c"/>
    <g id="Group_141487" data-name="Group 141487">
      <rect id="Rectangle_3271" data-name="Rectangle 3271" width="1920" height="571" transform="translate(0 3117)" fill="none"/>
      <path id="Fill_374" data-name="Fill 374" d="M19.538,9.78A9.769,9.769,0,1,1,9.769,0a9.775,9.775,0,0,1,9.769,9.78" transform="translate(1456.373 3635.414)" fill="#339"/>
      <path id="Fill_375" data-name="Fill 375" d="M9.549,0A9.728,9.728,0,0,0,2.991,2.532a9.9,9.9,0,0,0-.986,1.035H3.979A9.843,9.843,0,0,1,4.723,4.6H1.26A9.76,9.76,0,0,0,.7,5.638H5.286A9.794,9.794,0,0,1,5.7,6.673H.284A9.777,9.777,0,0,0,0,7.709H5.983A9.822,9.822,0,0,1,6.2,9.78a9.777,9.777,0,0,1-.5,3.107H.284A9.859,9.859,0,0,0,.7,13.923H5.286a9.794,9.794,0,0,1-.563,1.036H1.26a9.857,9.857,0,0,0,.745,1.035H3.978a9.752,9.752,0,0,1-.986,1.036A9.775,9.775,0,1,0,9.549,0" transform="translate(1469.708 3635.414)" fill="#06c"/>
      <path id="Fill_377" data-name="Fill 377" d="M5.191.246C5.1.63,5.058.847,4.94,1.314a2.75,2.75,0,0,0-2.475,0,2,2,0,0,0-.9,1.949,1.193,1.193,0,0,0,.735.907,2.464,2.464,0,0,0,2.086-.214c-.1.473-.183.844-.274,1.182a4.274,4.274,0,0,1-2.6.034A2.154,2.154,0,0,1,.031,3.421,2.909,2.909,0,0,1,1.636.357,5.385,5.385,0,0,1,5.191.246" transform="translate(1460.387 3642.709)" fill="#006"/>
      <path id="Fill_378" data-name="Fill 378" d="M3.106,3.5a2.048,2.048,0,0,1-1.7.743C.43,4.247-.256,3.526.091,1.906L.5,0H1.986s-.4,1.908-.4,1.906c-.138.649-.105,1.142.553,1.142.775,0,1.007-.469,1.154-1.142,0,0,.4-1.906.4-1.906H5.248L4.579,3.064c-.076.36-.149.74-.191,1.116h-1.4L3.106,3.5" transform="translate(1474.92 3643.82)" fill="#006"/>
      <path id="Fill_379" data-name="Fill 379" d="M.57,1.415c0,.53.348.892,1.138,1.163.61.213.706.276.706.462,0,.264-.272.377-.86.377A5.5,5.5,0,0,1,.209,3.256S.019,4.123,0,4.222a10.99,10.99,0,0,0,1.563.118c1.578,0,2.31-.442,2.31-1.395,0-.57-.307-.906-1.056-1.163-.631-.208-.7-.256-.7-.454,0-.222.249-.34.734-.34.292,0,.7.025,1.081.065l.21-.97C3.753.037,3.163,0,2.822,0,1.147,0,.564.646.57,1.415" transform="translate(1480.094 3643.727)" fill="#006"/>
      <path id="Fill_380" data-name="Fill 380" d="M.889,0h1.56L1.56,4.18H0L.889,0" transform="translate(1465.258 3643.82)" fill="#006"/>
      <path id="Fill_381" data-name="Fill 381" d="M3.947.024A1.7,1.7,0,0,0,2.238.689,2.989,2.989,0,0,0,2.325.042H.892c-.2,1.294-.547,2.6-.821,3.9L0,4.222H1.622A12.66,12.66,0,0,1,2.27,1.7a1,1,0,0,1,1.2-.511L3.947.024" transform="translate(1471.109 3643.778)" fill="#006"/>
      <path id="Fill_382" data-name="Fill 382" d="M3.946.024A1.7,1.7,0,0,0,2.238.689,2.989,2.989,0,0,0,2.325.042H.892c-.2,1.294-.547,2.6-.821,3.9L0,4.222H1.622A12.681,12.681,0,0,1,2.27,1.7a1,1,0,0,1,1.2-.511L3.946.024" transform="translate(1467.709 3643.778)" fill="#006"/>
      <path id="Fill_383" data-name="Fill 383" d="M.315.632A.316.316,0,1,1,.631.316.316.316,0,0,1,.315.632Zm0-.556a.24.24,0,1,0,.24.24A.241.241,0,0,0,.315.076Z" transform="translate(1484.446 3647.062)" fill="#fff"/>
      <path id="Fill_384" data-name="Fill 384" d="M5.191.246C5.1.63,5.058.848,4.94,1.314a2.753,2.753,0,0,0-2.475,0,2,2,0,0,0-.9,1.949,1.194,1.194,0,0,0,.735.907,2.465,2.465,0,0,0,2.086-.214c-.1.473-.183.844-.275,1.183a4.275,4.275,0,0,1-2.6.034A2.154,2.154,0,0,1,.031,3.421,2.909,2.909,0,0,1,1.636.357,5.385,5.385,0,0,1,5.191.246" transform="translate(1460.693 3642.403)" fill="#fff"/>
      <path id="Fill_385" data-name="Fill 385" d="M3.047,3.5a2.049,2.049,0,0,1-1.7.742c-.977,0-1.6-.721-1.25-2.34L.5,0H1.992l-.4,1.906c-.138.649-.1,1.142.553,1.142.775,0,1.007-.469,1.154-1.142,0,0,.4-1.906.4-1.906H5.19L4.52,3.064c-.076.359-.148.74-.191,1.116H2.93L3.047,3.5" transform="translate(1475.285 3643.515)" fill="#fff"/>
      <path id="Fill_386" data-name="Fill 386" d="M.57,1.415c0,.53.348.892,1.138,1.163.61.213.706.276.706.462,0,.265-.273.377-.86.377A5.517,5.517,0,0,1,.209,3.256S.019,4.123,0,4.222a11.018,11.018,0,0,0,1.563.118c1.578,0,2.31-.441,2.31-1.395,0-.57-.307-.906-1.056-1.163-.631-.208-.7-.256-.7-.454,0-.222.25-.34.735-.34.292,0,.7.025,1.081.064l.209-.97C3.754.037,3.163,0,2.822,0,1.147,0,.564.646.57,1.415" transform="translate(1480.399 3643.421)" fill="#fff"/>
      <path id="Fill_387" data-name="Fill 387" d="M.888,0h1.5L1.495,4.18H0L.888,0" transform="translate(1465.628 3643.515)" fill="#fff"/>
      <path id="Fill_388" data-name="Fill 388" d="M3.882.024A1.7,1.7,0,0,0,2.173.689,2.982,2.982,0,0,0,2.26.042H.892c-.2,1.294-.547,2.6-.82,3.9L0,4.222H1.557A12.67,12.67,0,0,1,2.205,1.7a1,1,0,0,1,1.2-.511L3.882.024" transform="translate(1471.479 3643.472)" fill="#fff"/>
      <path id="Fill_389" data-name="Fill 389" d="M3.882.024A1.7,1.7,0,0,0,2.173.689,2.972,2.972,0,0,0,2.26.042H.892c-.2,1.294-.547,2.6-.821,3.9L0,4.222H1.557A12.657,12.657,0,0,1,2.205,1.7a1,1,0,0,1,1.2-.511L3.882.024" transform="translate(1468.079 3643.472)" fill="#fff"/>
    </g>
  </g>
</svg>
