<svg xmlns="http://www.w3.org/2000/svg" xmlns:xlink="http://www.w3.org/1999/xlink" width="572" height="492" viewBox="0 0 572 492">
  <defs>
    <clipPath id="clip-path">
      <rect id="Rectangle_149" data-name="Rectangle 149" width="572" height="492" rx="51" transform="translate(1027 2795)" fill="#fff"/>
    </clipPath>
  </defs>
  <g id="Mask_Group_39" data-name="Mask Group 39" transform="translate(-1027 -2795)" clip-path="url(#clip-path)">
    <g id="_020-photoshop_express" data-name="020-photoshop express" transform="translate(1060.693 2788.692)">
      <path id="Path_12256" data-name="Path 12256" d="M89.359,6.308h325.9a89.283,89.283,0,0,1,89.358,89.359V408.949a89.284,89.284,0,0,1-89.359,89.359H89.359A89.285,89.285,0,0,1,0,408.948V95.667A89.284,89.284,0,0,1,89.359,6.308Z" fill="#001834"/>
      <path id="Path_12257" data-name="Path 12257" d="M153.907,325.686V172.62c0-1.052.421-1.682,1.471-1.682,2.523,0,4.836,0,8.41-.21,3.575,0,7.359-.21,11.354-.21s8.41-.21,13.036-.21,9.041-.21,13.456-.21a89.232,89.232,0,0,1,30.7,4.625,52.849,52.849,0,0,1,19.975,12.195,46.518,46.518,0,0,1,10.933,16.821,54.277,54.277,0,0,1,3.364,19.344c0,12.825-2.944,23.338-8.831,31.748A48.829,48.829,0,0,1,233.8,272.914a95.393,95.393,0,0,1-33.641,5.046,61.943,61.943,0,0,1-7.359-.21c-1.471,0-3.575-.21-6.518-.21v47.728a1.78,1.78,0,0,1-1.682,2.1H155.589c-1.051.419-1.681-.212-1.681-1.684Zm32.379-125.943v50.041a55.232,55.232,0,0,0,5.677.21h7.99c10.285,0,22.547-2.457,29.435-10.723,6.247-7.5,6.116-20.577,1.052-28.594-5.648-8.944-18.091-11.707-27.964-11.354-3.785,0-7.148,0-10.092.21a24.929,24.929,0,0,0-6.1.211Z" fill="#00a9ff"/>
      <path id="Path_12258" data-name="Path 12258" d="M359.328,240.533a55.012,55.012,0,0,0-14.3-5.046,74.56,74.56,0,0,0-16.61-1.892,33.178,33.178,0,0,0-9.041,1.052,7.731,7.731,0,0,0-4.625,2.944,7.432,7.432,0,0,0-1.262,3.995,6.048,6.048,0,0,0,1.471,3.785,18.391,18.391,0,0,0,5.046,3.995,67.635,67.635,0,0,0,10.513,4.836,104.2,104.2,0,0,1,22.918,10.933,36.952,36.952,0,0,1,11.775,12.405,35.7,35.7,0,0,1,3.575,15.348,34.9,34.9,0,0,1-5.677,19.764A38.013,38.013,0,0,1,346.5,325.9a69.361,69.361,0,0,1-26.913,4.836,107.628,107.628,0,0,1-20.185-1.892A63.571,63.571,0,0,1,284.267,324a3.356,3.356,0,0,1-1.682-2.944V295.2a1.5,1.5,0,0,1,.631-1.262c.421-.21,1.052-.21,1.262.21a64.293,64.293,0,0,0,18.5,7.359,81.112,81.112,0,0,0,17.452,2.313,28.132,28.132,0,0,0,12.405-2.1,6.7,6.7,0,0,0,3.995-6.308,8.1,8.1,0,0,0-3.575-6.1,62.849,62.849,0,0,0-14.718-6.938A87.633,87.633,0,0,1,297.3,271.65a38.4,38.4,0,0,1-11.354-12.615,34.106,34.106,0,0,1-3.575-15.138,34.545,34.545,0,0,1,5.046-18.082,37.608,37.608,0,0,1,15.559-13.667,56.638,56.638,0,0,1,26.282-5.256,136.828,136.828,0,0,1,18.5,1.262,44.736,44.736,0,0,1,12.825,3.575,2.221,2.221,0,0,1,1.471,1.262,5.83,5.83,0,0,1,.21,1.892V239.06a1.906,1.906,0,0,1-.631,1.471,2.265,2.265,0,0,1-2.312,0Z" fill="#00a9ff"/>
      <g id="Group_355" data-name="Group 355">
        <path id="Path_12259" data-name="Path 12259" d="M252.307,455.809a29.864,29.864,0,0,1-21.656-9.041L57.821,273.938a30.584,30.584,0,0,1,0-43.313l172.83-172.83a30.584,30.584,0,0,1,43.313,0l172.829,172.83a30.584,30.584,0,0,1,0,43.313l-172.83,172.83a30.721,30.721,0,0,1-21.656,9.041ZM236.538,440.88a22.208,22.208,0,0,0,31.328,0L440.7,268.05a22.208,22.208,0,0,0,0-31.328L267.866,63.891a22.208,22.208,0,0,0-31.328,0L63.708,236.722a22.208,22.208,0,0,0,0,31.328Z" fill="#006fb3"/>
      </g>
    </g>
  </g>
</svg>
