<svg xmlns="http://www.w3.org/2000/svg" xmlns:xlink="http://www.w3.org/1999/xlink" width="572" height="492" viewBox="0 0 572 492">
  <defs>
    <clipPath id="clip-path">
      <rect id="Rectangle_150" data-name="Rectangle 150" width="572" height="492" rx="51" transform="translate(300 3414)" fill="#fff"/>
    </clipPath>
  </defs>
  <g id="Mask_Group_40" data-name="Mask Group 40" transform="translate(-300 -3414)" clip-path="url(#clip-path)">
    <g id="Layer_2_12_" transform="translate(333.692 3407.693)">
      <g id="Surfaces_13_">
        <g id="_3D_Substance_Surface_3_">
          <g id="Outline_no_shadow_13_">
            <path id="Path_12260" data-name="Path 12260" d="M89.359,6.307h325.9a89.359,89.359,0,0,1,89.359,89.359V408.948a89.359,89.359,0,0,1-89.359,89.359H89.359A89.359,89.359,0,0,1,0,408.948V95.667A89.36,89.36,0,0,1,89.359,6.307Z" fill="#1e3101"/>
          </g>
        </g>
      </g>
      <g id="Outlined_Mnemonics_Logos_11_">
        <g id="Pt">
          <g id="Group_356" data-name="Group 356">
            <path id="Path_12261" data-name="Path 12261" d="M109.146,351.328V135.018c0-1.577.677-2.37,2.031-2.37q5.412,0,12.864-.17t16.078-.339q8.632-.167,18.28-.339t19.127-.17q25.723,0,43.329,6.431a75.166,75.166,0,0,1,28.265,17.264,66.246,66.246,0,0,1,15.4,23.866,79.162,79.162,0,0,1,4.739,27.249q0,27.085-12.525,44.684a70.779,70.779,0,0,1-33.851,25.559,134.717,134.717,0,0,1-47.392,7.956q-7.45,0-10.494-.17t-9.14-.17v66.687a2.693,2.693,0,0,1-2.283,3.047,2.736,2.736,0,0,1-.761,0h-41.3c-1.581,0-2.369-.893-2.369-2.7ZM155.861,173.27v70.073q4.4.34,8.125.339c12.025,0,23.725.123,35.372-3.385,15.233-4.588,23.867-17.256,23.867-32.835,0-13.221-7.125-25.661-19.631-30.635-12.489-4.968-25.916-4.414-39.1-4.062q-6.269.171-8.633.505Z" fill="#99e83f"/>
            <path id="Path_12262" data-name="Path 12262" d="M394.848,320.523v27.758q0,3.728-2.708,4.4a118.948,118.948,0,0,1-13.54,3.385,87.742,87.742,0,0,1-16.248,1.354q-22.011,0-34.528-11.509t-12.525-36.9V225.062H295.327c-1.809,0-2.708-1.016-2.708-3.047V188.5q0-2.705,3.047-2.708h19.972q.334-5.752.847-13.37t1.354-15.233q.842-7.617,1.522-12.354a5.866,5.866,0,0,1,1.016-1.861,3.6,3.6,0,0,1,1.692-1.184l40.283-5.078a2.838,2.838,0,0,1,1.861.093c.448.228.509.812.509,1.939q-.681,7.79-1.016,21.156t-.677,25.895h31.482q2.032,0,2.031,2.708V222.7a2.085,2.085,0,0,1-1.692,2.37H362.691v72.442q0,11.512,3.894,16.417t14.386,4.909c2.031,0,3.944-.052,5.755-.17s3.61-.28,5.416-.506a2.152,2.152,0,0,1,1.861.168c.561.338.846,1.072.846,2.2Z" fill="#99e83f"/>
          </g>
        </g>
      </g>
    </g>
  </g>
</svg>
