<svg id="Group_141366" data-name="Group 141366" xmlns="http://www.w3.org/2000/svg" xmlns:xlink="http://www.w3.org/1999/xlink" width="345" height="431.905" viewBox="0 0 345 431.905">
  <defs>
    <clipPath id="clip-path">
      <rect id="Rectangle_161160" data-name="Rectangle 161160" width="345" height="431.905" fill="none"/>
    </clipPath>
    <clipPath id="clip-path-2">
      <rect id="Rectangle_161146" data-name="Rectangle 161146" width="345" height="466.738" fill="none"/>
    </clipPath>
    <linearGradient id="linear-gradient" x1="0.5" y1="-0.057" x2="0.5" y2="0.93" gradientUnits="objectBoundingBox">
      <stop offset="0" stop-color="#ffb900"/>
      <stop offset="0.17" stop-color="#ef8400"/>
      <stop offset="0.31" stop-color="#e25c01"/>
      <stop offset="0.43" stop-color="#db4401"/>
      <stop offset="0.5" stop-color="#d83b01"/>
    </linearGradient>
    <linearGradient id="linear-gradient-2" x1="0.855" y1="-0.023" x2="-0.156" y2="0.925" gradientUnits="objectBoundingBox">
      <stop offset="0" stop-color="#800600"/>
      <stop offset="0.6" stop-color="#c72127"/>
      <stop offset="0.73" stop-color="#c13959"/>
      <stop offset="0.85" stop-color="#bc4b81"/>
      <stop offset="0.94" stop-color="#b95799"/>
      <stop offset="1" stop-color="#b85ba2"/>
    </linearGradient>
    <linearGradient id="linear-gradient-3" x1="0.079" y1="0.5" x2="1.918" y2="0.5" gradientUnits="objectBoundingBox">
      <stop offset="0" stop-color="#f32b44"/>
      <stop offset="0.6" stop-color="#a4070a"/>
    </linearGradient>
    <linearGradient id="linear-gradient-4" x1="0.876" y1="-0.042" x2="0.662" y2="0.158" gradientUnits="objectBoundingBox">
      <stop offset="0" stop-opacity="0.4"/>
      <stop offset="1" stop-opacity="0"/>
    </linearGradient>
    <linearGradient id="linear-gradient-5" x1="1.329" y1="0.57" x2="0.505" y2="0.449" xlink:href="#linear-gradient-4"/>
  </defs>
  <g id="Group_141362" data-name="Group 141362" clip-path="url(#clip-path)">
    <g id="Group_141342" data-name="Group 141342">
      <g id="Group_141341" data-name="Group 141341" clip-path="url(#clip-path-2)">
        <path id="Path_38840" data-name="Path 38840" d="M314.85.165H25.87A25.8,25.8,0,0,0,.23,26.094V45.145H340.52V26.065A25.81,25.81,0,0,0,314.85.165m-96.98,29.4c-.23,3.273-2.46,5.5-5.95,5.96a35.281,35.281,0,0,1-4.49.262c-7.12.01-14.15.01-19.48.01H170.6v.041c-3.76,0-7.6.01-11.3.01H147.91c-6.44,0-11.7-.01-16.57-.03a7.843,7.843,0,0,1-6.83-3.445,7.083,7.083,0,0,1-.3-6.8c1.13-2.475,3.28-3.737,6.38-3.737,3.14-.01,6.51-.01,10.9-.01l3.63-.01h10.27c3.77,0,4.63-.6,5.77-3.95,1.33-3.96,4.96-6.414,9.46-6.414h.14a10.791,10.791,0,0,1,6.08,1.788,9.218,9.218,0,0,1,3.5,4.868,5.416,5.416,0,0,0,1.72,3.011c.73.505,1.71.7,3.63.7h15.93c3.18,0,5.82.01,8.3.01,3.03,0,5.15.7,6.45,2.111,1.18,1.283,1.67,3.121,1.5,5.626" transform="translate(0 1)" fill="#242424"/>
        <path id="Path_38841" data-name="Path 38841" d="M.23,44.145v305H340.32v-.88h.2V44.145Z" fill="#242424"/>
      </g>
    </g>
    <g id="Group_141353" data-name="Group 141353">
      <g id="Group_141370" data-name="Group 141370">
        <path id="Path_38900" data-name="Path 38900" d="M0,0H341V55a28,28,0,0,1-28,28H28A28,28,0,0,1,0,55Z" transform="translate(0 348.45)" fill="#f57a38"/>
        <g id="Microsoft_Office_logo__2019_present_" data-name="Microsoft_Office_logo_(2019–present)" transform="translate(25.105 48.379)" opacity="0.66">
          <g id="Icons_-_Color" data-name="Icons - Color" transform="translate(-0.246 -0.019)">
            <g id="Desktop_-_Full_Bleed" data-name="Desktop - Full Bleed">
              <g id="Group_141379" data-name="Group 141379" transform="translate(76.467 231.423)" opacity="0.2">
                <path id="Path_38904" data-name="Path 38904" d="M31.265,49a14.677,14.677,0,0,0-7.247,27.348L75.8,105.7a28.26,28.26,0,0,0,13.993,3.692,27.35,27.35,0,0,0,7.794-1.14l77.9-22.2A27.9,27.9,0,0,0,195.674,59.3V49Z" transform="translate(-16.744 -49)" fill="#fff"/>
              </g>
              <g id="Group_141380" data-name="Group 141380" transform="translate(76.467 231.423)" opacity="0.12">
                <path id="Path_38905" data-name="Path 38905" d="M31.265,49a14.677,14.677,0,0,0-7.247,27.348L75.8,105.7a28.26,28.26,0,0,0,13.993,3.692,27.35,27.35,0,0,0,7.794-1.14l77.9-22.2A27.9,27.9,0,0,0,195.674,59.3V49Z" transform="translate(-16.744 -49)" fill="#fff"/>
              </g>
              <path id="Path_38906" data-name="Path 38906" d="M34.41,2,55.331,51.295V222.653l-20.6,61.032,77.9-22.863a28.624,28.624,0,0,0,20.192-27.558V52.422A28.576,28.576,0,0,0,112.58,24.817Z" transform="translate(122.578 6.992)" fill="url(#linear-gradient)"/>
              <path id="Path_38907" data-name="Path 38907" d="M29.605,215.3,52.4,203A19.873,19.873,0,0,0,62.7,185.54V95.975A19.919,19.919,0,0,1,75.778,77.287L149.3,50.714V30.521A28.807,28.807,0,0,0,128.378,2.854a28.169,28.169,0,0,0-7.885-1.094h0A29.217,29.217,0,0,0,106.18,5.543l-84.141,48A27.8,27.8,0,0,0,8,77.7V202.405a14.631,14.631,0,0,0,21.605,12.9Z" transform="translate(28.61 6.138)" fill="url(#linear-gradient-2)"/>
              <path id="Path_38908" data-name="Path 38908" d="M118.187,49H31.265a14.677,14.677,0,0,0-7.247,27.348L75.8,105.7a28.26,28.26,0,0,0,13.993,3.692h0a27.35,27.35,0,0,0,7.794-1.14,28.351,28.351,0,0,0,20.6-27.348Z" transform="translate(59.722 182.423)" fill="url(#linear-gradient-3)"/>
              <path id="Path_38909" data-name="Path 38909" d="M29.605,215.3,52.4,203A19.873,19.873,0,0,0,62.7,185.54V95.975A19.919,19.919,0,0,1,75.778,77.287L149.3,50.714V30.521A28.807,28.807,0,0,0,128.378,2.854a28.169,28.169,0,0,0-7.885-1.094h0A29.217,29.217,0,0,0,106.18,5.543l-84.141,48A27.8,27.8,0,0,0,8,77.7V202.405a14.631,14.631,0,0,0,21.605,12.9Z" transform="translate(28.61 6.138)" fill="url(#linear-gradient-4)"/>
              <path id="Path_38910" data-name="Path 38910" d="M118.187,49H31.265a14.677,14.677,0,0,0-7.247,27.348L75.8,105.7a28.26,28.26,0,0,0,13.993,3.692h0a27.35,27.35,0,0,0,7.794-1.14,28.351,28.351,0,0,0,20.6-27.348Z" transform="translate(59.722 182.423)" fill="url(#linear-gradient-5)"/>
              <rect id="Rectangle_161165" data-name="Rectangle 161165" width="292" height="301" transform="translate(0.14 -0.455)" fill="none"/>
            </g>
          </g>
        </g>
        <g id="Group_141381" data-name="Group 141381" transform="translate(-2618.5 705.335)">
          <g id="Group_141320" data-name="Group 141320" transform="translate(2631 -685.386)">
            <text id="Loca-key.com" transform="translate(158 388.386)" fill="#fff" font-size="14" font-family="SegoeUI-Light, Segoe UI" font-weight="300"><tspan x="-39.98" y="0">Loca-key.com</tspan></text>
          </g>
          <g id="Group_141321" data-name="Group 141321" transform="translate(2619 -717.385)">
            <text id="Lifetime_License" data-name="Lifetime License" transform="translate(170 391.385)" fill="#fff" font-size="18" font-family="SegoeUI, Segoe UI"><tspan x="-62.991" y="0">Lifetime License</tspan></text>
          </g>
        </g>
      </g>
    </g>
    <g id="Group_141359" data-name="Group 141359">
      <g id="Group_141358" data-name="Group 141358" clip-path="url(#clip-path-2)">
        <path id="Path_38848" data-name="Path 38848" d="M48.508,133.581V87.26L90.967,72.116l23.075,7.127V141.6L90.967,148.31,48.508,133.581l42.459,4.931V84.588L63.276,90.823v36.523Z" transform="translate(8)" fill="#fcfcfc"/>
        <path id="Path_38849" data-name="Path 38849" d="M159.264,133.906q-10.026,0-16.058-6.376t-6.031-16.591q0-10.976,6.146-17.51t16.731-6.535q9.764,0,15.729,6.344t5.966,16.591q0,11.134-6.114,17.606t-16.37,6.472Zm.394-42.191A15.442,15.442,0,0,0,147.6,96.886q-4.635,5.17-4.635,13.577t4.519,13.529a14.97,14.97,0,0,0,11.784,5.123q7.758,0,12.228-4.885t4.47-13.672q0-9.009-4.338-13.926T159.658,91.715Z" fill="#fcfcfc"/>
        <path id="Path_38850" data-name="Path 38850" d="M201.388,84.352a10.5,10.5,0,0,0-7.615,2.979,10.725,10.725,0,0,0-3.058,8.072v5.262h-5.74v4.454h5.74V133.15h5.366V105.119h13.124V133.15h5.365V105.119h7.875v-4.454H214.57V95.654q0-6.883,5.654-6.876a7.35,7.35,0,0,1,3.576.835V84.937a10.761,10.761,0,0,0-3.894-.585,10.566,10.566,0,0,0-7.643,2.979,10.725,10.725,0,0,0-3.058,8.072v5.262H196.081V95.654q0-6.883,5.653-6.876a7.354,7.354,0,0,1,3.577.835V84.937A10.934,10.934,0,0,0,201.388,84.352Z" fill="#fcfcfc"/>
        <path id="Path_38851" data-name="Path 38851" d="M230.284,92.408a3.482,3.482,0,0,1-2.465-.951,3.158,3.158,0,0,1-1.019-2.411,3.208,3.208,0,0,1,1.019-2.427,3.449,3.449,0,0,1,2.465-.967,3.549,3.549,0,0,1,2.515.967,3.307,3.307,0,0,1,0,4.806A3.522,3.522,0,0,1,230.284,92.408Zm2.63,40.731h-5.391V100.656h5.391Z" fill="#fcfcfc"/>
        <path id="Path_38852" data-name="Path 38852" d="M263.539,131.648a18.01,18.01,0,0,1-9.2,2.252,15.523,15.523,0,0,1-11.619-4.52,16.052,16.052,0,0,1-4.421-11.721q0-8.026,4.766-12.9t12.72-4.869a18.254,18.254,0,0,1,7.823,1.586v5.329a14.047,14.047,0,0,0-8.02-2.537,11.017,11.017,0,0,0-8.464,3.569,13.25,13.25,0,0,0-3.3,9.373q0,5.711,3.107,9.01a10.9,10.9,0,0,0,8.332,3.3,13.825,13.825,0,0,0,8.284-2.824Z" fill="#fcfcfc"/>
        <path id="Path_38853" data-name="Path 38853" d="M296.491,118.2H272.727q.131,5.426,3.023,8.375a10.638,10.638,0,0,0,7.956,2.95,16.912,16.912,0,0,0,10.452-3.616v4.885q-4.438,3.108-11.735,3.109-7.133,0-11.208-4.426t-4.077-12.451q0-7.581,4.454-12.355A14.513,14.513,0,0,1,282.654,99.9q6.607,0,10.222,4.124t3.615,11.451Zm-5.521-4.409a10.333,10.333,0,0,0-2.253-7.011,7.8,7.8,0,0,0-6.162-2.506,8.867,8.867,0,0,0-6.476,2.633,11.772,11.772,0,0,0-3.286,6.884Z" fill="#fcfcfc"/>
      </g>
    </g>
    <text id="_2021_PRO_Plus" data-name="2021 PRO Plus" transform="translate(206.223 153.382)" fill="#fcfcfc" font-size="14.443" font-family="SegoeUI, Segoe UI"><tspan x="0" y="0">2021 P</tspan><tspan y="0" letter-spacing="0.002em">R</tspan><tspan y="0">O </tspan><tspan y="0" letter-spacing="-0.005em">P</tspan><tspan y="0">lus</tspan></text>
    <g id="Group_141361" data-name="Group 141361">
      <g id="Group_141360" data-name="Group 141360" clip-path="url(#clip-path-2)">
        <path id="Path_38854" data-name="Path 38854" d="M108.127,256.633h2.518q0,1.443,0,2.887c3.941.129,7.928-.274,11.839.23.139.382.286.761.433,1.139.994.151,2.594.047,2.749,1.2a28.124,28.124,0,0,1-.063,6.353,22.312,22.312,0,0,1-.075,6.757,20.519,20.519,0,0,1,.13,6.257c-.181,1.12-1.734,1.041-2.715,1.2a4.771,4.771,0,0,1-.5,1.755,5.8,5.8,0,0,1-2.543.342c-3.086-.025-6.172-.014-9.254-.014q0,1.443,0,2.887h-2.636c-6.4-1.006-12.823-1.925-19.235-2.883q-.006-12.612,0-25.219c6.454-.962,12.908-1.906,19.357-2.89Z" fill="#733781"/>
        <path id="Path_38855" data-name="Path 38855" d="M151.507,256.633h2.5v6.487h2.964c.117-1.287-.56-3.33,1.334-3.856,2.619-.263,5.275-.025,7.911-.119,1.039.079,2.37-.216,3.153.544a4.609,4.609,0,0,1,.223,1.625c-.014,4.923-.021,9.849,0,14.772a5.459,5.459,0,0,1-.261,1.96,16.127,16.127,0,0,1-3.962.213,34.655,34.655,0,0,1-.134,4.941c-.357.843-1.529.8-2.383.825-2.951.008-5.9-.011-8.849,0v3.6H151.4c-6.421-1-12.853-1.917-19.278-2.883q-.006-12.611,0-25.222C138.581,258.558,145.048,257.61,151.507,256.633Z" fill="#077467"/>
        <path id="Path_38856" data-name="Path 38856" d="M194.435,256.633h2.513c0,1.841.018,3.687-.017,5.528a4.253,4.253,0,0,1,2.543-.742c1.924.252,2.766,1.957,3.907,3.1,2.521-.133,5.216.249,7.135,1.766a6.856,6.856,0,0,1,2.8,8.025,8.291,8.291,0,0,1-4.1,4.368c.383.919.766,2.011.02,2.883a3.262,3.262,0,0,1-4.332.667c-.926-.8-1.663-1.748-2.53-2.6a15.5,15.5,0,0,1-5.435-.789c.008,2.926,0,5.856,0,8.782h-2.61c-6.416-1-12.853-1.917-19.273-2.883q-.006-12.611,0-25.219c6.458-.969,12.92-1.906,19.374-2.89Z" fill="#0071c5"/>
        <path id="Path_38857" data-name="Path 38857" d="M236.93,256.633h2.539v7.953c3.085-.05,6.171-.014,9.261-.025q0-.664,0-1.33c-.787-.248-2.037-.136-2.315-.987-.606-1.333,1.057-2.2,1.92-3.081.989-.8,2.046-2.231,3.641-1.68a15.619,15.619,0,0,1,2.846,2.249c.64.624,1.646,1.29,1.356,2.238-.118,1.031-1.507,1.034-2.4,1.265,0,3.924-.011,7.853.012,11.777a3.767,3.767,0,0,1-.434,2.177,5.9,5.9,0,0,1-2.509.356q-3.8-.017-7.6-.011-.006.666,0,1.327c.876.23,2.274.216,2.4,1.239.316.865-.552,1.521-1.158,2.09a27.041,27.041,0,0,1-2.778,2.307c-.678.411-1.516.086-2.253.025q.006,1.551,0,3.1h-2.644c-6.4-1-12.827-1.917-19.239-2.883V259.523c6.449-.966,12.9-1.906,19.344-2.89Z" fill="#733781"/>
        <path id="Path_38858" data-name="Path 38858" d="M250.7,258.665c.484-.53,1.179-.032,1.537.339.976.973,2.281,1.755,2.905,2.958-.876.055-1.752.076-2.619.091-.008,4.8.017,9.589-.018,14.386-3.081.029-6.163.007-9.245.014q0-1.08,0-2.162h6.736V262.053c-.88-.015-1.755-.036-2.622-.083.736-1.334,2.185-2.234,3.325-3.3Z" fill="#fff"/>
        <path id="Path_38859" data-name="Path 38859" d="M159.009,260.345c3.094-.234,6.21-.05,9.312-.108v16.577h-2.947c-.007-4.332.014-8.66-.007-12.991-1.979-1.341-4.635-1.9-6.357-3.478Z" fill="#fff"/>
        <path id="Path_38860" data-name="Path 38860" d="M110.645,260.594q5.475,0,10.95,0c0,.479,0,.955,0,1.434.968,0,1.937.019,2.909.054.055,1.9.076,3.791-.017,5.687-.964.029-1.933.043-2.893.047q0,7.924,0,15.849-5.475,0-10.95,0v-2.89q4,0,8,0c0-.479,0-.955,0-1.434q-4,0-8,0v-1.809q4-.006,8,0c0-.48,0-.955,0-1.435q-4,0-8,0v-1.809q4,0,8,0c0-.479,0-.955,0-1.434q-4,0-8,0v-1.809q4,0,8,0c0-.479,0-.955,0-1.434q-4,0-8,0V267.8q4-.006,8,0c0-.48,0-.956,0-1.435q-4,0-8,0v-1.809q4,0,8,0c0-.479,0-.955,0-1.434q-4,0-8,0v-2.53Z" fill="#fff"/>
        <path id="Path_38861" data-name="Path 38861" d="M197.462,263.52a1.879,1.879,0,0,1,2.981-.53c1.743,1.817,3.384,3.705,5.111,5.536a55.688,55.688,0,0,0-5.65.111,4.075,4.075,0,0,0-2.956,2.523c.021-1.575-.037-3.15.043-4.721.53-.2,1.065-.382,1.608-.573C198.077,265.16,197.151,264.439,197.462,263.52Z" fill="#fff"/>
        <path id="Path_38862" data-name="Path 38862" d="M154.007,264.2h9.683V282.94h-9.683q-.006-1.08,0-2.162h7.157c0-.479,0-.962,0-1.441h-7.157c0-.6,0-1.2,0-1.8h7.157c0-.479,0-.962,0-1.442h-7.157c0-.6,0-1.2,0-1.8h7.157c0-.479,0-.962,0-1.441h-7.157c0-.6,0-1.2,0-1.8h7.157V266h-7.157c0-.6,0-1.2,0-1.8" fill="#fff"/>
        <path id="Path_38863" data-name="Path 38863" d="M204.126,265.534a9.217,9.217,0,0,1,6.172,1.986,5.8,5.8,0,0,1,1.419,7.445,7.916,7.916,0,0,1-4.408,3.3c.48.667,1.271,1.3,1.149,2.159a1.865,1.865,0,0,1-2.223,1.179,4.815,4.815,0,0,1-1.6-1.312c-1.41-1.582-2.866-3.132-4.3-4.7,1.936-.086,3.928.2,5.839-.173,2.476-.6,3.633-3.344,2.252-5.189-1.3-1.65-2.921-3.092-4.3-4.692" fill="#fff"/>
        <path id="Path_38864" data-name="Path 38864" d="M239.494,265.66c3.077-.036,6.155-.011,9.237-.018q-.006,1.08,0,2.162h-6.736v12.245c.85.008,1.709.019,2.568.051-.594,1.384-2.16,2.241-3.263,3.326-.648.634-1.356-.187-1.84-.54C239.494,277.145,239.431,271.4,239.494,265.66Z" fill="#fff"/>
        <path id="Path_38865" data-name="Path 38865" d="M101.779,266.086c.838-.04,1.68-.079,2.526-.112v11.939c-.909-.032-1.81-.075-2.711-.118-1.676-2.757-3.49-5.453-5.111-8.235.093,2.667.038,5.337.046,8-.766-.044-1.524-.083-2.286-.123q.021-5.492,0-10.987l2.6-.119c1.646,2.58,3.317,5.149,4.917,7.755.034-2.667,0-5.337.018-8Z" fill="#fff"/>
        <path id="Path_38866" data-name="Path 38866" d="M138.851,266.172c2.294.061,5.081-.793,6.984.681a4.055,4.055,0,0,1-1.368,6.472,7.066,7.066,0,0,1-3.086.328c0,1.413-.008,2.826,0,4.242-.85-.072-1.7-.144-2.547-.224C138.872,273.837,138.834,270.006,138.851,266.172Z" fill="#fff"/>
        <path id="Path_38867" data-name="Path 38867" d="M226.818,266.114c.838-.036,1.676-.076,2.518-.115.054,4.086.017,8.177.029,12.263q-1.283-.129-2.551-.252c0-3.964-.008-7.932,0-11.9Z" fill="#fff"/>
        <path id="Path_38868" data-name="Path 38868" d="M183.056,266.45q1.269-.054,2.551-.1,0,4.761,0,9.524c1.394.054,2.791.083,4.189.144,0,.746,0,1.492,0,2.242-2.248-.141-4.5-.231-6.74-.368q-.006-5.718,0-11.438" fill="#fff"/>
        <path id="Path_38869" data-name="Path 38869" d="M141.377,268.107c.834-.04,1.878-.169,2.433.519a2.313,2.313,0,0,1,.038,2.35c-.488.738-1.566.666-2.408.749C141.356,270.522,141.368,269.314,141.377,268.107Z" fill="#077467"/>
        <path id="Path_38870" data-name="Path 38870" d="M122.849,268.868c.547.018,1.1.04,1.646.061.072,1.9.084,3.788-.014,5.68-.547.021-1.09.043-1.633.061q-.006-2.9,0-5.8Z" fill="#fff"/>
        <path id="Path_38871" data-name="Path 38871" d="M243.258,268.886h5.473v4.324h-5.473q-.006-2.161,0-4.324" fill="#ff0"/>
        <path id="Path_38872" data-name="Path 38872" d="M200.005,269.736a28.362,28.362,0,0,1,5.376-.1,2.408,2.408,0,0,1,1.528,4.191c-1.633,1.1-3.869.656-5.784.7-1.516.022-3.065-1.02-2.985-2.385a2.441,2.441,0,0,1,1.865-2.4" fill="#fff"/>
        <path id="Path_38873" data-name="Path 38873" d="M196.923,272.857c1.027,2.187,3.225,3.737,4.778,5.64a10.024,10.024,0,0,1-4.761-.959c.008-1.56.029-3.121-.018-4.681Z" fill="#fff"/>
        <path id="Path_38874" data-name="Path 38874" d="M122.849,275.711c.547.021,1.1.047,1.654.072.064,1.885.059,3.77,0,5.654l-1.654.087q-.006-2.908,0-5.813" fill="#fff"/>
        <path id="Path_38875" data-name="Path 38875" d="M130,202.565h2.5v2.883c4.214,0,8.428.008,12.642-.011a4.441,4.441,0,0,1,2.114.346,2.907,2.907,0,0,1,.412,1.823c-.021,6.257-.012,12.509-.008,18.761a14.16,14.16,0,0,1-.143,3.154c-.169.749-1.221.767-1.925.793-4.361.011-8.727-.008-13.092,0v3.243h-2.615c-6.416-1-12.844-1.921-19.269-2.883V205.451C117.079,204.489,123.541,203.541,130,202.565Z" fill="#207245"/>
        <path id="Path_38876" data-name="Path 38876" d="M258.807,202.565h2.518v3.142a30.931,30.931,0,0,1,12.221.772c1.469.428,3.069,1.409,2.926,2.908q.026,8.309,0,16.624c.147,1.517-1.495,2.49-2.981,2.915a31.062,31.062,0,0,1-12.166.75v3.881H258.7c-6.412-1-12.841-1.917-19.261-2.883V205.455c6.454-.966,12.916-1.906,19.366-2.89" fill="#a33639"/>
        <path id="Path_38877" data-name="Path 38877" d="M132.5,206.529h13.893v22.7H132.5V227.07h3.368v-2.522H132.5v-1.442h3.368v-2.522H132.5v-1.442h3.368v-2.523H132.5v-1.441h3.368v-2.523H132.5v-1.441h3.368v-2.523H132.5Z" fill="#fff"/>
        <path id="Path_38878" data-name="Path 38878" d="M261.324,206.8a30.857,30.857,0,0,1,11.329.526c1.006.321,2.353.706,2.581,1.734-.169.839-1.192,1.218-2,1.52a29.578,29.578,0,0,1-11.91.7Z" fill="#fff"/>
        <rect id="Rectangle_161154" data-name="Rectangle 161154" width="5.894" height="2.523" transform="translate(137.552 208.691)" fill="#207245"/>
        <path id="Path_38879" data-name="Path 38879" d="M269.946,212.41a11.924,11.924,0,0,0,5.284-1.607,40.753,40.753,0,0,1-.127,4.652,6.222,6.222,0,0,1-3.027,1.3,35.14,35.14,0,0,1-10.752.335v-4.671A39.389,39.389,0,0,0,269.946,212.41Z" fill="#fff"/>
        <path id="Path_38880" data-name="Path 38880" d="M123.086,212.068q1.427-.087,2.863-.148-1.686,2.958-3.4,5.907c1.158,2.018,2.341,4.022,3.5,6.04-1.015-.051-2.025-.105-3.04-.166a39.209,39.209,0,0,1-2.1-4.526c-.573,1.463-1.39,2.843-2.046,4.277-.922-.011-1.844-.043-2.766-.075,1.082-1.813,2.126-3.64,3.241-5.442-.947-1.856-1.987-3.676-2.963-5.521q1.389-.07,2.778-.137c.627,1.409,1.314,2.8,1.832,4.245C121.545,214.991,122.375,213.549,123.086,212.068Z" fill="#fff"/>
        <path id="Path_38881" data-name="Path 38881" d="M248.033,212.039c.981-.061,1.958-.119,2.943-.184,1.41,4.036,2.749,8.094,4.142,12.134-.972-.054-1.945-.115-2.909-.191-.257-.9-.53-1.8-.808-2.7-1.292,0-2.585-.04-3.873-.094q-.373,1.281-.758,2.555-1.237-.081-2.467-.151C245.532,219.614,246.812,215.834,248.033,212.039Z" fill="#fff"/>
        <path id="Path_38882" data-name="Path 38882" d="M87.883,202.565H90.4v2.883c4.5.022,9-.04,13.5.022a1.357,1.357,0,0,1,1.625,1.376c.072,7.1-.017,14.2.042,21.3a3.662,3.662,0,0,1-.408,2.18,4.394,4.394,0,0,1-2.126.357c-4.214-.018-8.424-.012-12.638-.012v2.883H87.769c-6.407-1-12.831-1.921-19.252-2.883q-.006-12.61,0-25.219c6.454-.965,12.912-1.906,19.366-2.89Z" fill="#2a5699"/>
        <path id="Path_38883" data-name="Path 38883" d="M90.4,206.529h13.893v23.064H90.4V226.71h10.946v-1.442H90.4v-1.8h10.946v-1.442H90.4v-1.8h10.946v-1.441H90.4v-1.8h10.946v-1.442H90.4v-1.8h10.946v-1.442H90.4v-1.8h10.946v-1.441H90.4Z" fill="#fff"/>
        <path id="Path_38884" data-name="Path 38884" d="M77.215,212.9c.8-.04,1.6-.068,2.4-.1.56,2.432,1.132,4.861,1.738,7.283.476-2.5,1-5,1.512-7.493.842-.025,1.684-.064,2.522-.108-.952,3.492-1.785,7.013-2.825,10.484-.7.313-1.756-.015-2.589.036-.56-2.386-1.213-4.757-1.714-7.154-.492,2.328-1.132,4.635-1.7,6.948q-1.214-.054-2.434-.126c-.7-3.171-1.52-6.321-2.172-9.5.72-.029,1.444-.054,2.164-.076.433,2.3.926,4.581,1.305,6.88C76.019,217.611,76.626,215.254,77.215,212.9Z" fill="#fff"/>
        <rect id="Rectangle_161155" data-name="Rectangle 161155" width="5.894" height="2.523" transform="translate(137.552 212.655)" fill="#207245"/>
        <path id="Path_38885" data-name="Path 38885" d="M173.054,202.565h2.387v3.243c4.5.022,9.005-.039,13.5.019a1.364,1.364,0,0,1,1.63,1.394c.071,6.732-.018,13.467.042,20.2a3.7,3.7,0,0,1-.4,2.18,4.331,4.331,0,0,1-2.135.36c-4.21-.018-8.42-.011-12.634-.011v3.6h-2.618c-6.416-1-12.845-1.917-19.265-2.883q-.006-12.61,0-25.219C160.054,204.493,166.55,203.513,173.054,202.565Z" fill="#d24625"/>
        <path id="Path_38886" data-name="Path 38886" d="M175.441,206.889h13.893v21.983H175.441v-2.883h10.1v-1.442h-10.1v-1.8h10.1V221.3h-10.1c0-.706,0-1.413-.008-2.119a6.8,6.8,0,0,0,5.056-.425,4.828,4.828,0,0,0,2.593-3.936c-1.848-.011-3.7-.007-5.54-.007,0-1.568.021-3.136-.038-4.7-.69.116-1.381.238-2.067.364v-3.593Z" fill="#fff"/>
        <path id="Path_38887" data-name="Path 38887" d="M178.393,209.365c2.925.115,5.384,2.224,5.539,4.721-1.848.018-3.7.011-5.544.011C178.388,212.518,178.384,210.94,178.393,209.365Z" fill="#d24625"/>
        <path id="Path_38888" data-name="Path 38888" d="M160.311,212.086c2.286.094,5.056-.775,6.951.692a4.055,4.055,0,0,1-1.356,6.479,7.185,7.185,0,0,1-3.09.332c0,1.409-.009,2.818,0,4.227-.834-.061-1.671-.122-2.5-.18-.038-3.849-.046-7.7,0-11.55" fill="#fff"/>
        <path id="Path_38889" data-name="Path 38889" d="M162.811,214.035c.829-.032,1.857-.162,2.417.5a2.285,2.285,0,0,1,.054,2.364c-.48.742-1.566.67-2.4.756-.088-1.207-.08-2.414-.067-3.625" fill="#d24625"/>
        <path id="Path_38890" data-name="Path 38890" d="M215.865,202.565h2.518v7.207c4.361.008,8.718-.011,13.076,0,.858-.036,2.033.177,2.016,1.1.16,4.559,0,9.128.076,13.691.017.807-.013,2.079-1.3,2.09-4.618.137-9.249.01-13.871.054v6.847h-2.611c-6.416-1-12.848-1.917-19.273-2.883q-.006-12.61,0-25.219C202.953,204.486,209.411,203.549,215.865,202.565Z" fill="#0071c5"/>
        <path id="Path_38891" data-name="Path 38891" d="M218.383,210.853c4.665,0,9.325-.011,13.99.008a1.685,1.685,0,0,1-.712,1.232c-2.787,2.224-5.557,4.458-8.336,6.689-1.671-1.294-3.3-2.631-4.942-3.946v-3.982Z" fill="#fff"/>
        <path id="Path_38892" data-name="Path 38892" d="M205.521,212.172a5.29,5.29,0,0,1,6.155,2.274c1.372,2.7,1.179,6.4-1.549,8.443-2.514,1.842-6.728.793-7.873-1.823-1.507-3.016-.775-7.658,3.267-8.894" fill="#fff"/>
        <path id="Path_38893" data-name="Path 38893" d="M224.647,219.1c2.53-2.058,5.081-4.1,7.624-6.148.013,4.224,0,8.451,0,12.674H218.382c0-3.142,0-6.285,0-9.423,1.57,1.189,2.977,2.544,4.644,3.629.686.108,1.149-.4,1.616-.732Z" fill="#fff"/>
        <path id="Path_38894" data-name="Path 38894" d="M205.93,214.338a2.522,2.522,0,0,1,3.048.955,5.5,5.5,0,0,1,.286,4.674,2.585,2.585,0,0,1-3.086,1.532c-1.654-.447-2.155-2.127-2.172-3.442-.021-1.362.345-3.06,1.924-3.719" fill="#0071c5"/>
        <path id="Path_38895" data-name="Path 38895" d="M248.054,219.059c.425-1.687,1.057-3.333,1.339-5.045.379,1.708.964,3.373,1.444,5.059C249.906,219.07,248.98,219.066,248.054,219.059Z" fill="#a33639"/>
        <rect id="Rectangle_161156" data-name="Rectangle 161156" width="5.894" height="2.523" transform="translate(137.552 216.619)" fill="#207245"/>
        <path id="Path_38896" data-name="Path 38896" d="M269.971,218.172a11.832,11.832,0,0,0,5.258-1.6,43.537,43.537,0,0,1-.118,4.642,6.073,6.073,0,0,1-3.006,1.308,35.236,35.236,0,0,1-10.781.346V218.19A39.185,39.185,0,0,0,269.971,218.172Z" fill="#fff"/>
        <rect id="Rectangle_161157" data-name="Rectangle 161157" width="5.894" height="2.523" transform="translate(137.552 220.583)" fill="#207245"/>
        <path id="Path_38897" data-name="Path 38897" d="M269.955,223.938a11.884,11.884,0,0,0,5.275-1.6,40.719,40.719,0,0,1-.126,4.649c-1.192,1.11-3.082,1.315-4.72,1.6a36.082,36.082,0,0,1-9.076.029c.029-1.553.017-3.1.017-4.656a39.1,39.1,0,0,0,8.631-.018Z" fill="#fff"/>
        <rect id="Rectangle_161158" data-name="Rectangle 161158" width="5.894" height="2.523" transform="translate(137.552 224.547)" fill="#207245"/>
      </g>
    </g>
  </g>
</svg>
