<svg xmlns="http://www.w3.org/2000/svg" xmlns:xlink="http://www.w3.org/1999/xlink" width="560.046" height="577.585" viewBox="0 0 560.046 577.585">
  <defs>
    <clipPath id="clip-path">
      <rect id="Rectangle_89" data-name="Rectangle 89" width="560.046" height="577.585" fill="none"/>
    </clipPath>
  </defs>
  <g id="Group_174" data-name="Group 174" transform="translate(0 -0.005)" opacity="0.71">
    <g id="Group_173" data-name="Group 173" transform="translate(0 0.005)" clip-path="url(#clip-path)">
      <path id="Path_12097" data-name="Path 12097" d="M286.156,0A144.088,144.088,0,0,1,317.82,4.177c10.226,2.445,18.873,7.95,26.832,14.53A134.108,134.108,0,0,1,355.4,29.249a9.1,9.1,0,0,0,3.915,2.569c3.628,1.169,7.207,2.513,10.747,3.932,20.96,8.4,38.487,21.63,53.517,38.3,3.97,4.4,7.9,8.878,11.47,13.6a36.217,36.217,0,0,0,11.836,10.061A221.423,221.423,0,0,1,490.5,128.323a89.1,89.1,0,0,1,15.8,18.94,183.2,183.2,0,0,1,24.644,61.83c1.542,7.787,2.93,15.6,4.436,23.4a22.954,22.954,0,0,0,1.269,4.629,111.891,111.891,0,0,1,7.529,28.8c1.358,9.857,2.547,19.736,3.884,29.6a23.379,23.379,0,0,0,1.271,4.935c2.025,5.464,4.038,10.938,6.272,16.318,3.666,8.824,4.78,18.009,4.356,27.464a103.192,103.192,0,0,1-6.218,31.216c-2.014,5.461-2.792,11-3.5,16.682a358.209,358.209,0,0,1-7.526,42.117,82.6,82.6,0,0,1-9.013,21.317c-1.257,2.176-2.634,4.284-3.9,6.458-6.39,11-15.844,18.271-27.628,22.706a149.045,149.045,0,0,1-23.822,6.49,14.008,14.008,0,0,0-6.885,3.322,102.99,102.99,0,0,1-21.2,14.851c-7.039,3.587-12.978,8.785-19.1,13.684-8.093,6.472-16.153,12.984-24.268,19.429a46.662,46.662,0,0,1-11.668,6.853,25.842,25.842,0,0,0-3.721,1.984c-2.063,1.254-4.158,2.475-6.1,3.895a50.5,50.5,0,0,1-22.426,9.049A60.155,60.155,0,0,0,351.96,567.3c-12.23,4.421-24.9,7.152-37.521,10.109a10.2,10.2,0,0,1-2.7.157c-12.067-.485-24.208-1.065-35.836-4.375-13.764-3.917-27.841-6.26-41.745-9.446-4.292-.983-8.761-1.181-13.14-1.8-4.88-.684-9.747-1.463-14.628-2.135a14.677,14.677,0,0,0-3.586-.066c-10.895,1.209-21.776,2.55-32.678,3.684a110.617,110.617,0,0,1-23.491-.461c-9.695-1.06-19.4-2.171-29.019-3.748-11.637-1.908-21.823-7.427-31.5-13.914a102.587,102.587,0,0,1-28.684-29.04c-7.919-12.059-13.774-25.342-15.244-39.934a80.7,80.7,0,0,1,.652-18.33c1-7.654,2.772-15.21,4.314-22.788a6.123,6.123,0,0,0-.636-4.567A262.16,262.16,0,0,1,31.346,398.5a12.743,12.743,0,0,0-2.812-4.163A103.063,103.063,0,0,1,11.641,372.8c-5.135-8.964-7.744-18.7-9.669-28.7-2.511-13.061-2.436-26.142-.834-39.316,2.8-23.056,6.939-45.89,10.927-68.755,2.849-16.337,5.306-32.742,8.052-49.1A218.97,218.97,0,0,1,33.552,139.14a92.7,92.7,0,0,1,4.681-9.786c7.665-13.7,15.828-27.092,24.73-40.025a134.606,134.606,0,0,1,14.7-17.961A45.313,45.313,0,0,1,96.7,59.568C114.437,54,132.162,48.352,150.4,44.6a29.957,29.957,0,0,0,15.134-7.444c3.138-2.954,6.718-5.443,10.144-8.085,13.863-10.693,29.561-17.347,46.534-21.3a206.426,206.426,0,0,1,42.659-5.745c1.989-.041,3.958-.7,5.954-.873,5.1-.441,10.219-.77,15.33-1.144M13.651,243.814c.325-.3.849-.537.947-.9q2.992-10.893,5.888-21.812a19.227,19.227,0,0,0,.349-2.077A499.844,499.844,0,0,1,32.1,166.588c4.536-17.227,13.767-31.274,26.671-43.268A339.551,339.551,0,0,1,87.827,99.286c10.337-7.663,20.947-14.957,30.1-24.139,4.461-4.475,9.576-8.293,14.322-12.492a62.027,62.027,0,0,1,11.575-8.1c3.1-1.684,5.684-4.3,8.5-6.508l-.345-.637c-2.608.551-5.261.944-7.816,1.679C128.323,53.649,112.485,58.208,96.7,62.93A35.715,35.715,0,0,0,80.736,72.9,160.5,160.5,0,0,0,68.4,87.332c-10.6,14.455-19.763,29.839-28.431,45.514A78.407,78.407,0,0,0,36.41,140.5,187.156,187.156,0,0,0,24.949,178.54c-2.934,15.7-5.261,31.518-7.926,47.271-1.018,6.021-2.241,12.006-3.371,18.009v2.961l.423-.046q-.213-1.461-.425-2.921M124.507,90.949c-1.256.8-2.581,1.5-3.757,2.4q-72.915,55.8-96.294,144.581a15.068,15.068,0,0,0-.386,6.245c.6,3.973.9,7.99,1.454,11.971,1.04,7.464,1.8,15.015,4.264,22.174,3.863,11.2,8,22.314,12.041,33.456a3.913,3.913,0,0,0,.72.952c0-2.089,0-4.089,0-6.09a271.662,271.662,0,0,1,2.484-33.65q3.09-24.53,6.532-49.015A218.722,218.722,0,0,1,62.31,180.763,221.419,221.419,0,0,1,98.138,116.9c7.02-8.791,15.517-16.02,23.943-23.346.892-.775,1.681-1.668,2.517-2.507l2.032-1.257-.386-.489-1.738,1.645m126.754-44c-4.925.375-12.557.8-20.15,1.593a121.134,121.134,0,0,0-14.55,2.431c-8.226,1.894-16.341,4.269-24.565,6.168a118.745,118.745,0,0,0-36.668,15.748c-11.437,7.2-22.075,15.412-32.6,23.861C104.67,111.239,91.151,129.42,79.72,149.178c-8.064,13.938-13.77,29.05-18.555,44.435-5.249,16.877-7.328,34.378-9.685,51.808-1.427,10.555-2.783,21.123-3.947,31.71-.823,7.486-1.535,15-1.807,22.523-.243,6.714.078,13.457.374,20.177a27.213,27.213,0,0,0,1.374,7.039q5.264,16.35,10.756,32.627a71.444,71.444,0,0,1,3.4,29.743,7.93,7.93,0,0,0,.547,3.5C69.7,411.95,79.271,430.007,92.42,446.033c10.176,12.4,20.945,24.178,34.3,33.326,2.9,1.984,5.559,4.32,8.263,6.573a255.717,255.717,0,0,0,38.926,26.346c7.629,4.278,15.345,8.4,22.989,12.652,6.346,3.531,12.855,6.778,19.88,8.6,10.2,2.652,20.49,4.981,30.794,7.2,5.391,1.163,10.855,2.27,16.436,1.8,3.1-.26,6.2-.682,9.268-1.187a11.453,11.453,0,0,0,3.941-1.3c4.839-2.877,9.6-5.888,14.376-8.871,7.932-4.955,15.73-10.138,23.808-14.841,11.331-6.6,23.245-12.149,36-15.2A224.008,224.008,0,0,1,401.92,495.1c8.241-.062,16.479-.673,24.719-.694,3.2-.009,5.38-1.269,7.74-3.183a492.346,492.346,0,0,0,44.351-41.337c24.406-25.353,39.976-55.185,45.876-89.929,1.212-7.136,1.992-14.4.955-21.61a131.068,131.068,0,0,0-3.381-14.669c-2.9-10.98-5.844-21.962-7.208-33.249a35.955,35.955,0,0,0-4.554-13.216,273.915,273.915,0,0,1-19.557-45c-3.053-9.127-5.236-18.557-7.563-27.912-3.832-15.406-7.678-30.8-12.522-45.934a7.312,7.312,0,0,0-2.424-3.691c-4.865-3.9-9.5-8.116-14.568-11.736-7.5-5.365-13.94-11.823-20.366-18.353q-23.192-23.571-48.346-45.05a49.048,49.048,0,0,0-11-7.338c-17.891-8.4-36.8-13.36-56.156-16.832-10.589-1.9-21.214-3.6-31.836-5.3a222.772,222.772,0,0,0-34.815-3.113M193.75,557.608c-.739-.214-1.471-.46-2.22-.637-14.862-3.518-28.562-9.527-40.722-18.877a23.608,23.608,0,0,0-3.33-2.043,152.263,152.263,0,0,1-34.05-24.242c-5.3-5.073-10.248-10.524-15.605-15.537A267.251,267.251,0,0,1,51.2,438.843c-.354-.587-.762-1.142-1.152-1.723-.252.242-.451.346-.505.5-.2.566-.365,1.145-.509,1.727A134.293,134.293,0,0,0,45.1,463.1c-.289,4.7-.665,9.516-.017,14.141,1.9,13.551,7.234,26.029,14.645,37.32A100.361,100.361,0,0,0,84.6,540.648c9.671,7.048,19.959,12.868,31.762,15.447a140.888,140.888,0,0,0,15.485,2.406c9.491.987,19,2.038,28.522,2.427,11.18.457,22.218-1.656,33.385-3.319M266.374,545.6q-.047-.383-.1-.766c-3.5,0-7.056.39-10.5-.07a290.378,290.378,0,0,1-35.972-7.477,107.2,107.2,0,0,1-25.243-10.547c-10.151-5.736-20.46-11.192-30.554-17.024-18.191-10.51-34.32-23.915-50.436-37.206-13.879-11.446-24.954-25.6-34.959-40.544-6.8-10.159-11.869-21.2-16.819-32.316-.338-.758-.766-1.475-1.385-2.658C59,402.2,57.68,406.813,56.49,411.458c-1.21,4.723-1.837,3.288,1.728,7.045,10.6,11.168,20.906,22.589,30.479,34.653,12.76,16.08,24.319,33.031,36.157,49.783,5.331,7.545,11.135,14.759,16.849,22.026a14.85,14.85,0,0,0,4.161,3.39,262.263,262.263,0,0,0,61.405,26.17c3.021.86,6,1.531,9.178.776a45.985,45.985,0,0,1,5.384-.663c8.789-1.006,17.593-1.9,26.363-3.052,6.417-.844,12.349-3.314,18.181-5.983M154.672,50.47c.955-.267,1.912-.523,2.864-.8,8.015-2.351,16.059-4.734,24.433-5.224,10.838-.635,21.7-.856,32.55-1.273,4.51-.173,9.051-.116,13.521-.646,8.382-.993,16.716-2.389,25.084-3.51,3.581-.48,7.259-.388,10.788-1.084,8.786-1.733,17.57-3.424,26.519-4.007,9.848-.641,19.69-.954,29.453,1.076a9.1,9.1,0,0,0,3.5-.122c4.041-.794,8.049-1.754,12.09-2.547,2.78-.545,5.595-.916,9.046-1.469-6.737-5.024-12.675-9.939-19.964-12.887C309.087,11.716,292.906,8.162,276.537,5.4a28,28,0,0,0-12.808.324,393.612,393.612,0,0,0-53.1,19.7c-15,6.857-30.11,13.471-45.919,18.248a21.138,21.138,0,0,0-10.038,6.794M21.917,251.613l-.415,0c-.247,1.03-.545,2.052-.734,3.093a270.879,270.879,0,0,0-4.4,44.632c-.154,11.188.485,22.22,3.455,33.137C25.4,352.946,32.174,373.011,39.4,392.94c3.87,10.677,3.883,10.674,12.046,18.528a18.547,18.547,0,0,0,1.835,1.334c1.647-6.569,3.22-12.8,4.763-19.033a7.1,7.1,0,0,0-.344-4.41c-1.011-2.619-1.887-5.3-2.644-8.006-4.366-15.6-7.332-31.508-10.106-47.441a93.437,93.437,0,0,0-5.225-19.4c-2.8-6.882-5.27-13.9-7.872-20.858-3.876-10.371-7.293-20.864-8.549-31.94-.383-3.377-.918-6.737-1.383-10.1m412.7,260.454c-8.848,2.223-17.684,4.494-26.547,6.653-5.756,1.4-11.7,2.19-17.3,4.04-13.468,4.448-27.1,8.283-40.858,11.668-9.556,2.351-19.065,5.009-28.984,5.386a22.608,22.608,0,0,0-8.091,2.118c-8.775,3.753-17.542,7.531-26.368,11.163-7.987,3.286-15.938,6.716-24.469,8.436-2.108.425-4.224.81-6.336,1.213l.073.59a256.988,256.988,0,0,0,84.445-6.44,253.539,253.539,0,0,0,94.436-44.826m-151.041,27.9c9.478-.667,18.582-1.375,27.7-1.914a29.032,29.032,0,0,0,9.271-2.324,148.929,148.929,0,0,1,28.9-8.348c10.77-1.991,21.561-3.874,32.313-5.956a95.744,95.744,0,0,0,13.727-3.355c11.759-4.156,21.556-11.527,30.8-19.7a10.816,10.816,0,0,0,.917-1.142c-1.1-.09-1.759-.208-2.417-.188-8.235.25-16.467.694-24.7.749a211.094,211.094,0,0,0-48.068,5.98c-12.464,3-24.123,8.367-35.126,14.9-10.97,6.514-21.63,13.551-32.42,20.368a7.2,7.2,0,0,0-.889.925m-150.337-19.6c-.5-.972-.63-1.307-.83-1.589-6.809-9.595-13.713-19.124-20.424-28.787-16.725-24.08-34.65-47.182-55.094-68.258-.733-.756-1.475-1.5-2.479-2.525-.333,1.042-.459,1.615-.693,2.139-1.194,2.669-.776,5.039.577,7.667,10.036,19.491,21.846,37.755,36.617,54.034,2.161,2.381,4.093,4.968,6.191,7.408a74.725,74.725,0,0,0,6.052,6.712,244.577,244.577,0,0,0,27.014,21.26c.794.541,1.624,1.029,3.068,1.94M466.507,148.111l.446-.287c-.147-.457-.273-.922-.445-1.369a146.994,146.994,0,0,0-12.46-25.726c-4.283-6.8-8.83-13.429-13.162-20.2a11.865,11.865,0,0,0-4.763-4.4c-11.281-5.743-22.566-11.482-33.743-17.422-8.993-4.779-17.487-10.315-24.653-17.687a8.265,8.265,0,0,0-3.021-1.874c-5.94-2.177-11.916-4.259-17.887-6.35a23.847,23.847,0,0,0-2.535-.523c.879.775,1.227,1.116,1.61,1.413,6.191,4.81,12.336,9.682,18.606,14.387a45.408,45.408,0,0,0,7.644,4.738,51.5,51.5,0,0,1,11.812,7.718c6.215,5.416,12.558,10.687,18.746,16.132,17.291,15.215,34.31,30.721,50.1,47.52q1.849,1.967,3.706,3.926m51.65,143.247-.56.194c.506,2.908.863,5.851,1.546,8.717,2.372,9.96,4.839,19.9,7.309,29.835,1.117,4.5,2.123,9.013,1.989,13.671a134.407,134.407,0,0,1-3.536,27.431,168.547,168.547,0,0,1-35.826,70.887c-8.987,10.6-18.983,20.243-28.928,29.928-.6.586-1.16,1.216-1.738,1.826,9.568-5.873,19.665-10.566,29.567-15.629a9.09,9.09,0,0,0,2.936-2.919c9.368-13.232,17.978-26.89,24.1-42,2.146-5.3,5.067-10.283,7.191-15.588a250.621,250.621,0,0,0,13.965-49.513,10.627,10.627,0,0,0-.309-4.419c-2.309-8.74-5.208-17.354-6.972-26.2a78.984,78.984,0,0,0-8.83-22.909c-.616-1.113-1.268-2.206-1.9-3.309M84.556,120.664l.517.5q52.754-55.392,126.661-75.186a5.322,5.322,0,0,0-1.75-.185q-8.736.241-17.472.5c-2.008.061-4.018.132-6.022.271-12.852.892-25.1,4.4-37.122,8.773a15.465,15.465,0,0,0-4.356,2.584c-6.932,5.656-13.773,11.423-20.681,17.108-4.268,3.513-8.928,6.618-12.839,10.485-9.151,9.047-18.093,18.33-23.963,30.031-.885,1.763-1.976,3.422-2.971,5.129M457.012,502.7l-.36-.441c-3.454,1.585-6.988,3.021-10.332,4.811a39.838,39.838,0,0,0-5.292,3.979,264.508,264.508,0,0,1-87.384,45.03,261.185,261.185,0,0,1-64.958,10.742c-5.916.224-11.847.046-17.771.051q-3.758,0-7.515,0c4.522,1.525,9.015,2.928,13.572,4.077,8.6,2.17,17.442,2.744,26.225,3.746a48.84,48.84,0,0,0,18.182-1.358c10.585-2.771,21.269-5.15,31.549-9.017a48.253,48.253,0,0,1,9.609-2.454,47.013,47.013,0,0,0,21.039-8.442c1.7-1.244,3.511-2.346,5.315-3.44a33.143,33.143,0,0,1,4.745-2.615,55.716,55.716,0,0,0,14.1-8.6q13.53-10.85,27.038-21.727a98.127,98.127,0,0,1,17.6-11.575c1.6-.8,3.092-1.836,4.633-2.763M94.75,98.174a6.14,6.14,0,0,0-1,.473c-13.908,10-27.386,20.563-39.119,33.086C46.6,140.3,40,149.945,36.874,161.507c-2.885,10.667-5.635,21.37-8.359,32.079-.81,3.186-1.333,6.444-1.988,9.669l.6.193c.648-1.425,1.33-2.835,1.94-4.276a191.966,191.966,0,0,1,32.216-51.437,183.346,183.346,0,0,0,20.266-27.7c4.262-7.276,8.716-14.441,13.207-21.858m381.1,64.691-.545.3c.189.763.368,1.527.567,2.287,3.081,11.762,6.482,23.451,9.176,35.3,4.7,20.647,11,40.714,20.012,59.9,2.093,4.457,4.351,8.836,6.545,13.244.294.591.66,1.146.993,1.718a1.323,1.323,0,0,0,.4-1.143c-.632-5.388-1.176-10.788-1.933-16.158a462.472,462.472,0,0,0-8.565-45.921c-2.088-8.5-4.481-16.889-8.829-24.611a144.862,144.862,0,0,0-16.443-23.419c-.441-.514-.919-1-1.379-1.494M547.827,392.5l-.543-.17c-1.395,3.085-3.222,6.053-4.1,9.28a109.932,109.932,0,0,1-7.716,19.921c-5.186,10.521-11.954,20-19.049,29.287-10.177,13.319-21.207,25.8-34.615,36.005-.385.293-.709.668-1.525,1.447a144.645,144.645,0,0,0,21.953-6.281c10.914-4.318,19.662-11.239,25.584-21.514,1.506-2.613,3.132-5.158,4.612-7.785a72.211,72.211,0,0,0,8.314-20.934c1.887-9.248,3.605-18.53,5.315-27.813.7-3.794,1.184-7.627,1.765-11.442m-9.342-65.071.494-.054c.13-1.166.284-2.33.388-3.5a260.793,260.793,0,0,0,.661-30.38c-.132-4.7-.55-9.408-1.148-14.073-.637-4.968-1.794-9.869-2.45-14.835-1.063-8.056-1.357-16.225-3.656-24.09-1.744-5.968-2.95-12.179-5.444-17.819-2.95-6.67-7.021-12.845-10.631-19.221a14,14,0,0,0-1.465-1.716,11.335,11.335,0,0,0,.245,1.42,139.853,139.853,0,0,1,7.911,34.828c1.249,12.594,2.266,25.2,2.6,37.837a205.408,205.408,0,0,0,2.034,24.292,34.706,34.706,0,0,0,2.873,10.7c2.278,4.581,4.208,9.335,6.3,14.008.395.883.854,1.736,1.284,2.6M487.915,172.442l-.4.377c.415.653.807,1.323,1.248,1.958a97.8,97.8,0,0,1,15.271,32.884,482.132,482.132,0,0,1,11.809,70.091,18.082,18.082,0,0,0,2.659,8.814c1.508,2.245,2.684,4.714,4.005,7.084.62,1.112,1.236,2.227,2.118,3.815a12.485,12.485,0,0,0,.126-1.425c-.491-5.9-1.3-11.8-1.425-17.714-.236-11.564-.763-23.1-2.039-34.593-.831-7.483-1.388-15.071-3.137-22.356-2.079-8.664-5.328-17.046-8.013-25.567a12.5,12.5,0,0,0-3.2-5.373q-8.661-8.4-17.349-16.765a15.046,15.046,0,0,0-1.677-1.229M505.8,185.082l.447-.37c-1.713-4.806-3.509-9.584-5.12-14.424-3.019-9.068-7.872-17.209-13.4-24.831a241.947,241.947,0,0,0-39.52-42.116c-.873-.742-1.872-1.336-2.812-2a5.469,5.469,0,0,0,1.02,2.884c2.309,3.409,4.71,6.757,6.978,10.193,7.791,11.807,13.555,24.594,18.3,37.879a8.867,8.867,0,0,0,2.175,3.463c8.133,7.479,16.363,14.852,24.533,22.29,2.517,2.291,4.941,4.685,7.407,7.032M26.771,387.863l.565-.22c-.317-1.035-.622-2.074-.954-3.1A262.81,262.81,0,0,1,15.194,333.41c-.986-8.676-1.819-17.378-3.123-26.007-2.223-14.715-2.044-29.424-.612-44.169.244-2.516.5-5.032.75-7.547a12.524,12.524,0,0,0-1.124,3.759c-2.307,15.492-4.63,30.983-6.877,46.484A119.193,119.193,0,0,0,5.5,346.083a81.424,81.424,0,0,0,18.444,38.7c.913,1.053,1.882,2.056,2.825,3.083m514.536-22.842c-.365.2-.485.225-.514.29q-.364.818-.7,1.648c-4.346,10.8-8.577,21.659-14.985,31.485a23.443,23.443,0,0,0-1.565,3.248c-2.552,5.675-5.113,11.347-7.634,17.036q-5.12,11.558-10.175,23.145a16.746,16.746,0,0,0-.616,2.086l.767.6a32.963,32.963,0,0,1,1.945-2.694c6.706-7.615,13.5-15.149,20.142-22.823a89.6,89.6,0,0,0,11.751-17.468,17,17,0,0,0,1.532-4.511,76.265,76.265,0,0,0,1.153-24.851c-.315-2.366-.722-4.72-1.1-7.186M530.551,222.31l.337-.281c-.775-3.731-1.578-7.457-2.322-11.195a183.22,183.22,0,0,0-24.574-61.808,85.43,85.43,0,0,0-12.1-15.355,191.341,191.341,0,0,0-21.048-17.57c-.581-.434-1.227-.781-2.374-1.5,3.8,4.55,7.285,8.437,10.434,12.582,3.219,4.236,6.127,8.709,9.129,13.106,1.812,2.654,3.463,5.422,5.329,8.036a263.93,263.93,0,0,1,32.824,61.835c1.5,4.035,2.912,8.1,4.365,12.15M360.731,35.652c2.255,2.906,4.467,5.847,6.786,8.7a20.772,20.772,0,0,0,3.195,3.166q8.387,6.649,16.873,13.173a23.262,23.262,0,0,0,4.072,2.537,268.8,268.8,0,0,1,34.509,19.721c.7.476,1.46.874,2.192,1.308-18.007-22.485-39.7-39.8-67.627-48.608M366.7,65.668a7.939,7.939,0,0,0-.86-1c-6.454-4.8-12.9-9.6-19.392-14.35a8.178,8.178,0,0,0-2.695-1.269,250.472,250.472,0,0,0-32.825-6.336c-4.223-.526-8.062,1.332-12.06,2.2q-2.336.5-4.7.894c-2.474.408-4.957.768-7.436,1.149,7.248,1.773,14.457,3.09,21.7,4.139A288.863,288.863,0,0,1,349.625,60c5.563,1.658,11.026,3.649,17.075,5.669M221.049,557.531c4.5,1.756,12.037,3.013,17.989,3.11,11.131.183,22.118-.924,32.555-4.965,11.322-4.385,22.484-9.182,33.72-13.79a7.863,7.863,0,0,1,1.136-.284l-.6-.792c-7.789.677-15.571,1.461-23.369,1.987a28.647,28.647,0,0,0-11.071,3.464c-7.369,3.7-14.963,6.943-23.215,8.1-6.062.849-12.17,1.368-18.255,2.059-2.751.312-5.495.684-8.892,1.111M252.657,5.749l-.072-.3c-4.237.54-8.5.952-12.708,1.645a189.064,189.064,0,0,0-34.718,8.731c-13.69,5.034-25.457,13.2-36.535,22.482-.159.134-.19.421-.439,1.014,1.382-.436,2.438-.7,3.438-1.1,9.973-4,20.05-7.766,29.876-12.1,16.276-7.177,32.528-14.376,49.564-19.619a11.824,11.824,0,0,0,1.593-.757M549.64,309.008l-.737.191a39.354,39.354,0,0,1-.021,4.2c-1.054,9.784-2.18,19.56-3.23,29.344a5.478,5.478,0,0,0,.347,2.606c2.488,5.9,3.569,12.12,4.36,18.407.392,3.112.6,6.248.889,9.373a1.934,1.934,0,0,0,.922-1.229c1.318-5.36,2.93-10.67,3.859-16.1,2.254-13.162,2.279-26.21-3.266-38.757-.689-1.559-1.206-3.193-1.82-4.786-.42-1.089-.868-2.166-1.3-3.249M484.8,463.192c-1.6.67-2.6,1.029-3.548,1.5A311.671,311.671,0,0,0,448.4,483.6c-3.768,2.463-7.234,5.389-10.813,8.136a18.553,18.553,0,0,0-1.787,1.871c1.339,0,2.235.067,3.119-.011,6-.53,11.986-1.157,17.989-1.6a6.282,6.282,0,0,0,4.181-2,266.858,266.858,0,0,0,22.2-24.563c.411-.517.742-1.1,1.509-2.245m51.136-48.631-.563-.481c-.321.376-.659.74-.961,1.131a316.7,316.7,0,0,1-31,34.875,10.236,10.236,0,0,0-2.455,4.025,75.018,75.018,0,0,1-12.381,22.26c-.384.5-.711,1.037-1.064,1.557l.561.393c19.28-18.758,36.145-39.329,47.862-63.761m-80.676,80.884-.229-.588c-6.9.536-13.8,1.1-20.7,1.591a6.574,6.574,0,0,0-4.243,1.88,127.891,127.891,0,0,1-21.787,16.6,6.95,6.95,0,0,0-.971,1.035c11.148-2.622,21.77-5.118,32.052-9,6.464-2.442,10.92-7.237,15.882-11.513M327.5,36.478q.024.336.049.673c6.139,1.827,11.556,5.057,16.9,8.451A14.375,14.375,0,0,0,347.738,47c7.156,2.314,14.326,4.587,21.489,6.878.72.23,1.431.488,2.146.734l.385-.549c-2.276-2.492-4.318-5.263-6.878-7.417-4.912-4.134-10.145-7.886-15.184-11.873a4.846,4.846,0,0,0-3.867-1.195c-3.972.548-7.952,1.044-11.916,1.647-2.153.328-4.279.833-6.417,1.258m24.728-6.011a5.372,5.372,0,0,0-.478-.962c-.648-.768-1.3-1.537-2-2.255a81.725,81.725,0,0,0-20.688-15.48,59.847,59.847,0,0,0-11.735-4.605,123.763,123.763,0,0,0-14.773-2.877,89.474,89.474,0,0,0-19.153-1,8.2,8.2,0,0,0,2.137.818c9.646,2.416,19.355,4.608,28.925,7.293,9.946,2.79,19.219,7.1,27.238,13.806,1.7,1.417,3.577,2.611,5.271,4.03a5.238,5.238,0,0,0,5.257,1.235M497.734,456.243l-.593-.5c-3.324,2.344-6.674,4.484-9.219,7.944a224.276,224.276,0,0,1-21.761,25.028c-.591.6-1.111,1.26-2.078,2.366,2.725-.405,4.788-.777,6.866-1a6.365,6.365,0,0,0,3.954-1.964,114.923,114.923,0,0,0,18.4-23.045c1.664-2.833,2.966-5.878,4.433-8.826m45.549-164.008-.7.181c.088,1.7.234,3.39.256,5.086a248.1,248.1,0,0,1-1.546,32.719c-.38,3.162.448,5.791,2.317,8.837.267-1.581.485-2.646.62-3.721.349-2.782.742-5.562.973-8.355.709-8.571,2.107-17.108.963-25.764-.428-3.236-1.981-5.969-2.879-8.983M299.857,41.743a230.4,230.4,0,0,0-33.049-.891c-5.279.2-10.224,1.9-15.3,3.023-.1.022-.146.283-.258.519,2.448,0,4.859-.093,7.261.018a178.944,178.944,0,0,0,19.842.09c7.229-.467,14.406-.991,21.5-2.76M20.2,345.969a8.328,8.328,0,0,0,.006,1.16,276.326,276.326,0,0,0,11.684,44.212c1.152,3.251,3.565,5.035,6.262,7.5L20.2,345.969m525.477,43.688c1.1-3.12,2.6-5.6,2.766-8.158a89.075,89.075,0,0,0-3.066-30.357c-.109-.383-.484-.691-.883-1.236-.332,1.483-.522,2.673-.869,3.816a15.858,15.858,0,0,0-.117,8.854,42.988,42.988,0,0,1,1.282,8c.4,6.084.581,12.183.887,19.079M46.3,173.252a9.5,9.5,0,0,0-.747.9c-9.361,14.535-15.944,30.37-21.75,46.561a15.311,15.311,0,0,0-.2,8.562A304.608,304.608,0,0,1,46.3,173.252m-32.5,113.9c.135-2.275.209-4.555.417-6.823A275.34,275.34,0,0,1,20.385,241.7c.562-2.365.249-4.643-.6-7.615-4.464,17.893-7,35.28-5.981,53.076M50,343.645c2.281,13.025,4.609,25.986,8.719,38.535.747-13.693-4.907-25.932-8.719-38.535M520.933,204.794c-1.307-5.775-12.784-29.2-16.068-32.6.2.752.288,1.226.446,1.676q2.88,8.255,5.782,16.5a6.678,6.678,0,0,0,.707,1.66c3.009,4.248,6.053,8.47,9.133,12.764M36.368,401.952c1.474,5.485,10.148,23.337,12.462,25.83.794-1.246.475-2.4-.082-3.672-2.094-4.778-4.3-9.524-6.057-14.426a14.706,14.706,0,0,0-6.323-7.732M282.416,37.7a4.881,4.881,0,0,0,.588.111c8.423.568,16.845,1.153,25.27,1.684,2.468.155,4.5-1.006,7.027-2.52-11.443-1.712-22.194-.672-32.886.726M531.583,379.636a96.708,96.708,0,0,0,7.865-18.659c.815-2.807-.208-5.084-1.361-7.472q-3.252,13.065-6.5,26.131M362.277,528.3c-11.521,1.608-22.955,3.7-33.85,8.045a300.931,300.931,0,0,0,33.85-8.045m175.369-279.08a8.225,8.225,0,0,0,.007,1.162c1.38,9.613,2.715,19.232,4.2,28.828A46.094,46.094,0,0,0,543.7,285.4l.689-.183c-1.9-12.05-2.778-24.279-6.739-35.994M426.236,112.995c8.994,8.914,16.934,18.964,27.528,26.2a322.949,322.949,0,0,0-27.528-26.2M315.529,40.255,335.1,43.791l.215-.688c-3.154-1.212-6.342-2.341-9.452-3.656a10.753,10.753,0,0,0-10.331.808m90.185,33.971c5.737,5,11.616,9.77,19.209,11.714a131.777,131.777,0,0,0-19.209-11.714m135.7,277.845c1.143-4.59,2.313-8.614-1.009-12.3-1.447,4.163-1.089,8.009,1.009,12.3m-480,96.848.359-.246L51.7,430.527c-1.331,1.2-.655,2.181-.083,3.1q4.43,7.165,8.91,14.3a7.71,7.71,0,0,0,.881.989M537.762,338.334c.137-1.551.762-3.263.314-4.621-1.144-3.462-2.768-6.765-4.2-10.132l-.71.247a83.587,83.587,0,0,0,4.6,14.5M466.206,493.969c-5.649-1.31-7.8,2.488-10.7,4.993l.306.541,10.39-5.534M50.276,420.552l.558.088a19.782,19.782,0,0,0,.81-2.834,2.582,2.582,0,0,0-.373-1.866c-1.289-1.455-2.735-2.771-4.122-4.14l-.413.28,3.539,8.472M192.863,553.6l-14.507-4.369a38.789,38.789,0,0,0,14.507,4.369M395.179,71.189l.417-.408c-3.561-3.624-6.914-5.87-10.1-6.44l9.68,6.848M497.041,451.245a5.53,5.53,0,0,0,3.907-5.822l-3.907,5.822M357.421,37.2c-1.865-3.5-1.865-3.5-4.036-3.134l4.036,3.134" transform="translate(0 -0.005)" fill="#fff"/>
    </g>
  </g>
</svg>
