<svg xmlns="http://www.w3.org/2000/svg" xmlns:xlink="http://www.w3.org/1999/xlink" width="465.27" height="541.903" viewBox="0 0 465.27 541.903">
  <defs>
    <clipPath id="clip-path">
      <rect width="465.27" height="541.903" fill="none"/>
    </clipPath>
    <clipPath id="clip-path-4">
      <rect id="Rectangle_161193" data-name="Rectangle 161193" width="87.502" height="36.07" fill="none"/>
    </clipPath>
    <clipPath id="clip-path-5">
      <rect id="Rectangle_161194" data-name="Rectangle 161194" width="116.468" height="51.924" fill="none"/>
    </clipPath>
    <clipPath id="clip-path-6">
      <rect id="Rectangle_161195" data-name="Rectangle 161195" width="48.939" height="65.302" fill="none"/>
    </clipPath>
    <clipPath id="clip-path-7">
      <rect id="Rectangle_161196" data-name="Rectangle 161196" width="68.616" height="81.173" fill="none"/>
    </clipPath>
    <clipPath id="clip-path-8">
      <rect id="Rectangle_161197" data-name="Rectangle 161197" width="20.502" height="8.681" fill="none"/>
    </clipPath>
    <clipPath id="clip-path-9">
      <rect id="Rectangle_161198" data-name="Rectangle 161198" width="9.092" height="9.911" fill="none"/>
    </clipPath>
    <clipPath id="clip-path-10">
      <rect id="Rectangle_161199" data-name="Rectangle 161199" width="9.382" height="9.608" fill="none"/>
    </clipPath>
    <clipPath id="clip-path-11">
      <rect id="Rectangle_161200" data-name="Rectangle 161200" width="10.162" height="14.505" fill="none"/>
    </clipPath>
    <clipPath id="clip-path-12">
      <rect id="Rectangle_161201" data-name="Rectangle 161201" width="11.895" height="13.516" fill="none"/>
    </clipPath>
    <clipPath id="clip-path-13">
      <rect id="Rectangle_161202" data-name="Rectangle 161202" width="13.777" height="11.148" fill="none"/>
    </clipPath>
    <clipPath id="clip-path-14">
      <rect id="Rectangle_161203" data-name="Rectangle 161203" width="20.933" height="15.325" fill="none"/>
    </clipPath>
    <clipPath id="clip-path-15">
      <rect id="Rectangle_161204" data-name="Rectangle 161204" width="237.859" height="64.15" fill="none"/>
    </clipPath>
    <clipPath id="clip-path-16">
      <rect id="Rectangle_161205" data-name="Rectangle 161205" width="268.548" height="176.884" fill="none"/>
    </clipPath>
    <clipPath id="clip-path-17">
      <rect id="Rectangle_161209" data-name="Rectangle 161209" width="91.148" height="96.032" fill="none"/>
    </clipPath>
    <clipPath id="clip-path-18">
      <rect id="Rectangle_161213" data-name="Rectangle 161213" width="91.148" height="96.034" fill="none"/>
    </clipPath>
    <clipPath id="clip-path-19">
      <rect id="Rectangle_161214" data-name="Rectangle 161214" width="219.696" height="219.068" fill="none"/>
    </clipPath>
    <clipPath id="clip-path-20">
      <rect id="Rectangle_161215" data-name="Rectangle 161215" width="259.885" height="334.393" fill="none"/>
    </clipPath>
    <clipPath id="clip-path-21">
      <rect id="Rectangle_161216" data-name="Rectangle 161216" width="80.666" height="37.04" fill="none"/>
    </clipPath>
    <clipPath id="clip-path-22">
      <rect id="Rectangle_161217" data-name="Rectangle 161217" width="4.962" height="4.955" fill="none"/>
    </clipPath>
    <clipPath id="clip-path-23">
      <rect id="Rectangle_161218" data-name="Rectangle 161218" width="4.168" height="7.62" fill="none"/>
    </clipPath>
    <clipPath id="clip-path-24">
      <rect id="Rectangle_161219" data-name="Rectangle 161219" width="4.17" height="7.62" fill="none"/>
    </clipPath>
    <clipPath id="clip-path-28">
      <rect id="Rectangle_161223" data-name="Rectangle 161223" width="48.629" height="225.661" fill="none"/>
    </clipPath>
    <clipPath id="clip-path-29">
      <rect id="Rectangle_161224" data-name="Rectangle 161224" width="12.74" height="12.727" fill="none"/>
    </clipPath>
    <clipPath id="clip-path-30">
      <rect id="Rectangle_161225" data-name="Rectangle 161225" width="3.779" height="8.838" fill="none"/>
    </clipPath>
    <clipPath id="clip-path-31">
      <rect id="Rectangle_161226" data-name="Rectangle 161226" width="11.83" height="22.001" fill="none"/>
    </clipPath>
    <clipPath id="clip-path-32">
      <rect id="Rectangle_161227" data-name="Rectangle 161227" width="8.112" height="7.318" fill="none"/>
    </clipPath>
    <clipPath id="clip-path-33">
      <rect id="Rectangle_161228" data-name="Rectangle 161228" width="8.112" height="7.32" fill="none"/>
    </clipPath>
    <clipPath id="clip-path-37">
      <rect id="Rectangle_161232" data-name="Rectangle 161232" width="7.118" height="6.318" fill="none"/>
    </clipPath>
    <clipPath id="clip-path-38">
      <rect id="Rectangle_161233" data-name="Rectangle 161233" width="15.484" height="18.629" fill="none"/>
    </clipPath>
    <clipPath id="clip-path-39">
      <rect id="Rectangle_161235" data-name="Rectangle 161235" width="118.001" height="4.602" fill="none"/>
    </clipPath>
  </defs>
  <g id="Repeat_Grid_3" data-name="Repeat Grid 3" clip-path="url(#clip-path)">
    <g id="Group_141968" data-name="Group 141968">
      <g id="Group_141919" data-name="Group 141919" clip-path="url(#clip-path)">
        <g id="Group_141918" data-name="Group 141918">
          <g id="Group_141917" data-name="Group 141917" clip-path="url(#clip-path)">
            <path id="Path_39343" data-name="Path 39343" d="M332.222,269.342s-24.879,14.727-32.655,25.85A47.117,47.117,0,0,1,279.893,310.8l-11.651-5.521.972,12.549c-24.118,9.971-47.856-4.528-53.46-8.363-.823-.554-1.258-.875-1.258-.875-2.027-32.134,39.258-39.493,66.977-45.15,27.684-5.646,50.749,5.9,50.749,5.9" transform="translate(133.048 162.496)" fill="#dbc6ce"/>
            <g id="Group_141811" data-name="Group 141811" transform="translate(348.652 435.766)" opacity="0.2">
              <g id="Group_141810" data-name="Group 141810">
                <g id="Group_141809" data-name="Group 141809" clip-path="url(#clip-path-4)">
                  <path id="Path_39344" data-name="Path 39344" d="M302.654,268.91l-28.712,15.638-4.147-4.054-4.466,4.387s-36.668,8.383-50.177,20.1l13.371-8.67,22.2-10.943,18.214-6.863s23.246-7.641,33.719-9.595" transform="translate(-215.152 -268.91)" fill="#594a42"/>
                </g>
              </g>
            </g>
            <g id="Group_141814" data-name="Group 141814" transform="translate(348.802 431.837)" opacity="0.1">
              <g id="Group_141813" data-name="Group 141813">
                <g id="Group_141812" data-name="Group 141812" clip-path="url(#clip-path-5)">
                  <path id="Path_39345" data-name="Path 39345" d="M331.713,266.486s-24.879,14.727-32.655,25.85a47.117,47.117,0,0,1-19.674,15.607l-11.651-5.521.972,12.549c-24.118,9.971-47.856-4.528-53.46-8.363.8-.029,1.335-.018,1.335-.018,38.657,9.953,44.332-.049,44.332-.049l2.956-15.359,11.632,3.672s12.147-6.493,19.243-15.02c7.085-8.5,36.97-13.348,36.97-13.348" transform="translate(-215.245 -266.485)" fill="#fff"/>
                </g>
              </g>
            </g>
            <path id="Path_39346" data-name="Path 39346" d="M312.777,268.852A305.38,305.38,0,0,0,266.172,282.7c-15.061,5.98-29.869,13.077-42.807,23.073l-2.439,1.847c-.82.609-1.531,1.35-2.3,2.019l-4.544,4.119c-2.828,2.914-5.706,5.78-8.459,8.765-2.308,2.475-4.565,5-6.811,7.526q.523.749,1.073,1.478c2.321-2.624,4.657-5.231,7.043-7.795,2.7-3.011,5.524-5.905,8.3-8.846l4.406-4.106c.749-.669,1.436-1.408,2.236-2.019l2.38-1.855c12.656-10.008,27.312-17.249,42.253-23.369a304.563,304.563,0,0,1,46.309-14.5Z" transform="translate(123.36 166.82)" fill="#f6f6f6"/>
            <path id="Path_39347" data-name="Path 39347" d="M292.837,225.192s-11.945,21.88-12.8,33.551a40.608,40.608,0,0,1-7.7,20.237l-11.068,1.047,6.252,8.869c-13.474,18.02-37.456,17.741-43.3,17.37-.856-.049-1.317-.094-1.317-.094-15.669-22.92,11.68-46.571,29.726-62.984,18.025-16.386,40.208-18,40.208-18" transform="translate(135.415 139.729)" fill="#e3e0e1"/>
            <g id="Group_141817" data-name="Group 141817" transform="translate(359.469 380.668)" opacity="0.2">
              <g id="Group_141816" data-name="Group 141816">
                <g id="Group_141815" data-name="Group 141815" clip-path="url(#clip-path-6)">
                  <path id="Path_39348" data-name="Path 39348" d="M270.766,234.909l-14.382,24.244-4.86-1.176-1.376,5.22s-23.478,22.377-28.321,37.015l6.087-12.321L239.537,270l10.472-13.115s13.858-15.908,20.757-21.974" transform="translate(-221.827 -234.909)" fill="#594a42"/>
                </g>
              </g>
            </g>
            <g id="Group_141820" data-name="Group 141820" transform="translate(359.635 364.921)" opacity="0.1">
              <g id="Group_141819" data-name="Group 141819">
                <g id="Group_141818" data-name="Group 141818" clip-path="url(#clip-path-7)">
                  <path id="Path_39349" data-name="Path 39349" d="M290.546,225.192s-11.945,21.88-12.8,33.551a40.608,40.608,0,0,1-7.7,20.237l-11.068,1.047,6.252,8.869c-13.474,18.02-37.456,17.741-43.3,17.37.579-.374.982-.6.982-.6,33.032-9.666,32.828-19.579,32.828-19.579L251.159,273.4l10.238-2.408s6.138-10.165,7.639-19.613c1.5-9.423,21.51-26.187,21.51-26.187" transform="translate(-221.93 -225.192)" fill="#fff"/>
                </g>
              </g>
            </g>
            <path id="Path_39350" data-name="Path 39350" d="M274,234.87a263.24,263.24,0,0,0-28.432,30.8c-8.525,11.07-16.369,22.857-21.549,35.967l-.993,2.444c-.339.812-.54,1.676-.815,2.512l-1.551,5.054c-.812,3.4-1.679,6.8-2.4,10.224-.619,2.852-1.18,5.716-1.729,8.581q.717.323,1.446.621c.564-2.966,1.146-5.929,1.784-8.88.673-3.421,1.491-6.811,2.251-10.214l1.454-4.986c.261-.825.444-1.676.768-2.481l.946-2.424c4.967-13,12.633-24.821,21.008-35.944a262.96,262.96,0,0,1,27.921-31.16Z" transform="translate(134.353 145.735)" fill="#f6f6f6"/>
            <path id="Path_39351" data-name="Path 39351" d="M133.92,281.509a5.26,5.26,0,0,0-3.523-.788q-13.464.221-26.928.434c-1.667.028-3.614-.076-4.547-1.384a4.128,4.128,0,0,1-.439-2.972c.462-3.471,1.922-6.785,2.259-10.269s-.836-7.487-4.131-9.016c-3.056-1.421-6.759-.219-9.689,1.46s-5.66,3.865-9,4.571c-1.476.314-3.257.216-4.173-.925a4.449,4.449,0,0,1-.736-2.442c-.5-5.367-.527-10.831-2.066-16.012-.8-2.693-2.115-5.414-4.544-6.983s-6.2-1.522-7.979.724c-2.121,2.674-1.575,7.872-5.079,8.177-2.667.232-3.884-2.941-4.96-5.268-2.829-6.125-10.817-9.59-17.576-7.621s-11.392,9.107-10.2,15.712a4.642,4.642,0,0,0,1.63,3.087,6.122,6.122,0,0,0,3.917.663,24.3,24.3,0,0,1,7.349.237c2.376.6,4.636,2.223,5.153,4.511.912,4.025-3.6,7.167-7.53,8.937s-8.618,4.349-8.436,8.474c.152,3.466,3.941,5.809,7.543,6.36s7.328-.073,10.925.5c3.176.506,6.633,2.69,6.331,5.745-.3,3.082-4.043,4.607-7.213,5.33s-6.936,1.761-7.874,4.73c-.643,2.042.384,4.176,1.386,6.074,3.607,6.832,8.2,14.416,16.082,15.972,2.57.509,5.665.491,7.182,2.525a5.691,5.691,0,0,1,.9,3.492c-.019,3.353-1.151,6.612-1.541,9.945s.136,7.073,2.758,9.3c2.886,2.45,7.3,2.27,11.086,1.452,6.072-1.309,11.849-3.883,18.03-4.563,5.109-.564,10.857.592,14.314,3.962a2.574,2.574,0,0,0,1.245,1.515l-.389-.569c.16.2.319.4.463.609a4.9,4.9,0,0,0,5.239-.51c2.084-1.83,2.447-4.782,2.645-7.466q.569-7.776.752-15.57c.052-2.387.113-4.892,1.355-6.971a14.055,14.055,0,0,1,3.693-3.69c5.035-3.883,10.36-7.6,14.118-12.632s5.709-11.762,3.17-17.4a3.979,3.979,0,0,0-.976-1.444" transform="translate(12.676 144.353)" fill="#dbc6ce"/>
            <path id="Path_39352" data-name="Path 39352" d="M96.623,277.347c-1.008,7.953-3.126,14.677-5.382,22.359-.822,2.732-2.1,4.712-3.581,7.853a160.464,160.464,0,0,0-16.668-24.395c.813-2.011,1.578-4.492,2.154-6.487A114.089,114.089,0,0,0,77,258.644l-.068-.008c-.784,6.177-2.86,11.282-4.612,17.247-.627,2.079-1.5,4.069-2.3,6.093q-1.113-1.359-2.24-2.7-7.107-8.282-14.852-15.98c.113-1.178.358-2.505.361-3.657a61.1,61.1,0,0,0-.83-9.681l-.037.006c.491,3.2.178,6.049.154,9.282-.016,1.147-.177,2.283-.285,3.427q-7.222-7.129-14.967-13.7l-.1.122a267.6,267.6,0,0,1,25.21,25.168c-1.044.175-2.081.378-3.131.462-3.226.233-6.049.729-9.272.447l-.006.036a61.177,61.177,0,0,0,9.716.2,32.224,32.224,0,0,0,3.241-.528q2.12,2.428,4.191,4.9,1.714,2.083,3.387,4.2a.4.4,0,0,0,.068.1l0,0q2.842,3.6,5.526,7.328a63.506,63.506,0,0,1-7.61,1.71,97.208,97.208,0,0,1-21.549.51l-.01.081c7.349.752,12.991,1.345,22.144.465,2.543-.245,5.443-.89,8.052-1.327a127.867,127.867,0,0,1,13.069,22.826l1.073,2.44c.368.81.593,1.674.895,2.507l1.706,5.043c.927,3.452,1.911,6.885,2.75,10.36,1.583,6.054,2.995,12.154,4.28,18.279a.766.766,0,0,0,.9.593l.034,0a.773.773,0,0,0,.617-.916q-1.937-9.222-4.307-18.346c-.893-3.476-1.93-6.913-2.909-10.363l-1.808-5.109c-.319-.843-.562-1.718-.945-2.534l-1.123-2.46q-1.266-2.839-2.693-5.589c1.074-2.765,2.591-5.814,3.393-8.6a151.136,151.136,0,0,0,4.594-23.622Z" transform="translate(23.099 154.487)" fill="#f6f6f6"/>
            <g id="Group_141823" data-name="Group 141823" transform="translate(36.625 380.306)" opacity="0.1">
              <g id="Group_141822" data-name="Group 141822">
                <g id="Group_141821" data-name="Group 141821" clip-path="url(#clip-path-8)">
                  <path id="Path_39353" data-name="Path 39353" d="M23.128,241.807s7.09-12.852,19.976-4.025c0,0-9.554-3.461-16.083,2.474s-3.892,1.551-3.892,1.551" transform="translate(-22.601 -234.686)" fill="#fff"/>
                </g>
              </g>
            </g>
            <g id="Group_141826" data-name="Group 141826" transform="translate(72.09 383.427)" opacity="0.1">
              <g id="Group_141825" data-name="Group 141825">
                <g id="Group_141824" data-name="Group 141824" clip-path="url(#clip-path-9)">
                  <path id="Path_39354" data-name="Path 39354" d="M44.486,240.653s8.234-2.847,9.093,5.869c0,0-3.212-17.623-9.093-5.869" transform="translate(-44.486 -236.612)" fill="#fff"/>
                </g>
              </g>
            </g>
            <g id="Group_141829" data-name="Group 141829" transform="translate(37.679 414.754)" opacity="0.1">
              <g id="Group_141828" data-name="Group 141828">
                <g id="Group_141827" data-name="Group 141827" clip-path="url(#clip-path-10)">
                  <path id="Path_39355" data-name="Path 39355" d="M27.652,255.943s-3.617,7.926,4.981,9.608c0,0-17.239-4.87-4.981-9.608" transform="translate(-23.252 -255.944)" fill="#fff"/>
                </g>
              </g>
            </g>
            <g id="Group_141832" data-name="Group 141832" transform="translate(99.63 404.481)" opacity="0.1">
              <g id="Group_141831" data-name="Group 141831">
                <g id="Group_141830" data-name="Group 141830" clip-path="url(#clip-path-11)">
                  <path id="Path_39356" data-name="Path 39356" d="M61.481,251.949s6.937-4.761,9.289-.715-.8,12.875-.8,12.875,1.394-8.336-1.872-10.225-4,3.858-6.618-1.935" transform="translate(-61.481 -249.604)" fill="#fff"/>
                </g>
              </g>
            </g>
            <g id="Group_141835" data-name="Group 141835" transform="translate(46.71 438.203)" opacity="0.1">
              <g id="Group_141834" data-name="Group 141834">
                <g id="Group_141833" data-name="Group 141833" clip-path="url(#clip-path-12)">
                  <path id="Path_39357" data-name="Path 39357" d="M34.613,270.414s-7.639,3.526-5.365,7.616,11.471,5.9,11.471,5.9-7.874-3.066-7.829-6.838,5.362-1.465,1.723-6.676" transform="translate(-28.825 -270.414)" fill="#fff"/>
                </g>
              </g>
            </g>
            <g id="Group_141838" data-name="Group 141838" transform="translate(71.783 477.434)" opacity="0.1">
              <g id="Group_141837" data-name="Group 141837">
                <g id="Group_141836" data-name="Group 141836" clip-path="url(#clip-path-13)">
                  <path id="Path_39358" data-name="Path 39358" d="M48.07,294.623s-6.164,5.725-2.734,8.908,12.737,2.042,12.737,2.042-8.436-.468-9.566-4.069,4.641-3.058-.438-6.881" transform="translate(-44.297 -294.623)" fill="#fff"/>
                </g>
              </g>
            </g>
            <g id="Group_141841" data-name="Group 141841" transform="translate(124.268 427.348)" opacity="0.1">
              <g id="Group_141840" data-name="Group 141840">
                <g id="Group_141839" data-name="Group 141839" clip-path="url(#clip-path-14)">
                  <path id="Path_39359" data-name="Path 39359" d="M76.685,265.19c-.039-.729,17.655-1.475,17.655-1.475s8.18,5.6-1.306,15.325c0,0,4.353-8.817-.112-12.269,0,0-15.686,8.741-16.237-1.582" transform="translate(-76.686 -263.716)" fill="#fff"/>
                </g>
              </g>
            </g>
            <path id="Path_39360" data-name="Path 39360" d="M18.922,122.512C73.2,19.007,157.944-10.633,234.822,5.016c76.755,19.705,168,66.5,212.461,128.074,45.964,55.424-34.513,183.882-218.421,217.6C41.488,379.4-40.114,224.495,18.922,122.512" transform="translate(0 0.68)" fill="#f6f6f6"/>
            <path id="Path_39361" data-name="Path 39361" d="M348.475,44.537V465.424a44.545,44.545,0,0,1-44.538,44.538H223.456c-3.536,0-7,.112-10.381-.839a8.709,8.709,0,0,0-2.2-.295H193.538a8.414,8.414,0,0,0-2.176.295c-3.4.951-6.868.839-10.4.839H100.477a44.544,44.544,0,0,1-44.536-44.538V44.537A44.543,44.543,0,0,1,100.477,0H303.938a44.543,44.543,0,0,1,44.538,44.536" transform="translate(34.711 0.001)" fill="#1b2e36"/>
            <path id="Path_39362" data-name="Path 39362" d="M218.652,499.888a24.358,24.358,0,0,1-6.39-.57,16.353,16.353,0,0,0-4.176-.566H190.749a15.832,15.832,0,0,0-4.035.533,24.526,24.526,0,0,1-6.529.6l-82.5,0a37.293,37.293,0,0,1-37.25-37.25V41.746A37.293,37.293,0,0,1,97.687,4.5H301.149a37.293,37.293,0,0,1,37.25,37.25V462.635a37.293,37.293,0,0,1-37.25,37.25Z" transform="translate(37.501 2.79)" fill="#395b64"/>
            <g id="Group_141844" data-name="Group 141844" transform="translate(90.652 0.003)" opacity="0.2" style="mix-blend-mode: soft-light;isolation: isolate">
              <g id="Group_141843" data-name="Group 141843">
                <g id="Group_141842" data-name="Group 141842" clip-path="url(#clip-path-15)">
                  <path id="Path_39363" data-name="Path 39363" d="M60.235,62.956c5.62-2.919,8.535-8.694,10.681-14.383,2.52-6.688,4.265-13.679,7.454-20.1A32.841,32.841,0,0,1,84.3,19.89a32.08,32.08,0,0,1,9.141-6.153c7.795-3.693,16.535-4.852,25.084-4.977,17.4-.254,34.474,3.677,51.742,5.124a404.118,404.118,0,0,0,40.622,1.386A284.969,284.969,0,0,0,256.7,11.1C269.385,8.809,282.069,5.445,293.8,0H100.477A44.536,44.536,0,0,0,55.941,44.538V64.152a10.44,10.44,0,0,0,4.294-1.2" transform="translate(-55.941 -0.002)" fill="#f2faff"/>
                </g>
              </g>
            </g>
            <g id="Group_141847" data-name="Group 141847" transform="translate(114.642 333.076)" opacity="0.35" style="mix-blend-mode: multiply;isolation: isolate">
              <g id="Group_141846" data-name="Group 141846">
                <g id="Group_141845" data-name="Group 141845" clip-path="url(#clip-path-16)">
                  <path id="Path_39364" data-name="Path 39364" d="M336.715,232.208c-.248,12.413.543,24.863-.131,37.266a223.576,223.576,0,0,1-3.051,24.779c-1.653,9.819-3.951,19.653-8.052,28.764a52.487,52.487,0,0,1-14.785,19.661,54.808,54.808,0,0,1-19.729,9.616c-16.147,4.413-33.471,3.685-49.939,1.805-16.393-1.87-32.539-5.252-48.691-8.532-8.819-1.791-17.68-3.35-26.55-4.848-11.5-1.943-23.111-3.6-34.8-3.687-11.483-.087-23.016,1.455-33.735,5.717-8.987,3.572-17.357,8.819-22.228,17.42a33.264,33.264,0,0,0-4.268,17.206,44.312,44.312,0,0,0,20.538,5.043h80.493c3.528,0,6.986.128,10.382-.823a8.146,8.146,0,0,1,2.18-.3H201.7a8.128,8.128,0,0,1,2.18.3c3.4.951,6.855.823,10.382.823h80.493a44.537,44.537,0,0,0,44.536-44.538V205.541c-1.946,8.721-2.4,17.871-2.577,26.667" transform="translate(-70.745 -205.539)" fill="#1b2e36"/>
                </g>
              </g>
            </g>
            <path id="Path_39365" data-name="Path 39365" d="M296.636,10.221H95.284A29.267,29.267,0,0,0,66.018,39.487v418.3A29.267,29.267,0,0,0,95.284,487.05H296.636A29.267,29.267,0,0,0,325.9,457.784V39.487a29.267,29.267,0,0,0-29.266-29.266" transform="translate(40.964 6.342)" fill="#f6f6f6"/>
            <g id="Group_141850" data-name="Group 141850" transform="translate(237.63 148.926)" opacity="0.5">
              <g id="Group_141849" data-name="Group 141849">
                <g id="Group_141848" data-name="Group 141848" clip-path="url(#clip-path-17)">
                  <path id="Path_39366" data-name="Path 39366" d="M235.012,187.934H149.419a2.779,2.779,0,0,1-2.779-2.777V94.68a2.779,2.779,0,0,1,2.779-2.779h85.593a2.778,2.778,0,0,1,2.778,2.779v90.477a2.778,2.778,0,0,1-2.778,2.777" transform="translate(-146.642 -91.903)" fill="#ccc"/>
                  <rect id="Rectangle_161206" data-name="Rectangle 161206" width="60.579" height="8.326" transform="translate(23 65.717)" fill="#e3e0e1"/>
                  <rect id="Rectangle_161207" data-name="Rectangle 161207" width="30.289" height="8.326" transform="translate(23.001 78.924)" fill="#e3e0e1"/>
                  <rect id="Rectangle_161208" data-name="Rectangle 161208" width="35.529" height="33.39" transform="translate(7.569 8.781)" fill="#e3e0e1"/>
                </g>
              </g>
            </g>
            <g id="Group_141853" data-name="Group 141853" transform="translate(237.63 281.57)" opacity="0.5">
              <g id="Group_141852" data-name="Group 141852">
                <g id="Group_141851" data-name="Group 141851" clip-path="url(#clip-path-18)">
                  <path id="Path_39367" data-name="Path 39367" d="M235.012,269.789H149.419a2.778,2.778,0,0,1-2.779-2.777V176.535a2.779,2.779,0,0,1,2.779-2.779h85.593a2.778,2.778,0,0,1,2.778,2.779v90.477a2.777,2.777,0,0,1-2.778,2.777" transform="translate(-146.642 -173.756)" fill="#ccc"/>
                  <rect id="Rectangle_161210" data-name="Rectangle 161210" width="60.579" height="8.326" transform="translate(23 65.719)" fill="#e3e0e1"/>
                  <rect id="Rectangle_161211" data-name="Rectangle 161211" width="30.289" height="8.326" transform="translate(23.001 78.924)" fill="#e3e0e1"/>
                  <rect id="Rectangle_161212" data-name="Rectangle 161212" width="35.529" height="33.39" transform="translate(7.569 8.781)" fill="#e3e0e1"/>
                </g>
              </g>
            </g>
            <g id="Group_141856" data-name="Group 141856" transform="translate(106.981 16.563)" opacity="0.1" style="mix-blend-mode: multiply;isolation: isolate">
              <g id="Group_141855" data-name="Group 141855">
                <g id="Group_141854" data-name="Group 141854" clip-path="url(#clip-path-19)">
                  <path id="Path_39368" data-name="Path 39368" d="M285.713,10.222H263.935q-98.958,98.96-197.917,197.919V229.29Q175.484,119.374,285.713,10.222" transform="translate(-66.017 -10.22)" fill="#395b64"/>
                </g>
              </g>
            </g>
            <g id="Group_141859" data-name="Group 141859" transform="translate(106.981 16.599)" opacity="0.1" style="mix-blend-mode: multiply;isolation: isolate">
              <g id="Group_141858" data-name="Group 141858">
                <g id="Group_141857" data-name="Group 141857" clip-path="url(#clip-path-20)">
                  <path id="Path_39369" data-name="Path 39369" d="M325.9,84.408V39.473a29.246,29.246,0,0,0-28.587-29.23,6.19,6.19,0,0,1-.773,8.258Q180.85,133.025,66.017,248.413v96.223Q195.852,214.417,325.9,84.408" transform="translate(-66.018 -10.243)" fill="#395b64"/>
                </g>
              </g>
            </g>
            <g id="Group_141862" data-name="Group 141862" transform="translate(300.732 215.01)" opacity="0.35">
              <g id="Group_141861" data-name="Group 141861">
                <g id="Group_141860" data-name="Group 141860" clip-path="url(#clip-path-21)">
                  <path id="Path_39370" data-name="Path 39370" d="M266.247,132.682H191.531c-3.286,0-5.95,2.194-5.95,4.9V164.82c0,2.708,2.664,4.9,5.95,4.9h74.716Z" transform="translate(-185.581 -132.682)" fill="#1b2e36"/>
                </g>
              </g>
            </g>
            <path id="Path_39371" data-name="Path 39371" d="M321.33,129.4h-125.3c-3.285,0-5.949,2.2-5.949,4.9v27.236c0,2.708,2.664,4.9,5.949,4.9h125.3c3.286,0,5.95-2.2,5.95-4.9V134.306c0-2.706-2.664-4.9-5.95-4.9" transform="translate(117.946 80.294)" fill="#e3e0e1"/>
            <path id="Path_39372" data-name="Path 39372" d="M205.167,165.371a21.214,21.214,0,1,1,15.293-6.506,21.062,21.062,0,0,1-15.293,6.506" transform="translate(114.135 76.275)" fill="#fff"/>
            <path id="Path_39373" data-name="Path 39373" d="M223.828,143.443a19.371,19.371,0,1,1-19.37-19.373,19.313,19.313,0,0,1,19.37,19.373" transform="translate(114.843 76.984)" fill="#e36247"/>
            <path id="Path_39374" data-name="Path 39374" d="M216.345,146.588a19.377,19.377,0,0,1-27.921,0,19.37,19.37,0,0,1,27.921,0" transform="translate(116.915 87.27)" fill="#ffbf9f"/>
            <path id="Path_39375" data-name="Path 39375" d="M192.252,132.688c-.846,1.2,1.392,1.538.434,5.119s12.146,5.709,13.38.248c.885-3.92-.455-5.539-5.515-6.159s-7.754.019-8.3.792" transform="translate(119.169 81.685)" fill="#1b2e36"/>
            <path id="Path_39376" data-name="Path 39376" d="M200.84,144.986s-1,2.346-2.779,2.346-3.085-2.3-3.085-2.3l1.134-6.811h3.8Z" transform="translate(120.98 85.767)" fill="#ff9c92"/>
            <g id="Group_141865" data-name="Group 141865" transform="translate(316.308 223.991)" opacity="0.5" style="mix-blend-mode: multiply;isolation: isolate">
              <g id="Group_141864" data-name="Group 141864">
                <g id="Group_141863" data-name="Group 141863" clip-path="url(#clip-path-22)">
                  <path id="Path_39377" data-name="Path 39377" d="M195.528,143.038a4.843,4.843,0,0,0,2.1.053,3.367,3.367,0,0,0,2.53-2.118l-.378-2.75h-3.8l-.779,4.682a2.5,2.5,0,0,0,.335.133" transform="translate(-195.193 -138.224)" fill="#ef8984"/>
                </g>
              </g>
            </g>
            <path id="Path_39378" data-name="Path 39378" d="M205.716,137.5s1.05-4.4-.133-6.01c-3.818-5.184-11.021-2.935-12.295-.1-1.086,2.419-.057,4.86.015,5.868-.473-.052-1.805-.075-1.1,1.442.828,1.774,1.121,2.205,1.546,1.893.713,3.45,2.356,6.95,6.1,6.95,3.659,0,5.074-3.351,5.571-6.732.428.316.719-.113,1.549-1.893.852-1.826-1.257-1.42-1.257-1.42" transform="translate(119.135 79.661)" fill="#ff9c92"/>
            <path id="Path_39379" data-name="Path 39379" d="M200.825,134.274c-.2-1.053-2.455,1.4-2.855.865s.267,2.533-1.633,1.287-.347,2.586-2.175,1.248-4.96-1.339-2.982-3.977,1.813-3.875,4-5.03,1.855.66,4.369-.989,4.411,1.648,5.978.948.285,1.69,2.554,3.34.321,2.656-.57,4.46a1.96,1.96,0,0,1-3.623,0c-.462-1.41-2.688-.214-3.059-2.152" transform="translate(118.233 78.933)" fill="#1b2e36"/>
            <path id="Path_39380" data-name="Path 39380" d="M194.217,134.94c-.2.083,1.484-.724,2.129-.133s-1.663-.063-2.129.133" transform="translate(120.5 83.511)" fill="#1b2e36"/>
            <path id="Path_39381" data-name="Path 39381" d="M199.821,134.94c.2.083-1.484-.724-2.129-.133s1.663-.063,2.129.133" transform="translate(122.595 83.511)" fill="#1b2e36"/>
            <path id="Path_39382" data-name="Path 39382" d="M195.753,137.166a.816.816,0,1,1-.817-.817.817.817,0,0,1,.817.817" transform="translate(120.45 84.603)" fill="#ef8984"/>
            <path id="Path_39383" data-name="Path 39383" d="M199.907,137.166a.816.816,0,1,1-.817-.817.817.817,0,0,1,.817.817" transform="translate(123.028 84.603)" fill="#ef8984"/>
            <path id="Path_39384" data-name="Path 39384" d="M197.788,134.483a11.952,11.952,0,0,0,2.688-.363c.246-.241-.519-.749-1.6-.476s-1.373.831-1.092.839" transform="translate(122.664 82.876)" fill="#1b2e36"/>
            <path id="Path_39385" data-name="Path 39385" d="M196.6,134.483a11.951,11.951,0,0,1-2.688-.363c-.246-.241.519-.749,1.6-.476s1.371.831,1.092.839" transform="translate(120.289 82.876)" fill="#1b2e36"/>
            <path id="Path_39386" data-name="Path 39386" d="M197.135,138.1a.727.727,0,0,1-.556-.2.665.665,0,0,1-.057-.687,5.508,5.508,0,0,0,.237-1.774.172.172,0,0,1,.164-.178.179.179,0,0,1,.178.162,5.8,5.8,0,0,1-.256,1.9c-.034.1-.079.271-.008.352.091.105.36.094.475.071a.17.17,0,0,1,.066.334,1.292,1.292,0,0,1-.243.023" transform="translate(121.9 83.928)" fill="#1b2e36"/>
            <path id="Path_39387" data-name="Path 39387" d="M197.49,139.13a2.4,2.4,0,0,1-1.815-.865.178.178,0,0,1,.008-.22c.052-.057,3.542.057,3.593.117a.178.178,0,0,1,0,.22,2.426,2.426,0,0,1-1.784.749" transform="translate(121.393 85.645)" fill="#1b2e36"/>
            <path id="Path_39388" data-name="Path 39388" d="M192.367,134.5s.154,1.013.4,1-.337-1.149-.4-1" transform="translate(119.362 83.451)" fill="#1b2e36"/>
            <path id="Path_39389" data-name="Path 39389" d="M201.191,134.5s-.156,1.013-.4,1,.335-1.149.4-1" transform="translate(124.551 83.451)" fill="#1b2e36"/>
            <path id="Path_39390" data-name="Path 39390" d="M227.976,140.37l-4.155-.6L221.963,136a.674.674,0,0,0-1.209,0l-1.857,3.763-4.153.6a.675.675,0,0,0-.374,1.151l3.006,2.928-.71,4.137a.674.674,0,0,0,.979.71l3.714-1.953,3.714,1.953a.674.674,0,0,0,.979-.71l-.71-4.137,3-2.928a.674.674,0,0,0-.371-1.151" transform="translate(132.888 84.155)" fill="#fff"/>
            <g id="Group_141868" data-name="Group 141868" transform="translate(347.461 225.87)" opacity="0.35">
              <g id="Group_141867" data-name="Group 141867">
                <g id="Group_141866" data-name="Group 141866" clip-path="url(#clip-path-23)">
                  <path id="Path_39391" data-name="Path 39391" d="M218.58,142.126a1.988,1.988,0,0,0-.206-1.185,1.5,1.5,0,0,0-.413-.389c-.113-.076-.23-.149-.345-.224s-.261-.16-.4-.233a4.311,4.311,0,0,0-.82-.34c-.1-.028-.19-.063-.288-.089s-.193-.045-.292-.062c-.444-.081-.895-.115-1.337-.207l-.066-.013,2.8,2.734-.708,4.135a.672.672,0,0,0,.439.75c.05-.087.1-.173.147-.263a12.3,12.3,0,0,0,1.243-2.951,7.911,7.911,0,0,0,.238-1.664" transform="translate(-214.417 -139.384)" fill="#fa9c70"/>
                </g>
              </g>
            </g>
            <path id="Path_39392" data-name="Path 39392" d="M219.94,139.966a1.394,1.394,0,0,0,.259.5.864.864,0,0,0,.457.224,4.739,4.739,0,0,0,1.267.032c.522-.029,1.045-.016,1.567-.019q1.087,0,2.173-.024a.659.659,0,0,0-.475-.311l-4.153-.6L219.178,136a.66.66,0,0,0-.52-.369,35.353,35.353,0,0,0,1.282,4.335" transform="translate(135.675 84.158)" fill="#ffbf9f"/>
            <path id="Path_39393" data-name="Path 39393" d="M238.9,140.37l-4.153-.6L232.888,136a.674.674,0,0,0-1.209,0l-1.857,3.764-4.153.6a.675.675,0,0,0-.374,1.151l3.006,2.928-.71,4.137a.674.674,0,0,0,.979.71l3.714-1.953L236,149.3a.674.674,0,0,0,.979-.71l-.71-4.137,3.006-2.928a.675.675,0,0,0-.374-1.151" transform="translate(139.666 84.155)" fill="#fff"/>
            <g id="Group_141871" data-name="Group 141871" transform="translate(365.161 225.87)" opacity="0.35">
              <g id="Group_141870" data-name="Group 141870">
                <g id="Group_141869" data-name="Group 141869" clip-path="url(#clip-path-24)">
                  <path id="Path_39394" data-name="Path 39394" d="M229.5,142.126a2,2,0,0,0-.206-1.185,1.486,1.486,0,0,0-.415-.389c-.113-.076-.23-.149-.345-.224s-.261-.16-.4-.233a4.294,4.294,0,0,0-.818-.34c-.1-.028-.19-.063-.288-.089s-.194-.045-.292-.062c-.444-.081-.894-.115-1.337-.207-.023,0-.045-.008-.066-.013l2.8,2.734-.71,4.135a.673.673,0,0,0,.439.75c.05-.087.1-.173.149-.263a12.3,12.3,0,0,0,1.243-2.951,8.018,8.018,0,0,0,.238-1.664" transform="translate(-225.34 -139.384)" fill="#fa9c70"/>
                </g>
              </g>
            </g>
            <path id="Path_39395" data-name="Path 39395" d="M230.863,139.966a1.381,1.381,0,0,0,.259.5.858.858,0,0,0,.457.224,4.794,4.794,0,0,0,1.266.032c.522-.029,1.045-.016,1.567-.019q1.087,0,2.175-.024a.666.666,0,0,0-.476-.311l-4.153-.6L230.1,136a.658.658,0,0,0-.519-.369,35.356,35.356,0,0,0,1.282,4.335" transform="translate(142.453 84.158)" fill="#ffbf9f"/>
            <path id="Path_39396" data-name="Path 39396" d="M249.821,140.37l-4.153-.6L243.811,136a.674.674,0,0,0-1.209,0l-1.857,3.764-4.153.6a.675.675,0,0,0-.374,1.151l3.006,2.928-.71,4.137a.674.674,0,0,0,.979.71l3.714-1.953,3.714,1.953a.674.674,0,0,0,.979-.71l-.71-4.137,3-2.928a.674.674,0,0,0-.373-1.151" transform="translate(146.444 84.155)" fill="#fff"/>
            <g id="Group_141874" data-name="Group 141874" transform="translate(382.864 225.87)" opacity="0.35">
              <g id="Group_141873" data-name="Group 141873">
                <g id="Group_141872" data-name="Group 141872" clip-path="url(#clip-path-23)">
                  <path id="Path_39397" data-name="Path 39397" d="M240.426,142.126a1.988,1.988,0,0,0-.206-1.185,1.5,1.5,0,0,0-.413-.389c-.115-.076-.23-.149-.345-.224s-.261-.16-.4-.233a4.253,4.253,0,0,0-.818-.34c-.1-.028-.19-.063-.287-.089s-.2-.045-.293-.062c-.444-.081-.895-.115-1.337-.207l-.066-.013,2.8,2.734-.71,4.135a.675.675,0,0,0,.441.75c.049-.087.1-.173.147-.263a12.3,12.3,0,0,0,1.243-2.951,7.913,7.913,0,0,0,.238-1.664" transform="translate(-236.265 -139.384)" fill="#fa9c70"/>
                </g>
              </g>
            </g>
            <path id="Path_39398" data-name="Path 39398" d="M241.786,139.966a1.393,1.393,0,0,0,.259.5.864.864,0,0,0,.457.224,4.729,4.729,0,0,0,1.266.032c.523-.029,1.047-.016,1.569-.019q1.087,0,2.173-.024a.662.662,0,0,0-.475-.311l-4.153-.6L241.024,136a.663.663,0,0,0-.52-.369,35.347,35.347,0,0,0,1.282,4.335" transform="translate(149.23 84.158)" fill="#ffbf9f"/>
            <path id="Path_39399" data-name="Path 39399" d="M260.744,140.37l-4.153-.6L254.733,136a.674.674,0,0,0-1.209,0l-1.857,3.764-4.153.6a.675.675,0,0,0-.374,1.151l3.006,2.928-.71,4.137a.674.674,0,0,0,.979.71l3.714-1.953,3.714,1.953a.674.674,0,0,0,.979-.71l-.71-4.137,3-2.928a.674.674,0,0,0-.373-1.151" transform="translate(153.222 84.155)" fill="#fff"/>
            <g id="Group_141877" data-name="Group 141877" transform="translate(400.564 225.87)" opacity="0.35">
              <g id="Group_141876" data-name="Group 141876">
                <g id="Group_141875" data-name="Group 141875" clip-path="url(#clip-path-23)">
                  <path id="Path_39400" data-name="Path 39400" d="M251.349,142.126a1.988,1.988,0,0,0-.206-1.185,1.5,1.5,0,0,0-.413-.389c-.113-.076-.232-.149-.345-.224-.13-.084-.261-.16-.4-.233a4.311,4.311,0,0,0-.82-.34c-.1-.028-.19-.063-.288-.089s-.193-.045-.292-.062c-.444-.081-.895-.115-1.337-.207-.023,0-.044-.008-.066-.013l2.8,2.734-.708,4.135a.672.672,0,0,0,.439.75c.05-.087.1-.173.147-.263a12.3,12.3,0,0,0,1.243-2.951,7.918,7.918,0,0,0,.238-1.664" transform="translate(-247.188 -139.384)" fill="#fa9c70"/>
                </g>
              </g>
            </g>
            <path id="Path_39401" data-name="Path 39401" d="M252.71,139.966a1.391,1.391,0,0,0,.258.5.882.882,0,0,0,.457.224,4.817,4.817,0,0,0,1.269.032c.52-.029,1.044-.016,1.567-.019q1.084,0,2.173-.024a.666.666,0,0,0-.475-.311l-4.153-.6L251.948,136a.662.662,0,0,0-.52-.369,35.074,35.074,0,0,0,1.282,4.335" transform="translate(156.009 84.158)" fill="#ffbf9f"/>
            <path id="Path_39402" data-name="Path 39402" d="M271.667,140.37l-4.153-.6L265.657,136a.674.674,0,0,0-1.209,0l-1.857,3.763-4.153.6a.675.675,0,0,0-.374,1.151l3.006,2.928-.71,4.137a.674.674,0,0,0,.979.71l3.714-1.953,3.714,1.953a.674.674,0,0,0,.979-.71l-.71-4.137,3.006-2.928a.675.675,0,0,0-.374-1.151" transform="translate(159.999 84.155)" fill="#fff"/>
            <g id="Group_141880" data-name="Group 141880" transform="translate(418.265 225.87)" opacity="0.35">
              <g id="Group_141879" data-name="Group 141879">
                <g id="Group_141878" data-name="Group 141878" clip-path="url(#clip-path-24)">
                  <path id="Path_39403" data-name="Path 39403" d="M262.273,142.126a2,2,0,0,0-.206-1.185,1.485,1.485,0,0,0-.415-.389c-.113-.076-.23-.149-.345-.224s-.259-.16-.4-.233a4.3,4.3,0,0,0-.818-.34c-.1-.028-.19-.063-.287-.089s-.2-.045-.293-.062c-.444-.081-.895-.115-1.337-.207l-.066-.013,2.8,2.734-.71,4.135a.673.673,0,0,0,.441.75c.049-.087.1-.173.147-.263a12.3,12.3,0,0,0,1.243-2.951,8.023,8.023,0,0,0,.238-1.664" transform="translate(-258.11 -139.384)" fill="#fa9c70"/>
                </g>
              </g>
            </g>
            <path id="Path_39404" data-name="Path 39404" d="M263.633,139.966a1.394,1.394,0,0,0,.259.5.863.863,0,0,0,.459.224,4.79,4.79,0,0,0,1.266.032c.52-.029,1.044-.016,1.565-.019q1.089,0,2.175-.024a.666.666,0,0,0-.476-.311l-4.153-.6L262.87,136a.658.658,0,0,0-.519-.369,35.448,35.448,0,0,0,1.282,4.335" transform="translate(162.786 84.158)" fill="#ffbf9f"/>
            <path id="Path_39405" data-name="Path 39405" d="M137.328,96.337s31,30.8,22.57,45.207-49.3-42.356-49.3-42.356Z" transform="translate(68.626 59.776)" fill="#f48882"/>
            <path id="Path_39406" data-name="Path 39406" d="M62.633,96.337s-31,30.8-22.57,45.207,49.3-42.356,49.3-42.356Z" transform="translate(23.958 59.776)" fill="#f48882"/>
            <path id="Path_39407" data-name="Path 39407" d="M70.834,320.106s-19.1,13.35-20.248,21.549,31.136-3.051,33.619-10.488-4.393-17.355-13.371-11.061" transform="translate(31.37 197.382)" fill="#1b2e36"/>
            <path id="Path_39408" data-name="Path 39408" d="M78.34,325.257s-19.611,16.57-23.483,11.326c-3.222-4.362,14.755-15.9,14.755-15.9S80,321,78.34,325.257" transform="translate(33.798 198.983)" fill="#395b64"/>
            <path id="Path_39409" data-name="Path 39409" d="M65.369,298.727c-1.12,21.19-1.961,37.305-1.961,37.305s.19,2.317,5.218,3.183c4.886.841,4.558-1.93,4.746-1.933,2-10.253,5.652-23.628,9.426-38.244-5.809-.068-11.619-.19-17.43-.311" transform="translate(39.344 185.357)" fill="#ff9c92"/>
            <path id="Path_39410" data-name="Path 39410" d="M126.492,320.106s19.1,13.35,20.248,21.549S115.6,338.6,113.12,331.167s4.395-17.355,13.372-11.061" transform="translate(69.872 197.382)" fill="#1b2e36"/>
            <path id="Path_39411" data-name="Path 39411" d="M115.115,325.257s19.611,16.57,23.483,11.326c3.222-4.362-14.755-15.9-14.755-15.9s-10.391.311-8.728,4.571" transform="translate(71.316 198.983)" fill="#395b64"/>
            <path id="Path_39412" data-name="Path 39412" d="M126.3,298.727c1.12,21.19,1.961,37.305,1.961,37.305s-.19,2.317-5.216,3.183c-4.887.841-4.56-1.93-4.748-1.933-2-10.253-5.652-23.628-9.426-38.244,5.809-.068,11.619-.19,17.43-.311" transform="translate(67.554 185.357)" fill="#ff9c92"/>
            <path id="Path_39413" data-name="Path 39413" d="M81.4,167.263c6.863,29.676,17.01,74.107,20.859,93.789,7.106,36.349,24.129,144.86,24.33,146.2,0,0,18.156,7.2,21.172-.549,0,0,13.05-212.425,5.124-239.436Z" transform="translate(50.511 103.785)" fill="#395b64"/>
            <g id="Group_141883" data-name="Group 141883" transform="translate(145.327 288.402)" opacity="0.35" style="mix-blend-mode: multiply;isolation: isolate">
              <g id="Group_141882" data-name="Group 141882">
                <g id="Group_141881" data-name="Group 141881" clip-path="url(#clip-path-28)">
                  <path id="Path_39414" data-name="Path 39414" d="M126.452,393.037c-6.843-9.537-9.141-21.948-9.43-33.455-.316-12.653,1.807-25.33.5-37.968-1.407-13.565-2.068-27.237-3.657-40.78-1.47-12.505-7.547-24.45-5.673-37.245,1.437-9.819,6.367-18.164,5.056-28.341a121.251,121.251,0,0,0-5.724-23.687c-1.348-3.93-3.116-9.673-6.125-13.589-2.821,14.184-6.108,28.187-11.716,41.583,3.116,14.017,5.837,26.612,7.448,34.854,7.107,36.348,24.129,144.86,24.33,146.2,0,0,10.5,4.152,16.851,2.734a35.317,35.317,0,0,1-11.859-10.3" transform="translate(-89.681 -177.972)" fill="#1b2e36"/>
                </g>
              </g>
            </g>
            <path id="Path_39415" data-name="Path 39415" d="M55.2,167.263C47.275,194.273,66.544,406.7,66.544,406.7c3.014,7.751,21.172.549,21.172.549.2-1.335,17.223-109.847,24.33-146.2,3.849-19.682,14-64.113,20.859-93.789Z" transform="translate(33.065 103.785)" fill="#395b64"/>
            <path id="Path_39416" data-name="Path 39416" d="M183.99,120.539c-.739-9.647-29.334-35.2-45.383-48.827-7.67-9.05-15.916-14.043-24.337-12.7a29.9,29.9,0,0,0-10.353,3.852l0-.006-.024.019a51.318,51.318,0,0,0-11.617,9.676c-16.2,13.81-43.671,38.529-44.395,47.984-.6,7.892,7.553,9.6,14.385,9.676-12.105,37.359-16.822,79.551-9.874,100.475,7.367,22.185,97.575,20.1,121.474,3.876,12.688-8.615,7.532-59.551-6.694-104.389,7.133.295,17.495-.781,16.816-9.639" transform="translate(29.691 36.483)" fill="#e36247"/>
            <path id="Path_39417" data-name="Path 39417" d="M99.607,68.121s-2.559,6.027-7.135,6.027-7.926-5.9-7.926-5.9l2.912-17.492H97.23Z" transform="translate(52.46 31.494)" fill="#ff9c92"/>
            <g id="Group_141886" data-name="Group 141886" transform="translate(137.916 82.25)" opacity="0.5" style="mix-blend-mode: multiply;isolation: isolate">
              <g id="Group_141885" data-name="Group 141885">
                <g id="Group_141884" data-name="Group 141884" clip-path="url(#clip-path-29)">
                  <path id="Path_39418" data-name="Path 39418" d="M85.968,63.12a12.438,12.438,0,0,0,5.383.138,8.646,8.646,0,0,0,6.495-5.437l-.966-7.064H87.109l-2,12.024a7.186,7.186,0,0,0,.86.339" transform="translate(-85.107 -50.755)" fill="#ef8984"/>
                </g>
              </g>
            </g>
            <path id="Path_39419" data-name="Path 39419" d="M112.128,48.905s2.7-11.3-.342-15.434c-9.8-13.312-28.3-7.535-31.569-.254-2.789,6.213-.149,12.478.036,15.067-1.214-.133-4.636-.191-2.818,3.7,2.126,4.557,2.876,5.664,3.969,4.863C83.233,65.71,87.453,74.7,97.072,74.7c9.4,0,13.03-8.6,14.309-17.287,1.1.813,1.846-.288,3.977-4.857,2.189-4.69-3.23-3.648-3.23-3.648" transform="translate(47.724 15.815)" fill="#ff9c92"/>
            <path id="Path_39420" data-name="Path 39420" d="M80.9,40.9a7.254,7.254,0,0,0,1.747-3.061c.287-.849.692-2.086,1.608-2.458.977-.4,1.794.786,2.437,1.316,1.718,1.416,3.724,2.8,6.062,2.559a1.719,1.719,0,0,1,1.326.149c.749.514,1.371,1.215,2.089,1.771a10.933,10.933,0,0,0,5.051,2.2,45.842,45.842,0,0,0,7.4.269,27.655,27.655,0,0,1,3.589.185c.407-3.555.488-8.06-1.2-10.353-9.8-13.312-28.3-7.535-31.569-.254a16.711,16.711,0,0,0-1.016,9.457A8.392,8.392,0,0,0,80.9,40.9" transform="translate(48.503 15.815)" fill="#ef8984"/>
            <path id="Path_39421" data-name="Path 39421" d="M86.545,48.038a2.1,2.1,0,1,1-2.1-2.1,2.1,2.1,0,0,1,2.1,2.1" transform="translate(51.099 28.507)" fill="#ef8984"/>
            <path id="Path_39422" data-name="Path 39422" d="M97.213,48.038a2.1,2.1,0,1,1-2.1-2.1,2.1,2.1,0,0,1,2.1,2.1" transform="translate(57.719 28.507)" fill="#ef8984"/>
            <path id="Path_39423" data-name="Path 39423" d="M91.771,41.152s6.273-.314,6.9-.933-1.332-1.92-4.1-1.22-3.525,2.133-2.807,2.154" transform="translate(56.785 24.073)" fill="#1b2e36"/>
            <path id="Path_39424" data-name="Path 39424" d="M88.711,41.152s-6.273-.314-6.9-.933S83.14,38.3,85.9,39s3.525,2.133,2.807,2.154" transform="translate(50.687 24.073)" fill="#1b2e36"/>
            <path id="Path_39425" data-name="Path 39425" d="M87.7,42.771A.34.34,0,0,0,87.6,42.4c-2.39-2.111-5.064.078-5.09.1a.34.34,0,1,0,.436.522c.091-.075,2.254-1.833,4.2-.112a.341.341,0,0,0,.546-.138" transform="translate(51.122 25.738)" fill="#1b2e36"/>
            <path id="Path_39426" data-name="Path 39426" d="M97.426,42.771a.34.34,0,0,0-.094-.373c-2.39-2.111-5.064.078-5.09.1a.34.34,0,1,0,.436.522c.092-.075,2.254-1.833,4.2-.112a.341.341,0,0,0,.546-.138" transform="translate(57.159 25.738)" fill="#1b2e36"/>
            <path id="Path_39427" data-name="Path 39427" d="M90.094,50.452a1.861,1.861,0,0,1-1.426-.522,1.712,1.712,0,0,1-.146-1.768A14.228,14.228,0,0,0,89.13,43.6a.438.438,0,0,1,.418-.457.462.462,0,0,1,.457.418,14.9,14.9,0,0,1-.656,4.884c-.086.246-.2.694-.021.9.235.271.922.24,1.219.181a.438.438,0,0,1,.17.859,3.407,3.407,0,0,1-.622.057" transform="translate(54.823 26.773)" fill="#1b2e36"/>
            <path id="Path_39428" data-name="Path 39428" d="M84.032,38.815s6.847.381,9.255-2.155,4.946,10.269,11.031,8.368,7.48,13.82,12.552,11.157,13.312-16.135,5.325-19.859-.888-13.867-13.186-18.177S90.752,34.124,84.032,30.574s-5.325,7.861-10.269,14.455,7.48,11.536,9.635,9.888,4.184-13.82.634-16.1" transform="translate(45.053 10.887)" fill="#1b2e36"/>
            <path id="Path_39429" data-name="Path 39429" d="M77.85,41.208s.4,2.6,1.029,2.575-.865-2.949-1.029-2.575" transform="translate(48.305 25.548)" fill="#1b2e36"/>
            <path id="Path_39430" data-name="Path 39430" d="M100.511,41.208s-.4,2.6-1.031,2.575.865-2.949,1.031-2.575" transform="translate(61.631 25.548)" fill="#1b2e36"/>
            <path id="Path_39431" data-name="Path 39431" d="M79.463,39.523s.9,14.568,5.939,16.945,3.358-1.815,10.169-2.351c5.173-.407,4.96,3.076,7.529,3.085,6.364.026,7.885-17.471,7.885-17.471s1.6,20.825-4.37,22.347c-4.239,1.081-5.876,7.644-11.7,6.955S88.051,63.072,84.486,61.6c-8.018-3.3-5.024-22.079-5.024-22.079" transform="translate(48.966 24.524)" fill="#1b2e36"/>
            <path id="Path_39432" data-name="Path 39432" d="M90.565,53.163c-2.04,0-3.207-2.131-3.256-2.222a43.668,43.668,0,0,1,6.454.3,4.036,4.036,0,0,1-3.2,1.922" transform="translate(54.174 31.579)" fill="#fff"/>
            <path id="Path_39433" data-name="Path 39433" d="M110.4,116.937S91.637,103.716,98.042,92.625c4.332-7.5,9.433-5.117,11.8,1.175,0,0,3.845-9.83,11.87-3.716s-3.531,23.408-11.316,26.853" transform="translate(60.007 54.575)" fill="#ffbf9f"/>
            <path id="Path_39434" data-name="Path 39434" d="M107.183,126.836s-18.762-13.222-12.356-24.312c4.332-7.5,9.433-5.117,11.8,1.175,0,0,3.845-9.83,11.87-3.716s-3.531,23.408-11.316,26.853" transform="translate(58.012 60.718)" fill="#fa9c70"/>
            <path id="Path_39435" data-name="Path 39435" d="M120.369,117.14S104.2,105.748,109.723,96.191c3.734-6.463,8.127-4.409,10.169,1.013,0,0,3.314-8.469,10.229-3.2s-3.043,20.167-9.75,23.136" transform="translate(67.369 57.19)" fill="#ae3b2a"/>
            <path id="Path_39436" data-name="Path 39436" d="M113.621,127.572s-11.736-19.728-1.361-27.239c7.015-5.079,10.7-.823,10.3,5.889,0,0,7.521-7.406,12.353,1.452s-12.776,19.929-21.288,19.9" transform="translate(66.999 60.868)" fill="#ffbf9f"/>
            <path id="Path_39437" data-name="Path 39437" d="M96.357,111.809s-13.431-13.687-6.5-21.838c4.688-5.511,8.521-2.786,9.522,2.74,0,0,4.638-7.5,10.313-1.269s-6.42,18.705-13.335,20.366" transform="translate(54.523 53.957)" fill="#fa9c70"/>
            <path id="Path_39438" data-name="Path 39438" d="M110.04,92.168l3.855,7.811,8.619,1.253-6.237,6.08,1.473,8.585-7.71-4.053-7.71,4.053,1.473-8.585-6.239-6.08,8.621-1.253Z" transform="translate(60.538 57.189)" fill="#fff"/>
            <path id="Path_39439" data-name="Path 39439" d="M120.5,96.388l2.76,5.591,6.169.9-4.464,4.353,1.055,6.145-5.519-2.9-5.518,2.9,1.053-6.145-4.464-4.353,6.169-.9Z" transform="translate(69.228 59.808)" fill="#fa9c70"/>
            <path id="Path_39440" data-name="Path 39440" d="M89.184,90.488s6.868-.779,8.337.557c3.41,3.1,4.278,7.7,3.76,9.06-3.716-4.126-12.1-9.618-12.1-9.618" transform="translate(55.338 56.007)" fill="#ff9c92"/>
            <g id="Group_141889" data-name="Group 141889" transform="translate(152.977 147.275)" opacity="0.2">
              <g id="Group_141888" data-name="Group 141888">
                <g id="Group_141887" data-name="Group 141887" clip-path="url(#clip-path-30)">
                  <path id="Path_39441" data-name="Path 39441" d="M94.809,93.6c-.068-.906-.295-1.81-.3-2.721,3.215,3.1,4.04,7.5,3.533,8.838A35.858,35.858,0,0,0,94.4,96.326a7.008,7.008,0,0,0,.407-2.722" transform="translate(-94.402 -90.883)" fill="#fff"/>
                </g>
              </g>
            </g>
            <path id="Path_39442" data-name="Path 39442" d="M93.148,111.143a28.92,28.92,0,0,1-3.583-1.922l0,0-.011,0c-.057-.032-.358-.185-.8-.413l0,0c-.348-.183-.765-.423-1.206-.692,0,0-5.132-2.69-4.977-4.427a2.036,2.036,0,0,1,1.444-1.993,2.488,2.488,0,0,1-.335-2.721,2.2,2.2,0,0,1,1.995-1.345,2.418,2.418,0,0,1-.178-2.8A3.168,3.168,0,0,1,88.1,93.159S86.6,91.339,89.186,90s5.931,1.3,6.087,1.392c.668.378,1.3.781,1.893,1.191.16.113,8.109,7.214,8.243,7.355,9.708,10.159,85.81,18.631,71.885,45.777-12.013,23.418-73.658-36.374-73.658-36.374s-5.772,3.952-10.488,1.8" transform="translate(51.231 55.608)" fill="#ff9c92"/>
            <g id="Group_141892" data-name="Group 141892" transform="translate(133.797 145.23)" opacity="0.2">
              <g id="Group_141891" data-name="Group 141891">
                <g id="Group_141890" data-name="Group 141890" clip-path="url(#clip-path-31)">
                  <path id="Path_39443" data-name="Path 39443" d="M89.565,109.221l0,0-.01,0c-.057-.032-.36-.185-.8-.413l0,0c-.347-.183-.765-.423-1.2-.692,0,0-5.132-2.69-4.978-4.427a2.036,2.036,0,0,1,1.444-1.993,2.488,2.488,0,0,1-.335-2.721,2.2,2.2,0,0,1,1.995-1.345,2.416,2.416,0,0,1-.177-2.8,3.164,3.164,0,0,1,2.6-1.671S86.6,91.339,89.186,90a4.011,4.011,0,0,1,2.894-.2,4.959,4.959,0,0,0-2.457,2.18,2.3,2.3,0,0,0-.237.8c-.029.319.031.637.031.956,0,.692-.556,1.105-1.019,1.544a4.331,4.331,0,0,0-1.347,1.995,8.3,8.3,0,0,0-.157,1.87,3.179,3.179,0,0,1-.535,1.842,4.927,4.927,0,0,0-.924,1.619,3.232,3.232,0,0,0,.869,2.956,11.485,11.485,0,0,0,1.684,1.475c.768.6,1.546,1.18,2.324,1.763a40.913,40.913,0,0,0,4.084,2.829,12.332,12.332,0,0,1-1.248-.481,28.92,28.92,0,0,1-3.583-1.922" transform="translate(-82.566 -89.621)" fill="#fff"/>
                </g>
              </g>
            </g>
            <path id="Path_39444" data-name="Path 39444" d="M130.433,180.257l-23.029,11.4a6.954,6.954,0,0,1-8.321-3.534L49.418,88.09a6.964,6.964,0,0,1,2.816-9.153l.062-.031L74.677,67.826a5.647,5.647,0,0,1,7.566,2.554l50.742,102.308a5.648,5.648,0,0,1-2.552,7.569" transform="translate(30.214 41.721)" fill="#ffbf9f"/>
            <path id="Path_39445" data-name="Path 39445" d="M72.635,90.423,70.956,85.3l3.27-4.289a.865.865,0,0,0-.69-1.39l-5.393.013L65.076,75.2a.866.866,0,0,0-1.536.227l-1.655,5.132L56.719,82.1a.866.866,0,0,0-.259,1.531l4.37,3.16-.125,5.39a.866.866,0,0,0,1.376.721l4.356-3.181,5.088,1.786a.867.867,0,0,0,1.11-1.087" transform="translate(34.81 46.427)" fill="#fff"/>
            <g id="Group_141895" data-name="Group 141895" transform="translate(90.912 122.195)" opacity="0.35">
              <g id="Group_141894" data-name="Group 141894">
                <g id="Group_141893" data-name="Group 141893" clip-path="url(#clip-path-32)">
                  <path id="Path_39446" data-name="Path 39446" d="M62.651,81.763a2.558,2.558,0,0,0,1.246-.914,1.913,1.913,0,0,0,.211-.7c.024-.173.041-.35.06-.525.023-.2.037-.391.044-.588a5.553,5.553,0,0,0-.078-1.136c-.023-.128-.036-.256-.062-.382s-.06-.25-.1-.373c-.162-.557-.381-1.1-.527-1.656-.008-.028-.015-.057-.021-.084l-1.544,4.789-5.166,1.548a.861.861,0,0,0-.611.933c.128.008.256.016.384.021a15.865,15.865,0,0,0,4.108-.256,10.149,10.149,0,0,0,2.052-.677" transform="translate(-56.101 -75.406)" fill="#fa9c70"/>
                </g>
              </g>
            </g>
            <path id="Path_39447" data-name="Path 39447" d="M64.921,82.093a1.756,1.756,0,0,0-.428.585,1.1,1.1,0,0,0,0,.653,6,6,0,0,0,.685,1.476c.332.583.616,1.194.917,1.794q.627,1.247,1.27,2.487a.858.858,0,0,0,.086-.726l-1.679-5.124,3.27-4.288a.846.846,0,0,0,.128-.81,45.336,45.336,0,0,0-4.255,3.952" transform="translate(39.988 48.486)" fill="#ffbf9f"/>
            <path id="Path_39448" data-name="Path 39448" d="M78.877,102.994,77.2,97.87l3.27-4.289a.865.865,0,0,0-.69-1.39l-5.393.013-3.068-4.435a.866.866,0,0,0-1.536.227l-1.655,5.134L62.96,94.675a.865.865,0,0,0-.258,1.531l4.369,3.16-.125,5.39a.866.866,0,0,0,1.376.721l4.356-3.181,5.088,1.786a.866.866,0,0,0,1.11-1.087" transform="translate(38.683 54.227)" fill="#fff"/>
            <g id="Group_141898" data-name="Group 141898" transform="translate(101.026 142.566)" opacity="0.35">
              <g id="Group_141897" data-name="Group 141897">
                <g id="Group_141896" data-name="Group 141896" clip-path="url(#clip-path-33)">
                  <path id="Path_39449" data-name="Path 39449" d="M68.893,94.336a2.575,2.575,0,0,0,1.246-.914,1.912,1.912,0,0,0,.211-.7c.023-.173.041-.35.06-.525.023-.194.036-.391.042-.587a5.568,5.568,0,0,0-.076-1.138c-.023-.128-.036-.254-.062-.381s-.06-.251-.1-.374c-.162-.556-.381-1.094-.527-1.656-.008-.028-.015-.055-.023-.084l-1.543,4.79L62.96,94.313a.863.863,0,0,0-.611.933c.126.008.256.016.384.021a15.8,15.8,0,0,0,4.108-.256,10.282,10.282,0,0,0,2.052-.676" transform="translate(-62.343 -87.977)" fill="#fa9c70"/>
                </g>
              </g>
            </g>
            <path id="Path_39450" data-name="Path 39450" d="M71.163,94.665a1.756,1.756,0,0,0-.428.585,1.1,1.1,0,0,0,0,.653,5.994,5.994,0,0,0,.685,1.476c.331.583.616,1.193.917,1.792q.627,1.247,1.27,2.487a.854.854,0,0,0,.086-.724l-1.679-5.126,3.27-4.288a.848.848,0,0,0,.13-.809,45.181,45.181,0,0,0-4.257,3.952" transform="translate(43.861 56.287)" fill="#ffbf9f"/>
            <path id="Path_39451" data-name="Path 39451" d="M85.119,115.566l-1.679-5.126,3.27-4.288a.865.865,0,0,0-.69-1.39l-5.393.011L77.56,100.34a.867.867,0,0,0-1.538.227L74.369,105.7,69.2,107.247a.866.866,0,0,0-.259,1.531l4.37,3.16-.125,5.39a.866.866,0,0,0,1.376.721l4.356-3.181,5.088,1.786a.867.867,0,0,0,1.11-1.087" transform="translate(42.556 62.028)" fill="#fff"/>
            <g id="Group_141901" data-name="Group 141901" transform="translate(111.141 162.939)" opacity="0.35">
              <g id="Group_141900" data-name="Group 141900">
                <g id="Group_141899" data-name="Group 141899" clip-path="url(#clip-path-32)">
                  <path id="Path_39452" data-name="Path 39452" d="M75.134,106.906a2.557,2.557,0,0,0,1.246-.914,1.913,1.913,0,0,0,.211-.7c.023-.175.041-.35.06-.525.023-.2.037-.391.042-.588a5.463,5.463,0,0,0-.076-1.138c-.023-.126-.036-.254-.062-.381s-.06-.251-.1-.374c-.162-.556-.381-1.094-.527-1.656-.008-.028-.015-.055-.021-.083l-1.544,4.789L69.2,106.883a.864.864,0,0,0-.611.935c.126.006.256.015.384.019a15.8,15.8,0,0,0,4.108-.256,10.145,10.145,0,0,0,2.052-.676" transform="translate(-68.585 -100.549)" fill="#fa9c70"/>
                </g>
              </g>
            </g>
            <path id="Path_39453" data-name="Path 39453" d="M77.4,107.237a1.756,1.756,0,0,0-.428.585,1.1,1.1,0,0,0,0,.653,6.025,6.025,0,0,0,.685,1.476c.332.583.616,1.194.917,1.794q.627,1.247,1.27,2.486a.853.853,0,0,0,.086-.724l-1.679-5.124,3.27-4.288a.852.852,0,0,0,.13-.81,45.182,45.182,0,0,0-4.257,3.952" transform="translate(47.733 64.087)" fill="#ffbf9f"/>
            <path id="Path_39454" data-name="Path 39454" d="M91.36,128.137l-1.679-5.124,3.27-4.289a.865.865,0,0,0-.69-1.39l-5.393.011L83.8,112.911a.866.866,0,0,0-1.536.227L80.61,118.27l-5.166,1.548a.866.866,0,0,0-.259,1.531l4.37,3.16-.125,5.39a.866.866,0,0,0,1.376.721l4.356-3.181,5.088,1.786a.867.867,0,0,0,1.11-1.087" transform="translate(46.429 69.828)" fill="#fff"/>
            <g id="Group_141904" data-name="Group 141904" transform="translate(121.255 183.31)" opacity="0.35">
              <g id="Group_141903" data-name="Group 141903">
                <g id="Group_141902" data-name="Group 141902" clip-path="url(#clip-path-33)">
                  <path id="Path_39455" data-name="Path 39455" d="M81.376,119.478a2.557,2.557,0,0,0,1.246-.914,1.913,1.913,0,0,0,.211-.7c.024-.173.041-.35.06-.525q.034-.294.044-.588a5.576,5.576,0,0,0-.078-1.138c-.023-.126-.036-.254-.062-.381s-.06-.25-.1-.373c-.162-.557-.381-1.1-.527-1.658-.008-.028-.015-.053-.021-.083l-1.544,4.789-5.166,1.548a.861.861,0,0,0-.611.933q.192.012.384.019a15.724,15.724,0,0,0,4.108-.256,10.045,10.045,0,0,0,2.052-.676" transform="translate(-74.826 -113.119)" fill="#fa9c70"/>
                </g>
              </g>
            </g>
            <path id="Path_39456" data-name="Path 39456" d="M83.646,119.808a1.756,1.756,0,0,0-.428.585,1.1,1.1,0,0,0,0,.653,5.944,5.944,0,0,0,.687,1.476c.331.583.614,1.194.916,1.794q.627,1.247,1.27,2.487a.858.858,0,0,0,.086-.726l-1.677-5.124,3.27-4.288a.854.854,0,0,0,.128-.81,45.605,45.605,0,0,0-4.257,3.952" transform="translate(51.606 71.888)" fill="#ffbf9f"/>
            <path id="Path_39457" data-name="Path 39457" d="M97.6,140.709l-1.679-5.126,3.27-4.288a.865.865,0,0,0-.69-1.39l-5.391.013-3.069-4.435a.866.866,0,0,0-1.536.227l-1.655,5.134-5.166,1.546a.866.866,0,0,0-.259,1.531l4.37,3.16-.125,5.39a.866.866,0,0,0,1.376.721l4.356-3.181,5.088,1.786a.867.867,0,0,0,1.11-1.087" transform="translate(50.302 77.629)" fill="#fff"/>
            <g id="Group_141907" data-name="Group 141907" transform="translate(131.37 203.683)" opacity="0.35">
              <g id="Group_141906" data-name="Group 141906">
                <g id="Group_141905" data-name="Group 141905" clip-path="url(#clip-path-33)">
                  <path id="Path_39458" data-name="Path 39458" d="M87.618,132.051a2.575,2.575,0,0,0,1.246-.914,1.913,1.913,0,0,0,.211-.7c.023-.175.041-.352.06-.527.023-.194.037-.391.042-.587a5.453,5.453,0,0,0-.076-1.138c-.023-.128-.036-.254-.062-.381s-.06-.251-.1-.374c-.162-.556-.381-1.094-.527-1.655-.008-.028-.015-.057-.023-.086l-1.543,4.79-5.166,1.546a.863.863,0,0,0-.611.933c.126.008.256.016.384.021a15.8,15.8,0,0,0,4.108-.256,10.247,10.247,0,0,0,2.052-.676" transform="translate(-81.067 -125.692)" fill="#fa9c70"/>
                </g>
              </g>
            </g>
            <path id="Path_39459" data-name="Path 39459" d="M89.888,132.38a1.756,1.756,0,0,0-.428.585,1.1,1.1,0,0,0,0,.653,5.993,5.993,0,0,0,.685,1.476c.331.583.616,1.193.917,1.792q.627,1.247,1.27,2.487a.854.854,0,0,0,.086-.724l-1.679-5.126,3.27-4.288a.848.848,0,0,0,.13-.809,45.385,45.385,0,0,0-4.257,3.952" transform="translate(55.479 79.688)" fill="#ffbf9f"/>
            <path id="Path_39460" data-name="Path 39460" d="M100.143,117.856s-5.79-3.774-7.7-3.238c-4.439,1.246-7.273,4.962-7.42,6.414,5.169-2.022,15.124-3.176,15.124-3.176" transform="translate(52.753 71.087)" fill="#ff9c92"/>
            <g id="Group_141910" data-name="Group 141910" transform="translate(137.772 185.802)" opacity="0.2">
              <g id="Group_141909" data-name="Group 141909">
                <g id="Group_141908" data-name="Group 141908" clip-path="url(#clip-path-37)">
                  <path id="Path_39461" data-name="Path 39461" d="M90.651,116.957c.467-.778,1.074-1.486,1.486-2.3-4.264,1.327-6.975,4.9-7.119,6.317a36.157,36.157,0,0,1,4.777-1.4,7,7,0,0,1,.856-2.615" transform="translate(-85.019 -114.657)" fill="#fff"/>
                </g>
              </g>
            </g>
            <path id="Path_39462" data-name="Path 39462" d="M119.988,136.789a28.985,28.985,0,0,0,4.064-.112l0,0s0,0,.011,0c.065,0,.4,0,.9-.015h0c.392-.008.872-.036,1.385-.079v0s5.793-.105,6.433-1.729a2.033,2.033,0,0,0-.4-2.427,2.489,2.489,0,0,0,1.518-2.283,2.2,2.2,0,0,0-1.18-2.1,2.419,2.419,0,0,0,1.411-2.421,3.16,3.16,0,0,0-1.58-2.661s2.157-.956.447-3.314-5.884-1.5-6.065-1.483c-.766.039-1.512.115-2.227.216-.193.031-10.481,2.816-10.666,2.883-13.231,4.73-75.722-24.286-75.437,6.223.243,26.32,72.809,2.978,72.809,2.978s3.388,6.121,8.568,6.312" transform="translate(23.957 70.326)" fill="#ff9c92"/>
            <g id="Group_141913" data-name="Group 141913" transform="translate(142.615 188.51)" opacity="0.2">
              <g id="Group_141912" data-name="Group 141912">
                <g id="Group_141911" data-name="Group 141911" clip-path="url(#clip-path-38)">
                  <path id="Path_39463" data-name="Path 39463" d="M93.4,134.821l0,0s0,0,.011,0c.065,0,.4,0,.9-.013l0,0c.392-.008.873-.036,1.387-.078,0,0,5.793-.105,6.433-1.727a2.036,2.036,0,0,0-.4-2.429,2.49,2.49,0,0,0,1.518-2.282,2.2,2.2,0,0,0-1.18-2.1,2.419,2.419,0,0,0,1.411-2.421,3.167,3.167,0,0,0-1.58-2.661s2.157-.954.447-3.312a4.013,4.013,0,0,0-2.5-1.476,4.956,4.956,0,0,1,1.219,3.048,2.33,2.33,0,0,1-.146.822c-.117.3-.314.554-.457.839a2.266,2.266,0,0,0,.219,1.838,4.334,4.334,0,0,1,.311,2.387,8.242,8.242,0,0,1-.7,1.742,3.17,3.17,0,0,0-.347,1.886,4.93,4.93,0,0,1,.1,1.86,3.229,3.229,0,0,1-2.1,2.254,11.451,11.451,0,0,1-2.167.564c-.953.19-1.911.363-2.867.535a40.708,40.708,0,0,1-4.92.7,11.671,11.671,0,0,0,1.332.13,28.745,28.745,0,0,0,4.064-.112" transform="translate(-88.007 -116.328)" fill="#fff"/>
                </g>
              </g>
            </g>
            <rect id="Rectangle_161234" data-name="Rectangle 161234" width="134.209" height="95.716" transform="translate(255.357 419.838)" fill="#ae3b2a"/>
            <path id="Path_39464" data-name="Path 39464" d="M234.883,271.441l8.942-12.359V354.8l-8.942,12.358Z" transform="translate(145.743 160.757)" fill="#e36247"/>
            <path id="Path_39465" data-name="Path 39465" d="M152.062,271.441,161,259.081V354.8l-8.942,12.358Z" transform="translate(94.353 160.757)" fill="#e36247"/>
            <path id="Path_39466" data-name="Path 39466" d="M196.583,290.092s-30.757-13.406-24.85-31.172c3.995-12.013,12-10.1,17.244-1.792,0,0,2.612-15.205,15.9-8.814s1.836,34.554-8.294,41.778" transform="translate(106.091 153.104)" fill="#ffbf9f"/>
            <path id="Path_39467" data-name="Path 39467" d="M194.892,305.211s-30.757-13.406-24.85-31.172c3.995-12.013,12-10.1,17.244-1.792,0,0,2.612-15.2,15.9-8.814s1.838,34.554-8.294,41.778" transform="translate(105.042 162.485)" fill="#fa9c70"/>
            <path id="Path_39468" data-name="Path 39468" d="M211.052,287.133s-26.5-11.551-21.41-26.856c3.44-10.352,10.335-8.705,14.857-1.546,0,0,2.249-13.1,13.7-7.594s1.582,29.772-7.145,36" transform="translate(117.268 154.99)" fill="#ae3b2a"/>
            <path id="Path_39469" data-name="Path 39469" d="M204.167,303.274s-22.609-24.789-9.969-38.6c8.548-9.339,15.077-4.33,16.474,5.4,0,0,8.589-12.815,18.114-1.559s-12.423,32.295-24.618,34.758" transform="translate(118.115 161.151)" fill="#ffbf9f"/>
            <path id="Path_39470" data-name="Path 39470" d="M175.082,285.519s-23.259-15.639-15.735-29.35c5.087-9.272,11.377-6.5,14.439,1.118,0,0,4.432-12.1,14.392-4.853s-3.685,28.671-13.1,33.086" transform="translate(97.943 155.197)" fill="#fa9c70"/>
            <path id="Path_39471" data-name="Path 39471" d="M188.722,253.89l7.819,10.049,12.711-.745-7.14,10.543,4.636,11.857-12.233-3.533-9.844,8.073-.42-12.726L173.53,270.54l11.972-4.332Z" transform="translate(107.674 157.536)" fill="#fff"/>
            <path id="Path_39472" data-name="Path 39472" d="M205.229,256.451l5.6,7.192,9.1-.533-5.111,7.545,3.319,8.488-8.755-2.53-7.048,5.779-.3-9.107-7.673-4.917,8.569-3.1Z" transform="translate(120.596 159.126)" fill="#fa9c70"/>
            <path id="Path_39473" data-name="Path 39473" d="M207.724,286.707s-20.562-26.511-6.86-39.269c9.264-8.627,15.372-3.113,15.991,6.694,0,0,9.582-12.089,18.179-.109s-14.956,31.2-27.31,32.684" transform="translate(121.712 150.874)" fill="#ffbf9f"/>
            <path id="Path_39474" data-name="Path 39474" d="M198.99,299.164s-20.562-26.511-6.86-39.269c9.264-8.628,15.372-3.113,15.991,6.694,0,0,9.582-12.089,18.179-.109s-14.955,31.2-27.31,32.684" transform="translate(116.293 158.604)" fill="#fa9c70"/>
            <path id="Path_39475" data-name="Path 39475" d="M221.315,291.406S203.6,268.563,215.4,257.571c7.984-7.433,13.246-2.682,13.779,5.767,0,0,8.256-10.417,15.664-.094s-12.886,26.884-23.531,28.161" transform="translate(131.139 157.53)" fill="#ae3b2a"/>
            <path id="Path_39476" data-name="Path 39476" d="M208.312,302.565s-7.955-32.594,9.76-38.65c11.979-4.1,15.306,3.431,11.867,12.637,0,0,13.682-7.129,16.642,7.317s-26.385,22.384-38.27,18.7" transform="translate(128.151 163.046)" fill="#ffbf9f"/>
            <path id="Path_39477" data-name="Path 39477" d="M217.457,250.967l2.043,12.567,11.512,5.442L219.691,274.8l-1.617,12.628-9.041-8.966-12.512,2.364,5.735-11.368-6.116-11.168,12.585,1.94Z" transform="translate(121.703 155.723)" fill="#fff"/>
            <path id="Path_39478" data-name="Path 39478" d="M229.845,261.923l1.463,9,8.239,3.894-8.1,4.171-1.157,9.039-6.472-6.417-8.953,1.692,4.1-8.136-4.377-7.994,9.007,1.389Z" transform="translate(133.15 162.521)" fill="#fa9c70"/>
            <g id="Group_141916" data-name="Group 141916" transform="translate(259.573 427.868)" opacity="0.2">
              <g id="Group_141915" data-name="Group 141915">
                <g id="Group_141914" data-name="Group 141914" clip-path="url(#clip-path-39)">
                  <path id="Path_39479" data-name="Path 39479" d="M163.859,268.375l-3.677-4.338h40.269l-1.222,1.888,78.954-1.881-1.154,4.6Z" transform="translate(-160.182 -264.036)" fill="#21264c"/>
                </g>
              </g>
            </g>
            <rect id="Rectangle_161236" data-name="Rectangle 161236" width="134.209" height="95.714" transform="translate(246.417 432.198)" fill="#fa9c70"/>
            <path id="Path_39480" data-name="Path 39480" d="M303.762,41.54H145.329a26.788,26.788,0,0,0,0,53.575H303.762a26.788,26.788,0,0,0,0-53.575" transform="translate(73.554 25.775)" fill="#fa9c70"/>
            <path id="Path_39481" data-name="Path 39481" d="M145.963,75.028V53.741h-2.87V50.51h9.349v3.231h-2.76V75.028Z" transform="translate(88.788 31.341)" fill="#fff"/>
            <path id="Path_39482" data-name="Path 39482" d="M151.9,75.028V50.51h3.734v9.919h3.343V50.51h3.734V75.028h-3.734v-11.4h-3.343v11.4Z" transform="translate(94.249 31.341)" fill="#fff"/>
            <path id="Path_39483" data-name="Path 39483" d="M161.909,75.029l3.5-24.52h4.933l3.719,24.52h-3.482l-.585-4.375h-3.957l-.528,4.375Zm7.689-7.37-1.643-12.316H167.9l-1.5,12.316Z" transform="translate(100.463 31.34)" fill="#fff"/>
            <path id="Path_39484" data-name="Path 39484" d="M172.748,75.028V50.51h2.925l5.2,14.711-.264-6.688V50.51h3.358V75.028h-2.648L175.979,59.8l.209,6.435v8.791Z" transform="translate(107.188 31.341)" fill="#fff"/>
            <path id="Path_39485" data-name="Path 39485" d="M183.7,75.028V50.51h3.734V61.793l3.734-11.283h3.858L190.956,62.6l4.388,12.426H191.4l-3.943-11.452V75.028Z" transform="translate(113.983 31.341)" fill="#fff"/>
            <path id="Path_39486" data-name="Path 39486" d="M201.766,75.028V65.234l-4.11-14.724h3.567l2.424,9.165h.055l2.16-9.165h3.552L205.5,65.234v9.794Z" transform="translate(122.644 31.341)" fill="#fff"/>
            <path id="Path_39487" data-name="Path 39487" d="M217.252,73.649a4.721,4.721,0,0,1-4.1,1.77,4.814,4.814,0,0,1-4.137-1.776,8.982,8.982,0,0,1-1.316-5.357V57.072q0-6.743,5.5-6.743a4.714,4.714,0,0,1,4.088,1.713,8.5,8.5,0,0,1,1.246,5.03V68.286a9.145,9.145,0,0,1-1.282,5.364m-5.468-2.312a1.476,1.476,0,0,0,2.682-.021,9.648,9.648,0,0,0,.321-2.988V56.9a7.242,7.242,0,0,0-.327-2.543,1.256,1.256,0,0,0-1.282-.8,1.362,1.362,0,0,0-1.339.8,6.22,6.22,0,0,0-.382,2.528V68.328a9.434,9.434,0,0,0,.327,3.009" transform="translate(128.873 31.229)" fill="#fff"/>
            <path id="Path_39488" data-name="Path 39488" d="M227.676,73.718a6.111,6.111,0,0,1-8.24-.006,7.881,7.881,0,0,1-1.288-4.973V50.5h3.734V68.668a8.452,8.452,0,0,0,.182,2.355,3.619,3.619,0,0,0,.438.758,1.3,1.3,0,0,0,1.066.342,1.344,1.344,0,0,0,1.157-.475,2.391,2.391,0,0,0,.425-1.176,17.545,17.545,0,0,0,.076-1.8V50.5h3.734V68.738a7.91,7.91,0,0,1-1.282,4.98" transform="translate(135.359 31.335)" fill="#fff"/>
            <path id="Path_39489" data-name="Path 39489" d="M265.234,309.89c-2.4,4.57-6.138,5.879-9.532,5.187-3.39-.87-7.419-2.936-9.381-5.654-2.029-2.447,1.523-8.119,9.644-9.608,8.273-1.267,11.875,5.571,9.269,10.075" transform="translate(152.493 185.937)" fill="#e3e0e1"/>
            <path id="Path_39490" data-name="Path 39490" d="M49.579,230.245c-1.823,3.478-4.672,4.474-7.255,3.947-2.578-.661-5.644-2.235-7.138-4.3-1.544-1.862,1.16-6.179,7.339-7.312,6.3-.966,9.037,4.239,7.054,7.667" transform="translate(21.568 138.035)" fill="#e3e0e1"/>
          </g>
        </g>
      </g>
    </g>
  </g>
</svg>
